<svg xmlns="http://www.w3.org/2000/svg" xmlns:xlink="http://www.w3.org/1999/xlink" width="1030" height="477.647" viewBox="0 0 1030 477.647">
  <defs>
    <linearGradient id="linear-gradient" x1="0.5" x2="0.5" y2="1" gradientUnits="objectBoundingBox">
      <stop offset="0" stop-color="#f9fef5"/>
      <stop offset="1" stop-color="#e7f7f8"/>
    </linearGradient>
    <clipPath id="clip-path">
      <rect id="Rectángulo_376597" data-name="Rectángulo 376597" width="254" height="243.396" fill="none"/>
    </clipPath>
    <clipPath id="clip-path-3">
      <rect id="Rectángulo_376592" data-name="Rectángulo 376592" width="125.301" height="151.144" fill="none"/>
    </clipPath>
    <clipPath id="clip-path-4">
      <rect id="Rectángulo_376593" data-name="Rectángulo 376593" width="88.333" height="106.552" fill="none"/>
    </clipPath>
    <clipPath id="clip-path-5">
      <rect id="Rectángulo_376594" data-name="Rectángulo 376594" width="57.946" height="69.897" fill="none"/>
    </clipPath>
    <clipPath id="clip-path-6">
      <rect id="Rectángulo_376595" data-name="Rectángulo 376595" width="115.909" height="162.532" fill="none"/>
    </clipPath>
    <clipPath id="clip-path-7">
      <rect id="Rectángulo_376609" data-name="Rectángulo 376609" width="188" height="46.865" fill="#2f70a8"/>
    </clipPath>
    <clipPath id="clip-path-8">
      <rect id="Rectángulo_376657" data-name="Rectángulo 376657" width="75.402" height="74.605" fill="#12263f"/>
    </clipPath>
    <clipPath id="clip-path-9">
      <rect id="Rectángulo_376658" data-name="Rectángulo 376658" width="75.402" height="58.917" fill="#12263f"/>
    </clipPath>
    <clipPath id="clip-path-10">
      <rect id="Rectángulo_376659" data-name="Rectángulo 376659" width="67.297" height="62.353" fill="#12263f"/>
    </clipPath>
    <clipPath id="clip-path-11">
      <rect id="Rectángulo_376660" data-name="Rectángulo 376660" width="61.106" height="61.119" fill="none"/>
    </clipPath>
    <clipPath id="clip-path-12">
      <rect id="Rectángulo_376661" data-name="Rectángulo 376661" width="30.823" height="30.827" fill="none"/>
    </clipPath>
  </defs>
  <g id="Grupo_1072705" data-name="Grupo 1072705" transform="translate(-285 -6421)">
    <g id="Grupo_1070977" data-name="Grupo 1070977" transform="translate(0 -3)">
      <path id="Trazado_823219" data-name="Trazado 823219" d="M0,0H1030V477.647H0Z" transform="translate(285 6424)" fill="url(#linear-gradient)"/>
      <path id="Trazado_828269" data-name="Trazado 828269" d="M12,0H283a12,12,0,0,1,12,12V84a12,12,0,0,1-12,12H12A12,12,0,0,1,0,84V12A12,12,0,0,1,12,0Z" transform="translate(653 6451)" fill="#1b3f5e"/>
      <path id="Trazado_828270" data-name="Trazado 828270" d="M11.32-4.333a4.673,4.673,0,0,1-.721,2.36A4.35,4.35,0,0,1,8.75-.387a6.3,6.3,0,0,1-2.72.563A5.025,5.025,0,0,1,2.057-1.468,6.786,6.786,0,0,1,.606-6.108v-.633a7.746,7.746,0,0,1,.655-3.292,4.961,4.961,0,0,1,1.885-2.18,5.26,5.26,0,0,1,2.848-.769,5.516,5.516,0,0,1,3.744,1.226,4.844,4.844,0,0,1,1.608,3.379H8.271a2.292,2.292,0,0,0-.589-1.679,2.422,2.422,0,0,0-1.687-.51A1.843,1.843,0,0,0,4.307-9.7a5.536,5.536,0,0,0-.562,2.751v.905A6.125,6.125,0,0,0,4.258-3.12a1.882,1.882,0,0,0,1.771.879,2.369,2.369,0,0,0,1.626-.5,2.126,2.126,0,0,0,.6-1.591Zm.949-.51a5.613,5.613,0,0,1,.554-2.536,3.96,3.96,0,0,1,1.591-1.709,4.791,4.791,0,0,1,2.435-.6,4.373,4.373,0,0,1,3.366,1.323,5.076,5.076,0,0,1,1.23,3.6v.105A4.925,4.925,0,0,1,20.21-1.129,4.384,4.384,0,0,1,16.866.176a4.434,4.434,0,0,1-3.261-1.217,4.761,4.761,0,0,1-1.327-3.3Zm2.962.185a3.538,3.538,0,0,0,.413,1.934,1.376,1.376,0,0,0,1.222.615q1.582,0,1.617-2.435v-.3q0-2.558-1.635-2.558-1.485,0-1.608,2.206ZM25.55-9.51l.1,1.116a3.27,3.27,0,0,1,2.716-1.292A2.407,2.407,0,0,1,30.8-8.253a3.165,3.165,0,0,1,2.795-1.433q2.892,0,2.971,3.5V0H33.592V-6a1.813,1.813,0,0,0-.246-1.063,1.048,1.048,0,0,0-.9-.334,1.4,1.4,0,0,0-1.31.782l.009.123V0H28.178V-5.985a1.906,1.906,0,0,0-.237-1.081,1.045,1.045,0,0,0-.905-.334,1.42,1.42,0,0,0-1.3.782V0H22.772V-9.51ZM47.083-4.685a5.735,5.735,0,0,1-1,3.538A3.2,3.2,0,0,1,43.392.176a2.742,2.742,0,0,1-2.153-.958V3.656H38.276V-9.51h2.769l.088.879a2.742,2.742,0,0,1,2.241-1.055,3.224,3.224,0,0,1,2.733,1.3,5.805,5.805,0,0,1,.976,3.564Zm-2.962-.185q0-2.531-1.477-2.531a1.394,1.394,0,0,0-1.406.756V-2.9a1.439,1.439,0,0,0,1.424.791q1.415,0,1.459-2.443Zm3.894.026a5.613,5.613,0,0,1,.554-2.536,3.96,3.96,0,0,1,1.591-1.709,4.791,4.791,0,0,1,2.435-.6A4.373,4.373,0,0,1,55.96-8.363a5.076,5.076,0,0,1,1.23,3.6v.105a4.925,4.925,0,0,1-1.235,3.529A4.384,4.384,0,0,1,52.611.176a4.434,4.434,0,0,1-3.261-1.217,4.761,4.761,0,0,1-1.327-3.3Zm2.962.185a3.538,3.538,0,0,0,.413,1.934,1.376,1.376,0,0,0,1.222.615q1.582,0,1.617-2.435v-.3q0-2.558-1.635-2.558-1.485,0-1.608,2.206Zm12.5,1.986a.684.684,0,0,0-.4-.606,6.016,6.016,0,0,0-1.5-.475A6.853,6.853,0,0,1,59.748-4.4a3.062,3.062,0,0,1-1.1-.971,2.319,2.319,0,0,1-.378-1.31,2.628,2.628,0,0,1,1.081-2.158,4.453,4.453,0,0,1,2.83-.848,4.934,4.934,0,0,1,3.023.853,2.666,2.666,0,0,1,1.143,2.241H63.378q0-1.143-1.2-1.143a1.194,1.194,0,0,0-.782.259.8.8,0,0,0-.316.646.737.737,0,0,0,.387.642,3.654,3.654,0,0,0,1.235.4,10.671,10.671,0,0,1,1.49.378A2.706,2.706,0,0,1,66.331-2.76,2.491,2.491,0,0,1,65.175-.642a5.068,5.068,0,0,1-2.993.817A5.172,5.172,0,0,1,60-.264a3.645,3.645,0,0,1-1.494-1.2,2.707,2.707,0,0,1-.536-1.591h2.769a1.145,1.145,0,0,0,.439.962,1.808,1.808,0,0,0,1.081.3,1.422,1.422,0,0,0,.91-.246A.787.787,0,0,0,63.475-2.672ZM70.84,0H67.869V-9.51H70.84ZM67.693-11.962A1.322,1.322,0,0,1,68.15-13a1.724,1.724,0,0,1,1.187-.4,1.724,1.724,0,0,1,1.187.4,1.322,1.322,0,0,1,.457,1.037,1.322,1.322,0,0,1-.457,1.037,1.724,1.724,0,0,1-1.187.4,1.724,1.724,0,0,1-1.187-.4A1.322,1.322,0,0,1,67.693-11.962Zm8.991,9.853a1.317,1.317,0,0,0,.967-.338,1.241,1.241,0,0,0,.334-.945h2.777A3.288,3.288,0,0,1,79.642-.826a4.168,4.168,0,0,1-2.887,1,4.22,4.22,0,0,1-3.27-1.3,5.125,5.125,0,0,1-1.2-3.6v-.123A5.792,5.792,0,0,1,72.822-7.4a3.872,3.872,0,0,1,1.534-1.7,4.573,4.573,0,0,1,2.373-.593,4.116,4.116,0,0,1,2.944,1.028,3.647,3.647,0,0,1,1.09,2.786H77.985A1.626,1.626,0,0,0,77.625-7a1.244,1.244,0,0,0-.967-.4q-1.151,0-1.345,1.468a10.357,10.357,0,0,0-.062,1.283,4.068,4.068,0,0,0,.343,1.986A1.187,1.187,0,0,0,76.685-2.109ZM85.14,0H82.169V-9.51H85.14ZM81.993-11.962A1.322,1.322,0,0,1,82.45-13a1.724,1.724,0,0,1,1.187-.4,1.724,1.724,0,0,1,1.187.4,1.322,1.322,0,0,1,.457,1.037,1.322,1.322,0,0,1-.457,1.037,1.724,1.724,0,0,1-1.187.4,1.724,1.724,0,0,1-1.187-.4A1.322,1.322,0,0,1,81.993-11.962Zm4.6,7.119a5.613,5.613,0,0,1,.554-2.536,3.96,3.96,0,0,1,1.591-1.709,4.791,4.791,0,0,1,2.435-.6,4.373,4.373,0,0,1,3.366,1.323,5.076,5.076,0,0,1,1.23,3.6v.105a4.925,4.925,0,0,1-1.235,3.529A4.384,4.384,0,0,1,91.187.176a4.434,4.434,0,0,1-3.261-1.217,4.761,4.761,0,0,1-1.327-3.3Zm2.962.185a3.538,3.538,0,0,0,.413,1.934,1.376,1.376,0,0,0,1.222.615q1.582,0,1.617-2.435v-.3Q92.8-7.4,91.169-7.4q-1.485,0-1.608,2.206ZM91.573-13.5H94.7l-2.443,2.76-2.417,0Zm8.218,3.99.1,1.116A3.225,3.225,0,0,1,102.6-9.686a2.713,2.713,0,0,1,2.219.888,4.226,4.226,0,0,1,.76,2.672V0h-2.971V-6a1.6,1.6,0,0,0-.29-1.059,1.342,1.342,0,0,0-1.055-.338,1.413,1.413,0,0,0-1.292.686V0H97.014V-9.51Zm11.54,4.685a5.809,5.809,0,0,1,.976-3.56,3.211,3.211,0,0,1,2.725-1.3,2.731,2.731,0,0,1,2.145,1V-13.5h2.971V0h-2.663l-.149-1.02a2.8,2.8,0,0,1-2.32,1.2,3.205,3.205,0,0,1-2.689-1.3A5.993,5.993,0,0,1,111.331-4.825Zm2.962.185q0,2.531,1.477,2.531a1.458,1.458,0,0,0,1.406-.826V-6.557a1.419,1.419,0,0,0-1.389-.844q-1.371,0-1.485,2.215ZM126.431.176a4.889,4.889,0,0,1-3.542-1.305,4.507,4.507,0,0,1-1.354-3.4v-.246a5.84,5.84,0,0,1,.541-2.575,3.955,3.955,0,0,1,1.578-1.727,4.763,4.763,0,0,1,2.461-.611,4.117,4.117,0,0,1,3.164,1.244,4.887,4.887,0,0,1,1.16,3.467v1.151H124.55a2.135,2.135,0,0,0,.694,1.257,2.066,2.066,0,0,0,1.389.457,2.662,2.662,0,0,0,2.2-.984l1.354,1.6a3.784,3.784,0,0,1-1.569,1.217A5.3,5.3,0,0,1,126.431.176ZM126.1-7.4q-1.3,0-1.547,1.723h2.988v-.229a1.467,1.467,0,0,0-.36-1.1A1.434,1.434,0,0,0,126.1-7.4ZM139.236,0h-2.971V-13.5h2.971Zm7.181,0a3.344,3.344,0,0,1-.281-.853A2.754,2.754,0,0,1,143.851.176a3.374,3.374,0,0,1-2.285-.813,2.588,2.588,0,0,1-.94-2.043,2.66,2.66,0,0,1,1.143-2.338,5.821,5.821,0,0,1,3.322-.791H146v-.5q0-1.316-1.134-1.316a.927.927,0,0,0-1.055,1.042h-2.962a2.655,2.655,0,0,1,1.173-2.239,4.931,4.931,0,0,1,2.993-.86,4.323,4.323,0,0,1,2.874.888,3.086,3.086,0,0,1,1.081,2.435v4.21a4.311,4.311,0,0,0,.4,2V0Zm-1.854-1.934a1.652,1.652,0,0,0,.918-.237A1.487,1.487,0,0,0,146-2.707V-4.228h-.861q-1.547,0-1.547,1.389a.848.848,0,0,0,.272.655A.986.986,0,0,0,144.563-1.934ZM160.453,0a3.344,3.344,0,0,1-.281-.853A2.754,2.754,0,0,1,157.887.176,3.374,3.374,0,0,1,155.6-.637a2.588,2.588,0,0,1-.94-2.043A2.66,2.66,0,0,1,155.8-5.019a5.821,5.821,0,0,1,3.322-.791h.914v-.5q0-1.316-1.134-1.316a.927.927,0,0,0-1.055,1.042H154.89a2.655,2.655,0,0,1,1.173-2.239,4.931,4.931,0,0,1,2.993-.86,4.323,4.323,0,0,1,2.874.888,3.086,3.086,0,0,1,1.081,2.435v4.21a4.311,4.311,0,0,0,.4,2V0ZM158.6-1.934a1.652,1.652,0,0,0,.918-.237,1.487,1.487,0,0,0,.523-.536V-4.228h-.861q-1.547,0-1.547,1.389a.848.848,0,0,0,.272.655A.986.986,0,0,0,158.6-1.934Zm9.5-9.94V-9.51h1.564v2.057H168.1V-3.1a1.111,1.111,0,0,0,.193.747,1.037,1.037,0,0,0,.765.211A4.345,4.345,0,0,0,169.8-2.2V-.079a5.466,5.466,0,0,1-1.67.255,3.1,3.1,0,0,1-2.259-.721,2.954,2.954,0,0,1-.729-2.188v-4.72h-1.213V-9.51h1.213v-2.364Zm5.528,2.364.1,1.116a3.27,3.27,0,0,1,2.716-1.292,2.407,2.407,0,0,1,2.435,1.433,3.165,3.165,0,0,1,2.795-1.433q2.892,0,2.971,3.5V0H181.67V-6a1.813,1.813,0,0,0-.246-1.063,1.048,1.048,0,0,0-.9-.334,1.4,1.4,0,0,0-1.31.782l.009.123V0h-2.971V-5.985a1.906,1.906,0,0,0-.237-1.081,1.045,1.045,0,0,0-.905-.334,1.42,1.42,0,0,0-1.3.782V0h-2.962V-9.51Zm12.331,4.667a5.613,5.613,0,0,1,.554-2.536A3.96,3.96,0,0,1,188.1-9.088a4.791,4.791,0,0,1,2.435-.6A4.373,4.373,0,0,1,193.9-8.363a5.076,5.076,0,0,1,1.23,3.6v.105A4.925,4.925,0,0,1,193.9-1.129,4.384,4.384,0,0,1,190.556.176a4.434,4.434,0,0,1-3.261-1.217,4.761,4.761,0,0,1-1.327-3.3Zm2.962.185a3.538,3.538,0,0,0,.413,1.934,1.376,1.376,0,0,0,1.222.615q1.582,0,1.617-2.435v-.3q0-2.558-1.635-2.558-1.485,0-1.608,2.206Zm2.021-8.842h3.129l-2.443,2.76-2.417,0ZM201.419-2.672a.684.684,0,0,0-.4-.606,6.016,6.016,0,0,0-1.5-.475,6.853,6.853,0,0,1-1.828-.646,3.062,3.062,0,0,1-1.1-.971,2.319,2.319,0,0,1-.378-1.31A2.628,2.628,0,0,1,197.3-8.837a4.453,4.453,0,0,1,2.83-.848,4.934,4.934,0,0,1,3.023.853,2.666,2.666,0,0,1,1.143,2.241h-2.971q0-1.143-1.2-1.143a1.194,1.194,0,0,0-.782.259.8.8,0,0,0-.316.646.737.737,0,0,0,.387.642,3.654,3.654,0,0,0,1.235.4,10.671,10.671,0,0,1,1.49.378,2.706,2.706,0,0,1,2.145,2.646A2.491,2.491,0,0,1,203.12-.642a5.068,5.068,0,0,1-2.993.817,5.172,5.172,0,0,1-2.18-.439,3.645,3.645,0,0,1-1.494-1.2,2.707,2.707,0,0,1-.536-1.591h2.769a1.145,1.145,0,0,0,.439.962,1.808,1.808,0,0,0,1.081.3,1.422,1.422,0,0,0,.91-.246A.787.787,0,0,0,201.419-2.672ZM206.314,0V-7.453h-1.38V-9.51h1.38v-.756a3.286,3.286,0,0,1,.958-2.522,3.785,3.785,0,0,1,2.689-.9,5.89,5.89,0,0,1,1.389.185l.009,2.18a2.706,2.706,0,0,0-.729-.079q-1.345,0-1.345,1.16v.729h1.854v2.057h-1.854V0Zm10.257.176a4.889,4.889,0,0,1-3.542-1.305,4.507,4.507,0,0,1-1.354-3.4v-.246a5.84,5.84,0,0,1,.541-2.575,3.955,3.955,0,0,1,1.578-1.727,4.763,4.763,0,0,1,2.461-.611,4.117,4.117,0,0,1,3.164,1.244,4.887,4.887,0,0,1,1.16,3.467v1.151H214.69a2.135,2.135,0,0,0,.694,1.257,2.066,2.066,0,0,0,1.389.457,2.662,2.662,0,0,0,2.2-.984l1.354,1.6a3.784,3.784,0,0,1-1.569,1.217A5.3,5.3,0,0,1,216.571.176ZM216.237-7.4q-1.3,0-1.547,1.723h2.988v-.229a1.467,1.467,0,0,0-.36-1.1A1.434,1.434,0,0,0,216.237-7.4Zm11.285.571-.976-.07a1.752,1.752,0,0,0-1.793.879V0h-2.962V-9.51h2.777l.1,1.222a2.294,2.294,0,0,1,2.083-1.4,2.888,2.888,0,0,1,.826.105ZM233.684,0a3.344,3.344,0,0,1-.281-.853A2.754,2.754,0,0,1,231.117.176a3.374,3.374,0,0,1-2.285-.813,2.588,2.588,0,0,1-.94-2.043,2.66,2.66,0,0,1,1.143-2.338,5.821,5.821,0,0,1,3.322-.791h.914v-.5q0-1.316-1.134-1.316a.927.927,0,0,0-1.055,1.042H228.12a2.655,2.655,0,0,1,1.173-2.239,4.931,4.931,0,0,1,2.993-.86,4.323,4.323,0,0,1,2.874.888,3.086,3.086,0,0,1,1.081,2.435v4.21a4.311,4.311,0,0,0,.4,2V0Zm-1.854-1.934a1.652,1.652,0,0,0,.918-.237,1.487,1.487,0,0,0,.523-.536V-4.228h-.861q-1.547,0-1.547,1.389a.848.848,0,0,0,.272.655A.986.986,0,0,0,231.829-1.934Z" transform="translate(685 6485)" fill="#fff"/>
      <g id="Grupo_1070925" data-name="Grupo 1070925" transform="translate(673 6499)">
        <g id="Grupo_1070939" data-name="Grupo 1070939" clip-path="url(#clip-path)">
          <g id="Grupo_1070938" data-name="Grupo 1070938">
            <g id="Grupo_1070937" data-name="Grupo 1070937" clip-path="url(#clip-path)">
              <path id="Trazado_823173" data-name="Trazado 823173" d="M133.861,147.583l-33.1,6.181-5.781,8.428v.342q-6.2,1.816-11.976,3.984l11.976,6.914c16.074-6.547,35.8-10.562,57.214-10.972V151.22Z" transform="translate(-27.92 -49.644)" fill="#7f9f25"/>
              <path id="Trazado_823174" data-name="Trazado 823174" d="M152.193,148.95v-8.115c-25.659.3-49.442,4.748-69.191,12.173l11.976,6.914c16.074-6.547,35.8-10.562,57.215-10.972" transform="translate(-27.92 -47.374)" fill="#96c841"/>
              <path id="Trazado_823175" data-name="Trazado 823175" d="M83,159.177v11.241l11.976,6.915V166.091Z" transform="translate(-27.92 -53.544)" fill="#779117"/>
              <path id="Trazado_823176" data-name="Trazado 823176" d="M46.626,177.882l.723,1.5c-22.017,9.952-37.79,23.877-43.614,39.769H28.353c3.472-13.065,15.249-24.66,32.32-33.131V174.778Z" transform="translate(-1.256 -58.792)" fill="#ec953e"/>
              <path id="Trazado_823177" data-name="Trazado 823177" d="M60.672,171.179l-12.3-7.1c-22.554,9.98-38.724,24.093-44.638,40.232H28.353c3.471-13.065,15.247-24.659,32.319-33.131" transform="translate(-1.256 -55.192)" fill="#ffc273"/>
              <rect id="Rectángulo_376590" data-name="Rectángulo 376590" width="24.618" height="11.241" transform="translate(2.479 149.118)" fill="#d27a23"/>
              <path id="Trazado_823178" data-name="Trazado 823178" d="M254.006,164.14v-.927l-24.484-12.006-34.037,1.206v11.241c21.886.21,42.086,4.189,58.521,10.8l11.252-6.5q-5.425-2.065-11.252-3.818" transform="translate(-65.757 -50.863)" fill="#7f9f25"/>
              <path id="Trazado_823179" data-name="Trazado 823179" d="M254.006,159.725l11.252-6.5c-19.863-7.557-43.862-12.1-69.774-12.393v8.089c21.886.21,42.086,4.189,58.521,10.8" transform="translate(-65.757 -47.374)" fill="#96c841"/>
              <path id="Trazado_823180" data-name="Trazado 823180" d="M283.67,166.006v11.241l11.252-6.5V159.51Z" transform="translate(-95.421 -53.656)" fill="#779117"/>
              <path id="Trazado_823181" data-name="Trazado 823181" d="M307.5,179.392l.493-3.25-12.746-1.7v11.241c17.314,8.491,29.272,20.173,32.774,33.352h22.817c-5.8-15.826-21.464-29.7-43.337-39.647" transform="translate(-99.315 -58.68)" fill="#19a7f6"/>
              <path id="Trazado_823182" data-name="Trazado 823182" d="M328.021,204.433h22.816c-5.867-16.009-21.82-30.026-44.09-39.991l-11.5,6.64c17.314,8.49,29.272,20.172,32.774,33.352" transform="translate(-99.315 -55.315)" fill="#5ad3ff"/>
              <rect id="Rectángulo_376591" data-name="Rectángulo 376591" width="22.816" height="11.241" transform="translate(228.705 149.118)" fill="#1c92f4"/>
              <path id="Trazado_823183" data-name="Trazado 823183" d="M37.025,275.785l.031.361c-7.05-7.566-11.029-16.129-11.029-25.2,0-.874.042-1.742.115-2.606H8.491v-3.006H0v11.291H0c.021,16.084,10.065,30.885,26.9,42.645L49.3,286.342V275.1Z" transform="translate(0 -82.525)" fill="#754d32"/>
              <path id="Trazado_823184" data-name="Trazado 823184" d="M26.029,235.53c0-.874.042-1.743.115-2.607H.9a38.808,38.808,0,0,0-.9,8.236c0,16.1,10.049,30.923,26.9,42.7L49.3,270.926c-14.535-9.619-23.267-21.951-23.267-35.4" transform="translate(0 -78.351)" fill="#84593c"/>
              <path id="Trazado_823185" data-name="Trazado 823185" d="M62.933,290.189,40.542,303.117v11.241L62.933,301.43Z" transform="translate(-13.638 -97.614)" fill="#684229"/>
              <path id="Trazado_823186" data-name="Trazado 823186" d="M347.834,245.312v3.019h-13.7c.073.864.115,1.733.115,2.607,0,9.05-3.962,17.593-10.983,25.146l.051-.991-12.73.255V286.59L332,298.954c16.593-11.722,26.473-26.424,26.473-42.387V245.312Z" transform="translate(-104.475 -82.518)" fill="#7f9f25"/>
              <path id="Trazado_823187" data-name="Trazado 823187" d="M334.249,235.53c0,13.566-8.893,26-23.662,35.651L332,283.546c16.593-11.723,26.473-26.424,26.473-42.387a38.809,38.809,0,0,0-.9-8.236H334.134c.073.864.115,1.733.115,2.607" transform="translate(-104.475 -78.351)" fill="#96c841"/>
              <path id="Trazado_823188" data-name="Trazado 823188" d="M310.587,290.573v11.241L332,314.179V302.938Z" transform="translate(-104.475 -97.743)" fill="#779117"/>
              <path id="Trazado_823193" data-name="Trazado 823193" d="M242.1,75.34a94.122,94.122,0,0,0-186.151,12.2c-.152,2.187-.257,4.385-.257,6.609A94.145,94.145,0,1,0,242.1,75.34" transform="translate(-18.734 0)" fill="#5ad3ff"/>
              <path id="Trazado_823194" data-name="Trazado 823194" d="M264.433,77.483c-2.946-8.341-11.8-31.1-31.1-46.14-7.915-1.013-11.558,3.637-21.247,15.045-7.953,9.364-14.563,14.08-26.727,14.454-4.389.135-18.386-10.262-24.7-12.635-8.625-3.238-14.091,2.455-20.032,7.513-5.6,4.765-11.915,8.512-12.271,18.1-.123,3.295,3.516,5.438,4.439,9.783,1.486,7,1.023,16.389,4.667,20.623,9.858,11.447,18.845,20.471,27.68,38.324,5.261,10.631,13.587,6.393,26.042,6.458,8.683.047,24.25,8.265,32.042,2.281,7.044-5.408,8.783-18.026,13.595-23.508,4.5-5.126,9.412-12.793,9.8-22.625.558-14.022,7.314-18.67,17.808-27.669" transform="translate(-43.175 -10.498)" fill="#208d3f"/>
              <path id="Trazado_823195" data-name="Trazado 823195" d="M109.7,192.032c0-5.212-2.732-6.237,3.367-11.532,3.84-3.335,4.6-14.272-5.756-18.555A118.705,118.705,0,0,0,88.527,156.1c-8.666-1.51-11.063-6.54-18.756-8.981-5.168-1.639-9.076-2.132-14.077,1.262,4.493,52.4,38.98,73.825,60.67,82.15.461.143,3.191-12.266,1.53-17.081-4.829-14-8.2-9.021-8.2-21.422" transform="translate(-18.734 -49.063)" fill="#208d3f"/>
              <path id="Trazado_823196" data-name="Trazado 823196" d="M204.464,229.953c-7.2-.806-20.829-11.957-26.394-4.153-4.958,6.952,9.174,20.027,15.05,22.35,6,2.373,12.631,1.3,18.412-1.242,4.789-2.105,13.362-5.821,14.746-11.629,1.911-8.012-13.969-4.449-21.815-5.326" transform="translate(-59.551 -75.027)" fill="#208d3f"/>
              <path id="Trazado_823197" data-name="Trazado 823197" d="M122.273,15.476c-.7,7.853-2.4,24.318-8.455,25.391-11.559,2.049-12.937-10.394-12.937-10.394s10.128-9.661,21.392-15" transform="translate(-33.934 -5.206)" fill="#208d3f"/>
              <path id="Trazado_823198" data-name="Trazado 823198" d="M242.6,205.38c.814-3.43-5.294-5.191-8.851-3.932a25.055,25.055,0,0,0-8.109,5.245c-3.05,2.832-4.182,6.184-8.036,8.522-4.341,2.635-9.394,5.405-15.031,3.93-3.761-.984-6.539-1.893-10.141-.267-4.1,1.849-7.2,3.809-12.046,4.25a47.107,47.107,0,0,1-7.067-.294,5.625,5.625,0,0,0-3.386.5c-3.82,2.34-3.111,9.092.441,11.508a14.915,14.915,0,0,0,4.4,1.68,18.491,18.491,0,0,1,6.413,3.468,33.542,33.542,0,0,0,10.647,4.874c5.551,1.645,13.406,4.11,17.788-.362,2.449-2.5,3.547-5.933,5.743-8.623a40.124,40.124,0,0,1,9.162-8.176c3.847-2.515,8.034-4.086,12.461-5.73,2.945-1.094,5.965-2.455,7.4-5,1.246-2.218.93-8.859-1.788-11.585" transform="translate(-56.299 -67.626)" fill="#f7f0f0"/>
              <path id="Trazado_823199" data-name="Trazado 823199" d="M278.491,40.329c-.28-2.433-3.1-3.9-4.98-5.462-5.432-4.5-14.356-11.761-16.178-12.553-4.624-2.01-7.353,1.111-7.1,3.242.235,1.948,5.561,0,5.862,3.811.2,2.5,4.373,6.594.317,8.1-2.684,1-6.231-1.044-8.806-1.079a14.629,14.629,0,0,0-8.989,2.62c-3.724,2.719-2.923,5.768-.112,8.8.885.954,2.348,2.1,2.59,3.455.246,1.376-.864,2.467-.732,3.8a7.849,7.849,0,0,0,.666,1.631c1.251,3.858.148,3.813-1.8,6.22-2.465,3.045-1.92,6.981,2.493,7.7a15.959,15.959,0,0,0,4.677-.388,26.424,26.424,0,0,1,8.717.2c3.375.608,5.481.809,8.65-.791,3.883-1.96,11.408-5.979,10.855-11.233-.161-1.536-1.163-2.849-1.356-4.339-.477-3.682,1.788-4.464,3.433-6.793a9.924,9.924,0,0,0,1.79-6.935" transform="translate(-79.422 -7.288)" fill="#f7f0f0"/>
              <path id="Trazado_823200" data-name="Trazado 823200" d="M296.374,90.266c-1.448-6.584-5.357-19.817-11.9-25.4-1.24,2.274-3.963,2.274-2.933,11.309-2.066,2.686-6.861,3.6-7.724,6.888-7.24-1.51-9.417,6.351-11.019,8.766a8.44,8.44,0,0,1-9.8,3.665,33.224,33.224,0,0,0-6.73-1.529c-3.157-.252-6.387-.021-9.5-.733-2.525-.578-4.851-2.077-7.446-2.311-2.786-.251-7.306,2.763-7.309,5.612-.007,5.2,7.339,2.55,9.351,4.845,1.291,1.473,1.2,3.449,2.211,6.748.66,2.146.743,4.31,1.666,6.128,1.038,2.044,5,2.8,6.924,3.344a14.4,14.4,0,0,0,9.865-.311c3.437-1.484,6.307-4.238,9.153-6.594,3.258-2.7,7.156-5.249,9.932-8.461a7,7,0,0,0,1.912-6.135c-.311-1.312-1.49-2.321-2.659-3.292a4.385,4.385,0,0,1,.167-1.089,5.084,5.084,0,0,1,2.11-2.8,8.375,8.375,0,0,1,5.395-.916c1.954.859,2.728,2.266,3.983,4.509a74.31,74.31,0,0,1,5.612,12.705c.691,2.067.941,5.855,3.093,7.059,1.861,1.041,5.208-.664,5.208-3.994,0-7.1,1.556-12.906.434-18.007" transform="translate(-74.682 -21.819)" fill="#f7f0f0"/>
              <path id="Trazado_823201" data-name="Trazado 823201" d="M290.069,142.74c-.263-1.933-.98-3.684-1.419-5.564-.516-2.205-.234-4.388-.466-6.619-.467-4.5-1.8-11.366-7.225-12.014a1.083,1.083,0,0,0-1.047.8c-.451,2.063.491,4.282,1.27,6.443a4.793,4.793,0,0,0-3.064,1.459c-2.254,2.4-2.128,5.7-1.822,8.736a36.184,36.184,0,0,1-.366,11.1c.025-3.443-.469-6.872-3.258-9.211-2.869-2.407-7.246-2.719-10.007.015-1.307,1.293-3.069,4.642-.494,11.518-2.384,2.178-6.179,4.864-7,9.735a35.468,35.468,0,0,0-9.744,5.2,20.562,20.562,0,0,0-5.594,6.989,13.1,13.1,0,0,1-9.333,7.338c-2.882.745-5.832,1.233-8.561,2.477-3.984,1.816-9.714,8.152-13.258,4.447-3.56-3.722-8.3-4.752-8.3.4,0,4.318,3.559,4.755,5.6,6.776,2.708,2.678,6.434,7.606,11.08,6.612s8.274-6.606,11.033-6.612c2.041,0,2.507,5.772,5.034,7.23,3.247,1.875,6.385,2.266,10.481-2.733,1.948-2.376,3.225-4.8,6.054-6.379,2.34-1.308,5.02-1.911,7.3-3.357,2.933-1.863,4.651-4.687,6.077-7.716.326.227.571.69.738,1.663.42,2.453-.388,5.781-.553,8.259a1.1,1.1,0,0,0,1.651.948c5.88-4.337,9.5-10.484,13.227-16.63,4.249-7,9.177-14.07,11.264-22.1a23.894,23.894,0,0,0,.7-9.2" transform="translate(-67.405 -39.874)" fill="#fff"/>
              <path id="Trazado_823202" data-name="Trazado 823202" d="M131.429,172.743c-.642-2.506-3.412-6.273-6.436-5.82-1.218.182-1.626.826-2.2,1.844-1.064,1.884-.964,4.233-2.167,6.079-1.644,2.524-4.391,3.728-8.18,2.889-3.022-.67-5.4-3.093-6.46-6.79-1.126-3.938-.708-6.958-4.637-9.289-3.017-1.791-6.566-1.815-9.924-1.243-3.784.645-7.056,3.282-9.739-.206-3.09-4.016-3.708-5.407-7.034-5.7,3.171-2.952,2.708-6.042.854-8.823,2.082-.084,6.05-.3,7.526-1.715a23.755,23.755,0,0,0,1.873,1.695c4.185,3.353,8.008,2.571,12.721,1.011,4.992-1.652,10.99-2.676,13.866-7.646,1.159-2,2.43-7.2-.813-8.117-1.7-.481-3.86,1.082-5.046,2.007-2.159,1.684-3.724,3.768-5.8,5.11a27.471,27.471,0,0,1-10.714-2.08c-3.363-1.268-8.547-2.96-10.558-6.2-1.214-1.958,1.68-10.965-3.21-9.395-4.29,1.378-2.467,6.124-5.716,5.24-5.763-1.567-.1-5.7-2.317-10.646-.916-2.05-4.46-4.923-5.407-6.951-1.7-3.648,3.033-7.18,3.828-10.522.566-2.378-1.516-3.53-4.343-3.984-7.517,18.832-8.289,41.539-3.9,50.912,2.418,2.994,8.87,7.3,12.986,7.74-1.771,2.035-3.008,8.376,3.515,8.222-.808,3.862,4.754,8.169,9.079,7.079,2.16.985,3.287,3.621,4.317,6.042.52,1.223.663,2.593,1.061,3.855,1.463,4.642,4.064,5.052,8.57,4.9,6.2-.214,9.636,5.59,15.83,5.479,4.922-.088,10.558-2.9,14.475-5.742,3-2.179,5.077-5.413,4.1-9.228" transform="translate(-18.436 -31.448)" fill="#f7f0f0"/>
              <path id="Trazado_823203" data-name="Trazado 823203" d="M174.562,67.577c-1.437-4.143-2.509-8.385-5.782-10.489-2.1-1.35-4.431-.818-5.21.889-.349.765-1.033,2.656,1.027,5.128-1.751-.618-3.6-1.545-4.878-1.247,1.17-2.975-3.721-5.9-5.264-3.181-2.937-1.647-7.647-1.341-6.647,3.033.35,1.532,1.938,2.27,3.325,2.592,2.191.511,3.452.225,4.27,2.8.75,2.357.24,4.078.04,6.465-.218,2.617.193,3.75,2.692,2.1,1.069.1,4.4,2.059,4.7-.593a6.351,6.351,0,0,0,1.684-5.069,6.33,6.33,0,0,1,1.23,2.582,42.874,42.874,0,0,1,1.084,6.817c.449,4.274.382,8.88-2.052,12.605-1.841,2.818-4.792,7.1-8.073,7.858-3.747-2.986-6.758-3.491-10.054-2.747-2.962-2.724-6.669-.342-5.023,4.7a5.846,5.846,0,0,0,1.8,2.4c-3.258.8-6.49,1.991-9.8,2.155-5.992.3-4.208-6.2-8.561-7.533a2.628,2.628,0,0,0-3.262,1.389c-.681,2.113,2.982,5.12,3.853,6.647,1.419,2.489,1.9,5.233,4.86,6.256,2.142.74,3.657.787,4.875-1.031,1.514-2.258,3.453-3.115,6.021-3.783,1.352-.352,2.244-.378,3.345-1.43a5.292,5.292,0,0,0,1.039-1.384,5.664,5.664,0,0,0,2.724.127c1.394,1.977,5.149,3.6,8.65.412,5.426-.957,8.968-1.2,12.694-5.263,1.9-2.069,4.8-6.075,5.031-8.913.218-2.637-.94-5.024-1.094-7.632-.362-6.1,2.873-10.544.75-16.665" transform="translate(-40.948 -18.947)" fill="#fff"/>
              <path id="Trazado_823204" data-name="Trazado 823204" d="M159.875,41.422c-2.753-.372-4-1.867-5.908-3.59a4.982,4.982,0,0,0-3.121-1.51A5.644,5.644,0,0,0,146.08,38.6c-4.8-.073-9.768,2.487-13.365,5.466-2.615,2.167-4.249,5.057-3.321,7.982.725,2.286,2.54,2.292,4.241,4.79.8,1.183,3.586.874,3.071-1.082,1.648-1.751.766-4.361.618-5.355,1.838-1.218,3.5-2.988,1.885-4.539a7.024,7.024,0,0,1,4.647-2.243c2.325,2.353,5.454,4.437,9.725,4.059,1.54-.135,4.237-1.5,4.442-3.252,1.173.31,2.256-.825,2.563-1.751a1.022,1.022,0,0,0-.711-1.253" transform="translate(-43.437 -12.214)" fill="#fff"/>
              <path id="Trazado_823205" data-name="Trazado 823205" d="M145.628,77.123c-.483-2.753-1.7-5.123-2.936-3.064-1.976,2.782-1.152,4.327.512,5.983-.354,4.241-3.789,5.823-7.87,7.219-2.842.972-6.551,3.484-9.55,3.38-3.7-.127-6.185-1.254-7.415-4.738,1.133-1.544,1.25-3.471.425-4.273.4-1.7-1.449-1.812-2.279-1.6-3.964,1.029-3.99,6.211-2.109,8.754-2.123,3.353-.053,5.949,2.933,5.561a5.067,5.067,0,0,0-.086,4.914c1.044,1.336,3.587,1.058,5.357-.692,5.939.422,11.5.382,16.141-3.2,3.36-2.593,8.9-6.272,8.027-11.146a19.551,19.551,0,0,1-.506-4.267c1.757-1.775.113-3.188-.644-2.831" transform="translate(-38.076 -24.65)" fill="#fff"/>
              <path id="Trazado_823206" data-name="Trazado 823206" d="M172.267,92.774c-.009-.015-.005-.031-.018-.045a1.022,1.022,0,0,0-1.766.137c-.665.99-.215,2.661-.566,3.773a8.488,8.488,0,0,1-4.026,4.71c-1.165.655-4.507.87-5.155,2.306-.553,1.226.742,2.4,1.785,2.8,1.722.65,2.821-.088,4.116-1.066,1.842-1.392,4.7-.419,6.292-2.253a3.1,3.1,0,0,0,.6-2.329c0-1.6.3-3.108.381-4.688a3.255,3.255,0,0,0-1.644-3.34" transform="translate(-54.024 -31.042)" fill="#fff"/>
              <path id="Trazado_823207" data-name="Trazado 823207" d="M140.444,28.524c-1.721-.786-2.867-1.362-4.7-.72-1.368.481-2.665,1.133-4.158,1.506a10.939,10.939,0,0,0-2.628.922c-2.834,1.523-10.27,9.674-6.146,9.972,1.572.113,3.7-4.14,6.117-5.083a13.888,13.888,0,0,0,1.893-.683c2.111-1.149,3.6-2.385,6.157-2.1,1.143.127,2.217.759,3.374.714a2.393,2.393,0,0,0,2.446-1.806c.336-1.662-1.058-2.128-2.359-2.722" transform="translate(-40.903 -9.26)" fill="#fff"/>
              <path id="Trazado_823208" data-name="Trazado 823208" d="M237.581,43.759v-.007c-.006-.1-.007-.119,0,.007" transform="translate(-79.916 -14.69)" fill="#fff"/>
              <path id="Trazado_823209" data-name="Trazado 823209" d="M230.7,32.068c-.425-1.751-2.337-3.935-3.331-5.395a33.3,33.3,0,0,0-3.866-5.136c-1.114-1.09-3.406-3.014-7.742-1.133-1.55.672-2.8,1.114-4.3,1.738-1.567.651-3.027,2.063-1.22,3.487.858.676,2.176.292,3.157.283,4.314-.041,5.158,1.624,6.75,5.4.939,2.228,2.708,3.032,3.663,5.466.475,1.211.336,2.3,1.34,3.28,1.573,1.533,4.507,1.509,5.238-.863.384-1.248-.447-2.03-.4-3.19.068-1.552,1.1-2.308.709-3.938" transform="translate(-70.438 -6.597)" fill="#fff"/>
              <path id="Trazado_823210" data-name="Trazado 823210" d="M171.5,176.613c-2.256-2.839-6.651-3.957-9.086-.741-1.773,2.343-1.528,5.457-3.657,7.646-1.35,1.388-2.607,2.288-2.764,4.121l-.151.051a9.057,9.057,0,0,0-2.938-.242c-2.16.388-3.227,1.174-5.437.241-1.818-.767-3.588-1.7-5.374-2.537-2.575-1.212-7.593-4.789-10.3-1.9-1.2,1.284-.514,2.276-.6,3.741-.137,2.3-1.914,3.817-1.506,6.207.952,5.582,6.471,2.947,9.992,4.1,2.509.821,3.526,3.824,5.665,5.053,1.52.874,3.6.245,5.221.021,2.385-.332,5.068-.4,7.284-1.455a27.37,27.37,0,0,1,4.757-2.239,17.276,17.276,0,0,0,3.62-1.127c3.939-2.07,3.238-6.009,3.63-9.775.433-4.156,4.95-7,1.644-11.161" transform="translate(-43.604 -58.503)" fill="#fff"/>
              <path id="Trazado_823211" data-name="Trazado 823211" d="M103.817,131.527a3.417,3.417,0,0,0-2.726-1.618c-1.141-.22-4.507.254-5.168-.586-.881-1.118.275-2.045.2-3.285a3.259,3.259,0,0,0-1.433-2.457c-.772-.6-1.77-.743-2.572-1.271-1.222-.8-1.533-1.93-2.262-3.031a13.4,13.4,0,0,0-1.57-1.56,9.641,9.641,0,0,1-2.819-6.912c-.039-1.743,1.081-5.008.076-6.67-1.681-2.784-5.333-.193-6.23,1.924a5.158,5.158,0,0,0-.1,3.771c.756,2.153,1.587,3.277,1.552,5.848A23.33,23.33,0,0,0,80.6,119.3a10.613,10.613,0,0,0,2.26,5.3c1.168,1.451,1.213,2.432,1.644,4.193.18.735.048.9.563,1.582.066.087.143.157.214.238-1.215,3.067-1.685,7.012,1.713,8.79a4.425,4.425,0,0,0,3.905-.042c2.762-1.216,4.277-3.451,7.646-3.207,2.436.177,6.957-1.236,5.276-4.628" transform="translate(-26.54 -34.621)" fill="#fff"/>
              <path id="Trazado_823212" data-name="Trazado 823212" d="M117.134,173.3a11.515,11.515,0,0,0-5-1.242c-1.38-.013-3.679,1.54-7.286.316a9.056,9.056,0,0,1-3.648-2.66c-1.137-1.189-2.12-2.631-3.652-3.361-1.836-.875-4.258-.914-5.483.945-1.493,2.268.954,5.163,1.6,7.35.863,2.919,2.1,3.88,5.01,4.539,3.415.774,6.553,2.623,10.209,2.163,2.759-.347,7.815-1.9,9.613-4.249,1.319-1.721.242-2.966-1.361-3.8" transform="translate(-30.808 -55.763)" fill="#fff"/>
              <path id="Trazado_823213" data-name="Trazado 823213" d="M243.083,151.091c-.91-2.039-3.1-3.274-5.262-2.209-3.187,1.573-.05,4.236-2.646,7.948-.455.543-1,.96-1.419,1.557-.551.776-.807,1.787-1.414,2.516-1.053,1.266-2.6,1.605-4,2.212-1.8.779-3.353,2.62-1.748,4.387,1.961,2.157,6.359,1.717,8.626.521,3.96-2.088,3.39-5.867,5.9-8.93,1.986-2.426,3.435-4.71,1.966-8" transform="translate(-75.995 -49.95)" fill="#fff"/>
              <path id="Trazado_823214" data-name="Trazado 823214" d="M242.634,84.637c-.509-5.417-4.408-13.219-10.93-12.6a5.788,5.788,0,0,0-2.66.946c-2.646-1.062-5.626-1.155-7.518,1.018s-2.141,6.892-1.708,9.6c.3,1.9,1.268,3.521,1.742,5.36.76,2.952-.044,5.8-1.136,8.55-1.333,3.359-3.163,6.525-4.154,10.016-1.242,4.377-1.015,9.049-5.468,11.578-3.965,2.251-12.193,2.828-13.738,8.123-1.458,5,7.1,5.364,10.059,4.712,8.021-1.768,9.882-10.666,15.973-15.131,5.856-4.292,11.793-5.6,12.475-13.623.311-3.652,4.051-5.975,5.546-9.328a18.543,18.543,0,0,0,1.516-9.216" transform="translate(-66.233 -24.219)" fill="#fff"/>
              <g id="Grupo_1070927" data-name="Grupo 1070927" transform="translate(37.038 3.782)" opacity="0.3">
                <g id="Grupo_1070926" data-name="Grupo 1070926">
                  <g id="Grupo_1070925-2" data-name="Grupo 1070925" clip-path="url(#clip-path-3)">
                    <path id="Trazado_823215" data-name="Trazado 823215" d="M172.6,105.062c-17.4,39.6-55.751,61.056-85.65,47.917s-40.027-55.9-22.623-95.5,55.752-61.056,85.65-47.917,40.027,55.9,22.623,95.5" transform="translate(-55.812 -5.699)" fill="#fff"/>
                  </g>
                </g>
              </g>
              <g id="Grupo_1070930" data-name="Grupo 1070930" transform="translate(45.937 15.025)" opacity="0.3">
                <g id="Grupo_1070929" data-name="Grupo 1070929">
                  <g id="Grupo_1070928" data-name="Grupo 1070928" clip-path="url(#clip-path-4)">
                    <path id="Trazado_823216" data-name="Trazado 823216" d="M151.552,92.69c-12.27,27.918-39.3,43.042-60.38,33.779S62.955,87.063,75.224,59.146s39.3-43.043,60.38-33.78S163.821,64.77,151.552,92.69" transform="translate(-69.221 -22.641)" fill="#fff"/>
                  </g>
                </g>
              </g>
              <g id="Grupo_1070933" data-name="Grupo 1070933" transform="translate(55.561 22.844)" opacity="0.3">
                <g id="Grupo_1070932" data-name="Grupo 1070932">
                  <g id="Grupo_1070931" data-name="Grupo 1070931" clip-path="url(#clip-path-5)">
                    <path id="Trazado_823217" data-name="Trazado 823217" d="M137.733,80.375c-8.048,18.315-25.782,28.236-39.61,22.159S79.613,76.685,87.661,58.369s25.782-28.236,39.61-22.158,18.51,25.849,10.462,44.164" transform="translate(-83.724 -34.424)" fill="#fff"/>
                  </g>
                </g>
              </g>
              <g id="Grupo_1070936" data-name="Grupo 1070936" transform="translate(109.341 25.759)" opacity="0.3" style="mix-blend-mode: multiply;isolation: isolate">
                <g id="Grupo_1070935" data-name="Grupo 1070935">
                  <g id="Grupo_1070934" data-name="Grupo 1070934" clip-path="url(#clip-path-6)">
                    <path id="Trazado_823218" data-name="Trazado 823218" d="M278.791,88.4a93.946,93.946,0,0,0-25.656-47.728c-.629-.63-1.276-1.241-1.923-1.853a95.322,95.322,0,0,1,7.734,23.411c3.648,18.838,2.119,39.539-5.071,59.586a125.161,125.161,0,0,1-8.968,19.521c-18.476,32.557-49.03,53.084-80.142,57.462A94.2,94.2,0,0,0,278.791,88.4" transform="translate(-164.764 -38.816)" fill="#19a7f6"/>
                  </g>
                </g>
              </g>
              <g id="Grupo_1070950" data-name="Grupo 1070950" transform="translate(34 196.531)">
                <g id="Grupo_1070950-2" data-name="Grupo 1070950" transform="translate(0 0)" clip-path="url(#clip-path-7)">
                  <path id="Trazado_823225" data-name="Trazado 823225" d="M188,18.485l-13.959,3.06.047.159-7.853-4.534c-18.007,9.693-42.578,15.754-69.743,16.015v6.5l-5.46-.22v-6.3c-26.665-.51-50.726-6.609-68.374-16.222l-7.6,4.389.5-2.559H0V30.021C21.423,42.8,51.483,51.173,85.128,52.406v0h.126c1.915.069,3.84.12,5.778.142V52.41h5.46v.142c1.936-.022,3.859-.073,5.772-.142h1.567v-.06c33.313-1.426,63.019-9.861,84.169-22.613Z" transform="translate(0 -5.687)" fill="#21598a"/>
                  <path id="Trazado_823226" data-name="Trazado 823226" d="M188,12.8,166.235.232c-16.85,9.07-39.449,14.96-64.541,15.894L85.094,16C60.806,14.769,38.984,8.893,22.658,0L0,13.082a6.308,6.308,0,0,1,1.132.666q.6.347,1.2.686,1.213.686,2.442,1.344,2.51,1.344,5.079,2.576,5.351,2.571,10.9,4.688,5.829,2.237,11.816,4.027,6.256,1.879,12.636,3.313,6.635,1.5,13.362,2.549,6.966,1.094,13.993,1.734c5.12.47,10.238.8,15.379.925q7.8.185,15.592-.152,2.844-.123,5.683-.315c1.846-.124,3.742-.445,5.59-.445q7.044-.641,14.04-1.73,6.742-1.054,13.4-2.55,6.393-1.441,12.675-3.319,6-1.8,11.852-4.036,5.557-2.132,10.933-4.7c3.382-1.625,6.7-3.391,9.919-5.317L188,12.8" transform="translate(0 0)" fill="#5f9acc"/>
                </g>
              </g>
            </g>
          </g>
        </g>
      </g>
      <g id="Grupo_1070940" data-name="Grupo 1070940" transform="translate(85 17)">
        <rect id="Rectángulo_376601" data-name="Rectángulo 376601" width="190" height="48" transform="translate(305 6530)" fill="#dbf9bd"/>
        <path id="Trazado_828287" data-name="Trazado 828287" d="M3.946,17H1.31V4.2H3.946ZM8.561,7.49l.079,1.1a3.32,3.32,0,0,1,2.733-1.274,2.759,2.759,0,0,1,2.25.888,4.142,4.142,0,0,1,.756,2.654V17h-2.54V10.918a1.648,1.648,0,0,0-.352-1.173,1.574,1.574,0,0,0-1.169-.365,1.747,1.747,0,0,0-1.608.914V17H6.17V7.49ZM22.676,5.469a12.225,12.225,0,0,0-1.406-.088q-1.723,0-1.723,1.468V7.49h1.89V9.354h-1.89V17H17V9.354H15.583V7.49H17V6.752a3.249,3.249,0,0,1,1.037-2.544,4.24,4.24,0,0,1,2.883-.892q1.327,0,4.307.281V17H22.676ZM33.029,16.033a3.185,3.185,0,0,1-2.6,1.143,3,3,0,0,1-2.333-.879,3.752,3.752,0,0,1-.822-2.575V7.49h2.54v6.151q0,1.487,1.354,1.487a1.834,1.834,0,0,0,1.775-.9V7.49H35.49V17H33.1Zm8.754,1.143a4.668,4.668,0,0,1-3.406-1.283,4.561,4.561,0,0,1-1.314-3.419v-.246a5.745,5.745,0,0,1,.554-2.562,4.064,4.064,0,0,1,1.569-1.74A4.4,4.4,0,0,1,41.5,7.314a3.947,3.947,0,0,1,3.072,1.23,5,5,0,0,1,1.121,3.489v1.037H39.639a2.36,2.36,0,0,0,.743,1.494,2.245,2.245,0,0,0,1.569.563,2.742,2.742,0,0,0,2.294-1.063l1.248,1.4a3.813,3.813,0,0,1-1.547,1.261A5.075,5.075,0,0,1,41.783,17.176Zm-.29-7.813a1.587,1.587,0,0,0-1.226.512,2.651,2.651,0,0,0-.6,1.466H43.2v-.2a1.891,1.891,0,0,0-.457-1.311A1.638,1.638,0,0,0,41.493,9.362Zm7.98-1.872.079,1.1a3.32,3.32,0,0,1,2.733-1.274,2.759,2.759,0,0,1,2.25.888,4.142,4.142,0,0,1,.756,2.654V17h-2.54V10.918A1.648,1.648,0,0,0,52.4,9.745a1.574,1.574,0,0,0-1.169-.365,1.747,1.747,0,0,0-1.608.914V17h-2.54V7.49Zm11.7,7.638a1.666,1.666,0,0,0,1.143-.387,1.355,1.355,0,0,0,.457-1.028h2.382a3.258,3.258,0,0,1-.527,1.771,3.48,3.48,0,0,1-1.419,1.248,4.442,4.442,0,0,1-1.991.444A4.129,4.129,0,0,1,58,15.879,5.13,5.13,0,0,1,56.821,12.3v-.167A5.071,5.071,0,0,1,57.99,8.624,4.08,4.08,0,0,1,61.2,7.314,4,4,0,0,1,64.059,8.33a3.594,3.594,0,0,1,1.094,2.7H62.771a1.745,1.745,0,0,0-.457-1.206,1.7,1.7,0,0,0-2.5.183,3.749,3.749,0,0,0-.453,2.1v.264a3.8,3.8,0,0,0,.448,2.113A1.549,1.549,0,0,0,61.172,15.128ZM69.284,17H66.735V7.49h2.549Zm-2.7-11.971a1.251,1.251,0,0,1,.382-.94,1.648,1.648,0,0,1,2.079,0,1.244,1.244,0,0,1,.387.94,1.247,1.247,0,0,1-.391.949,1.629,1.629,0,0,1-2.065,0A1.247,1.247,0,0,1,66.586,5.029ZM76.887,17a2.821,2.821,0,0,1-.255-.853,3.073,3.073,0,0,1-2.4,1.028,3.376,3.376,0,0,1-2.316-.809A2.6,2.6,0,0,1,71,14.328a2.687,2.687,0,0,1,1.121-2.32,5.529,5.529,0,0,1,3.239-.817h1.169v-.545a1.567,1.567,0,0,0-.338-1.055,1.331,1.331,0,0,0-1.068-.4,1.513,1.513,0,0,0-1.006.308,1.045,1.045,0,0,0-.365.844h-2.54a2.551,2.551,0,0,1,.51-1.529,3.37,3.37,0,0,1,1.441-1.1,5.253,5.253,0,0,1,2.092-.4,4.15,4.15,0,0,1,2.791.883,3.09,3.09,0,0,1,1.033,2.483V14.8a4.546,4.546,0,0,0,.378,2.048V17Zm-2.1-1.767a2.188,2.188,0,0,0,1.037-.25,1.645,1.645,0,0,0,.7-.672V12.676h-.949q-1.907,0-2.03,1.318l-.009.149a1.017,1.017,0,0,0,.334.782A1.3,1.3,0,0,0,74.786,15.233Zm10.327-3.059a5.731,5.731,0,0,1,1-3.542A3.237,3.237,0,0,1,88.84,7.314a2.913,2.913,0,0,1,2.294,1.037V3.5h2.549V17H91.389l-.123-1.011a2.989,2.989,0,0,1-2.443,1.187,3.228,3.228,0,0,1-2.694-1.323A5.916,5.916,0,0,1,85.113,12.175Zm2.54.189a3.754,3.754,0,0,0,.466,2.051,1.517,1.517,0,0,0,1.354.713,1.7,1.7,0,0,0,1.661-.995V10.375A1.675,1.675,0,0,0,89.49,9.38Q87.653,9.38,87.653,12.364Zm12.375,4.812a4.668,4.668,0,0,1-3.406-1.283,4.561,4.561,0,0,1-1.314-3.419v-.246a5.745,5.745,0,0,1,.554-2.562,4.064,4.064,0,0,1,1.569-1.74,4.4,4.4,0,0,1,2.316-.611,3.947,3.947,0,0,1,3.072,1.23,5,5,0,0,1,1.121,3.489v1.037H97.884a2.36,2.36,0,0,0,.743,1.494,2.245,2.245,0,0,0,1.569.563,2.742,2.742,0,0,0,2.294-1.063l1.248,1.4a3.813,3.813,0,0,1-1.547,1.261A5.075,5.075,0,0,1,100.028,17.176Zm-.29-7.813a1.587,1.587,0,0,0-1.226.512,2.651,2.651,0,0,0-.6,1.466h3.533v-.2a1.891,1.891,0,0,0-.457-1.311A1.638,1.638,0,0,0,99.738,9.362ZM108.062,17h-2.549V3.5h2.549Zm16.787-4.263a4.528,4.528,0,0,1-1.525,3.252,5.355,5.355,0,0,1-3.625,1.187,4.816,4.816,0,0,1-3.872-1.657,6.793,6.793,0,0,1-1.411-4.548v-.782a7.671,7.671,0,0,1,.65-3.252,4.874,4.874,0,0,1,1.859-2.158,5.809,5.809,0,0,1,6.376.435,4.866,4.866,0,0,1,1.564,3.331h-2.637a2.673,2.673,0,0,0-.69-1.8,2.555,2.555,0,0,0-1.806-.558,2.24,2.24,0,0,0-1.973.945,5.3,5.3,0,0,0-.672,2.931v.967a5.667,5.667,0,0,0,.628,3.032,2.2,2.2,0,0,0,1.982.958,2.6,2.6,0,0,0,1.824-.558,2.521,2.521,0,0,0,.69-1.727Zm12.243-1.846a7.725,7.725,0,0,1-.668,3.313,5.03,5.03,0,0,1-1.912,2.2,5.649,5.649,0,0,1-5.691.009,5.08,5.08,0,0,1-1.934-2.184,7.5,7.5,0,0,1-.694-3.265v-.633A7.685,7.685,0,0,1,126.875,7,5.072,5.072,0,0,1,128.8,4.8a5.64,5.64,0,0,1,5.687,0A5.072,5.072,0,0,1,136.411,7a7.663,7.663,0,0,1,.681,3.318Zm-2.672-.58a5.385,5.385,0,0,0-.721-3.059,2.546,2.546,0,0,0-4.1-.013,5.324,5.324,0,0,0-.729,3.028v.624a5.453,5.453,0,0,0,.721,3.041,2.524,2.524,0,0,0,4.113.04,5.421,5.421,0,0,0,.721-3.037Z" transform="translate(325 6544)" fill="#12263f"/>
        <text id="_2" data-name="2" transform="translate(464 6550)" fill="#12263f" font-size="18" font-family="Roboto-Bold, Roboto" font-weight="700"><tspan x="0" y="17">2</tspan></text>
      </g>
      <g id="Grupo_1070945" data-name="Grupo 1070945" transform="translate(715 17)">
        <path id="Trazado_828281" data-name="Trazado 828281" d="M0,0H190V48H0Z" transform="translate(305 6530)" fill="#dbf9bd"/>
        <path id="Trazado_828282" data-name="Trazado 828282" d="M3.946,17H1.31V4.2H3.946ZM8.561,7.49l.079,1.1a3.32,3.32,0,0,1,2.733-1.274,2.759,2.759,0,0,1,2.25.888,4.142,4.142,0,0,1,.756,2.654V17h-2.54V10.918a1.648,1.648,0,0,0-.352-1.173,1.574,1.574,0,0,0-1.169-.365,1.747,1.747,0,0,0-1.608.914V17H6.17V7.49ZM22.676,5.469a12.225,12.225,0,0,0-1.406-.088q-1.723,0-1.723,1.468V7.49h1.89V9.354h-1.89V17H17V9.354H15.583V7.49H17V6.752a3.249,3.249,0,0,1,1.037-2.544,4.24,4.24,0,0,1,2.883-.892q1.327,0,4.307.281V17H22.676ZM33.029,16.033a3.185,3.185,0,0,1-2.6,1.143,3,3,0,0,1-2.333-.879,3.752,3.752,0,0,1-.822-2.575V7.49h2.54v6.151q0,1.487,1.354,1.487a1.834,1.834,0,0,0,1.775-.9V7.49H35.49V17H33.1Zm8.754,1.143a4.668,4.668,0,0,1-3.406-1.283,4.561,4.561,0,0,1-1.314-3.419v-.246a5.745,5.745,0,0,1,.554-2.562,4.064,4.064,0,0,1,1.569-1.74A4.4,4.4,0,0,1,41.5,7.314a3.947,3.947,0,0,1,3.072,1.23,5,5,0,0,1,1.121,3.489v1.037H39.639a2.36,2.36,0,0,0,.743,1.494,2.245,2.245,0,0,0,1.569.563,2.742,2.742,0,0,0,2.294-1.063l1.248,1.4a3.813,3.813,0,0,1-1.547,1.261A5.075,5.075,0,0,1,41.783,17.176Zm-.29-7.813a1.587,1.587,0,0,0-1.226.512,2.651,2.651,0,0,0-.6,1.466H43.2v-.2a1.891,1.891,0,0,0-.457-1.311A1.638,1.638,0,0,0,41.493,9.362Zm7.98-1.872.079,1.1a3.32,3.32,0,0,1,2.733-1.274,2.759,2.759,0,0,1,2.25.888,4.142,4.142,0,0,1,.756,2.654V17h-2.54V10.918A1.648,1.648,0,0,0,52.4,9.745a1.574,1.574,0,0,0-1.169-.365,1.747,1.747,0,0,0-1.608.914V17h-2.54V7.49Zm11.7,7.638a1.666,1.666,0,0,0,1.143-.387,1.355,1.355,0,0,0,.457-1.028h2.382a3.258,3.258,0,0,1-.527,1.771,3.48,3.48,0,0,1-1.419,1.248,4.442,4.442,0,0,1-1.991.444A4.129,4.129,0,0,1,58,15.879,5.13,5.13,0,0,1,56.821,12.3v-.167A5.071,5.071,0,0,1,57.99,8.624,4.08,4.08,0,0,1,61.2,7.314,4,4,0,0,1,64.059,8.33a3.594,3.594,0,0,1,1.094,2.7H62.771a1.745,1.745,0,0,0-.457-1.206,1.7,1.7,0,0,0-2.5.183,3.749,3.749,0,0,0-.453,2.1v.264a3.8,3.8,0,0,0,.448,2.113A1.549,1.549,0,0,0,61.172,15.128ZM69.284,17H66.735V7.49h2.549Zm-2.7-11.971a1.251,1.251,0,0,1,.382-.94,1.648,1.648,0,0,1,2.079,0,1.244,1.244,0,0,1,.387.94,1.247,1.247,0,0,1-.391.949,1.629,1.629,0,0,1-2.065,0A1.247,1.247,0,0,1,66.586,5.029ZM76.887,17a2.821,2.821,0,0,1-.255-.853,3.073,3.073,0,0,1-2.4,1.028,3.376,3.376,0,0,1-2.316-.809A2.6,2.6,0,0,1,71,14.328a2.687,2.687,0,0,1,1.121-2.32,5.529,5.529,0,0,1,3.239-.817h1.169v-.545a1.567,1.567,0,0,0-.338-1.055,1.331,1.331,0,0,0-1.068-.4,1.513,1.513,0,0,0-1.006.308,1.045,1.045,0,0,0-.365.844h-2.54a2.551,2.551,0,0,1,.51-1.529,3.37,3.37,0,0,1,1.441-1.1,5.253,5.253,0,0,1,2.092-.4,4.15,4.15,0,0,1,2.791.883,3.09,3.09,0,0,1,1.033,2.483V14.8a4.546,4.546,0,0,0,.378,2.048V17Zm-2.1-1.767a2.188,2.188,0,0,0,1.037-.25,1.645,1.645,0,0,0,.7-.672V12.676h-.949q-1.907,0-2.03,1.318l-.009.149a1.017,1.017,0,0,0,.334.782A1.3,1.3,0,0,0,74.786,15.233Zm10.327-3.059a5.731,5.731,0,0,1,1-3.542A3.237,3.237,0,0,1,88.84,7.314a2.913,2.913,0,0,1,2.294,1.037V3.5h2.549V17H91.389l-.123-1.011a2.989,2.989,0,0,1-2.443,1.187,3.228,3.228,0,0,1-2.694-1.323A5.916,5.916,0,0,1,85.113,12.175Zm2.54.189a3.754,3.754,0,0,0,.466,2.051,1.517,1.517,0,0,0,1.354.713,1.7,1.7,0,0,0,1.661-.995V10.375A1.675,1.675,0,0,0,89.49,9.38Q87.653,9.38,87.653,12.364Zm12.375,4.812a4.668,4.668,0,0,1-3.406-1.283,4.561,4.561,0,0,1-1.314-3.419v-.246a5.745,5.745,0,0,1,.554-2.562,4.064,4.064,0,0,1,1.569-1.74,4.4,4.4,0,0,1,2.316-.611,3.947,3.947,0,0,1,3.072,1.23,5,5,0,0,1,1.121,3.489v1.037H97.884a2.36,2.36,0,0,0,.743,1.494,2.245,2.245,0,0,0,1.569.563,2.742,2.742,0,0,0,2.294-1.063l1.248,1.4a3.813,3.813,0,0,1-1.547,1.261A5.075,5.075,0,0,1,100.028,17.176Zm-.29-7.813a1.587,1.587,0,0,0-1.226.512,2.651,2.651,0,0,0-.6,1.466h3.533v-.2a1.891,1.891,0,0,0-.457-1.311A1.638,1.638,0,0,0,99.738,9.362ZM108.062,17h-2.549V3.5h2.549Zm17.253-6.108a7.725,7.725,0,0,1-.668,3.313,5.03,5.03,0,0,1-1.912,2.2,5.649,5.649,0,0,1-5.691.009,5.08,5.08,0,0,1-1.934-2.184,7.5,7.5,0,0,1-.694-3.265v-.633A7.685,7.685,0,0,1,115.1,7,5.072,5.072,0,0,1,117.022,4.8a5.64,5.64,0,0,1,5.687,0A5.072,5.072,0,0,1,124.633,7a7.663,7.663,0,0,1,.681,3.318Zm-2.672-.58a5.385,5.385,0,0,0-.721-3.059,2.546,2.546,0,0,0-4.1-.013,5.324,5.324,0,0,0-.729,3.028v.624a5.453,5.453,0,0,0,.721,3.041,2.524,2.524,0,0,0,4.113.04,5.421,5.421,0,0,0,.721-3.037Z" transform="translate(335 6544)" fill="#12263f"/>
        <path id="Trazado_828283" data-name="Trazado 828283" d="M3.454,9.477H4.808A1.907,1.907,0,0,0,6.24,8.993,1.771,1.771,0,0,0,6.706,7.71a1.566,1.566,0,0,0-.461-1.2,1.788,1.788,0,0,0-1.27-.431,1.874,1.874,0,0,0-1.222.4,1.279,1.279,0,0,0-.492,1.042H.721a3.124,3.124,0,0,1,.541-1.8A3.6,3.6,0,0,1,2.773,4.476a5.045,5.045,0,0,1,2.14-.448A4.785,4.785,0,0,1,8.095,5,3.314,3.314,0,0,1,9.246,7.675,2.693,2.693,0,0,1,8.71,9.292,3.483,3.483,0,0,1,7.3,10.426a3.18,3.18,0,0,1,1.613,1.16,3.147,3.147,0,0,1,.532,1.828A3.369,3.369,0,0,1,8.2,16.147a5,5,0,0,1-3.292,1.028A4.741,4.741,0,0,1,1.78,16.165,3.3,3.3,0,0,1,.563,13.493H3.1a1.472,1.472,0,0,0,.541,1.178,1.992,1.992,0,0,0,1.332.457,2,2,0,0,0,1.419-.479,1.654,1.654,0,0,0,.514-1.27q0-1.916-2.109-1.916H3.454Z" transform="translate(462 6550)" fill="#12263f"/>
      </g>
      <g id="Grupo_1070943" data-name="Grupo 1070943" transform="translate(85 180)">
        <path id="Trazado_828267" data-name="Trazado 828267" d="M0,0H190V48H0Z" transform="translate(305 6530)" fill="#dbf9bd"/>
        <path id="Trazado_828268" data-name="Trazado 828268" d="M57.972,11.454H52.909v3.428h5.941V17H50.272V4.2h8.561V6.339H52.909v3.05h5.063Zm5.3-6.3V7.49H64.9V9.354H63.271V14.1a1.133,1.133,0,0,0,.2.756,1.015,1.015,0,0,0,.773.229,4.051,4.051,0,0,0,.747-.062v1.925a5.229,5.229,0,0,1-1.538.229,2.425,2.425,0,0,1-2.725-2.7V9.354H59.343V7.49h1.389V5.152ZM68.993,17H66.444V7.49h2.549Zm-2.7-11.971a1.251,1.251,0,0,1,.382-.94,1.648,1.648,0,0,1,2.079,0,1.244,1.244,0,0,1,.387.94,1.247,1.247,0,0,1-.391.949,1.629,1.629,0,0,1-2.065,0A1.247,1.247,0,0,1,66.295,5.029ZM73.766,17H71.217V3.5h2.549Zm6.469.176a4.668,4.668,0,0,1-3.406-1.283,4.561,4.561,0,0,1-1.314-3.419v-.246a5.745,5.745,0,0,1,.554-2.562,4.064,4.064,0,0,1,1.569-1.74,4.4,4.4,0,0,1,2.316-.611,3.947,3.947,0,0,1,3.072,1.23,5,5,0,0,1,1.121,3.489v1.037H78.09a2.36,2.36,0,0,0,.743,1.494,2.245,2.245,0,0,0,1.569.563A2.742,2.742,0,0,0,82.7,14.064l1.248,1.4A3.813,3.813,0,0,1,82.4,16.723,5.075,5.075,0,0,1,80.234,17.176Zm-.29-7.813a1.587,1.587,0,0,0-1.226.512,2.651,2.651,0,0,0-.6,1.466h3.533v-.2a1.891,1.891,0,0,0-.457-1.311A1.638,1.638,0,0,0,79.944,9.362Zm7.98-1.872L88,8.589a3.32,3.32,0,0,1,2.733-1.274,2.759,2.759,0,0,1,2.25.888,4.142,4.142,0,0,1,.756,2.654V17H91.2V10.918a1.648,1.648,0,0,0-.352-1.173,1.574,1.574,0,0,0-1.169-.365,1.747,1.747,0,0,0-1.608.914V17h-2.54V7.49Zm7.348,4.667a5.64,5.64,0,0,1,.545-2.522,3.989,3.989,0,0,1,1.569-1.714,4.577,4.577,0,0,1,2.377-.606,4.33,4.33,0,0,1,3.142,1.178,4.727,4.727,0,0,1,1.358,3.2l.018.65a4.97,4.97,0,0,1-1.222,3.511,4.735,4.735,0,0,1-6.561,0,5.058,5.058,0,0,1-1.226-3.586Zm2.54.18a3.555,3.555,0,0,0,.51,2.073,1.831,1.831,0,0,0,2.9.009,3.89,3.89,0,0,0,.519-2.267,3.519,3.519,0,0,0-.519-2.06,1.686,1.686,0,0,0-1.459-.731,1.658,1.658,0,0,0-1.441.726A3.955,3.955,0,0,0,97.813,12.338Z" transform="translate(325 6544)" fill="#12263f"/>
      </g>
      <g id="Grupo_1070944" data-name="Grupo 1070944" transform="translate(715 184)">
        <rect id="Rectángulo_376601-2" data-name="Rectángulo 376601" width="190" height="48" transform="translate(305 6530)" fill="#dbf9bd"/>
        <path id="Trazado_828284" data-name="Trazado 828284" d="M29.346,12.737a4.528,4.528,0,0,1-1.525,3.252A5.355,5.355,0,0,1,24.2,17.176a4.816,4.816,0,0,1-3.872-1.657,6.793,6.793,0,0,1-1.411-4.548v-.782a7.671,7.671,0,0,1,.65-3.252,4.874,4.874,0,0,1,1.859-2.158,5.207,5.207,0,0,1,2.808-.751A5.217,5.217,0,0,1,27.8,5.214a4.866,4.866,0,0,1,1.564,3.331H26.727a2.673,2.673,0,0,0-.69-1.8,2.555,2.555,0,0,0-1.806-.558,2.24,2.24,0,0,0-1.973.945,5.3,5.3,0,0,0-.672,2.931v.967a5.667,5.667,0,0,0,.628,3.032,2.2,2.2,0,0,0,1.982.958,2.6,2.6,0,0,0,1.824-.558,2.521,2.521,0,0,0,.69-1.727Zm1.169-.58a5.64,5.64,0,0,1,.545-2.522,3.989,3.989,0,0,1,1.569-1.714,4.577,4.577,0,0,1,2.377-.606,4.33,4.33,0,0,1,3.142,1.178,4.727,4.727,0,0,1,1.358,3.2l.018.65A4.97,4.97,0,0,1,38.3,15.853a4.247,4.247,0,0,1-3.278,1.323,4.268,4.268,0,0,1-3.283-1.318,5.058,5.058,0,0,1-1.226-3.586Zm2.54.18a3.555,3.555,0,0,0,.51,2.073,1.831,1.831,0,0,0,2.9.009,3.89,3.89,0,0,0,.519-2.267,3.519,3.519,0,0,0-.519-2.06,1.686,1.686,0,0,0-1.459-.731,1.658,1.658,0,0,0-1.441.726A3.955,3.955,0,0,0,33.055,12.338ZM43.426,7.49l.079,1.1a3.32,3.32,0,0,1,2.733-1.274,2.759,2.759,0,0,1,2.25.888,4.142,4.142,0,0,1,.756,2.654V17H46.7V10.918a1.648,1.648,0,0,0-.352-1.173,1.574,1.574,0,0,0-1.169-.365,1.747,1.747,0,0,0-1.608.914V17h-2.54V7.49Zm11.7,7.638a1.666,1.666,0,0,0,1.143-.387,1.355,1.355,0,0,0,.457-1.028h2.382a3.258,3.258,0,0,1-.527,1.771,3.48,3.48,0,0,1-1.419,1.248,4.442,4.442,0,0,1-1.991.444,4.129,4.129,0,0,1-3.217-1.3A5.13,5.13,0,0,1,50.773,12.3v-.167a5.071,5.071,0,0,1,1.169-3.507,4.08,4.08,0,0,1,3.208-1.31A4,4,0,0,1,58.011,8.33a3.594,3.594,0,0,1,1.094,2.7H56.724a1.745,1.745,0,0,0-.457-1.206,1.7,1.7,0,0,0-2.5.183,3.749,3.749,0,0,0-.453,2.1v.264a3.8,3.8,0,0,0,.448,2.113A1.549,1.549,0,0,0,55.124,15.128Zm9.809,2.048a4.668,4.668,0,0,1-3.406-1.283,4.561,4.561,0,0,1-1.314-3.419v-.246a5.745,5.745,0,0,1,.554-2.562,4.064,4.064,0,0,1,1.569-1.74,4.4,4.4,0,0,1,2.316-.611,3.947,3.947,0,0,1,3.072,1.23,5,5,0,0,1,1.121,3.489v1.037H62.788a2.36,2.36,0,0,0,.743,1.494,2.245,2.245,0,0,0,1.569.563,2.742,2.742,0,0,0,2.294-1.063l1.248,1.4a3.813,3.813,0,0,1-1.547,1.261A5.075,5.075,0,0,1,64.933,17.176Zm-.29-7.813a1.587,1.587,0,0,0-1.226.512,2.651,2.651,0,0,0-.6,1.466h3.533v-.2a1.891,1.891,0,0,0-.457-1.311A1.638,1.638,0,0,0,64.643,9.362Zm7.98-1.872.079,1.1a3.32,3.32,0,0,1,2.733-1.274,2.759,2.759,0,0,1,2.25.888,4.142,4.142,0,0,1,.756,2.654V17H75.9V10.918a1.648,1.648,0,0,0-.352-1.173,1.574,1.574,0,0,0-1.169-.365,1.747,1.747,0,0,0-1.608.914V17h-2.54V7.49ZM83.407,5.152V7.49h1.626V9.354H83.407V14.1a1.133,1.133,0,0,0,.2.756,1.015,1.015,0,0,0,.773.229,4.051,4.051,0,0,0,.747-.062v1.925a5.229,5.229,0,0,1-1.538.229,2.425,2.425,0,0,1-2.725-2.7V9.354H79.479V7.49h1.389V5.152Zm8.385,4.72a6.9,6.9,0,0,0-.914-.07,1.86,1.86,0,0,0-1.89.976V17h-2.54V7.49h2.4l.07,1.134a2.354,2.354,0,0,1,2.118-1.31,2.662,2.662,0,0,1,.791.114ZM98.261,17a2.821,2.821,0,0,1-.255-.853,3.073,3.073,0,0,1-2.4,1.028,3.376,3.376,0,0,1-2.316-.809,2.6,2.6,0,0,1-.918-2.039,2.687,2.687,0,0,1,1.121-2.32,5.529,5.529,0,0,1,3.239-.817H97.9v-.545a1.567,1.567,0,0,0-.338-1.055,1.331,1.331,0,0,0-1.068-.4,1.513,1.513,0,0,0-1.006.308,1.045,1.045,0,0,0-.365.844h-2.54a2.551,2.551,0,0,1,.51-1.529,3.37,3.37,0,0,1,1.441-1.1,5.253,5.253,0,0,1,2.092-.4,4.15,4.15,0,0,1,2.791.883,3.09,3.09,0,0,1,1.033,2.483V14.8a4.546,4.546,0,0,0,.378,2.048V17Zm-2.1-1.767a2.188,2.188,0,0,0,1.037-.25,1.645,1.645,0,0,0,.7-.672V12.676h-.949q-1.907,0-2.03,1.318l-.009.149a1.017,1.017,0,0,0,.334.782A1.3,1.3,0,0,0,96.16,15.233Zm10.2-.105a1.666,1.666,0,0,0,1.143-.387,1.355,1.355,0,0,0,.457-1.028h2.382a3.258,3.258,0,0,1-.527,1.771,3.48,3.48,0,0,1-1.419,1.248,4.442,4.442,0,0,1-1.991.444,4.129,4.129,0,0,1-3.217-1.3A5.13,5.13,0,0,1,102,12.3v-.167a5.071,5.071,0,0,1,1.169-3.507,4.08,4.08,0,0,1,3.208-1.31,4,4,0,0,1,2.861,1.015,3.594,3.594,0,0,1,1.094,2.7h-2.382a1.745,1.745,0,0,0-.457-1.206,1.7,1.7,0,0,0-2.5.183,3.749,3.749,0,0,0-.453,2.1v.264a3.8,3.8,0,0,0,.448,2.113A1.549,1.549,0,0,0,106.355,15.128ZM114.468,17h-2.549V7.49h2.549Zm-2.7-11.971a1.251,1.251,0,0,1,.382-.94,1.648,1.648,0,0,1,2.079,0,1.244,1.244,0,0,1,.387.94,1.247,1.247,0,0,1-.391.949,1.629,1.629,0,0,1-2.065,0A1.247,1.247,0,0,1,111.77,5.029Zm4.395,7.128a5.64,5.64,0,0,1,.545-2.522,3.989,3.989,0,0,1,1.569-1.714,4.577,4.577,0,0,1,2.377-.606A4.33,4.33,0,0,1,123.8,8.492a4.727,4.727,0,0,1,1.358,3.2l.018.65a4.97,4.97,0,0,1-1.222,3.511,4.735,4.735,0,0,1-6.561,0,5.058,5.058,0,0,1-1.226-3.586Zm2.54.18a3.555,3.555,0,0,0,.51,2.073,1.831,1.831,0,0,0,2.9.009,3.89,3.89,0,0,0,.519-2.267,3.519,3.519,0,0,0-.519-2.06,1.686,1.686,0,0,0-1.459-.731,1.658,1.658,0,0,0-1.441.726A3.955,3.955,0,0,0,118.7,12.338ZM121.156,3.5h2.769L121.49,6.225h-2.065Zm7.919,3.99.079,1.1a3.32,3.32,0,0,1,2.733-1.274,2.759,2.759,0,0,1,2.25.888,4.142,4.142,0,0,1,.756,2.654V17h-2.54V10.918A1.648,1.648,0,0,0,132,9.745a1.574,1.574,0,0,0-1.169-.365,1.747,1.747,0,0,0-1.608.914V17h-2.54V7.49Z" transform="translate(325 6544)" fill="#12263f"/>
      </g>
      <g id="Grupo_1070948" data-name="Grupo 1070948" transform="translate(400 265)">
        <path id="Trazado_828285" data-name="Trazado 828285" d="M0,0H190V48H0Z" transform="translate(305 6530)" fill="#dbf9bd"/>
        <path id="Trazado_828286" data-name="Trazado 828286" d="M39.853,17V4.2h4.482a5.886,5.886,0,0,1,3.533.892,3.05,3.05,0,0,1,1.2,2.615,2.891,2.891,0,0,1-.483,1.657,2.792,2.792,0,0,1-1.345,1.05,2.7,2.7,0,0,1,1.551.993,2.936,2.936,0,0,1,.567,1.828,3.377,3.377,0,0,1-1.178,2.795A5.3,5.3,0,0,1,44.828,17Zm2.637-5.572v3.454h2.259a2.18,2.18,0,0,0,1.455-.444,1.522,1.522,0,0,0,.523-1.226,1.607,1.607,0,0,0-1.819-1.784Zm0-1.863h1.951q2-.035,2-1.591a1.47,1.47,0,0,0-.505-1.252,2.658,2.658,0,0,0-1.6-.382H42.49ZM56.684,17a2.821,2.821,0,0,1-.255-.853,3.073,3.073,0,0,1-2.4,1.028,3.376,3.376,0,0,1-2.316-.809,2.6,2.6,0,0,1-.918-2.039,2.687,2.687,0,0,1,1.121-2.32,5.529,5.529,0,0,1,3.239-.817h1.169v-.545a1.567,1.567,0,0,0-.338-1.055,1.331,1.331,0,0,0-1.068-.4,1.513,1.513,0,0,0-1.006.308,1.045,1.045,0,0,0-.365.844h-2.54a2.551,2.551,0,0,1,.51-1.529,3.37,3.37,0,0,1,1.441-1.1,5.253,5.253,0,0,1,2.092-.4A4.15,4.15,0,0,1,57.84,8.2a3.09,3.09,0,0,1,1.033,2.483V14.8a4.546,4.546,0,0,0,.378,2.048V17Zm-2.1-1.767a2.188,2.188,0,0,0,1.037-.25,1.645,1.645,0,0,0,.7-.672V12.676h-.949q-1.907,0-2.03,1.318l-.009.149a1.017,1.017,0,0,0,.334.782A1.3,1.3,0,0,0,54.583,15.233Zm10.2-.105a1.666,1.666,0,0,0,1.143-.387,1.355,1.355,0,0,0,.457-1.028H68.76a3.258,3.258,0,0,1-.527,1.771,3.48,3.48,0,0,1-1.419,1.248,4.442,4.442,0,0,1-1.991.444,4.129,4.129,0,0,1-3.217-1.3A5.13,5.13,0,0,1,60.428,12.3v-.167A5.071,5.071,0,0,1,61.6,8.624a4.08,4.08,0,0,1,3.208-1.31A4,4,0,0,1,67.666,8.33a3.594,3.594,0,0,1,1.094,2.7H66.378a1.745,1.745,0,0,0-.457-1.206,1.7,1.7,0,0,0-2.5.183,3.749,3.749,0,0,0-.453,2.1v.264a3.8,3.8,0,0,0,.448,2.113A1.549,1.549,0,0,0,64.779,15.128Zm8.473-9.976V7.49h1.626V9.354H73.251V14.1a1.133,1.133,0,0,0,.2.756,1.015,1.015,0,0,0,.773.229,4.051,4.051,0,0,0,.747-.062v1.925a5.229,5.229,0,0,1-1.538.229,2.425,2.425,0,0,1-2.725-2.7V9.354H69.323V7.49h1.389V5.152Zm7.418,12.023a4.668,4.668,0,0,1-3.406-1.283,4.561,4.561,0,0,1-1.314-3.419v-.246A5.745,5.745,0,0,1,76.5,9.666a4.064,4.064,0,0,1,1.569-1.74,4.4,4.4,0,0,1,2.316-.611,3.947,3.947,0,0,1,3.072,1.23,5,5,0,0,1,1.121,3.489v1.037H78.525a2.36,2.36,0,0,0,.743,1.494,2.245,2.245,0,0,0,1.569.563,2.742,2.742,0,0,0,2.294-1.063l1.248,1.4a3.813,3.813,0,0,1-1.547,1.261A5.075,5.075,0,0,1,80.669,17.176Zm-.29-7.813a1.587,1.587,0,0,0-1.226.512,2.651,2.651,0,0,0-.6,1.466h3.533v-.2a1.891,1.891,0,0,0-.457-1.311A1.638,1.638,0,0,0,80.379,9.362Zm10.986.51a6.9,6.9,0,0,0-.914-.07,1.86,1.86,0,0,0-1.89.976V17h-2.54V7.49h2.4l.07,1.134a2.354,2.354,0,0,1,2.118-1.31,2.662,2.662,0,0,1,.791.114ZM95.268,17H92.719V7.49h2.549ZM92.57,5.029a1.251,1.251,0,0,1,.382-.94,1.648,1.648,0,0,1,2.079,0,1.244,1.244,0,0,1,.387.94,1.247,1.247,0,0,1-.391.949,1.629,1.629,0,0,1-2.065,0A1.247,1.247,0,0,1,92.57,5.029ZM102.871,17a2.821,2.821,0,0,1-.255-.853,3.073,3.073,0,0,1-2.4,1.028,3.376,3.376,0,0,1-2.316-.809,2.6,2.6,0,0,1-.918-2.039,2.687,2.687,0,0,1,1.121-2.32,5.529,5.529,0,0,1,3.239-.817h1.169v-.545a1.567,1.567,0,0,0-.338-1.055,1.331,1.331,0,0,0-1.068-.4A1.513,1.513,0,0,0,100.1,9.5a1.045,1.045,0,0,0-.365.844h-2.54a2.551,2.551,0,0,1,.51-1.529,3.37,3.37,0,0,1,1.441-1.1,5.253,5.253,0,0,1,2.092-.4,4.15,4.15,0,0,1,2.791.883,3.09,3.09,0,0,1,1.033,2.483V14.8a4.546,4.546,0,0,0,.378,2.048V17Zm-2.1-1.767a2.188,2.188,0,0,0,1.037-.25,1.645,1.645,0,0,0,.7-.672V12.676h-.949q-1.907,0-2.03,1.318l-.009.149a1.017,1.017,0,0,0,.334.782A1.3,1.3,0,0,0,100.77,15.233Zm11.391-.861a.818.818,0,0,0-.461-.734,5.241,5.241,0,0,0-1.481-.479q-3.393-.712-3.393-2.883a2.613,2.613,0,0,1,1.05-2.114,4.237,4.237,0,0,1,2.747-.848,4.56,4.56,0,0,1,2.9.853,2.687,2.687,0,0,1,1.085,2.215h-2.54a1.229,1.229,0,0,0-.352-.9,1.488,1.488,0,0,0-1.1-.356,1.52,1.52,0,0,0-.993.29.916.916,0,0,0-.352.738.783.783,0,0,0,.4.681,4.114,4.114,0,0,0,1.349.448,11.019,11.019,0,0,1,1.6.426,2.628,2.628,0,0,1,2.013,2.558,2.481,2.481,0,0,1-1.116,2.1,4.815,4.815,0,0,1-2.883.8,5.029,5.029,0,0,1-2.123-.426,3.561,3.561,0,0,1-1.455-1.169,2.716,2.716,0,0,1-.527-1.6h2.408a1.326,1.326,0,0,0,.5,1.037,1.987,1.987,0,0,0,1.248.36,1.839,1.839,0,0,0,1.1-.277A.861.861,0,0,0,112.161,14.372Z" transform="translate(325 6544)" fill="#12263f"/>
      </g>
      <path id="Trazado_828271" data-name="Trazado 828271" d="M0,0H24V22H0Z" transform="translate(580 6559)" fill="#3b5620"/>
      <path id="Trazado_828272" data-name="Trazado 828272" d="M0,0H24V22H0Z" transform="translate(996 6559)" fill="#3b5620"/>
      <path id="Trazado_828273" data-name="Trazado 828273" d="M0,0H24V22H0Z" transform="translate(580 6722)" fill="#3b5620"/>
      <path id="Trazado_828274" data-name="Trazado 828274" d="M0,0H24V22H0Z" transform="translate(996 6726)" fill="#3b5620"/>
      <path id="Trazado_828275" data-name="Trazado 828275" d="M0,0H24V22H0Z" transform="translate(788 6773)" fill="#3b5620"/>
      <path id="Trazado_828276" data-name="Trazado 828276" d="M7.04,17H4.5V7.209l-3.032.94V6.084l5.3-1.9H7.04Z" transform="translate(588 6559)" fill="#fff"/>
      <path id="Trazado_828277" data-name="Trazado 828277" d="M8.385,12.184h1.45v2.048H8.385V17H5.845V14.231H.6l-.114-1.6L5.818,4.2H8.385Zm-5.37,0h2.83V7.666l-.167.29Z" transform="translate(1004 6559)" fill="#fff"/>
      <path id="Trazado_828278" data-name="Trazado 828278" d="M9.642,17H.87V15.26l4.14-4.412A10.213,10.213,0,0,0,6.271,9.222,2.612,2.612,0,0,0,6.68,7.9a1.955,1.955,0,0,0-.431-1.34,1.555,1.555,0,0,0-1.23-.488,1.677,1.677,0,0,0-1.358.593,2.35,2.35,0,0,0-.5,1.56H.615a4.2,4.2,0,0,1,.558-2.136A3.934,3.934,0,0,1,2.751,4.577a4.8,4.8,0,0,1,2.312-.549,4.54,4.54,0,0,1,3.072.949A3.358,3.358,0,0,1,9.229,7.657a4.3,4.3,0,0,1-.492,1.934,10.745,10.745,0,0,1-1.687,2.294L4.14,14.952h5.5Z" transform="translate(588 6722)" fill="#fff"/>
      <path id="Trazado_828279" data-name="Trazado 828279" d="M1.248,10.707l.738-6.5H9.158V6.321H4.069L3.753,9.072a4.027,4.027,0,0,1,1.925-.483A3.689,3.689,0,0,1,8.543,9.723,4.529,4.529,0,0,1,9.58,12.9a4.64,4.64,0,0,1-.523,2.219,3.691,3.691,0,0,1-1.5,1.521,4.678,4.678,0,0,1-2.3.541,4.968,4.968,0,0,1-2.153-.47,3.819,3.819,0,0,1-1.569-1.323A3.605,3.605,0,0,1,.923,13.44H3.437a1.878,1.878,0,0,0,.558,1.244,1.769,1.769,0,0,0,1.252.444,1.562,1.562,0,0,0,1.327-.62,2.87,2.87,0,0,0,.466-1.753,2.374,2.374,0,0,0-.536-1.67,1.967,1.967,0,0,0-1.521-.58,2.2,2.2,0,0,0-1.468.475l-.246.229Z" transform="translate(1004 6726)" fill="#fff"/>
      <path id="Trazado_828280" data-name="Trazado 828280" d="M3.454,9.477H4.808A1.907,1.907,0,0,0,6.24,8.993,1.771,1.771,0,0,0,6.706,7.71a1.566,1.566,0,0,0-.461-1.2,1.788,1.788,0,0,0-1.27-.431,1.874,1.874,0,0,0-1.222.4,1.279,1.279,0,0,0-.492,1.042H.721a3.124,3.124,0,0,1,.541-1.8A3.6,3.6,0,0,1,2.773,4.476a5.045,5.045,0,0,1,2.14-.448A4.785,4.785,0,0,1,8.095,5,3.314,3.314,0,0,1,9.246,7.675,2.693,2.693,0,0,1,8.71,9.292,3.483,3.483,0,0,1,7.3,10.426a3.18,3.18,0,0,1,1.613,1.16,3.147,3.147,0,0,1,.532,1.828A3.369,3.369,0,0,1,8.2,16.147a5,5,0,0,1-3.292,1.028A4.741,4.741,0,0,1,1.78,16.165,3.3,3.3,0,0,1,.563,13.493H3.1a1.472,1.472,0,0,0,.541,1.178,1.992,1.992,0,0,0,1.332.457,2,2,0,0,0,1.419-.479,1.654,1.654,0,0,0,.514-1.27q0-1.916-2.109-1.916H3.454Z" transform="translate(796 6773)" fill="#fff"/>
      <path id="Trazado_823220" data-name="Trazado 823220" d="M7682.869-5086.924l-57.368-57.368H7584" transform="translate(-6984 11715)" fill="none" stroke="#3b5620" stroke-width="2" stroke-dasharray="4"/>
      <path id="Trazado_823221" data-name="Trazado 823221" d="M7584-5086.924l57.368-57.368h41.5" transform="translate(-6682.869 11715)" fill="none" stroke="#3b5620" stroke-width="2" stroke-dasharray="4"/>
      <path id="Trazado_823222" data-name="Trazado 823222" d="M7682.869-5020.342,7640.994-4982h-52.448" transform="translate(-6984 11715)" fill="none" stroke="#3b5620" stroke-width="2" stroke-dasharray="4"/>
      <path id="Trazado_823223" data-name="Trazado 823223" d="M7588.545-5020.342,7630.42-4982h52.448" transform="translate(-6682.868 11715)" fill="none" stroke="#3b5620" stroke-width="2" stroke-dasharray="4"/>
      <path id="Trazado_823224" data-name="Trazado 823224" d="M7630.42-4982h52.448" transform="translate(-4182 -908.42) rotate(90)" fill="none" stroke="#3b5620" stroke-width="2" stroke-dasharray="4"/>
      <g id="Grupo_1070967" data-name="Grupo 1070967" transform="translate(447.299 6458.962)">
        <g id="Grupo_1070966" data-name="Grupo 1070966" clip-path="url(#clip-path-8)">
          <path id="Trazado_823269" data-name="Trazado 823269" d="M0,227.326H2.18v-28.9H4.405v28.848h2.2v-4.36H15.86v-2.657a26.553,26.553,0,0,1-3.659-.792,6.277,6.277,0,0,1-4.283-4.4c-.29-1.124-.184-1.452.763-2.122a6.436,6.436,0,0,1,5.912-.614c.418.126.814.321,1.279.508v-2.22a8.356,8.356,0,0,1-5.5-1.545,5.368,5.368,0,0,1-2.54-4.264,1.3,1.3,0,0,1,.368-.878c1.718-1.623,3.78-1.733,5.913-1.158a11.082,11.082,0,0,1,2.462,1.115.761.761,0,0,0,.961-.016,7.106,7.106,0,0,1,6.089-1.176c3,.9,3.438,1.977,1.773,4.648a7.4,7.4,0,0,1-6.127,3.278c-.338.025-.68,0-1.068,0v2.048a33.246,33.246,0,0,1,3.463-.725,5.029,5.029,0,0,1,4.3,1.484,1.26,1.26,0,0,1,.307.893,6.485,6.485,0,0,1-5.192,5.439,28.163,28.163,0,0,1-2.878.418v2.662H36.528v-2.673a23.85,23.85,0,0,1-2.8-.407,6.749,6.749,0,0,1-4.642-3.457c-1.142-2.342-.933-2.954,1.485-4a6.65,6.65,0,0,1,5.162.193c.248.1.491.2.8.333v-2.1a25.179,25.179,0,0,1-2.814-.417,6.724,6.724,0,0,1-4.638-3.461c-1.137-2.334-.946-3,1.5-3.984a7,7,0,0,1,6.585.952.887.887,0,0,0,1.149-.01,6.99,6.99,0,0,1,6.447-.978c2.575.98,2.823,1.745,1.558,4.1-1.332,2.48-3.687,3.478-6.408,3.686-.312.024-.628,0-.99,0v2.034a32.964,32.964,0,0,1,3.474-.714,5.234,5.234,0,0,1,4.144,1.351,1.281,1.281,0,0,1,.427,1.306,5.82,5.82,0,0,1-2.423,3.82,8.23,8.23,0,0,1-5.085,1.648c-.166,0-.331,0-.541,0v2.778H57.252v-2.671a21.142,21.142,0,0,1-2.822-.41c-2.378-.669-4.282-1.959-5.078-4.455-.428-1.343-.248-1.825.957-2.552a6.708,6.708,0,0,1,6.088-.267c.271.1.533.222.862.361v-2.115a20.877,20.877,0,0,1-2.9-.43,6.734,6.734,0,0,1-5.009-4.437c-.426-1.339-.251-1.827.958-2.551a6.73,6.73,0,0,1,6.356-.146c.605.251,1.153.885,1.73.889s1.13-.614,1.731-.874a6.719,6.719,0,0,1,5.7-.212c2.023.948,2.307,1.449,1.387,3.554-1.021,2.335-3.044,3.444-5.436,3.94a20.133,20.133,0,0,1-2.181.214v1.98c1.137-.244,2.287-.585,3.461-.72a5.447,5.447,0,0,1,3.874,1.086,1.617,1.617,0,0,1,.648,1.919,6.307,6.307,0,0,1-4.276,4.5,27.054,27.054,0,0,1-3.716.812v2.593H68.8v4.4h2.227v-6.546h2.2v6.578H75.4v6.685H0Zm66.6-2.166H8.882v2.163H36.61v2.238H2.271v2.147H73.2v-2.2H38.838V227.3H66.6ZM10.149,205.214a5.156,5.156,0,0,0,5.715,3.016c.257-2.022-.056-2.54-1.932-3.19-.115-.04-.231-.08-.349-.109a4.326,4.326,0,0,0-3.434.283m8.006,3a5.467,5.467,0,0,0,5.493-2.25c.405-.695.353-.879-.412-1.075a5.439,5.439,0,0,0-4.811,1.12.832.832,0,0,0-.259.556c-.035.535-.012,1.073-.012,1.649m39.085.012c.284-1.947,0-2.461-1.8-3.123a5.685,5.685,0,0,0-1.343-.346,3.521,3.521,0,0,0-2.522.454c.363,1.956,3.45,3.585,5.669,3.015m8.072-2.99a3.435,3.435,0,0,0-.335-.2,5.4,5.4,0,0,0-5.213,1,.838.838,0,0,0-.216.5c-.027.56-.01,1.122-.01,1.668a5.164,5.164,0,0,0,5.774-2.971M15.865,217.686c.231-2.109-.068-2.583-2.025-3.225a4.444,4.444,0,0,0-.991-.249,3.533,3.533,0,0,0-2.694.486,5.21,5.21,0,0,0,5.71,2.988m2.292-.031c2.385.527,5.38-1.062,5.732-3.016a3.746,3.746,0,0,0-.368-.205,5.465,5.465,0,0,0-5.145,1.048.751.751,0,0,0-.21.437c-.024.583-.01,1.168-.01,1.736m39.1.022c.208-2.125-.062-2.551-1.993-3.206a2.9,2.9,0,0,0-.277-.094,4.275,4.275,0,0,0-3.447.281c.555,2.023,3.322,3.477,5.717,3.019m8.026-3a1.418,1.418,0,0,0-.221-.169,5.43,5.43,0,0,0-5.341,1,.652.652,0,0,0-.169.378c-.018.6-.008,1.205-.008,1.788,2.469.457,5.216-1,5.739-3m-28.763-6.451c.3-1.961-.03-2.517-1.857-3.168-.092-.033-.189-.053-.283-.08a4.277,4.277,0,0,0-3.544.242,5.124,5.124,0,0,0,5.684,3.007m2.359,0c2.107.6,5.439-1.1,5.736-3.029a4.79,4.79,0,0,0-4.238.037c-1.048.411-1.789,1.005-1.5,2.3a3.475,3.475,0,0,1,.007.7m-2.366,9.46c.321-1.927.008-2.489-1.764-3.151-.115-.043-.233-.076-.351-.109a4.363,4.363,0,0,0-3.542.221c.239,1.772,3.407,3.618,5.657,3.039m2.37-.027c2.224.612,5.429-1.156,5.733-2.983a1.736,1.736,0,0,0-.232-.161,5.431,5.431,0,0,0-5.31.958.644.644,0,0,0-.183.375c-.019.61-.008,1.221-.008,1.812" transform="translate(0 -159.368)" fill="#12263f"/>
          <path id="Trazado_823270" data-name="Trazado 823270" d="M82.2,59.061H80.031V30.184H47.895v3.234H68.473v4.452h-2.2V35.748h-18.4v2.107H45.558v-2.11h-18.4v2.114H24.944v-4.42H45.511V30.185H13.425v6.546h-2.2c-.013-.195-.04-.407-.04-.619,0-4.578.007-9.157-.014-13.735a1,1,0,0,1,.562-.986Q28.954,10.809,46.148.188a.944.944,0,0,1,1.169.033q17.191,10.614,34.4,21.194a.891.891,0,0,1,.515.864q-.021,18.2-.012,36.4c0,.1-.011.195-.023.378M62.732,21.242a2.977,2.977,0,0,0,.044-.337c0-2.683.017-5.367-.019-8.049a1.13,1.13,0,0,0-.51-.765Q55.336,7.8,48.4,3.546c-.151-.093-.32-.158-.5-.245V21.242ZM45.522,3.3a1.9,1.9,0,0,0-.223.086q-7.15,4.39-14.288,8.8a1.058,1.058,0,0,0-.365.777c-.031,1.87-.017,3.741-.017,5.612v2.658H45.522ZM28.34,23.547H13.459v4.334H28.34Zm36.729,4.321H79.977V23.534H65.068ZM45.523,23.545H30.692v4.348h14.83Zm17.22-.011H47.9v4.347H62.743Zm2.319-2.323H77.089l-12.027-7.4Zm-48.75.013H28.327v-7.4l-12.014,7.4" transform="translate(-8.974 0)" fill="#12263f"/>
          <rect id="Rectángulo_376655" data-name="Rectángulo 376655" width="2.119" height="2.14" transform="translate(66.655 32.385)" fill="#12263f"/>
          <rect id="Rectángulo_376656" data-name="Rectángulo 376656" width="2.126" height="2.151" transform="translate(66.667 36.824)" fill="#12263f"/>
        </g>
      </g>
      <g id="Grupo_1070969" data-name="Grupo 1070969" transform="translate(1077 6471.569)">
        <g id="Grupo_1070968" data-name="Grupo 1070968" clip-path="url(#clip-path-9)">
          <path id="Trazado_823271" data-name="Trazado 823271" d="M0,22.389c.338-1.672.553-3.38,1.036-5.009A23.746,23.746,0,0,1,11.19,3.87,24.39,24.39,0,0,1,25.06,0,138.862,138.862,0,0,1,41.422,1.065,79.1,79.1,0,0,1,60.585,5.592a30.168,30.168,0,0,1,9.608,5.715,14.953,14.953,0,0,1,5.2,11.266c.014,3.509.02,7.019,0,10.528A17.667,17.667,0,0,1,61.066,50.3a15.554,15.554,0,0,1-2.994.311,42.05,42.05,0,0,0-16.779,3.8,61.523,61.523,0,0,1-10.7,3.8,25,25,0,0,1-17.627-2.127A23.956,23.956,0,0,1,1.714,43.548,23.709,23.709,0,0,1,.125,37.086,4.77,4.77,0,0,0,0,36.526V22.389M72.307,32.616c-.233.308-.451.631-.7.922-.562.648-1.116,1.307-1.723,1.911a1.231,1.231,0,0,1-1.6.312A1.93,1.93,0,0,1,67.4,34.55a2.436,2.436,0,0,1,.715-1.508,14.848,14.848,0,0,0,3.491-5.64c1.7-5.168.816-9.759-3.134-13.63a25.6,25.6,0,0,0-8.8-5.345c-7.407-2.907-15.18-4.166-23.05-4.863-3.857-.342-7.737-.424-11.609-.579a19.4,19.4,0,0,0-3.158.14,20.613,20.613,0,0,0-10.6,4.35A20.905,20.905,0,0,0,3.128,26.77,19.721,19.721,0,0,0,7.474,37.364,21,21,0,0,0,25.46,45.6a31.294,31.294,0,0,0,10.851-2.662C42.2,40.52,48.024,37.915,54.5,37.5c1.566-.1,3.134-.182,4.7-.206a1.443,1.443,0,0,1,1.512,1.4,1.458,1.458,0,0,1-1.439,1.544c-.633.068-1.273.1-1.91.107a34.77,34.77,0,0,0-11.861,2.172C42,43.817,38.554,45.281,35.051,46.6a27.888,27.888,0,0,1-13.993,1.8A23.967,23.967,0,0,1,3.523,36.9c-.1-.167-.229-.322-.343-.482a9.645,9.645,0,0,0,.209,2.3A20.919,20.919,0,0,0,13.063,52.7a21.167,21.167,0,0,0,17.455,2.4,96.1,96.1,0,0,0,10.47-3.8,43.158,43.158,0,0,1,16.08-3.627,15.073,15.073,0,0,0,9.838-3.27,14.2,14.2,0,0,0,5.4-11.8" transform="translate(0 0)" fill="#12263f"/>
          <path id="Trazado_823272" data-name="Trazado 823272" d="M52.474,32.111c1.226,0,2.453-.029,3.678.01a1.422,1.422,0,0,1,1.528,1.514,1.449,1.449,0,0,1-1.623,1.424c-1.791-.023-3.581-.093-5.372-.124A15.442,15.442,0,0,0,46.708,65.4,17.479,17.479,0,0,0,56.9,64.682c3.894-1.381,7.7-3,11.583-4.417a42.171,42.171,0,0,1,14-2.678,10.862,10.862,0,0,0,5.986-1.425c3.077-1.975,4.766-5.973,3.808-9.155a7.754,7.754,0,0,0-2.956-3.838,25.006,25.006,0,0,0-6.744-3.526,68.934,68.934,0,0,0-14.242-3.417,6.461,6.461,0,0,1-.864-.172,1.485,1.485,0,0,1-1.115-1.6,1.42,1.42,0,0,1,1.54-1.273c1.361.142,2.717.358,4.065.6A65.834,65.834,0,0,1,84.4,37.153a24.215,24.215,0,0,1,7.98,4.724c3.488,3.286,3.946,7.416,2.147,11.511-1.919,4.367-5.41,6.948-10.171,7.062a54.3,54.3,0,0,0-20.047,4.588,60.448,60.448,0,0,1-9.128,3.177,18.446,18.446,0,1,1-4.546-36.237c.613.006,1.227,0,1.84,0v.132" transform="translate(-25.995 -26.08)" fill="#12263f"/>
          <path id="Trazado_823273" data-name="Trazado 823273" d="M105.751,63.825c4.016-.02,6.813,1.913,7.851,4.984a6.363,6.363,0,0,1-2,6.642,7.936,7.936,0,0,1-11-.646,6.305,6.305,0,0,1,.655-9.107,7.534,7.534,0,0,1,4.5-1.872m.274,2.926a10.954,10.954,0,0,0-2.062.671,3.465,3.465,0,0,0-.243,6.2,5.154,5.154,0,0,0,5.846-.329,3.372,3.372,0,0,0,.252-5.162,5.33,5.33,0,0,0-3.793-1.376" transform="translate(-80.704 -52.054)" fill="#12263f"/>
          <path id="Trazado_823274" data-name="Trazado 823274" d="M180.442,35.741a1.422,1.422,0,0,1,1.506-1.444,1.438,1.438,0,0,1,1.479,1.481,1.475,1.475,0,0,1-1.509,1.467,1.5,1.5,0,0,1-1.476-1.5" transform="translate(-147.163 -27.972)" fill="#12263f"/>
          <path id="Trazado_823275" data-name="Trazado 823275" d="M347.09,195.555a1.415,1.415,0,0,1-1.431-1.52,1.485,1.485,0,0,1,1.469-1.433,1.559,1.559,0,0,1,1.467,1.545,1.5,1.5,0,0,1-1.5,1.409" transform="translate(-281.909 -157.081)" fill="#12263f"/>
        </g>
      </g>
      <g id="Grupo_1070971" data-name="Grupo 1070971" transform="translate(447.299 6637)">
        <g id="Grupo_1070970" data-name="Grupo 1070970" clip-path="url(#clip-path-10)">
          <path id="Trazado_823276" data-name="Trazado 823276" d="M0,44.294c.162-.762.281-1.537.492-2.285C2.4,35.243,6.845,31.2,13.69,29.745c.492-.1,1.129-.082,1.428-.385s.241-.934.308-1.268a30.718,30.718,0,0,1-3.515-1.408A7.611,7.611,0,0,1,8.47,18.146a1.732,1.732,0,0,1,1.008-.989,7.7,7.7,0,0,1,9.328,5.179c.067.225.148.445.23.69.6-.248,1.142-.507,1.709-.7a1.325,1.325,0,0,1,1.8.7,1.31,1.31,0,0,1-.9,1.765,5.857,5.857,0,0,0-3.811,4.75c.86.16,1.7.286,2.518.476a12.417,12.417,0,0,1,1.744.553.514.514,0,0,0,.743-.25A18.547,18.547,0,0,1,26.4,26.308c.391-.351.76-.726,1.158-1.069a6.406,6.406,0,0,0,2.163-4.533,20.026,20.026,0,0,1,2.754-8.995,8.851,8.851,0,0,1,7.5-4.457c.086,0,.171-.02.121-.014a36.438,36.438,0,0,1,1.411-3.5A7.312,7.312,0,0,1,45.746.14c.972-.332,1.662-.068,1.946.734.267.754-.1,1.4-1.033,1.752A5.815,5.815,0,0,0,42.935,7.5c.729.314,1.418.579,2.08.9a8.339,8.339,0,0,1,4.23,5.112,17.352,17.352,0,0,1,.7,7.448q-.17,1.661-.415,3.314a5.86,5.86,0,0,0,.971,3.988c.783,1.287,1.582,2.565,2.443,3.957.463-.979.924-1.884,1.321-2.817.375-.882.648-1.808,1.034-2.685a1.789,1.789,0,0,1,.759-.911A1.5,1.5,0,0,0,57,24.447c.106-.934.209-1.869.267-2.807A1.9,1.9,0,0,1,58,20.173a6.06,6.06,0,0,1,4.268-1.356A1.365,1.365,0,0,1,63.564,20c.174.742.314,1.5.535,2.223a5.727,5.727,0,0,0,1.84,2.893,3.664,3.664,0,0,1,1.151,2.877,30.718,30.718,0,0,1-.539,10.5c-1.759,6.956-5.006,13.088-10.593,17.772a25.5,25.5,0,0,1-12.03,5.62,30.4,30.4,0,0,1-17.317-2.061,1.647,1.647,0,0,0-1.726.142A16.394,16.394,0,0,1,.125,47.943,1.864,1.864,0,0,0,0,47.578V44.294m17.86,7.251a40.677,40.677,0,0,0,6.9,4.491,29.9,29.9,0,0,0,16.884,3.5A23.156,23.156,0,0,0,51.6,56.156a25.508,25.508,0,0,0,8.036-8.065A32.55,32.55,0,0,0,63.9,38.145a29.62,29.62,0,0,0,.584-9.65,3.393,3.393,0,0,0-.891-2.014,14.572,14.572,0,0,1-1.755-2.813,14.773,14.773,0,0,1-.729-2.074c-1.054.185-1.153.27-1.271,1.215-.084.672-.121,1.351-.213,2.022a4.236,4.236,0,0,1-1.4,2.8,2.843,2.843,0,0,0-.821,1.1A34.424,34.424,0,0,1,46.127,44.147,31.442,31.442,0,0,1,30.59,50.769a30.572,30.572,0,0,1-10.426-.384c-1.239-.265-1.3-.256-2.047.791-.075.106-.148.213-.256.369m14.848-3.876c.243-.05.435-.079.623-.129A31.673,31.673,0,0,0,50.972,35.31a.656.656,0,0,0,.051-.822c-.917-1.587-1.813-3.187-2.754-4.759a8.568,8.568,0,0,1-1.33-6.123,22.422,22.422,0,0,0,.357-6.658,8.483,8.483,0,0,0-2.019-5.083,6.737,6.737,0,0,0-10.6,1.3,18.742,18.742,0,0,0-2.357,8.1,8.2,8.2,0,0,1-2.366,5.325c-1.031,1.011-2.119,1.965-3.126,3-.689.708-1.282,1.509-1.961,2.319A16.607,16.607,0,0,1,31.1,38.678a15.815,15.815,0,0,1,1.6,8.99m-2.819.524a13.5,13.5,0,0,0-7.214-14.458A13.734,13.734,0,0,0,6.97,55.943c4.9,4.625,11.887,4.5,15.776,2.088-.274-.163-.542-.3-.789-.474-2.136-1.479-4.28-2.947-6.393-4.458a1.324,1.324,0,0,1-.5-1.838,7.734,7.734,0,0,1,2.5-3.306,2.208,2.208,0,0,1,2.011-.434c1.681.349,3.377.621,5.262.959A25.841,25.841,0,0,0,25,45.218c-.066-.921-.457-1.816-.584-2.739a1.271,1.271,0,0,1,1.631-1.528,1.7,1.7,0,0,1,.885.94,10.834,10.834,0,0,1,.524,6.493l2.431-.192M10.957,19.65A5,5,0,0,0,16.1,25.22a.545.545,0,0,0,.39-.36,4.957,4.957,0,0,0-5.53-5.21" transform="translate(0 0)" fill="#12263f"/>
          <path id="Trazado_823277" data-name="Trazado 823277" d="M223.919,319.023a4.7,4.7,0,0,1-.847-.1,1.314,1.314,0,0,1-.941-1.341,1.3,1.3,0,0,1,1.2-1.188,21.148,21.148,0,0,0,8.369-2.168,1.348,1.348,0,0,1,1.919.52,1.309,1.309,0,0,1-.677,1.811,22.6,22.6,0,0,1-9.022,2.465" transform="translate(-185.582 -262.371)" fill="#12263f"/>
          <path id="Trazado_823278" data-name="Trazado 823278" d="M297.109,302.157a1.325,1.325,0,1,1-.039,2.65,1.312,1.312,0,0,1-1.289-1.3,1.372,1.372,0,0,1,1.327-1.347" transform="translate(-247.121 -252.447)" fill="#12263f"/>
          <path id="Trazado_823279" data-name="Trazado 823279" d="M251.027,82.585c-.183,1.576-.33,3.053-.536,4.522a1.323,1.323,0,0,1-1.558,1.229,1.354,1.354,0,0,1-1.068-1.619c.122-1.783.279-3.567.3-5.352a2.935,2.935,0,0,0-1.313-2.825,1.2,1.2,0,0,1-.259-1.6,1.237,1.237,0,0,1,1.507-.593,3.718,3.718,0,0,1,2.4,2.89c.275,1.116.363,2.277.522,3.345" transform="translate(-205.87 -63.73)" fill="#12263f"/>
          <path id="Trazado_823280" data-name="Trazado 823280" d="M134.752,229.666a1.268,1.268,0,0,1,1.395-1.224,1.351,1.351,0,0,1,1.253,1.4,1.326,1.326,0,0,1-1.409,1.236,1.346,1.346,0,0,1-1.239-1.409" transform="translate(-112.582 -190.857)" fill="#12263f"/>
        </g>
      </g>
      <g id="Grupo_1070973" data-name="Grupo 1070973" transform="translate(1084.148 6641.567)">
        <g id="Grupo_1070972" data-name="Grupo 1070972" clip-path="url(#clip-path-11)">
          <path id="Trazado_823281" data-name="Trazado 823281" d="M31.751,0c.376.1.752.207,1.128.312A8.448,8.448,0,0,1,36.2,2.123a3.92,3.92,0,0,0,3.578,1,8.621,8.621,0,0,1,9.96,5.8,3.766,3.766,0,0,0,2.529,2.5,8.244,8.244,0,0,1,5.766,6.742,10.543,10.543,0,0,1-.065,3.194,4.063,4.063,0,0,0,.97,3.481A8.341,8.341,0,0,1,61.1,30.846,8.009,8.009,0,0,1,59.1,36.075a4.3,4.3,0,0,0-1.109,3.781c.752,4.625-1.4,8.242-5.816,9.878a3.9,3.9,0,0,0-2.462,2.493,8.347,8.347,0,0,1-6.783,5.814,10.033,10.033,0,0,1-3.19-.078,4.063,4.063,0,0,0-3.433.942,8.516,8.516,0,0,1-6.056,2.208,8.173,8.173,0,0,1-5.219-2.041,4.2,4.2,0,0,0-3.849-1.066,8.582,8.582,0,0,1-9.765-5.747A3.806,3.806,0,0,0,8.867,49.7a8.268,8.268,0,0,1-5.794-6.788,10.717,10.717,0,0,1,.081-3.194,3.985,3.985,0,0,0-.925-3.38A8.372,8.372,0,0,1,.1,31.773c-.007-.05-.063-.094-.1-.141V29.483c.033-.047.09-.091.1-.141A8.356,8.356,0,0,1,2.229,24.78,3.982,3.982,0,0,0,3.156,21.4a10.666,10.666,0,0,1-.083-3.194A8.269,8.269,0,0,1,8.86,11.418a3.749,3.749,0,0,0,2.524-2.5,8.625,8.625,0,0,1,9.959-5.792,3.867,3.867,0,0,0,3.531-.963A8.517,8.517,0,0,1,28.18.332C28.574.22,28.969.111,29.364,0Zm9.613,54.559a4.883,4.883,0,0,0,4.781-3.133,7.943,7.943,0,0,1,5.247-5.265,4.725,4.725,0,0,0,3.152-4.6c-.011-.63-.171-1.256-.225-1.887a7.619,7.619,0,0,1,2-5.916,4.7,4.7,0,0,0,1.131-3.873,5.408,5.408,0,0,0-1.381-2.843A7.121,7.121,0,0,1,54.43,20.81a4.936,4.936,0,0,0-3.083-5.879,7.789,7.789,0,0,1-5.173-5.18,4.779,4.779,0,0,0-4.588-3.184c-.65.009-1.3.174-1.946.228a7.63,7.63,0,0,1-5.866-1.98,4.691,4.691,0,0,0-4.04-1.139,5.244,5.244,0,0,0-2.576,1.277,7.2,7.2,0,0,1-6.376,1.724,4.953,4.953,0,0,0-5.818,3.007,7.926,7.926,0,0,1-5.241,5.271,4.784,4.784,0,0,0-3.109,5.312,7.852,7.852,0,0,1-1.9,7.188,4.558,4.558,0,0,0-1.067,3.72,5.164,5.164,0,0,0,1.317,2.808A7.164,7.164,0,0,1,6.684,40.3a4.961,4.961,0,0,0,3.14,5.9,7.712,7.712,0,0,1,5.117,5.158,4.789,4.789,0,0,0,4.589,3.184c.63-.009,1.256-.172,1.886-.226a7.6,7.6,0,0,1,5.878,1.941A4.751,4.751,0,0,0,31.5,57.421a4.941,4.941,0,0,0,2.365-1.186,7.341,7.341,0,0,1,5.588-1.917c.71.054,1.414.177,1.912.242" fill="#161615"/>
          <path id="Trazado_823282" data-name="Trazado 823282" d="M143.491,130.714c0-2.088-.063-4.178.015-6.262a5.564,5.564,0,0,1,5.342-5.256,5.68,5.68,0,0,1,5.735,4.351,5.274,5.274,0,0,1,.133,1.12q.014,6,0,11.991a5.465,5.465,0,0,1-3.457,5.17,5.613,5.613,0,0,1-7.8-5.506q0-2.8,0-5.608h.029m3.585-.011c0,1.969-.008,3.938,0,5.907a1.885,1.885,0,0,0,1.219,1.874,2.037,2.037,0,0,0,2.841-2.08q.016-5.668-.005-11.336a3.022,3.022,0,0,0-.2-1.042,2.014,2.014,0,0,0-3.857.771c-.016,1.969,0,3.938-.006,5.906" transform="translate(-120.584 -100.177)" fill="#161615"/>
          <path id="Trazado_823283" data-name="Trazado 823283" d="M85.992,127.217c-1.368-.449-1.842-.928-1.857-1.863s.483-1.461,1.856-1.912c.036-.547.027-1.106.118-1.649a1.648,1.648,0,0,1,1.709-1.43,1.675,1.675,0,0,1,1.768,1.364,4.133,4.133,0,0,1,.085.885q.007,8.053,0,16.106v.736a1.893,1.893,0,0,1,1.871,1.634,1.667,1.667,0,0,1-1.405,1.955c-1.524.082-3.058.07-4.584,0a1.617,1.617,0,0,1-1.41-1.608,1.774,1.774,0,0,1,1.174-1.814c.206-.069.423-.107.672-.168Z" transform="translate(-70.718 -101.169)" fill="#161615"/>
          <path id="Trazado_823284" data-name="Trazado 823284" d="M236.236,142.9a1.782,1.782,0,0,1-1.555-2.533c.919-2.344,1.867-4.677,2.8-7.015q2.386-5.965,4.775-11.928a1.8,1.8,0,0,1,2.707-1,1.85,1.85,0,0,1,.61,2.422q-1.841,4.615-3.692,9.227-1.9,4.751-3.806,9.5a1.812,1.812,0,0,1-1.84,1.322" transform="translate(-197.132 -100.972)" fill="#161615"/>
          <path id="Trazado_823285" data-name="Trazado 823285" d="M286.135,231.151a11.525,11.525,0,0,1-.157,1.469,1.666,1.666,0,0,1-1.788,1.25,1.591,1.591,0,0,1-1.64-1.35,12.813,12.813,0,0,1-.061-2.486,1.778,1.778,0,0,1,1.836-1.663,1.856,1.856,0,0,1,1.76,1.765c.026.335,0,.674,0,1.011l.047,0" transform="translate(-237.413 -191.953)" fill="#161615"/>
          <path id="Trazado_823286" data-name="Trazado 823286" d="M237.859,123.067c0,.376.029.755-.006,1.128a1.788,1.788,0,0,1-1.771,1.665,1.832,1.832,0,0,1-1.809-1.705,16.649,16.649,0,0,1,0-2.139,1.729,1.729,0,0,1,1.817-1.662A1.7,1.7,0,0,1,237.851,122c.032.353.005.712.005,1.069h0" transform="translate(-196.887 -101.162)" fill="#161615"/>
        </g>
      </g>
      <g id="Grupo_1070975" data-name="Grupo 1070975" transform="translate(823 6757.587)">
        <g id="Grupo_1070974" data-name="Grupo 1070974" clip-path="url(#clip-path-12)">
          <path id="Trazado_823287" data-name="Trazado 823287" d="M30.823,24.92a3.269,3.269,0,0,1-.725,1.428,2.756,2.756,0,0,1-4.753-1.809,2.73,2.73,0,0,0-2.784-2.748c-.421,0-.843.007-1.264,0a.307.307,0,0,0-.328.19c-.145.283-.318.552-.459.793a12.307,12.307,0,0,1,1.461.851,3.881,3.881,0,0,1,1.568,3.108,2.265,2.265,0,0,0,2.3,2.283c.742.009,1.485,0,2.227,0a.9.9,0,1,1,0,1.8q-1.174,0-2.348,0a4.043,4.043,0,0,1-3.985-3.962,2.293,2.293,0,0,0-1.542-2.185,3.09,3.09,0,0,0-1.078-.334c-.34.014-.661.3-1,.429-.652.241-1.316.453-2.024.694a.82.82,0,0,0,.023.167,4.735,4.735,0,0,0,3.043,3.386.923.923,0,0,1,.715.892.888.888,0,0,1-1.173.871,6.516,6.516,0,0,1-4.423-5.032c-.019-.088-.035-.177-.053-.265-.008-.038-.02-.074-.022-.082l-2.516-.449c-.06.232-.123.5-.2.762a.944.944,0,0,1-.906.7.871.871,0,0,1-.838-.656,2.071,2.071,0,0,1,.059-.793c.151-.654.161-.648-.438-.952-.356-.181-.706-.375-1.079-.574-.205.23-.41.461-.616.69a.913.913,0,1,1-1.369-1.2c.158-.181.316-.361.489-.557-.3-.276-.591-.549-.888-.811s-.595-.508-.921-.786c-.151.1-.4.269-.652.431a.911.911,0,1,1-1-1.52c.214-.146.43-.29.636-.429L2.889,17.277c-.262.085-.534.178-.809.263a.91.91,0,1,1-.565-1.726c.253-.09.507-.175.743-.256l-.482-2.8c-.27,0-.568,0-.865,0a.9.9,0,1,1-.01-1.8c.289,0,.579,0,.913,0V7.344c-.2,0-.444,0-.682,0a.9.9,0,1,1,.008-1.8A2.958,2.958,0,0,0,2.324,5.5c.3-.151.436-.611.658-.925.161-.228.344-.442.535-.686C3.348,3.63,3.173,3.365,3,3.1a.912.912,0,1,1,1.515-1c.148.214.29.432.408.609l2.3-.8c0-.2.02-.476,0-.751A1.035,1.035,0,0,1,7.886,0h.482a1.037,1.037,0,0,1,.666,1.148c-.023.268,0,.539,0,.775.556.18,1.084.356,1.617.516a.317.317,0,0,0,.255-.069c.23-.209.441-.438.664-.654a.912.912,0,1,1,1.283,1.292c-.16.165-.332.319-.508.487.247.273.493.518.706.789a4.634,4.634,0,0,1,.585.87.591.591,0,0,0,.695.391,5.966,5.966,0,0,1,.812-.005.9.9,0,0,1-.006,1.8c-.239,0-.478,0-.7,0v2.817c.144-.09.233-.143.32-.2a.917.917,0,1,1,1,1.523c-.374.252-.75.5-1.124.752-.015.01-.022.032-.043.063a.924.924,0,0,0,.778.463c.653.07,1.3.149,2.013.231.107-.211.244-.5.394-.776a.892.892,0,0,1,.98-.48.844.844,0,0,1,.721.741,1.34,1.34,0,0,1-.107.605c-.106.276-.258.534-.39.8l.148-.117L20.672,15.3l-.123.159c.265-.132.529-.266.8-.395a.912.912,0,1,1,.824,1.623c-.256.135-.517.261-.8.4a6.5,6.5,0,0,1,.247,2.89c.214,0,.418.009.621,0a4.534,4.534,0,0,1,3.032.845,4.414,4.414,0,0,1,1.885,3.585.981.981,0,0,0,.936.986.937.937,0,0,0,.931-.91.9.9,0,0,1,1.744-.329,1.013,1.013,0,0,0,.062.1ZM3.665,10.2l-.108,0c.062,1.13.028,2.274.2,3.387a11.427,11.427,0,0,0,5.4,8.216,10.7,10.7,0,0,0,6.773,1.73,4.5,4.5,0,0,0-.615-8.967,2.694,2.694,0,0,1-2.674-2.716c0-1.163.006-2.327,0-3.49a5.548,5.548,0,0,0-.089-.955,4.494,4.494,0,0,0-8.872.241c-.071.845-.012,1.7-.012,2.553" transform="translate(0 -0.001)" fill="#161615"/>
          <path id="Trazado_823288" data-name="Trazado 823288" d="M67.384,71.57a2.709,2.709,0,1,1,2.7,2.72,2.7,2.7,0,0,1-2.7-2.72m3.61.009a.9.9,0,1,0-.906.9.932.932,0,0,0,.906-.9" transform="translate(-61.966 -63.336)" fill="#161615"/>
          <path id="Trazado_823289" data-name="Trazado 823289" d="M159.948,203.616a2.708,2.708,0,1,1-2.718,2.7,2.694,2.694,0,0,1,2.718-2.7m-.008,3.609a.9.9,0,1,0-.9-.908.933.933,0,0,0,.9.908" transform="translate(-144.588 -187.244)" fill="#161615"/>
          <path id="Trazado_823290" data-name="Trazado 823290" d="M90.751,160.508a.9.9,0,1,1,.9-.891.891.891,0,0,1-.9.891" transform="translate(-82.621 -145.942)" fill="#161615"/>
          <path id="Trazado_823291" data-name="Trazado 823291" d="M135.677,182.965a.9.9,0,1,1,.9-.894.892.892,0,0,1-.9.894" transform="translate(-123.932 -166.593)" fill="#161615"/>
          <path id="Trazado_823292" data-name="Trazado 823292" d="M114.112,226.988a.9.9,0,1,1-.872-.917.893.893,0,0,1,.872.917" transform="translate(-103.277 -207.893)" fill="#161615"/>
        </g>
      </g>
      <g id="Grupo_1070976" data-name="Grupo 1070976" transform="translate(745.998 6788.412) rotate(-90)">
        <g id="Grupo_1070974-2" data-name="Grupo 1070974" clip-path="url(#clip-path-12)">
          <path id="Trazado_823287-2" data-name="Trazado 823287" d="M30.823,24.92a3.269,3.269,0,0,1-.725,1.428,2.756,2.756,0,0,1-4.753-1.809,2.73,2.73,0,0,0-2.784-2.748c-.421,0-.843.007-1.264,0a.307.307,0,0,0-.328.19c-.145.283-.318.552-.459.793a12.307,12.307,0,0,1,1.461.851,3.881,3.881,0,0,1,1.568,3.108,2.265,2.265,0,0,0,2.3,2.283c.742.009,1.485,0,2.227,0a.9.9,0,1,1,0,1.8q-1.174,0-2.348,0a4.043,4.043,0,0,1-3.985-3.962,2.293,2.293,0,0,0-1.542-2.185,3.09,3.09,0,0,0-1.078-.334c-.34.014-.661.3-1,.429-.652.241-1.316.453-2.024.694a.82.82,0,0,0,.023.167,4.735,4.735,0,0,0,3.043,3.386.923.923,0,0,1,.715.892.888.888,0,0,1-1.173.871,6.516,6.516,0,0,1-4.423-5.032c-.019-.088-.035-.177-.053-.265-.008-.038-.02-.074-.022-.082l-2.516-.449c-.06.232-.123.5-.2.762a.944.944,0,0,1-.906.7.871.871,0,0,1-.838-.656,2.071,2.071,0,0,1,.059-.793c.151-.654.161-.648-.438-.952-.356-.181-.706-.375-1.079-.574-.205.23-.41.461-.616.69a.913.913,0,1,1-1.369-1.2c.158-.181.316-.361.489-.557-.3-.276-.591-.549-.888-.811s-.595-.508-.921-.786c-.151.1-.4.269-.652.431a.911.911,0,1,1-1-1.52c.214-.146.43-.29.636-.429L2.889,17.277c-.262.085-.534.178-.809.263a.91.91,0,1,1-.565-1.726c.253-.09.507-.175.743-.256l-.482-2.8c-.27,0-.568,0-.865,0a.9.9,0,1,1-.01-1.8c.289,0,.579,0,.913,0V7.344c-.2,0-.444,0-.682,0a.9.9,0,1,1,.008-1.8A2.958,2.958,0,0,0,2.324,5.5c.3-.151.436-.611.658-.925.161-.228.344-.442.535-.686C3.348,3.63,3.173,3.365,3,3.1a.912.912,0,1,1,1.515-1c.148.214.29.432.408.609l2.3-.8c0-.2.02-.476,0-.751A1.035,1.035,0,0,1,7.886,0h.482a1.037,1.037,0,0,1,.666,1.148c-.023.268,0,.539,0,.775.556.18,1.084.356,1.617.516a.317.317,0,0,0,.255-.069c.23-.209.441-.438.664-.654a.912.912,0,1,1,1.283,1.292c-.16.165-.332.319-.508.487.247.273.493.518.706.789a4.634,4.634,0,0,1,.585.87.591.591,0,0,0,.695.391,5.966,5.966,0,0,1,.812-.005.9.9,0,0,1-.006,1.8c-.239,0-.478,0-.7,0v2.817c.144-.09.233-.143.32-.2a.917.917,0,1,1,1,1.523c-.374.252-.75.5-1.124.752-.015.01-.022.032-.043.063a.924.924,0,0,0,.778.463c.653.07,1.3.149,2.013.231.107-.211.244-.5.394-.776a.892.892,0,0,1,.98-.48.844.844,0,0,1,.721.741,1.34,1.34,0,0,1-.107.605c-.106.276-.258.534-.39.8l.148-.117L20.672,15.3l-.123.159c.265-.132.529-.266.8-.395a.912.912,0,1,1,.824,1.623c-.256.135-.517.261-.8.4a6.5,6.5,0,0,1,.247,2.89c.214,0,.418.009.621,0a4.534,4.534,0,0,1,3.032.845,4.414,4.414,0,0,1,1.885,3.585.981.981,0,0,0,.936.986.937.937,0,0,0,.931-.91.9.9,0,0,1,1.744-.329,1.013,1.013,0,0,0,.062.1ZM3.665,10.2l-.108,0c.062,1.13.028,2.274.2,3.387a11.427,11.427,0,0,0,5.4,8.216,10.7,10.7,0,0,0,6.773,1.73,4.5,4.5,0,0,0-.615-8.967,2.694,2.694,0,0,1-2.674-2.716c0-1.163.006-2.327,0-3.49a5.548,5.548,0,0,0-.089-.955,4.494,4.494,0,0,0-8.872.241c-.071.845-.012,1.7-.012,2.553" transform="translate(0 -0.001)" fill="#161615"/>
          <path id="Trazado_823288-2" data-name="Trazado 823288" d="M67.384,71.57a2.709,2.709,0,1,1,2.7,2.72,2.7,2.7,0,0,1-2.7-2.72m3.61.009a.9.9,0,1,0-.906.9.932.932,0,0,0,.906-.9" transform="translate(-61.966 -63.336)" fill="#161615"/>
          <path id="Trazado_823289-2" data-name="Trazado 823289" d="M159.948,203.616a2.708,2.708,0,1,1-2.718,2.7,2.694,2.694,0,0,1,2.718-2.7m-.008,3.609a.9.9,0,1,0-.9-.908.933.933,0,0,0,.9.908" transform="translate(-144.588 -187.244)" fill="#161615"/>
          <path id="Trazado_823290-2" data-name="Trazado 823290" d="M90.751,160.508a.9.9,0,1,1,.9-.891.891.891,0,0,1-.9.891" transform="translate(-82.621 -145.942)" fill="#161615"/>
          <path id="Trazado_823291-2" data-name="Trazado 823291" d="M135.677,182.965a.9.9,0,1,1,.9-.894.892.892,0,0,1-.9.894" transform="translate(-123.932 -166.593)" fill="#161615"/>
          <path id="Trazado_823292-2" data-name="Trazado 823292" d="M114.112,226.988a.9.9,0,1,1-.872-.917.893.893,0,0,1,.872.917" transform="translate(-103.277 -207.893)" fill="#161615"/>
        </g>
      </g>
    </g>
    <g id="Grupo_1070984" data-name="Grupo 1070984">
      <g id="Grupo_1070982" data-name="Grupo 1070982" transform="translate(0 -3)">
        <g id="Grupo_1070978" data-name="Grupo 1070978" transform="translate(67 -2524)">
          <circle id="Elipse_5840" data-name="Elipse 5840" cx="28" cy="28" r="28" transform="translate(247 9067)" fill="#632059" opacity="0.3"/>
          <circle id="Elipse_5841" data-name="Elipse 5841" cx="17" cy="17" r="17" transform="translate(258 9078)" fill="#632059"/>
          <text id="_" data-name="+" transform="translate(270 9102)" fill="#fff" font-size="20" font-family="Roboto-Regular, Roboto"><tspan x="0" y="0">+</tspan></text>
        </g>
        <g id="Grupo_1070979" data-name="Grupo 1070979" transform="translate(983 -2524)">
          <circle id="Elipse_5840-2" data-name="Elipse 5840" cx="28" cy="28" r="28" transform="translate(247 9067)" fill="#632059" opacity="0.3"/>
          <circle id="Elipse_5841-2" data-name="Elipse 5841" cx="17" cy="17" r="17" transform="translate(258 9078)" fill="#632059"/>
          <text id="_2-2" data-name="+" transform="translate(270 9102)" fill="#fff" font-size="20" font-family="Roboto-Regular, Roboto"><tspan x="0" y="0">+</tspan></text>
        </g>
        <g id="Grupo_1070980" data-name="Grupo 1070980" transform="translate(67 -2361)">
          <circle id="Elipse_5840-3" data-name="Elipse 5840" cx="28" cy="28" r="28" transform="translate(247 9067)" fill="#632059" opacity="0.3"/>
          <circle id="Elipse_5841-3" data-name="Elipse 5841" cx="17" cy="17" r="17" transform="translate(258 9078)" fill="#632059"/>
          <text id="_3" data-name="+" transform="translate(270 9102)" fill="#fff" font-size="20" font-family="Roboto-Regular, Roboto"><tspan x="0" y="0">+</tspan></text>
        </g>
        <g id="Grupo_1070981" data-name="Grupo 1070981" transform="translate(983 -2357)">
          <circle id="Elipse_5840-4" data-name="Elipse 5840" cx="28" cy="28" r="28" transform="translate(247 9067)" fill="#632059" opacity="0.3"/>
          <circle id="Elipse_5841-4" data-name="Elipse 5841" cx="17" cy="17" r="17" transform="translate(258 9078)" fill="#632059"/>
          <text id="_4" data-name="+" transform="translate(270 9102)" fill="#fff" font-size="20" font-family="Roboto-Regular, Roboto"><tspan x="0" y="0">+</tspan></text>
        </g>
      </g>
      <g id="Grupo_1070983" data-name="Grupo 1070983" transform="translate(525 -2235)">
        <circle id="Elipse_5840-5" data-name="Elipse 5840" cx="28" cy="28" r="28" transform="translate(247 9067)" fill="#632059" opacity="0.3"/>
        <circle id="Elipse_5841-5" data-name="Elipse 5841" cx="17" cy="17" r="17" transform="translate(258 9078)" fill="#632059"/>
        <text id="_5" data-name="+" transform="translate(270 9102)" fill="#fff" font-size="20" font-family="Roboto-Regular, Roboto"><tspan x="0" y="0">+</tspan></text>
      </g>
    </g>
  </g>
</svg>
