<svg xmlns="http://www.w3.org/2000/svg" xmlns:xlink="http://www.w3.org/1999/xlink" width="820" height="340" viewBox="0 0 820 340">
  <defs>
    <linearGradient id="linear-gradient" x1="0.5" x2="0.5" y2="1" gradientUnits="objectBoundingBox">
      <stop offset="0" stop-color="#f9fef5"/>
      <stop offset="1" stop-color="#e7f7f8"/>
    </linearGradient>
    <clipPath id="clip-path">
      <rect id="Rectángulo_376202" data-name="Rectángulo 376202" width="49.067" height="54.425" fill="none"/>
    </clipPath>
  </defs>
  <g id="Grupo_1072694" data-name="Grupo 1072694" transform="translate(-390 -3148)">
    <g id="Grupo_1070290" data-name="Grupo 1070290">
      <path id="Trazado_828173" data-name="Trazado 828173" d="M0,0H820V340H0Z" transform="translate(390 3148)" fill="url(#linear-gradient)"/>
      <path id="Trazado_828174" data-name="Trazado 828174" d="M8.9-5.432H4.052v3.059h5.73V0H.967V-12.8H9.8v2.382H4.052v2.7H8.9Zm6.979,2.76a.684.684,0,0,0-.4-.606,6.016,6.016,0,0,0-1.5-.475A6.853,6.853,0,0,1,12.155-4.4a3.062,3.062,0,0,1-1.1-.971,2.319,2.319,0,0,1-.378-1.31A2.628,2.628,0,0,1,11.76-8.837a4.453,4.453,0,0,1,2.83-.848,4.934,4.934,0,0,1,3.023.853,2.666,2.666,0,0,1,1.143,2.241H15.785q0-1.143-1.2-1.143a1.194,1.194,0,0,0-.782.259.8.8,0,0,0-.316.646.737.737,0,0,0,.387.642,3.654,3.654,0,0,0,1.235.4,10.671,10.671,0,0,1,1.49.378A2.706,2.706,0,0,1,18.738-2.76,2.491,2.491,0,0,1,17.583-.642,5.068,5.068,0,0,1,14.59.176a5.172,5.172,0,0,1-2.18-.439,3.645,3.645,0,0,1-1.494-1.2A2.707,2.707,0,0,1,10.38-3.05h2.769a1.145,1.145,0,0,0,.439.962,1.808,1.808,0,0,0,1.081.3,1.422,1.422,0,0,0,.91-.246A.787.787,0,0,0,15.882-2.672Zm8.262.563a1.317,1.317,0,0,0,.967-.338,1.241,1.241,0,0,0,.334-.945h2.777A3.288,3.288,0,0,1,27.1-.826a4.168,4.168,0,0,1-2.887,1,4.22,4.22,0,0,1-3.27-1.3,5.125,5.125,0,0,1-1.2-3.6v-.123A5.792,5.792,0,0,1,20.281-7.4a3.872,3.872,0,0,1,1.534-1.7,4.573,4.573,0,0,1,2.373-.593,4.116,4.116,0,0,1,2.944,1.028,3.647,3.647,0,0,1,1.09,2.786H25.444A1.626,1.626,0,0,0,25.084-7a1.244,1.244,0,0,0-.967-.4q-1.151,0-1.345,1.468a10.357,10.357,0,0,0-.062,1.283,4.068,4.068,0,0,0,.343,1.986A1.187,1.187,0,0,0,24.144-2.109ZM34.831,0a3.344,3.344,0,0,1-.281-.853A2.754,2.754,0,0,1,32.265.176a3.374,3.374,0,0,1-2.285-.813,2.588,2.588,0,0,1-.94-2.043,2.66,2.66,0,0,1,1.143-2.338A5.821,5.821,0,0,1,33.5-5.81h.914v-.5q0-1.316-1.134-1.316a.927.927,0,0,0-1.055,1.042H29.268a2.655,2.655,0,0,1,1.173-2.239,4.931,4.931,0,0,1,2.993-.86,4.323,4.323,0,0,1,2.874.888,3.086,3.086,0,0,1,1.081,2.435v4.21a4.311,4.311,0,0,0,.4,2V0ZM32.977-1.934a1.652,1.652,0,0,0,.918-.237,1.487,1.487,0,0,0,.523-.536V-4.228h-.861q-1.547,0-1.547,1.389a.848.848,0,0,0,.272.655A.986.986,0,0,0,32.977-1.934ZM42.152,0H39.182V-13.5h2.971Zm7.181,0a3.344,3.344,0,0,1-.281-.853A2.754,2.754,0,0,1,46.767.176a3.374,3.374,0,0,1-2.285-.813,2.588,2.588,0,0,1-.94-2.043,2.66,2.66,0,0,1,1.143-2.338,5.821,5.821,0,0,1,3.322-.791h.914v-.5q0-1.316-1.134-1.316a.927.927,0,0,0-1.055,1.042H43.77a2.655,2.655,0,0,1,1.173-2.239,4.931,4.931,0,0,1,2.993-.86A4.323,4.323,0,0,1,50.81-8.8a3.086,3.086,0,0,1,1.081,2.435v4.21a4.311,4.311,0,0,0,.4,2V0ZM47.479-1.934a1.652,1.652,0,0,0,.918-.237,1.487,1.487,0,0,0,.523-.536V-4.228h-.861q-1.547,0-1.547,1.389a.848.848,0,0,0,.272.655A.986.986,0,0,0,47.479-1.934ZM66.841-4.685a5.735,5.735,0,0,1-1,3.538A3.2,3.2,0,0,1,63.149.176,2.742,2.742,0,0,1,61-.782V3.656H58.034V-9.51H60.8l.088.879a2.742,2.742,0,0,1,2.241-1.055,3.224,3.224,0,0,1,2.733,1.3,5.805,5.805,0,0,1,.976,3.564Zm-2.962-.185Q63.879-7.4,62.4-7.4A1.394,1.394,0,0,0,61-6.645V-2.9a1.439,1.439,0,0,0,1.424.791q1.415,0,1.459-2.443ZM78.979,0H75.911V-5.344H71.367V0H68.282V-12.8h3.085v5.08h4.544V-12.8h3.067Z" transform="translate(760 3208)" fill="#12263f"/>
      <path id="Trazado_828175" data-name="Trazado 828175" d="M1.4,0V-12.086H5.354a4.587,4.587,0,0,1,2.959.813,2.932,2.932,0,0,1,.992,2.407,2.455,2.455,0,0,1-.481,1.5A3.121,3.121,0,0,1,7.512-6.358,2.8,2.8,0,0,1,9.06-5.317a2.99,2.99,0,0,1,.569,1.83A3.232,3.232,0,0,1,8.575-.93,4.36,4.36,0,0,1,5.595,0ZM3-5.653V-1.3H5.628A2.534,2.534,0,0,0,7.384-1.88a2.026,2.026,0,0,0,.643-1.59q0-2.183-2.374-2.183ZM3-6.931H5.4a2.523,2.523,0,0,0,1.673-.524A1.757,1.757,0,0,0,7.7-8.878a1.728,1.728,0,0,0-.581-1.452,2.853,2.853,0,0,0-1.768-.453H3ZM17.291,0a3.226,3.226,0,0,1-.216-.946A3.426,3.426,0,0,1,14.518.166a3.17,3.17,0,0,1-2.179-.751,2.43,2.43,0,0,1-.851-1.905,2.539,2.539,0,0,1,1.067-2.179,5.029,5.029,0,0,1,3-.776H17.05v-.706a1.725,1.725,0,0,0-.481-1.282,1.935,1.935,0,0,0-1.419-.477,2.239,2.239,0,0,0-1.378.415,1.223,1.223,0,0,0-.556,1H11.671a2.119,2.119,0,0,1,.477-1.3,3.258,3.258,0,0,1,1.295-.992,4.356,4.356,0,0,1,1.8-.365,3.551,3.551,0,0,1,2.432.776,2.8,2.8,0,0,1,.913,2.137V-2.1A5.054,5.054,0,0,0,18.9-.133V0ZM14.742-1.17a2.7,2.7,0,0,0,1.37-.374,2.259,2.259,0,0,0,.938-.971V-4.358h-1.2q-2.822,0-2.822,1.652a1.4,1.4,0,0,0,.481,1.129A1.85,1.85,0,0,0,14.742-1.17Zm9.853.083a2.212,2.212,0,0,0,1.436-.5,1.752,1.752,0,0,0,.681-1.245h1.453a2.785,2.785,0,0,1-.531,1.469A3.5,3.5,0,0,1,26.326-.249,3.772,3.772,0,0,1,24.6.166a3.7,3.7,0,0,1-2.918-1.224,4.877,4.877,0,0,1-1.083-3.349v-.257A5.407,5.407,0,0,1,21.076-7a3.667,3.667,0,0,1,1.382-1.585,3.926,3.926,0,0,1,2.129-.564,3.6,3.6,0,0,1,2.511.9,3.234,3.234,0,0,1,1.067,2.349H26.712a2.116,2.116,0,0,0-.66-1.432,2.053,2.053,0,0,0-1.465-.56,2.149,2.149,0,0,0-1.814.843,3.957,3.957,0,0,0-.643,2.436v.291a3.878,3.878,0,0,0,.639,2.391A2.16,2.16,0,0,0,24.6-1.087Zm7.379-10.069v2.175h1.677v1.187H31.975v5.577a1.247,1.247,0,0,0,.224.81.943.943,0,0,0,.764.27,3.718,3.718,0,0,0,.73-.1V0a4.478,4.478,0,0,1-1.179.165,1.912,1.912,0,0,1-1.552-.623,2.675,2.675,0,0,1-.523-1.768v-5.57H28.8V-8.981h1.635v-2.175ZM39.171.166a3.924,3.924,0,0,1-2.972-1.2,4.452,4.452,0,0,1-1.146-3.208v-.282a5.39,5.39,0,0,1,.51-2.386,3.982,3.982,0,0,1,1.428-1.644,3.59,3.59,0,0,1,1.988-.594A3.364,3.364,0,0,1,41.7-7.994a5,5,0,0,1,.971,3.3v.639H36.59a3.193,3.193,0,0,0,.776,2.146,2.44,2.44,0,0,0,1.888.818,2.675,2.675,0,0,0,1.378-.332,3.462,3.462,0,0,0,.988-.88l.938.73A3.772,3.772,0,0,1,39.171.166ZM38.98-7.886a2.048,2.048,0,0,0-1.561.677,3.288,3.288,0,0,0-.78,1.9h4.5v-.116a2.925,2.925,0,0,0-.631-1.814A1.928,1.928,0,0,0,38.98-7.886Zm9.812.282a4.6,4.6,0,0,0-.755-.058,2.024,2.024,0,0,0-2.05,1.287V0H44.451V-8.981h1.494l.025,1.038a2.391,2.391,0,0,1,2.142-1.2,1.569,1.569,0,0,1,.681.116ZM51.872,0H50.336V-8.981h1.536Zm-1.66-11.364a.917.917,0,0,1,.228-.631.857.857,0,0,1,.677-.257.87.87,0,0,1,.681.257.907.907,0,0,1,.232.631.877.877,0,0,1-.232.623.886.886,0,0,1-.681.249.872.872,0,0,1-.677-.249A.886.886,0,0,1,50.211-11.364ZM59.874,0a3.226,3.226,0,0,1-.216-.946A3.426,3.426,0,0,1,57.1.166a3.17,3.17,0,0,1-2.179-.751,2.43,2.43,0,0,1-.851-1.905,2.539,2.539,0,0,1,1.067-2.179,5.029,5.029,0,0,1,3-.776h1.494v-.706a1.725,1.725,0,0,0-.481-1.282,1.935,1.935,0,0,0-1.419-.477,2.239,2.239,0,0,0-1.378.415,1.223,1.223,0,0,0-.556,1H54.254a2.119,2.119,0,0,1,.477-1.3,3.258,3.258,0,0,1,1.295-.992,4.356,4.356,0,0,1,1.8-.365,3.551,3.551,0,0,1,2.432.776,2.8,2.8,0,0,1,.913,2.137V-2.1a5.054,5.054,0,0,0,.315,1.967V0ZM57.325-1.17a2.7,2.7,0,0,0,1.37-.374,2.259,2.259,0,0,0,.938-.971V-4.358h-1.2q-2.822,0-2.822,1.652a1.4,1.4,0,0,0,.481,1.129A1.85,1.85,0,0,0,57.325-1.17Zm11.48-1.212a1.131,1.131,0,0,0-.469-.967A4.514,4.514,0,0,0,66.7-3.943a7.731,7.731,0,0,1-1.851-.6,2.633,2.633,0,0,1-1.013-.83,1.986,1.986,0,0,1-.328-1.146,2.33,2.33,0,0,1,.934-1.868,3.647,3.647,0,0,1,2.386-.764,3.753,3.753,0,0,1,2.478.789,2.5,2.5,0,0,1,.95,2.017H68.714a1.386,1.386,0,0,0-.535-1.087,2.006,2.006,0,0,0-1.349-.457,2.1,2.1,0,0,0-1.312.365,1.15,1.15,0,0,0-.473.955.932.932,0,0,0,.44.838,5.413,5.413,0,0,0,1.59.54,8.283,8.283,0,0,1,1.864.614A2.718,2.718,0,0,1,70-3.715a2.112,2.112,0,0,1,.344,1.224,2.3,2.3,0,0,1-.963,1.93,4.039,4.039,0,0,1-2.5.726A4.523,4.523,0,0,1,64.97-.216a3.105,3.105,0,0,1-1.3-1.067A2.571,2.571,0,0,1,63.2-2.764h1.536a1.59,1.59,0,0,0,.618,1.224,2.4,2.4,0,0,0,1.523.452,2.476,2.476,0,0,0,1.4-.353A1.084,1.084,0,0,0,68.805-2.382Z" transform="translate(765 3255)" fill="#12263f"/>
      <path id="Trazado_828176" data-name="Trazado 828176" d="M10.691,0h-1.6L3-9.313V0H1.4V-12.086H3l6.1,9.355v-9.355h1.585Zm6.317.166a3.924,3.924,0,0,1-2.972-1.2,4.452,4.452,0,0,1-1.146-3.208v-.282A5.39,5.39,0,0,1,13.4-6.91a3.982,3.982,0,0,1,1.428-1.644,3.59,3.59,0,0,1,1.988-.594A3.364,3.364,0,0,1,19.54-7.994a5,5,0,0,1,.971,3.3v.639H14.427A3.193,3.193,0,0,0,15.2-1.905a2.44,2.44,0,0,0,1.888.818,2.675,2.675,0,0,0,1.378-.332,3.462,3.462,0,0,0,.988-.88l.938.73A3.772,3.772,0,0,1,17.008.166Zm-.191-8.052a2.048,2.048,0,0,0-1.561.677,3.288,3.288,0,0,0-.78,1.9h4.5v-.116a2.925,2.925,0,0,0-.631-1.814A1.928,1.928,0,0,0,16.817-7.886Zm11.015,7A3.262,3.262,0,0,1,25.2.166a2.792,2.792,0,0,1-2.187-.834,3.611,3.611,0,0,1-.76-2.469V-8.981H23.79v5.8q0,2.042,1.66,2.042a2.3,2.3,0,0,0,2.341-1.312V-8.981h1.536V0H27.866Zm5.91-10.268v2.175h1.677v1.187H33.743v5.577a1.247,1.247,0,0,0,.224.81.943.943,0,0,0,.764.27,3.718,3.718,0,0,0,.73-.1V0a4.478,4.478,0,0,1-1.179.165A1.912,1.912,0,0,1,32.73-.457a2.675,2.675,0,0,1-.523-1.768v-5.57H30.572V-8.981h1.635v-2.175ZM41.554-7.6a4.6,4.6,0,0,0-.755-.058,2.024,2.024,0,0,0-2.05,1.287V0H37.212V-8.981h1.494l.025,1.038a2.391,2.391,0,0,1,2.142-1.2,1.569,1.569,0,0,1,.681.116Zm.838,3.03a5.3,5.3,0,0,1,.519-2.374,3.87,3.87,0,0,1,1.444-1.627,3.932,3.932,0,0,1,2.113-.573,3.788,3.788,0,0,1,2.968,1.27A4.886,4.886,0,0,1,50.568-4.5v.108a5.351,5.351,0,0,1-.5,2.353A3.813,3.813,0,0,1,48.63-.415a3.977,3.977,0,0,1-2.146.581A3.778,3.778,0,0,1,43.525-1.1a4.861,4.861,0,0,1-1.133-3.362Zm1.544.183a3.842,3.842,0,0,0,.693,2.4,2.218,2.218,0,0,0,1.855.9A2.2,2.2,0,0,0,48.344-2a4.2,4.2,0,0,0,.689-2.569,3.836,3.836,0,0,0-.7-2.395,2.23,2.23,0,0,0-1.864-.917,2.205,2.205,0,0,0-1.834.9A4.17,4.17,0,0,0,43.936-4.391Z" transform="translate(775 3447)" fill="#12263f"/>
      <path id="Trazado_828177" data-name="Trazado 828177" d="M8.077-3.163H3.013L1.876,0H.232L4.848-12.086H6.242L10.866,0H9.23Zm-4.582-1.3H7.6L5.545-10.119ZM13.92,0H12.385V-12.75H13.92Zm6.06-1.087a2.212,2.212,0,0,0,1.436-.5A1.752,1.752,0,0,0,22.1-2.831h1.453a2.785,2.785,0,0,1-.531,1.469A3.5,3.5,0,0,1,21.711-.249,3.772,3.772,0,0,1,19.98.166a3.7,3.7,0,0,1-2.918-1.224,4.877,4.877,0,0,1-1.083-3.349v-.257A5.407,5.407,0,0,1,16.46-7a3.667,3.667,0,0,1,1.382-1.585,3.926,3.926,0,0,1,2.129-.564,3.6,3.6,0,0,1,2.511.9,3.234,3.234,0,0,1,1.067,2.349H22.1a2.116,2.116,0,0,0-.66-1.432,2.053,2.053,0,0,0-1.465-.56,2.149,2.149,0,0,0-1.814.843,3.957,3.957,0,0,0-.643,2.436v.291a3.878,3.878,0,0,0,.639,2.391A2.16,2.16,0,0,0,19.98-1.087ZM30.821,0A3.226,3.226,0,0,1,30.6-.946,3.426,3.426,0,0,1,28.048.166a3.17,3.17,0,0,1-2.179-.751,2.43,2.43,0,0,1-.851-1.905,2.539,2.539,0,0,1,1.067-2.179,5.029,5.029,0,0,1,3-.776H30.58v-.706A1.725,1.725,0,0,0,30.1-7.433a1.935,1.935,0,0,0-1.419-.477A2.239,2.239,0,0,0,27.3-7.5a1.223,1.223,0,0,0-.556,1H25.2a2.119,2.119,0,0,1,.477-1.3,3.258,3.258,0,0,1,1.295-.992,4.356,4.356,0,0,1,1.8-.365,3.551,3.551,0,0,1,2.432.776,2.8,2.8,0,0,1,.913,2.137V-2.1a5.054,5.054,0,0,0,.315,1.967V0ZM28.272-1.17a2.7,2.7,0,0,0,1.37-.374,2.259,2.259,0,0,0,.938-.971V-4.358h-1.2q-2.822,0-2.822,1.652a1.4,1.4,0,0,0,.481,1.129A1.85,1.85,0,0,0,28.272-1.17ZM36.191,0H34.656V-12.75h1.536Zm4.125,0H38.781V-8.981h1.536Zm-1.66-11.364a.917.917,0,0,1,.228-.631.857.857,0,0,1,.677-.257.87.87,0,0,1,.681.257.907.907,0,0,1,.232.631.877.877,0,0,1-.232.623.886.886,0,0,1-.681.249.872.872,0,0,1-.677-.249A.886.886,0,0,1,38.657-11.364Zm5.57,2.382.05,1.129a3.273,3.273,0,0,1,2.689-1.295q2.847,0,2.872,3.212V0H48.3V-5.943a2.068,2.068,0,0,0-.444-1.436A1.78,1.78,0,0,0,46.5-7.844a2.216,2.216,0,0,0-1.312.4A2.706,2.706,0,0,0,44.31-6.4V0H42.774V-8.981Zm7.521,4.408a5.3,5.3,0,0,1,.519-2.374A3.87,3.87,0,0,1,53.71-8.575a3.932,3.932,0,0,1,2.113-.573,3.788,3.788,0,0,1,2.968,1.27A4.886,4.886,0,0,1,59.923-4.5v.108a5.351,5.351,0,0,1-.5,2.353A3.813,3.813,0,0,1,57.985-.415a3.977,3.977,0,0,1-2.146.581A3.778,3.778,0,0,1,52.88-1.1a4.861,4.861,0,0,1-1.133-3.362Zm1.544.183a3.842,3.842,0,0,0,.693,2.4,2.218,2.218,0,0,0,1.855.9A2.2,2.2,0,0,0,57.7-2a4.2,4.2,0,0,0,.689-2.569,3.836,3.836,0,0,0-.7-2.395,2.23,2.23,0,0,0-1.864-.917,2.205,2.205,0,0,0-1.834.9A4.17,4.17,0,0,0,53.291-4.391Z" transform="translate(950 3447)" fill="#12263f"/>
      <path id="Trazado_828178" data-name="Trazado 828178" d="M8.077-3.163H3.013L1.876,0H.232L4.848-12.086H6.242L10.866,0H9.23Zm-4.582-1.3H7.6L5.545-10.119ZM6.333-15.323H8.193l-2.225,2.44-1.237,0ZM15.854-1.087a2.212,2.212,0,0,0,1.436-.5,1.752,1.752,0,0,0,.681-1.245h1.453a2.785,2.785,0,0,1-.531,1.469A3.5,3.5,0,0,1,17.585-.249a3.772,3.772,0,0,1-1.731.415,3.7,3.7,0,0,1-2.918-1.224,4.877,4.877,0,0,1-1.083-3.349v-.257A5.407,5.407,0,0,1,12.335-7a3.667,3.667,0,0,1,1.382-1.585,3.926,3.926,0,0,1,2.129-.564,3.6,3.6,0,0,1,2.511.9,3.234,3.234,0,0,1,1.067,2.349H17.971a2.116,2.116,0,0,0-.66-1.432,2.053,2.053,0,0,0-1.465-.56,2.149,2.149,0,0,0-1.814.843,3.957,3.957,0,0,0-.643,2.436v.291a3.878,3.878,0,0,0,.639,2.391A2.16,2.16,0,0,0,15.854-1.087ZM22.819,0H21.283V-8.981h1.536Zm-1.66-11.364a.917.917,0,0,1,.228-.631.857.857,0,0,1,.677-.257.87.87,0,0,1,.681.257.907.907,0,0,1,.232.631.877.877,0,0,1-.232.623.886.886,0,0,1-.681.249.872.872,0,0,1-.677-.249A.886.886,0,0,1,21.159-11.364Zm3.744,6.8a5.261,5.261,0,0,1,.979-3.324,3.1,3.1,0,0,1,2.565-1.258,3.115,3.115,0,0,1,2.5,1.079V-12.75h1.536V0H31.07L31-.963A3.127,3.127,0,0,1,28.43.166a3.068,3.068,0,0,1-2.544-1.278A5.321,5.321,0,0,1,24.9-4.449Zm1.536.174A3.984,3.984,0,0,0,27.069-2a2.039,2.039,0,0,0,1.743.863,2.24,2.24,0,0,0,2.133-1.312V-6.574a2.257,2.257,0,0,0-2.117-1.27,2.049,2.049,0,0,0-1.76.872A4.386,4.386,0,0,0,26.438-4.391Zm8.019-.183a5.3,5.3,0,0,1,.519-2.374A3.87,3.87,0,0,1,36.42-8.575a3.932,3.932,0,0,1,2.113-.573A3.788,3.788,0,0,1,41.5-7.877,4.886,4.886,0,0,1,42.633-4.5v.108a5.351,5.351,0,0,1-.5,2.353A3.813,3.813,0,0,1,40.695-.415a3.977,3.977,0,0,1-2.146.581A3.778,3.778,0,0,1,35.59-1.1a4.861,4.861,0,0,1-1.133-3.362ZM36-4.391a3.842,3.842,0,0,0,.693,2.4,2.218,2.218,0,0,0,1.855.9A2.2,2.2,0,0,0,40.408-2,4.2,4.2,0,0,0,41.1-4.574a3.836,3.836,0,0,0-.7-2.395,2.23,2.23,0,0,0-1.864-.917,2.205,2.205,0,0,0-1.834.9A4.17,4.17,0,0,0,36-4.391Z" transform="translate(597 3447)" fill="#12263f"/>
      <g id="Trazado_828179" data-name="Trazado 828179" transform="translate(705 3177)" fill="none">
        <path d="M0,0H190V50H0Z" stroke="none"/>
        <path d="M 2 2 L 2 48 L 188 48 L 188 2 L 2 2 M 0 0 L 190 0 L 190 50 L 0 50 L 0 0 Z" stroke="none" fill="#3b5620"/>
      </g>
      <path id="Trazado_828180" data-name="Trazado 828180" d="M4,0H31a4,4,0,0,1,4,4V31a4,4,0,0,1-4,4H4a4,4,0,0,1-4-4V4A4,4,0,0,1,4,0Z" transform="translate(783 3359)" fill="#089924"/>
      <path id="Trazado_828181" data-name="Trazado 828181" d="M4,0H31a4,4,0,0,1,4,4V31a4,4,0,0,1-4,4H4a4,4,0,0,1-4-4V4A4,4,0,0,1,4,0Z" transform="translate(828 3359)" fill="#00bd7d"/>
      <path id="Trazado_828182" data-name="Trazado 828182" d="M4,0H31a4,4,0,0,1,4,4V31a4,4,0,0,1-4,4H4a4,4,0,0,1-4-4V4A4,4,0,0,1,4,0Z" transform="translate(738 3359)" fill="#49b045"/>
      <path id="Trazado_828183" data-name="Trazado 828183" d="M4,0H31a4,4,0,0,1,4,4V31a4,4,0,0,1-4,4H4a4,4,0,0,1-4-4V4A4,4,0,0,1,4,0Z" transform="translate(693 3359)" fill="#81cf2e"/>
      <path id="Trazado_828184" data-name="Trazado 828184" d="M4,0H31a4,4,0,0,1,4,4V31a4,4,0,0,1-4,4H4a4,4,0,0,1-4-4V4A4,4,0,0,1,4,0Z" transform="translate(648 3359)" fill="#cad634"/>
      <path id="Trazado_828185" data-name="Trazado 828185" d="M4,0H31a4,4,0,0,1,4,4V31a4,4,0,0,1-4,4H4a4,4,0,0,1-4-4V4A4,4,0,0,1,4,0Z" transform="translate(603 3359)" fill="#f4e31a"/>
      <path id="Trazado_828186" data-name="Trazado 828186" d="M4,0H31a4,4,0,0,1,4,4V31a4,4,0,0,1-4,4H4a4,4,0,0,1-4-4V4A4,4,0,0,1,4,0Z" transform="translate(558 3359)" fill="#ffb701"/>
      <path id="Trazado_828187" data-name="Trazado 828187" d="M4,0H31a4,4,0,0,1,4,4V31a4,4,0,0,1-4,4H4a4,4,0,0,1-4-4V4A4,4,0,0,1,4,0Z" transform="translate(513 3359)" fill="#f85616"/>
      <path id="Trazado_828188" data-name="Trazado 828188" d="M4,0H31a4,4,0,0,1,4,4V31a4,4,0,0,1-4,4H4a4,4,0,0,1-4-4V4A4,4,0,0,1,4,0Z" transform="translate(468 3359)" fill="#db1225"/>
      <path id="Trazado_828189" data-name="Trazado 828189" d="M4,0H31a4,4,0,0,1,4,4V31a4,4,0,0,1-4,4H4a4,4,0,0,1-4-4V4A4,4,0,0,1,4,0Z" transform="translate(873 3359)" fill="#46cfbf"/>
      <path id="Trazado_828190" data-name="Trazado 828190" d="M4,0H31a4,4,0,0,1,4,4V31a4,4,0,0,1-4,4H4a4,4,0,0,1-4-4V4A4,4,0,0,1,4,0Z" transform="translate(918 3359)" fill="#4690d0"/>
      <path id="Trazado_828191" data-name="Trazado 828191" d="M4,0H31a4,4,0,0,1,4,4V31a4,4,0,0,1-4,4H4a4,4,0,0,1-4-4V4A4,4,0,0,1,4,0Z" transform="translate(963 3359)" fill="#3355ae"/>
      <path id="Trazado_828192" data-name="Trazado 828192" d="M4,0H31a4,4,0,0,1,4,4V31a4,4,0,0,1-4,4H4a4,4,0,0,1-4-4V4A4,4,0,0,1,4,0Z" transform="translate(1008 3359)" fill="#4d4eab"/>
      <path id="Trazado_828193" data-name="Trazado 828193" d="M4,0H31a4,4,0,0,1,4,4V31a4,4,0,0,1-4,4H4a4,4,0,0,1-4-4V4A4,4,0,0,1,4,0Z" transform="translate(1053 3359)" fill="#562eab"/>
      <path id="Trazado_828194" data-name="Trazado 828194" d="M4,0H31a4,4,0,0,1,4,4V31a4,4,0,0,1-4,4H4a4,4,0,0,1-4-4V4A4,4,0,0,1,4,0Z" transform="translate(1098 3359)" fill="#362690"/>
      <path id="Trazado_828195" data-name="Trazado 828195" d="M9.677-11.215,4.9,0H1.767l4.79-10.512H.457V-12.8h9.22Z" transform="translate(796 3383)" fill="#fff"/>
      <path id="Trazado_828196" data-name="Trazado 828196" d="M9.413-9.378a2.954,2.954,0,0,1-.461,1.644,3.361,3.361,0,0,1-1.27,1.143,3.7,3.7,0,0,1,1.45,1.226,3.164,3.164,0,0,1,.536,1.841A3.349,3.349,0,0,1,8.486-.817,4.909,4.909,0,0,1,5.229.176a5,5,0,0,1-3.287-1,3.325,3.325,0,0,1-1.2-2.7,3.2,3.2,0,0,1,.527-1.819A3.586,3.586,0,0,1,2.76-6.592,3.38,3.38,0,0,1,1.477-7.734a2.934,2.934,0,0,1-.466-1.644,3.284,3.284,0,0,1,1.134-2.637A4.558,4.558,0,0,1,5.2-12.981a4.586,4.586,0,0,1,3.076.967A3.284,3.284,0,0,1,9.413-9.378ZM6.7-3.762a1.69,1.69,0,0,0-.409-1.217,1.423,1.423,0,0,0-1.077-.426,1.438,1.438,0,0,0-1.081.426,1.678,1.678,0,0,0-.413,1.217,1.693,1.693,0,0,0,.417,1.208,1.433,1.433,0,0,0,1.094.444,1.377,1.377,0,0,0,1.063-.439A1.723,1.723,0,0,0,6.7-3.762ZM5.2-10.7a1.1,1.1,0,0,0-.91.391A1.7,1.7,0,0,0,3.981-9.22,1.8,1.8,0,0,0,4.3-8.112a1.092,1.092,0,0,0,.932.422,1.047,1.047,0,0,0,.91-.422,1.856,1.856,0,0,0,.3-1.107A1.7,1.7,0,0,0,6.13-10.3,1.109,1.109,0,0,0,5.2-10.7Z" transform="translate(841 3383)" fill="#fff"/>
      <path id="Trazado_828197" data-name="Trazado 828197" d="M7.937-12.981v2.329H7.8a4.447,4.447,0,0,0-2.729.8,3.358,3.358,0,0,0-1.314,2.21,3.464,3.464,0,0,1,2.531-.984A3.231,3.231,0,0,1,8.938-7.418a4.892,4.892,0,0,1,.984,3.182A4.48,4.48,0,0,1,9.347-2,4.108,4.108,0,0,1,7.739-.4a4.622,4.622,0,0,1-2.29.576,4.777,4.777,0,0,1-2.435-.62,4.26,4.26,0,0,1-1.67-1.771A5.832,5.832,0,0,1,.729-4.869V-6.056a7.387,7.387,0,0,1,.848-3.555A6.149,6.149,0,0,1,4-12.085a6.923,6.923,0,0,1,3.489-.9ZM5.265-6.363a1.7,1.7,0,0,0-.984.272,1.73,1.73,0,0,0-.589.668v.888q0,2.426,1.679,2.426A1.362,1.362,0,0,0,6.5-2.716a2.472,2.472,0,0,0,.453-1.521A2.426,2.426,0,0,0,6.491-5.77,1.476,1.476,0,0,0,5.265-6.363Z" transform="translate(751 3383)" fill="#fff"/>
      <path id="Trazado_828198" data-name="Trazado 828198" d="M.958-6.251,1.74-12.8H9.22v2.3H4.148l-.29,2.542a3.493,3.493,0,0,1,.831-.327A3.79,3.79,0,0,1,5.7-8.42,3.754,3.754,0,0,1,8.626-7.291,4.549,4.549,0,0,1,9.65-4.122,4.541,4.541,0,0,1,9.1-1.894,3.776,3.776,0,0,1,7.559-.36,4.87,4.87,0,0,1,5.212.176a5.24,5.24,0,0,1-2.259-.5A4.052,4.052,0,0,1,1.3-1.682,3.308,3.308,0,0,1,.712-3.636H3.683a1.68,1.68,0,0,0,.448,1.114,1.423,1.423,0,0,0,1.063.412q1.494,0,1.494-2.21,0-2.044-1.828-2.044A1.824,1.824,0,0,0,3.313-5.7Z" transform="translate(706 3383)" fill="#fff"/>
      <path id="Trazado_828199" data-name="Trazado 828199" d="M8.6-5h1.3v2.285H8.6V0H5.643V-2.716H.694L.519-4.526l5.124-8.244V-12.8H8.6ZM3.34-5h2.3V-8.938l-.185.3Z" transform="translate(661 3383)" fill="#fff"/>
      <path id="Trazado_828200" data-name="Trazado 828200" d="M3.489-7.638h1.4A1.453,1.453,0,0,0,6.548-9.264a1.406,1.406,0,0,0-.4-1.033,1.5,1.5,0,0,0-1.116-.4,1.606,1.606,0,0,0-1.024.343,1.046,1.046,0,0,0-.435.853H.615a3.032,3.032,0,0,1,.563-1.8,3.715,3.715,0,0,1,1.56-1.235,5.334,5.334,0,0,1,2.193-.444,5.241,5.241,0,0,1,3.357.976A3.243,3.243,0,0,1,9.51-9.325,2.7,2.7,0,0,1,9-7.765,3.6,3.6,0,0,1,7.532-6.574a3.441,3.441,0,0,1,1.6,1.121,2.951,2.951,0,0,1,.58,1.859A3.3,3.3,0,0,1,8.394-.853,5.472,5.472,0,0,1,4.931.176,5.675,5.675,0,0,1,2.6-.3,3.656,3.656,0,0,1,.967-1.63,3.45,3.45,0,0,1,.413-3.56H3.393a1.334,1.334,0,0,0,.475,1.02,1.676,1.676,0,0,0,1.169.431,1.755,1.755,0,0,0,1.248-.435A1.454,1.454,0,0,0,6.75-3.656a1.7,1.7,0,0,0-.483-1.371,2.021,2.021,0,0,0-1.336-.4H3.489Z" transform="translate(616 3383)" fill="#fff"/>
      <path id="Trazado_828201" data-name="Trazado 828201" d="M9.712,0H.782V-1.934L4.9-6.258A4.909,4.909,0,0,0,6.416-9.009a1.913,1.913,0,0,0-.36-1.257A1.287,1.287,0,0,0,5.01-10.7a1.3,1.3,0,0,0-1.1.576,2.366,2.366,0,0,0-.422,1.437H.519a4.2,4.2,0,0,1,.589-2.175,4.129,4.129,0,0,1,1.635-1.56,4.856,4.856,0,0,1,2.338-.562,4.777,4.777,0,0,1,3.195.958A3.42,3.42,0,0,1,9.4-9.272,4,4,0,0,1,9.114-7.8,6.456,6.456,0,0,1,8.24-6.3a22.029,22.029,0,0,1-1.912,2.1L4.676-2.285H9.712Z" transform="translate(571 3383)" fill="#fff"/>
      <path id="Trazado_828202" data-name="Trazado 828202" d="M7.348,0H4.377V-9.457L1.459-8.6v-2.25L7.075-12.8h.272Z" transform="translate(526 3383)" fill="#fff"/>
      <path id="Trazado_828203" data-name="Trazado 828203" d="M9.668-5.229a6.11,6.11,0,0,1-1.165,4A4.024,4.024,0,0,1,5.221.176a4.046,4.046,0,0,1-3.3-1.415A6.1,6.1,0,0,1,.747-5.229V-7.567a6.11,6.11,0,0,1,1.165-4A4.034,4.034,0,0,1,5.2-12.973a4.036,4.036,0,0,1,3.3,1.415,6.116,6.116,0,0,1,1.169,4ZM6.706-7.945a4.564,4.564,0,0,0-.36-2.061A1.2,1.2,0,0,0,5.2-10.687a1.176,1.176,0,0,0-1.112.633,4.3,4.3,0,0,0-.374,1.916v3.27a4.6,4.6,0,0,0,.36,2.1,1.209,1.209,0,0,0,1.143.664,1.193,1.193,0,0,0,1.116-.646,4.39,4.39,0,0,0,.369-2.026Z" transform="translate(481 3383)" fill="#fff"/>
      <path id="Trazado_828204" data-name="Trazado 828204" d="M6.618-4.948a3.128,3.128,0,0,1-2.145.861,3.463,3.463,0,0,1-2.76-1.178A4.64,4.64,0,0,1,.694-8.411,4.722,4.722,0,0,1,1.266-10.7a4.287,4.287,0,0,1,1.6-1.67,4.373,4.373,0,0,1,2.281-.615,4.245,4.245,0,0,1,2.29.637,4.29,4.29,0,0,1,1.6,1.8,6.189,6.189,0,0,1,.589,2.685v1.134A7.693,7.693,0,0,1,8.793-3.05,5.734,5.734,0,0,1,6.425-.659,7.4,7.4,0,0,1,2.839.176H2.654V-2.2l.563-.009Q6.275-2.355,6.618-4.948ZM5.273-6.223a1.442,1.442,0,0,0,1.389-.835v-1.23a3.2,3.2,0,0,0-.413-1.819A1.3,1.3,0,0,0,5.133-10.7a1.225,1.225,0,0,0-1.046.668,2.968,2.968,0,0,0-.422,1.617,2.661,2.661,0,0,0,.431,1.6A1.378,1.378,0,0,0,5.273-6.223Z" transform="translate(886 3383)" fill="#fff"/>
      <path id="Trazado_828205" data-name="Trazado 828205" d="M7.348,0H4.377V-9.457L1.459-8.6v-2.25L7.075-12.8h.272ZM20.092-5.229a6.11,6.11,0,0,1-1.165,4A4.024,4.024,0,0,1,15.645.176a4.046,4.046,0,0,1-3.3-1.415,6.1,6.1,0,0,1-1.169-3.99V-7.567a6.11,6.11,0,0,1,1.165-4,4.034,4.034,0,0,1,3.292-1.406,4.036,4.036,0,0,1,3.3,1.415,6.116,6.116,0,0,1,1.169,4ZM17.13-7.945a4.564,4.564,0,0,0-.36-2.061,1.2,1.2,0,0,0-1.143-.681,1.176,1.176,0,0,0-1.112.633,4.3,4.3,0,0,0-.374,1.916v3.27a4.6,4.6,0,0,0,.36,2.1,1.209,1.209,0,0,0,1.143.664,1.193,1.193,0,0,0,1.116-.646,4.39,4.39,0,0,0,.369-2.026Z" transform="translate(925 3383)" fill="#fff"/>
      <path id="Trazado_828206" data-name="Trazado 828206" d="M7.348,0H4.377V-9.457L1.459-8.6v-2.25L7.075-12.8h.272ZM17.771,0H14.8V-9.457L11.883-8.6v-2.25L17.5-12.8h.272Z" transform="translate(970 3383)" fill="#fff"/>
      <path id="Trazado_828207" data-name="Trazado 828207" d="M7.348,0H4.377V-9.457L1.459-8.6v-2.25L7.075-12.8h.272ZM20.136,0h-8.93V-1.934l4.113-4.324A4.909,4.909,0,0,0,16.84-9.009a1.913,1.913,0,0,0-.36-1.257,1.287,1.287,0,0,0-1.046-.431,1.3,1.3,0,0,0-1.1.576,2.366,2.366,0,0,0-.422,1.437H10.942a4.2,4.2,0,0,1,.589-2.175,4.129,4.129,0,0,1,1.635-1.56,4.856,4.856,0,0,1,2.338-.562,4.777,4.777,0,0,1,3.195.958,3.42,3.42,0,0,1,1.121,2.751A4,4,0,0,1,19.538-7.8a6.456,6.456,0,0,1-.875,1.5,22.029,22.029,0,0,1-1.912,2.1L15.1-2.285h5.036Z" transform="translate(1015 3383)" fill="#fff"/>
      <path id="Trazado_828208" data-name="Trazado 828208" d="M7.348,0H4.377V-9.457L1.459-8.6v-2.25L7.075-12.8h.272Zm6.565-7.638h1.4a1.453,1.453,0,0,0,1.661-1.626,1.406,1.406,0,0,0-.4-1.033,1.5,1.5,0,0,0-1.116-.4,1.606,1.606,0,0,0-1.024.343A1.046,1.046,0,0,0,14-9.5H11.039a3.032,3.032,0,0,1,.563-1.8,3.715,3.715,0,0,1,1.56-1.235,5.334,5.334,0,0,1,2.193-.444,5.241,5.241,0,0,1,3.357.976,3.243,3.243,0,0,1,1.222,2.681,2.7,2.7,0,0,1-.505,1.56,3.6,3.6,0,0,1-1.472,1.191,3.441,3.441,0,0,1,1.6,1.121,2.951,2.951,0,0,1,.58,1.859A3.3,3.3,0,0,1,18.817-.853,5.472,5.472,0,0,1,15.354.176,5.675,5.675,0,0,1,13.021-.3a3.656,3.656,0,0,1-1.63-1.327,3.45,3.45,0,0,1-.554-1.929h2.979a1.334,1.334,0,0,0,.475,1.02,1.676,1.676,0,0,0,1.169.431,1.755,1.755,0,0,0,1.248-.435,1.454,1.454,0,0,0,.466-1.112,1.7,1.7,0,0,0-.483-1.371,2.021,2.021,0,0,0-1.336-.4H13.913Z" transform="translate(1060 3383)" fill="#fff"/>
      <path id="Trazado_828209" data-name="Trazado 828209" d="M7.348,0H4.377V-9.457L1.459-8.6v-2.25L7.075-12.8h.272ZM19.028-5h1.3v2.285h-1.3V0H16.066V-2.716H11.118l-.176-1.811,5.124-8.244V-12.8h2.962ZM13.764-5h2.3V-8.938l-.185.3Z" transform="translate(1105 3383)" fill="#fff"/>
      <path id="Trazado_815438" data-name="Trazado 815438" d="M8878-8642.807v30.372" transform="translate(-8078 11972)" fill="none" stroke="#1b3f5e" stroke-width="2"/>
      <path id="Trazado_815441" data-name="Trazado 815441" d="M8878-8642.807v30.372" transform="translate(-8078 12036.807)" fill="none" stroke="#1b3f5e" stroke-width="2"/>
      <path id="Trazado_815439" data-name="Trazado 815439" d="M8899.669-8578v20.981h316.755V-8578" transform="translate(-8078.169 11972)" fill="none" stroke="#1b3f5e" stroke-width="2"/>
      <path id="Trazado_815440" data-name="Trazado 815440" d="M8899.669-8578v20.981h316.755V-8578" transform="translate(-8439.169 11972)" fill="none" stroke="#1b3f5e" stroke-width="2"/>
      <path id="Trazado_828210" data-name="Trazado 828210" d="M36,0A36,36,0,1,1,0,36,36,36,0,0,1,36,0Z" transform="translate(765 3266)" fill="#fffad0"/>
      <g id="Grupo_1070287" data-name="Grupo 1070287" transform="translate(778.789 3274.164)">
        <g id="Grupo_1070286" data-name="Grupo 1070286" transform="translate(0 0)" clip-path="url(#clip-path)">
          <path id="Trazado_815453" data-name="Trazado 815453" d="M74.425,42.674c-3.482,1.18-5.289,3.845-2.823,7.69,2.878,4.488,7.311,2.16,8.289,1.321C82.46,49.479,83.8,47,82.157,44.71c-2.116-2.957-5.059-2.942-7.731-2.036" transform="translate(-33.809 -20.219)" fill="#81a512"/>
          <path id="Trazado_815454" data-name="Trazado 815454" d="M75.278,52.056a13.744,13.744,0,0,1-3.066-4.519,6.408,6.408,0,0,1-.371-1.6c-1.587,1.431-1.97,3.547-.236,6.25a5.186,5.186,0,0,0,6.833,2.165,11.988,11.988,0,0,1-3.16-2.293" transform="translate(-33.811 -22.04)" fill="#4a7518"/>
          <path id="Trazado_815455" data-name="Trazado 815455" d="M60.844,51.961c-3.256,1.707-5.627,3.656-3.162,7.5,2.879,4.488,7.958,1.936,8.935,1.1,2.569-2.206,3.106-4.351.741-6.876-1.839-1.965-4.239-2.915-6.515-1.722" transform="translate(-27.187 -24.68)" fill="#81a512"/>
          <path id="Trazado_815456" data-name="Trazado 815456" d="M58.265,55.611c-1.66,1.4-2.309,3.163-.582,5.855a5.412,5.412,0,0,0,6.541,2.27c-3.1-1.907-5.723-4.883-5.959-8.125" transform="translate(-27.188 -26.683)" fill="#4a7518"/>
          <path id="Trazado_815457" data-name="Trazado 815457" d="M48.75,62.158c-3.181,1.843-5.312,5.874-1.968,8.986,3.9,3.632,8.189-.1,8.927-1.157,1.941-2.775,1.729-3.947-.99-6.845a4.456,4.456,0,0,0-5.97-.984" transform="translate(-21.636 -29.471)" fill="#81a512"/>
          <path id="Trazado_815458" data-name="Trazado 815458" d="M50.32,73.944a10.414,10.414,0,0,1-4.293-6.183,4.707,4.707,0,0,0,.758,6.425A5.194,5.194,0,0,0,52.52,75.33a18.692,18.692,0,0,1-2.2-1.386" transform="translate(-21.64 -32.513)" fill="#4a7518"/>
          <path id="Trazado_815459" data-name="Trazado 815459" d="M37.542,74.693c-3.145,2.693-3.3,4.564-1.221,7.361,3.184,4.277,8.053.141,8.792-.915,1.94-2.775,1.8-4.012-.99-6.845-1.887-1.919-4.07-1.751-6.581.4" transform="translate(-16.763 -35.007)" fill="#81a512"/>
          <path id="Trazado_815460" data-name="Trazado 815460" d="M39.93,84.964A9.175,9.175,0,0,1,36.3,79.642a6.7,6.7,0,0,1-.164-.7c-1.721,2.014-1.525,3.686.183,5.982,1.782,2.394,4.092,2.152,5.911,1.289a12.5,12.5,0,0,1-2.3-1.248" transform="translate(-16.765 -37.878)" fill="#4a7518"/>
          <path id="Trazado_815461" data-name="Trazado 815461" d="M26.087,83.064c-1.775-.124-9.085.705-6.245,5.748,2.8,4.964,7.71,4.727,10.212,3.07,1.154-.764,2.844-2.469.906-5.322-1.513-2.226-3.538-3.4-4.873-3.5" transform="translate(-9.21 -39.85)" fill="#81a512"/>
          <path id="Trazado_815462" data-name="Trazado 815462" d="M25.47,91.547a9.414,9.414,0,0,1-3.425-5.575,6.173,6.173,0,0,1,.005-1.737c-2.106.73-3.846,2.235-2.208,5.144,2.16,3.836,5.582,4.56,8.183,3.929a11.8,11.8,0,0,1-2.555-1.761" transform="translate(-9.21 -40.417)" fill="#4a7518"/>
          <path id="Trazado_815463" data-name="Trazado 815463" d="M11.342,86.112C9.591,85.8,2.962,86.947,5.8,91.99c2.795,4.963,9.485,3.628,10.571,3.386s2.415-1.837,1.118-4.686a8.874,8.874,0,0,0-6.148-4.578" transform="translate(-2.449 -41.294)" fill="#81a512"/>
          <path id="Trazado_815464" data-name="Trazado 815464" d="M9.269,46.09c3.121-1.943,4.273-4.95,1-8.131-3.826-3.713-7.611-.436-8.372.6-2,2.734-2.735,5.449-.615,7.308,2.734,2.4,5.6,1.711,7.992.22" transform="translate(0 -17.385)" fill="#81a512"/>
          <path id="Trazado_815465" data-name="Trazado 815465" d="M9.593,38.922a13.74,13.74,0,0,1,4.015,3.7,6.4,6.4,0,0,1,.727,1.476c1.219-1.755,1.109-3.9-1.195-6.139a5.186,5.186,0,0,0-7.147-.55,11.989,11.989,0,0,1,3.6,1.513" transform="translate(-2.876 -17.385)" fill="#4a7518"/>
          <path id="Trazado_815466" data-name="Trazado 815466" d="M19.854,26.54c.649-3.619.562-6.688-3.987-7.1-5.31-.478-6.409,5.1-6.345,6.386.167,3.382,1.214,5.025,4.767,5.23a5.284,5.284,0,0,0,5.565-4.519" transform="translate(-4.567 -9.315)" fill="#81a512"/>
          <path id="Trazado_815467" data-name="Trazado 815467" d="M20.627,27.041c.045-.165.083-.332.113-.5.649-3.619.563-6.688-3.987-7.1a5.228,5.228,0,0,0-5.386,2.885,8.712,8.712,0,0,1,9.259,4.713" transform="translate(-5.455 -9.315)" fill="#4a7518"/>
          <path id="Trazado_815468" data-name="Trazado 815468" d="M26.922,16.043c2.677-2.52,3.832-6.931-.133-9.2-4.628-2.647-7.95,1.966-8.428,3.162-1.257,3.145-1.326,5.168,1.507,7.213,2.16,1.56,5.295.478,7.054-1.178" transform="translate(-8.412 -2.897)" fill="#81a512"/>
          <path id="Trazado_815469" data-name="Trazado 815469" d="M28.713,11.583a10.3,10.3,0,0,1,1.412,4.185c2.477-2.555,3.424-6.734-.4-8.923a5.232,5.232,0,0,0-6.076.355,8.341,8.341,0,0,1,5.066,4.383" transform="translate(-11.346 -2.898)" fill="#4a7518"/>
          <path id="Trazado_815470" data-name="Trazado 815470" d="M39.757,10.173c4.088-.652,5.2-2.164,4.889-5.636C44.168-.774,37.854.206,36.673.72c-3.1,1.351-4.591,2.217-3.7,6.088.605,2.622,3.516,3.885,6.781,3.365" transform="translate(-15.699 -0.144)" fill="#81a512"/>
          <path id="Trazado_815471" data-name="Trazado 815471" d="M50.614,4.537C50.3,1.013,47.411.26,45.159.3a8.73,8.73,0,0,1,3.688,4.413,7.48,7.48,0,0,1,.39,4.236c1.223-.909,1.568-2.3,1.377-4.414" transform="translate(-21.668 -0.144)" fill="#4a7518"/>
          <path id="Trazado_815472" data-name="Trazado 815472" d="M56.26,9.822c1.674.6,8.927,1.908,8.251-3.839C63.845.325,58.946-.408,56,.157,54.64.417,51.983,1.4,52.342,4.828c.367,3.514,1.941,4.281,3.918,4.994" transform="translate(-25.098 0.001)" fill="#81a512"/>
        </g>
      </g>
    </g>
  </g>
</svg>
