<svg id="Grupo_1072708" data-name="Grupo 1072708" xmlns="http://www.w3.org/2000/svg" width="262" height="146.391" viewBox="0 0 262 146.391">
  <rect id="Rectángulo_375490" data-name="Rectángulo 375490" width="262" height="146.391" fill="#fffad0"/>
  <g id="Grupo_1069984" data-name="Grupo 1069984" transform="translate(12 39)">
    <text id="Pasta_de_soya_Sorgo" data-name="Pasta de soya 

Sorgo" transform="translate(0 0.5)" fill="#12263f" font-size="16" font-family="Roboto-Bold, Roboto" font-weight="700"><tspan x="0" y="15">Pasta de soya</tspan><tspan y="15" font-family="Roboto-Regular, Roboto" font-weight="400"> </tspan><tspan font-family="Roboto-Regular, Roboto" font-weight="400"><tspan x="0" y="39"></tspan></tspan><tspan x="0" y="63">Sorgo</tspan></text>
    <text id="_40_10_" data-name="40%

10%" transform="translate(117)" fill="#12263f" font-size="17" font-family="Roboto-Regular, Roboto"><tspan x="0" y="16">40%</tspan><tspan x="0" y="40"></tspan><tspan x="0" y="64">10%</tspan></text>
    <text id="_7_23" data-name="7

23" transform="translate(217)" fill="#12263f" font-size="17" font-family="Roboto-Regular, Roboto"><tspan x="0" y="16">7</tspan><tspan x="0" y="40"></tspan><tspan x="0" y="64">23</tspan></text>
    <text id="_17" data-name="17" transform="translate(172.837 24)" fill="#12263f" font-size="17" font-family="Roboto-Regular, Roboto"><tspan x="0" y="16">17</tspan></text>
    <g id="Grupo_1069977" data-name="Grupo 1069977" transform="translate(154.191 8.5)">
      <path id="Trazado_814904" data-name="Trazado 814904" d="M-2746.127-10413.115l13.077,10.835" transform="translate(2746.127 10413.115)" fill="none" stroke="#3b5620" stroke-width="2"/>
      <path id="Polígono_11" data-name="Polígono 11" d="M3.8,0,7.6,6.081H0Z" transform="translate(17.914 10.578) rotate(135)" fill="#3b5620"/>
    </g>
    <g id="Grupo_1069983" data-name="Grupo 1069983" transform="translate(194.569 43.5)">
      <path id="Trazado_814904-2" data-name="Trazado 814904" d="M-2746.127-10413.115l13.077,10.835" transform="translate(2746.127 10413.115)" fill="none" stroke="#3b5620" stroke-width="2"/>
      <path id="Polígono_11-2" data-name="Polígono 11" d="M3.8,0,7.6,6.081H0Z" transform="translate(17.914 10.578) rotate(135)" fill="#3b5620"/>
    </g>
    <g id="Grupo_1069981" data-name="Grupo 1069981" transform="translate(154.191 41.5)">
      <path id="Trazado_814904-3" data-name="Trazado 814904" d="M-2746.127-10402.28l13.076-10.835" transform="translate(2746.127 10418.232)" fill="none" stroke="#3b5620" stroke-width="2"/>
      <path id="Polígono_11-3" data-name="Polígono 11" d="M3.8,0,7.6,6.081H0Z" transform="translate(12.539 0) rotate(45)" fill="#3b5620"/>
    </g>
    <g id="Grupo_1069982" data-name="Grupo 1069982" transform="translate(194.569 8.5)">
      <path id="Trazado_814904-4" data-name="Trazado 814904" d="M-2746.127-10402.28l13.076-10.835" transform="translate(2746.127 10418.232)" fill="none" stroke="#3b5620" stroke-width="2"/>
      <path id="Polígono_11-4" data-name="Polígono 11" d="M3.8,0,7.6,6.081H0Z" transform="translate(12.539 0) rotate(45)" fill="#3b5620"/>
    </g>
  </g>
</svg>
