<svg xmlns="http://www.w3.org/2000/svg" width="505" height="198" viewBox="0 0 505 198">
  <g id="Grupo_1072693" data-name="Grupo 1072693" transform="translate(1436 12756)">
    <g id="Grupo_1070050" data-name="Grupo 1070050" transform="translate(-91 -2496)">
      <rect id="Rectángulo_375522" data-name="Rectángulo 375522" width="505" height="198" transform="translate(-1345 -10260)" fill="#fff"/>
      <g id="Grupo_1069998" data-name="Grupo 1069998" transform="translate(599 0.414)">
        <g id="Grupo_1069997" data-name="Grupo 1069997" transform="translate(142 -45.406)">
          <g id="Grupo_1069986" data-name="Grupo 1069986" transform="translate(-2426 -11392.395)">
            <path id="Trazado_828163" data-name="Trazado 828163" d="M7.778,13.643A1.353,1.353,0,0,0,7.251,12.5a6.917,6.917,0,0,0-1.9-.844,13.458,13.458,0,0,1-2.171-.875A3.547,3.547,0,0,1,1,7.6a3.09,3.09,0,0,1,.584-1.85,3.812,3.812,0,0,1,1.679-1.27,6.318,6.318,0,0,1,2.457-.457,5.751,5.751,0,0,1,2.443.5,3.891,3.891,0,0,1,1.666,1.4,3.668,3.668,0,0,1,.593,2.057H7.787a1.726,1.726,0,0,0-.554-1.367,2.276,2.276,0,0,0-1.556-.488,2.432,2.432,0,0,0-1.5.409,1.289,1.289,0,0,0-.536,1.077,1.235,1.235,0,0,0,.628,1.046,7.1,7.1,0,0,0,1.85.791A7.994,7.994,0,0,1,9.4,11.129a3.343,3.343,0,0,1,1.028,2.5,3.08,3.08,0,0,1-1.257,2.606,5.5,5.5,0,0,1-3.384.945,6.534,6.534,0,0,1-2.689-.541,4.256,4.256,0,0,1-1.85-1.481,3.793,3.793,0,0,1-.637-2.18H3.252q0,2.118,2.531,2.118a2.462,2.462,0,0,0,1.468-.382A1.244,1.244,0,0,0,7.778,13.643ZM14.722,17H12.173V7.49h2.549Zm-2.7-11.971a1.251,1.251,0,0,1,.382-.94,1.436,1.436,0,0,1,1.042-.369,1.44,1.44,0,0,1,1.037.369,1.244,1.244,0,0,1,.387.94,1.247,1.247,0,0,1-.391.949,1.629,1.629,0,0,1-2.065,0A1.247,1.247,0,0,1,12.023,5.029Z" transform="translate(428 1206.195)" fill="#12263f"/>
            <path id="Trazado_828164" data-name="Trazado 828164" d="M3.428,9.811H4.649A2.685,2.685,0,0,0,6.46,9.2a2.026,2.026,0,0,0,.659-1.591,1.985,1.985,0,0,0-2.241-2.25,2.331,2.331,0,0,0-1.683.6,2.107,2.107,0,0,0-.628,1.6H.94A3.264,3.264,0,0,1,2.052,5.034,4.05,4.05,0,0,1,4.878,4.027a4,4,0,0,1,2.839.958A3.461,3.461,0,0,1,8.745,7.648,2.809,2.809,0,0,1,8.2,9.266a3.264,3.264,0,0,1-1.472,1.169,3.145,3.145,0,0,1,1.63,1.107,3.076,3.076,0,0,1,.576,1.89,3.491,3.491,0,0,1-1.125,2.733,4.213,4.213,0,0,1-2.927,1.011A4.324,4.324,0,0,1,1.956,16.2,3.236,3.236,0,0,1,.826,13.625H2.461a2.092,2.092,0,0,0,.659,1.617,2.507,2.507,0,0,0,1.767.606,2.46,2.46,0,0,0,1.8-.615,2.371,2.371,0,0,0,.624-1.767,2.151,2.151,0,0,0-.686-1.714,2.987,2.987,0,0,0-1.978-.615H3.428ZM19.2,11.542a7.436,7.436,0,0,1-.976,4.245,3.47,3.47,0,0,1-3.05,1.389,3.5,3.5,0,0,1-3.032-1.358,7.058,7.058,0,0,1-1.02-4.056V9.591A7.271,7.271,0,0,1,12.094,5.4a3.5,3.5,0,0,1,3.059-1.371A3.528,3.528,0,0,1,18.193,5.35a7.017,7.017,0,0,1,1,4.083ZM17.569,9.318a5.958,5.958,0,0,0-.58-3.01,2,2,0,0,0-1.837-.945,1.97,1.97,0,0,0-1.819.94A5.817,5.817,0,0,0,12.744,9.2v2.6a6.053,6.053,0,0,0,.6,3.063,1.993,1.993,0,0,0,1.824.989,1.966,1.966,0,0,0,1.789-.932,5.834,5.834,0,0,0,.611-2.936Zm15.768.527h-7.33V8.431h7.33Zm0,3.647h-7.33V12.087h7.33ZM45.413,17H43.778V6.163L40.5,7.367V5.891l4.658-1.749h.255ZM58.2,11.542a7.436,7.436,0,0,1-.976,4.245,4.054,4.054,0,0,1-6.082.031,7.058,7.058,0,0,1-1.02-4.056V9.591A7.271,7.271,0,0,1,51.1,5.4a3.5,3.5,0,0,1,3.059-1.371A3.528,3.528,0,0,1,57.2,5.35a7.017,7.017,0,0,1,1,4.083ZM56.575,9.318A5.958,5.958,0,0,0,56,6.308a2,2,0,0,0-1.837-.945,1.97,1.97,0,0,0-1.819.94A5.817,5.817,0,0,0,51.75,9.2v2.6a6.053,6.053,0,0,0,.6,3.063,1.993,1.993,0,0,0,1.824.989,1.966,1.966,0,0,0,1.789-.932,5.834,5.834,0,0,0,.611-2.936Zm11.733,2.224a7.436,7.436,0,0,1-.976,4.245,4.054,4.054,0,0,1-6.082.031,7.058,7.058,0,0,1-1.02-4.056V9.591A7.271,7.271,0,0,1,61.207,5.4a4.127,4.127,0,0,1,6.1-.048,7.017,7.017,0,0,1,1,4.083ZM66.683,9.318a5.958,5.958,0,0,0-.58-3.01,2,2,0,0,0-1.837-.945,1.97,1.97,0,0,0-1.819.94A5.817,5.817,0,0,0,61.857,9.2v2.6a6.053,6.053,0,0,0,.6,3.063,1.993,1.993,0,0,0,1.824.989,1.966,1.966,0,0,0,1.789-.932,5.834,5.834,0,0,0,.611-2.936Z" transform="translate(461 1206.195)" fill="#12263f"/>
            <path id="Trazado_828165" data-name="Trazado 828165" d="M9.325,5.117,4.025,17H2.32L7.6,5.539H.677V4.2H9.325Zm13.9,4.729H15.9V8.431h7.33Zm0,3.647H15.9V12.087h7.33ZM34.559,9.107l3.067-4.9h1.986l-4.043,6.346L39.709,17h-2l-3.146-4.992L31.395,17h-2l4.148-6.451L29.5,4.2h1.978Z" transform="translate(471 1233.195)" fill="#12263f"/>
          </g>
        </g>
        <g id="Grupo_1069995" data-name="Grupo 1069995" transform="translate(39 -45.406)">
          <g id="Grupo_1069993" data-name="Grupo 1069993" transform="translate(-2067 -11392.395)">
            <path id="Trazado_828178" data-name="Trazado 828178" d="M4.526,13.405,6.284,7.49H9.009L5.186,18.477l-.211.5a2.9,2.9,0,0,1-2.812,1.863,4,4,0,0,1-1.125-.167V18.749l.387.009a2.09,2.09,0,0,0,1.077-.22,1.443,1.443,0,0,0,.558-.729l.3-.782L.026,7.49H2.76Zm15.117.967a.818.818,0,0,0-.461-.734,5.241,5.241,0,0,0-1.481-.479q-3.393-.712-3.393-2.883a2.613,2.613,0,0,1,1.05-2.114,4.237,4.237,0,0,1,2.747-.848,4.56,4.56,0,0,1,2.9.853,2.687,2.687,0,0,1,1.085,2.215h-2.54a1.229,1.229,0,0,0-.352-.9,1.488,1.488,0,0,0-1.1-.356,1.52,1.52,0,0,0-.993.29.916.916,0,0,0-.352.738.783.783,0,0,0,.4.681,4.114,4.114,0,0,0,1.349.448,11.019,11.019,0,0,1,1.6.426,2.628,2.628,0,0,1,2.013,2.558A2.481,2.481,0,0,1,21,16.372a4.815,4.815,0,0,1-2.883.8,5.029,5.029,0,0,1-2.123-.426,3.561,3.561,0,0,1-1.455-1.169,2.716,2.716,0,0,1-.527-1.6h2.408a1.326,1.326,0,0,0,.5,1.037,1.987,1.987,0,0,0,1.248.36,1.839,1.839,0,0,0,1.1-.277A.861.861,0,0,0,19.644,14.372ZM26.429,17H23.88V7.49h2.549ZM23.73,5.029a1.251,1.251,0,0,1,.382-.94,1.648,1.648,0,0,1,2.079,0,1.244,1.244,0,0,1,.387.94,1.247,1.247,0,0,1-.391.949,1.629,1.629,0,0,1-2.065,0A1.247,1.247,0,0,1,23.73,5.029Z" transform="translate(415 1206.195)" fill="#12263f"/>
            <path id="Trazado_828179" data-name="Trazado 828179" d="M3.428,9.811H4.649A2.685,2.685,0,0,0,6.46,9.2a2.026,2.026,0,0,0,.659-1.591,1.985,1.985,0,0,0-2.241-2.25,2.331,2.331,0,0,0-1.683.6,2.107,2.107,0,0,0-.628,1.6H.94A3.264,3.264,0,0,1,2.052,5.034,4.05,4.05,0,0,1,4.878,4.027a4,4,0,0,1,2.839.958A3.461,3.461,0,0,1,8.745,7.648,2.809,2.809,0,0,1,8.2,9.266a3.264,3.264,0,0,1-1.472,1.169,3.145,3.145,0,0,1,1.63,1.107,3.076,3.076,0,0,1,.576,1.89,3.491,3.491,0,0,1-1.125,2.733,4.213,4.213,0,0,1-2.927,1.011A4.324,4.324,0,0,1,1.956,16.2,3.236,3.236,0,0,1,.826,13.625H2.461a2.092,2.092,0,0,0,.659,1.617,2.507,2.507,0,0,0,1.767.606,2.46,2.46,0,0,0,1.8-.615,2.371,2.371,0,0,0,.624-1.767,2.151,2.151,0,0,0-.686-1.714,2.987,2.987,0,0,0-1.978-.615H3.428ZM19.2,11.542a7.436,7.436,0,0,1-.976,4.245,3.47,3.47,0,0,1-3.05,1.389,3.5,3.5,0,0,1-3.032-1.358,7.058,7.058,0,0,1-1.02-4.056V9.591A7.271,7.271,0,0,1,12.094,5.4a3.5,3.5,0,0,1,3.059-1.371A3.528,3.528,0,0,1,18.193,5.35a7.017,7.017,0,0,1,1,4.083ZM17.569,9.318a5.958,5.958,0,0,0-.58-3.01,2,2,0,0,0-1.837-.945,1.97,1.97,0,0,0-1.819.94A5.817,5.817,0,0,0,12.744,9.2v2.6a6.053,6.053,0,0,0,.6,3.063,1.993,1.993,0,0,0,1.824.989,1.966,1.966,0,0,0,1.789-.932,5.834,5.834,0,0,0,.611-2.936Zm15.768.527h-7.33V8.431h7.33Zm0,3.647h-7.33V12.087h7.33ZM45.413,17H43.778V6.163L40.5,7.367V5.891l4.658-1.749h.255ZM58.2,11.542a7.436,7.436,0,0,1-.976,4.245,4.054,4.054,0,0,1-6.082.031,7.058,7.058,0,0,1-1.02-4.056V9.591A7.271,7.271,0,0,1,51.1,5.4a3.5,3.5,0,0,1,3.059-1.371A3.528,3.528,0,0,1,57.2,5.35a7.017,7.017,0,0,1,1,4.083ZM56.575,9.318A5.958,5.958,0,0,0,56,6.308a2,2,0,0,0-1.837-.945,1.97,1.97,0,0,0-1.819.94A5.817,5.817,0,0,0,51.75,9.2v2.6a6.053,6.053,0,0,0,.6,3.063,1.993,1.993,0,0,0,1.824.989,1.966,1.966,0,0,0,1.789-.932,5.834,5.834,0,0,0,.611-2.936Zm11.733,2.224a7.436,7.436,0,0,1-.976,4.245,4.054,4.054,0,0,1-6.082.031,7.058,7.058,0,0,1-1.02-4.056V9.591A7.271,7.271,0,0,1,61.207,5.4a4.127,4.127,0,0,1,6.1-.048,7.017,7.017,0,0,1,1,4.083ZM66.683,9.318a5.958,5.958,0,0,0-.58-3.01,2,2,0,0,0-1.837-.945,1.97,1.97,0,0,0-1.819.94A5.817,5.817,0,0,0,61.857,9.2v2.6a6.053,6.053,0,0,0,.6,3.063,1.993,1.993,0,0,0,1.824.989,1.966,1.966,0,0,0,1.789-.932,5.834,5.834,0,0,0,.611-2.936Z" transform="translate(461 1206.195)" fill="#12263f"/>
            <path id="Trazado_828180" data-name="Trazado 828180" d="M9.448,17H1.063V15.831l4.43-4.922A10.524,10.524,0,0,0,6.851,9.094a3.029,3.029,0,0,0,.374-1.446A2.3,2.3,0,0,0,6.618,6,2.12,2.12,0,0,0,5,5.363a2.511,2.511,0,0,0-1.885.69,2.635,2.635,0,0,0-.672,1.92H.817A3.774,3.774,0,0,1,1.956,5.117,4.219,4.219,0,0,1,5,4.027a4.054,4.054,0,0,1,2.821.936A3.193,3.193,0,0,1,8.859,7.455q0,1.89-2.408,4.5L3.023,15.673H9.448Zm4.087-7.189h1.222A2.685,2.685,0,0,0,16.567,9.2a2.026,2.026,0,0,0,.659-1.591,1.985,1.985,0,0,0-2.241-2.25,2.331,2.331,0,0,0-1.683.6,2.107,2.107,0,0,0-.628,1.6H11.048A3.264,3.264,0,0,1,12.16,5.034a4.05,4.05,0,0,1,2.826-1.006,4,4,0,0,1,2.839.958,3.461,3.461,0,0,1,1.028,2.663,2.809,2.809,0,0,1-.541,1.617,3.264,3.264,0,0,1-1.472,1.169,3.145,3.145,0,0,1,1.63,1.107,3.076,3.076,0,0,1,.576,1.89,3.491,3.491,0,0,1-1.125,2.733,4.213,4.213,0,0,1-2.927,1.011,4.324,4.324,0,0,1-2.931-.976,3.236,3.236,0,0,1-1.129-2.575h1.635a2.092,2.092,0,0,0,.659,1.617,2.507,2.507,0,0,0,1.767.606,2.46,2.46,0,0,0,1.8-.615,2.371,2.371,0,0,0,.624-1.767,2.151,2.151,0,0,0-.686-1.714,2.987,2.987,0,0,0-1.978-.615H13.535Zm19.8.035h-7.33V8.431h7.33Zm0,3.647h-7.33V12.087h7.33Zm11.057-2.865L47.733,4.2h1.916l-4.412,8.024V17H43.55V12.228L39.138,4.2h1.934Z" transform="translate(471 1233.195)" fill="#12263f"/>
          </g>
        </g>
        <g id="Grupo_1069996" data-name="Grupo 1069996" transform="translate(74 -45.406)">
          <path id="Trazado_828166" data-name="Trazado 828166" d="M.729,14.228a7.4,7.4,0,0,1,.8-2.619A4.534,4.534,0,0,1,3.067,9.859,3.517,3.517,0,0,1,5.08,9.306a2.971,2.971,0,0,1,2.443,1.16L8.438,5.5h1.591L7.69,19H6.24l.167-1.02a3.506,3.506,0,0,1-2.777,1.2,2.627,2.627,0,0,1-2.1-1.033,4.5,4.5,0,0,1-.844-2.676A8.547,8.547,0,0,1,.729,14.228Zm1.529.909a3.3,3.3,0,0,0,.448,1.949A1.617,1.617,0,0,0,4.1,17.8a2.874,2.874,0,0,0,2.452-1.387L7.3,12.02a1.973,1.973,0,0,0-1.916-1.334,2.411,2.411,0,0,0-1.657.566,3.663,3.663,0,0,0-1.09,1.659A6.842,6.842,0,0,0,2.259,15.136ZM15.486,9.314a3.428,3.428,0,0,1,2.048.65A3.7,3.7,0,0,1,18.8,11.709a5.4,5.4,0,0,1,.277,2.43l-.018.193a6.4,6.4,0,0,1-.826,2.509,4.848,4.848,0,0,1-1.705,1.745,4.158,4.158,0,0,1-2.294.589,3.434,3.434,0,0,1-2.043-.65A3.611,3.611,0,0,1,10.934,16.8a5.547,5.547,0,0,1-.281-2.4,6.48,6.48,0,0,1,.8-2.654A4.96,4.96,0,0,1,13.17,9.925,4.109,4.109,0,0,1,15.486,9.314Zm-3.234,5.1a5.4,5.4,0,0,0,0,1.151,2.821,2.821,0,0,0,.62,1.652,1.86,1.86,0,0,0,1.419.642,2.534,2.534,0,0,0,1.459-.391,3.284,3.284,0,0,0,1.125-1.261,5.311,5.311,0,0,0,.589-1.872,8.431,8.431,0,0,0,.026-1.362,2.927,2.927,0,0,0-.642-1.679,1.9,1.9,0,0,0-1.424-.65,2.592,2.592,0,0,0-2.092.967,4.776,4.776,0,0,0-1.063,2.6ZM23.405,9.481l-.229,1.2a3.749,3.749,0,0,1,2.918-1.371,2.359,2.359,0,0,1,1.986.932,3.619,3.619,0,0,1,.475,2.522L27.519,19H25.928l1.046-6.251a3.332,3.332,0,0,0,.009-.8,1.314,1.314,0,0,0-1.45-1.255,2.994,2.994,0,0,0-2.514,1.528L21.841,19H20.25L21.9,9.49Zm7.022,4.746a7.4,7.4,0,0,1,.8-2.619,4.534,4.534,0,0,1,1.538-1.749,3.517,3.517,0,0,1,2.013-.554,2.971,2.971,0,0,1,2.443,1.16L38.136,5.5h1.591L37.389,19h-1.45l.167-1.02a3.506,3.506,0,0,1-2.777,1.2,2.627,2.627,0,0,1-2.1-1.033,4.5,4.5,0,0,1-.844-2.676A8.547,8.547,0,0,1,30.428,14.228Zm1.529.909a3.3,3.3,0,0,0,.448,1.949,1.617,1.617,0,0,0,1.389.711,2.874,2.874,0,0,0,2.452-1.387L37,12.02a1.973,1.973,0,0,0-1.916-1.334,2.411,2.411,0,0,0-1.657.566,3.663,3.663,0,0,0-1.09,1.659A6.842,6.842,0,0,0,31.957,15.136Zm12.059,4.04a3.429,3.429,0,0,1-2.777-1.31,4.507,4.507,0,0,1-.844-3.261l.044-.378a6.327,6.327,0,0,1,.839-2.584,4.882,4.882,0,0,1,1.683-1.762,3.927,3.927,0,0,1,2.145-.567,3.024,3.024,0,0,1,2.3.976,4.012,4.012,0,0,1,.914,2.549,7.448,7.448,0,0,1-.035,1.143l-.1.729H41.977a3.212,3.212,0,0,0,.426,2.2,2.019,2.019,0,0,0,1.745.94,3.383,3.383,0,0,0,2.6-1.266l.914.773a4.183,4.183,0,0,1-1.542,1.349A4.371,4.371,0,0,1,44.016,19.176Zm1.011-8.534a2.324,2.324,0,0,0-1.718.668,4.748,4.748,0,0,0-1.165,2.065l4.623.009.035-.141a2.6,2.6,0,0,0-.356-1.841A1.674,1.674,0,0,0,45.026,10.642Zm14.2.457,3.735-4.9H65l-4.983,6.425L63,19H61.146l-2.268-4.983L55.028,19H52.989l5.089-6.53L55.178,6.2h1.828Z" transform="translate(-1998 -10089.199)" fill="#4f9e00"/>
          <path id="Trazado_828167" data-name="Trazado 828167" d="M8.666,9.846H1.336V8.431h7.33Zm0,3.647H1.336V12.087h7.33Z" transform="translate(-1923 -10089.199)" fill="#12263f"/>
          <path id="Trazado_828168" data-name="Trazado 828168" d="M8.666,9.846H1.336V8.431h7.33Zm0,3.647H1.336V12.087h7.33Z" transform="translate(-1826 -10089.199)" fill="#12263f"/>
          <path id="Trazado_828169" data-name="Trazado 828169" d="M6.407,17H4.772V6.163l-3.278,1.2V5.891L6.152,4.142h.255ZM19.2,11.542a7.436,7.436,0,0,1-.976,4.245,3.47,3.47,0,0,1-3.05,1.389,3.5,3.5,0,0,1-3.032-1.358,7.058,7.058,0,0,1-1.02-4.056V9.591A7.271,7.271,0,0,1,12.094,5.4a3.5,3.5,0,0,1,3.059-1.371A3.528,3.528,0,0,1,18.193,5.35a7.017,7.017,0,0,1,1,4.083ZM17.569,9.318a5.958,5.958,0,0,0-.58-3.01,2,2,0,0,0-1.837-.945,1.97,1.97,0,0,0-1.819.94A5.817,5.817,0,0,0,12.744,9.2v2.6a6.053,6.053,0,0,0,.6,3.063,1.993,1.993,0,0,0,1.824.989,1.966,1.966,0,0,0,1.789-.932,5.834,5.834,0,0,0,.611-2.936ZM29.3,11.542a7.436,7.436,0,0,1-.976,4.245,3.47,3.47,0,0,1-3.05,1.389,3.5,3.5,0,0,1-3.032-1.358,7.058,7.058,0,0,1-1.02-4.056V9.591A7.271,7.271,0,0,1,22.2,5.4,3.5,3.5,0,0,1,25.26,4.027,3.528,3.528,0,0,1,28.3,5.35a7.017,7.017,0,0,1,1,4.083ZM27.677,9.318a5.958,5.958,0,0,0-.58-3.01,2,2,0,0,0-1.837-.945,1.97,1.97,0,0,0-1.819.94A5.817,5.817,0,0,0,22.852,9.2v2.6a6.053,6.053,0,0,0,.6,3.063,1.993,1.993,0,0,0,1.824.989,1.966,1.966,0,0,0,1.789-.932,5.834,5.834,0,0,0,.611-2.936Zm12.99.817h3.568v1.538H40.667v4.043H39.032V11.674H35.464V10.136h3.568V6.4h1.635Zm18.1-5.019L53.464,17H51.759L57.041,5.539H50.115V4.2h8.648Z" transform="translate(-1900 -10099.199)" fill="#12263f"/>
          <path id="Trazado_828170" data-name="Trazado 828170" d="M9.448,17H1.063V15.831l4.43-4.922A10.524,10.524,0,0,0,6.851,9.094a3.029,3.029,0,0,0,.374-1.446A2.3,2.3,0,0,0,6.618,6,2.12,2.12,0,0,0,5,5.363a2.511,2.511,0,0,0-1.885.69,2.635,2.635,0,0,0-.672,1.92H.817A3.774,3.774,0,0,1,1.956,5.117,4.219,4.219,0,0,1,5,4.027a4.054,4.054,0,0,1,2.821.936A3.193,3.193,0,0,1,8.859,7.455q0,1.89-2.408,4.5L3.023,15.673H9.448Zm4.087-7.189h1.222A2.685,2.685,0,0,0,16.567,9.2a2.026,2.026,0,0,0,.659-1.591,1.985,1.985,0,0,0-2.241-2.25,2.331,2.331,0,0,0-1.683.6,2.107,2.107,0,0,0-.628,1.6H11.048A3.264,3.264,0,0,1,12.16,5.034a4.05,4.05,0,0,1,2.826-1.006,4,4,0,0,1,2.839.958,3.461,3.461,0,0,1,1.028,2.663,2.809,2.809,0,0,1-.541,1.617,3.264,3.264,0,0,1-1.472,1.169,3.145,3.145,0,0,1,1.63,1.107,3.076,3.076,0,0,1,.576,1.89,3.491,3.491,0,0,1-1.125,2.733,4.213,4.213,0,0,1-2.927,1.011,4.324,4.324,0,0,1-2.931-.976,3.236,3.236,0,0,1-1.129-2.575h1.635a2.092,2.092,0,0,0,.659,1.617,2.507,2.507,0,0,0,1.767.606,2.46,2.46,0,0,0,1.8-.615,2.371,2.371,0,0,0,.624-1.767,2.151,2.151,0,0,0-.686-1.714,2.987,2.987,0,0,0-1.978-.615H13.535Zm7.857,9.738-.923-.633a4.241,4.241,0,0,0,.861-2.373V15.075h1.591V16.35a4,4,0,0,1-.435,1.775A4.156,4.156,0,0,1,21.393,19.549Zm5.783-9.738H28.4A2.685,2.685,0,0,0,30.208,9.2a2.026,2.026,0,0,0,.659-1.591,1.985,1.985,0,0,0-2.241-2.25,2.331,2.331,0,0,0-1.683.6,2.107,2.107,0,0,0-.628,1.6H24.688A3.264,3.264,0,0,1,25.8,5.034a4.05,4.05,0,0,1,2.826-1.006,4,4,0,0,1,2.839.958,3.461,3.461,0,0,1,1.028,2.663,2.809,2.809,0,0,1-.541,1.617,3.264,3.264,0,0,1-1.472,1.169,3.145,3.145,0,0,1,1.63,1.107,3.076,3.076,0,0,1,.576,1.89,3.491,3.491,0,0,1-1.125,2.733,4.213,4.213,0,0,1-2.927,1.011A4.324,4.324,0,0,1,25.7,16.2a3.236,3.236,0,0,1-1.129-2.575h1.635a2.092,2.092,0,0,0,.659,1.617,2.507,2.507,0,0,0,1.767.606,2.46,2.46,0,0,0,1.8-.615,2.371,2.371,0,0,0,.624-1.767,2.151,2.151,0,0,0-.686-1.714,2.987,2.987,0,0,0-1.978-.615H27.176Zm10.107,0H38.5A2.685,2.685,0,0,0,40.315,9.2a2.026,2.026,0,0,0,.659-1.591,1.985,1.985,0,0,0-2.241-2.25,2.331,2.331,0,0,0-1.683.6,2.107,2.107,0,0,0-.628,1.6H34.8a3.264,3.264,0,0,1,1.112-2.527,4.05,4.05,0,0,1,2.826-1.006,4,4,0,0,1,2.839.958A3.461,3.461,0,0,1,42.6,7.648a2.809,2.809,0,0,1-.541,1.617,3.264,3.264,0,0,1-1.472,1.169,3.145,3.145,0,0,1,1.63,1.107,3.076,3.076,0,0,1,.576,1.89,3.491,3.491,0,0,1-1.125,2.733,4.213,4.213,0,0,1-2.927,1.011,4.324,4.324,0,0,1-2.931-.976,3.236,3.236,0,0,1-1.129-2.575h1.635a2.092,2.092,0,0,0,.659,1.617,2.507,2.507,0,0,0,1.767.606,2.46,2.46,0,0,0,1.8-.615,2.371,2.371,0,0,0,.624-1.767,2.151,2.151,0,0,0-.686-1.714,2.987,2.987,0,0,0-1.978-.615H37.283Z" transform="translate(-1806.511 -10089.199)" fill="#12263f"/>
          <path id="Trazado_828171" data-name="Trazado 828171" d="M3.428,9.811H4.649A2.685,2.685,0,0,0,6.46,9.2a2.026,2.026,0,0,0,.659-1.591,1.985,1.985,0,0,0-2.241-2.25,2.331,2.331,0,0,0-1.683.6,2.107,2.107,0,0,0-.628,1.6H.94A3.264,3.264,0,0,1,2.052,5.034,4.05,4.05,0,0,1,4.878,4.027a4,4,0,0,1,2.839.958A3.461,3.461,0,0,1,8.745,7.648,2.809,2.809,0,0,1,8.2,9.266a3.264,3.264,0,0,1-1.472,1.169,3.145,3.145,0,0,1,1.63,1.107,3.076,3.076,0,0,1,.576,1.89,3.491,3.491,0,0,1-1.125,2.733,4.213,4.213,0,0,1-2.927,1.011A4.324,4.324,0,0,1,1.956,16.2,3.236,3.236,0,0,1,.826,13.625H2.461a2.092,2.092,0,0,0,.659,1.617,2.507,2.507,0,0,0,1.767.606,2.46,2.46,0,0,0,1.8-.615,2.371,2.371,0,0,0,.624-1.767,2.151,2.151,0,0,0-.686-1.714,2.987,2.987,0,0,0-1.978-.615H3.428ZM19.2,11.542a7.436,7.436,0,0,1-.976,4.245,3.47,3.47,0,0,1-3.05,1.389,3.5,3.5,0,0,1-3.032-1.358,7.058,7.058,0,0,1-1.02-4.056V9.591A7.271,7.271,0,0,1,12.094,5.4a3.5,3.5,0,0,1,3.059-1.371A3.528,3.528,0,0,1,18.193,5.35a7.017,7.017,0,0,1,1,4.083ZM17.569,9.318a5.958,5.958,0,0,0-.58-3.01,2,2,0,0,0-1.837-.945,1.97,1.97,0,0,0-1.819.94A5.817,5.817,0,0,0,12.744,9.2v2.6a6.053,6.053,0,0,0,.6,3.063,1.993,1.993,0,0,0,1.824.989,1.966,1.966,0,0,0,1.789-.932,5.834,5.834,0,0,0,.611-2.936Z" transform="translate(-1878 -10072.398)" fill="#12263f"/>
          <path id="Trazado_814907" data-name="Trazado 814907" d="M-1903.511-10075.2h68.648" fill="none" stroke="#12263f" stroke-width="1"/>
        </g>
        <g id="Grupo_1069994" data-name="Grupo 1069994" transform="translate(-66 -45.406)">
          <path id="Trazado_828172" data-name="Trazado 828172" d="M5.37,12.619,9.721,6.2h1.969L5.95,14.315,5.133,19H3.489l.844-4.869L1.477,6.2H3.27Z" transform="translate(-1584 -10089.199)" fill="#4f9e00"/>
          <path id="Trazado_828173" data-name="Trazado 828173" d="M8.666,9.846H1.336V8.431h7.33Zm0,3.647H1.336V12.087h7.33Z" transform="translate(-1564 -10089.199)" fill="#12263f"/>
          <path id="Trazado_828174" data-name="Trazado 828174" d="M8.666,9.846H1.336V8.431h7.33Zm0,3.647H1.336V12.087h7.33Z" transform="translate(-1460 -10089.199)" fill="#12263f"/>
          <path id="Trazado_828175" data-name="Trazado 828175" d="M6.407,17H4.772V6.163l-3.278,1.2V5.891L6.152,4.142h.255ZM19.2,11.542a7.436,7.436,0,0,1-.976,4.245,3.47,3.47,0,0,1-3.05,1.389,3.5,3.5,0,0,1-3.032-1.358,7.058,7.058,0,0,1-1.02-4.056V9.591A7.271,7.271,0,0,1,12.094,5.4a3.5,3.5,0,0,1,3.059-1.371A3.528,3.528,0,0,1,18.193,5.35a7.017,7.017,0,0,1,1,4.083ZM17.569,9.318a5.958,5.958,0,0,0-.58-3.01,2,2,0,0,0-1.837-.945,1.97,1.97,0,0,0-1.819.94A5.817,5.817,0,0,0,12.744,9.2v2.6a6.053,6.053,0,0,0,.6,3.063,1.993,1.993,0,0,0,1.824.989,1.966,1.966,0,0,0,1.789-.932,5.834,5.834,0,0,0,.611-2.936ZM29.3,11.542a7.436,7.436,0,0,1-.976,4.245,3.47,3.47,0,0,1-3.05,1.389,3.5,3.5,0,0,1-3.032-1.358,7.058,7.058,0,0,1-1.02-4.056V9.591A7.271,7.271,0,0,1,22.2,5.4,3.5,3.5,0,0,1,25.26,4.027,3.528,3.528,0,0,1,28.3,5.35a7.017,7.017,0,0,1,1,4.083ZM27.677,9.318a5.958,5.958,0,0,0-.58-3.01,2,2,0,0,0-1.837-.945,1.97,1.97,0,0,0-1.819.94A5.817,5.817,0,0,0,22.852,9.2v2.6a6.053,6.053,0,0,0,.6,3.063,1.993,1.993,0,0,0,1.824.989,1.966,1.966,0,0,0,1.789-.932,5.834,5.834,0,0,0,.611-2.936Zm12.99.817h3.568v1.538H40.667v4.043H39.032V11.674H35.464V10.136h3.568V6.4h1.635ZM58.887,17H50.5V15.831l4.43-4.922A10.524,10.524,0,0,0,56.29,9.094a3.029,3.029,0,0,0,.374-1.446A2.3,2.3,0,0,0,56.057,6a2.12,2.12,0,0,0-1.617-.642,2.511,2.511,0,0,0-1.885.69,2.635,2.635,0,0,0-.672,1.92H50.256a3.774,3.774,0,0,1,1.138-2.856,4.219,4.219,0,0,1,3.045-1.09,4.054,4.054,0,0,1,2.821.936A3.193,3.193,0,0,1,58.3,7.455q0,1.89-2.408,4.5l-3.428,3.718h6.425Zm4.087-7.189H64.2A2.685,2.685,0,0,0,66.006,9.2a2.026,2.026,0,0,0,.659-1.591,1.985,1.985,0,0,0-2.241-2.25,2.331,2.331,0,0,0-1.683.6,2.107,2.107,0,0,0-.628,1.6H60.486A3.264,3.264,0,0,1,61.6,5.034a4.05,4.05,0,0,1,2.826-1.006,4,4,0,0,1,2.839.958,3.461,3.461,0,0,1,1.028,2.663,2.809,2.809,0,0,1-.541,1.617,3.264,3.264,0,0,1-1.472,1.169,3.145,3.145,0,0,1,1.63,1.107,3.076,3.076,0,0,1,.576,1.89,3.491,3.491,0,0,1-1.125,2.733,4.213,4.213,0,0,1-2.927,1.011A4.324,4.324,0,0,1,61.5,16.2a3.236,3.236,0,0,1-1.129-2.575h1.635a2.092,2.092,0,0,0,.659,1.617,2.507,2.507,0,0,0,1.767.606,2.46,2.46,0,0,0,1.8-.615,2.371,2.371,0,0,0,.624-1.767,2.151,2.151,0,0,0-.686-1.714,2.987,2.987,0,0,0-1.978-.615H62.974Z" transform="translate(-1541 -10099.199)" fill="#12263f"/>
          <path id="Trazado_828176" data-name="Trazado 828176" d="M9.448,17H1.063V15.831l4.43-4.922A10.524,10.524,0,0,0,6.851,9.094a3.029,3.029,0,0,0,.374-1.446A2.3,2.3,0,0,0,6.618,6,2.12,2.12,0,0,0,5,5.363a2.511,2.511,0,0,0-1.885.69,2.635,2.635,0,0,0-.672,1.92H.817A3.774,3.774,0,0,1,1.956,5.117,4.219,4.219,0,0,1,5,4.027a4.054,4.054,0,0,1,2.821.936A3.193,3.193,0,0,1,8.859,7.455q0,1.89-2.408,4.5L3.023,15.673H9.448Zm4.087-7.189h1.222A2.685,2.685,0,0,0,16.567,9.2a2.026,2.026,0,0,0,.659-1.591,1.985,1.985,0,0,0-2.241-2.25,2.331,2.331,0,0,0-1.683.6,2.107,2.107,0,0,0-.628,1.6H11.048A3.264,3.264,0,0,1,12.16,5.034a4.05,4.05,0,0,1,2.826-1.006,4,4,0,0,1,2.839.958,3.461,3.461,0,0,1,1.028,2.663,2.809,2.809,0,0,1-.541,1.617,3.264,3.264,0,0,1-1.472,1.169,3.145,3.145,0,0,1,1.63,1.107,3.076,3.076,0,0,1,.576,1.89,3.491,3.491,0,0,1-1.125,2.733,4.213,4.213,0,0,1-2.927,1.011,4.324,4.324,0,0,1-2.931-.976,3.236,3.236,0,0,1-1.129-2.575h1.635a2.092,2.092,0,0,0,.659,1.617,2.507,2.507,0,0,0,1.767.606,2.46,2.46,0,0,0,1.8-.615,2.371,2.371,0,0,0,.624-1.767,2.151,2.151,0,0,0-.686-1.714,2.987,2.987,0,0,0-1.978-.615H13.535Zm7.857,9.738-.923-.633a4.241,4.241,0,0,0,.861-2.373V15.075h1.591V16.35a4,4,0,0,1-.435,1.775A4.156,4.156,0,0,1,21.393,19.549Zm5.783-9.738H28.4A2.685,2.685,0,0,0,30.208,9.2a2.026,2.026,0,0,0,.659-1.591,1.985,1.985,0,0,0-2.241-2.25,2.331,2.331,0,0,0-1.683.6,2.107,2.107,0,0,0-.628,1.6H24.688A3.264,3.264,0,0,1,25.8,5.034a4.05,4.05,0,0,1,2.826-1.006,4,4,0,0,1,2.839.958,3.461,3.461,0,0,1,1.028,2.663,2.809,2.809,0,0,1-.541,1.617,3.264,3.264,0,0,1-1.472,1.169,3.145,3.145,0,0,1,1.63,1.107,3.076,3.076,0,0,1,.576,1.89,3.491,3.491,0,0,1-1.125,2.733,4.213,4.213,0,0,1-2.927,1.011A4.324,4.324,0,0,1,25.7,16.2a3.236,3.236,0,0,1-1.129-2.575h1.635a2.092,2.092,0,0,0,.659,1.617,2.507,2.507,0,0,0,1.767.606,2.46,2.46,0,0,0,1.8-.615,2.371,2.371,0,0,0,.624-1.767,2.151,2.151,0,0,0-.686-1.714,2.987,2.987,0,0,0-1.978-.615H27.176Zm10.107,0H38.5A2.685,2.685,0,0,0,40.315,9.2a2.026,2.026,0,0,0,.659-1.591,1.985,1.985,0,0,0-2.241-2.25,2.331,2.331,0,0,0-1.683.6,2.107,2.107,0,0,0-.628,1.6H34.8a3.264,3.264,0,0,1,1.112-2.527,4.05,4.05,0,0,1,2.826-1.006,4,4,0,0,1,2.839.958A3.461,3.461,0,0,1,42.6,7.648a2.809,2.809,0,0,1-.541,1.617,3.264,3.264,0,0,1-1.472,1.169,3.145,3.145,0,0,1,1.63,1.107,3.076,3.076,0,0,1,.576,1.89,3.491,3.491,0,0,1-1.125,2.733,4.213,4.213,0,0,1-2.927,1.011,4.324,4.324,0,0,1-2.931-.976,3.236,3.236,0,0,1-1.129-2.575h1.635a2.092,2.092,0,0,0,.659,1.617,2.507,2.507,0,0,0,1.767.606,2.46,2.46,0,0,0,1.8-.615,2.371,2.371,0,0,0,.624-1.767,2.151,2.151,0,0,0-.686-1.714,2.987,2.987,0,0,0-1.978-.615H37.283Z" transform="translate(-1440.511 -10089.199)" fill="#12263f"/>
          <path id="Trazado_828177" data-name="Trazado 828177" d="M3.428,9.811H4.649A2.685,2.685,0,0,0,6.46,9.2a2.026,2.026,0,0,0,.659-1.591,1.985,1.985,0,0,0-2.241-2.25,2.331,2.331,0,0,0-1.683.6,2.107,2.107,0,0,0-.628,1.6H.94A3.264,3.264,0,0,1,2.052,5.034,4.05,4.05,0,0,1,4.878,4.027a4,4,0,0,1,2.839.958A3.461,3.461,0,0,1,8.745,7.648,2.809,2.809,0,0,1,8.2,9.266a3.264,3.264,0,0,1-1.472,1.169,3.145,3.145,0,0,1,1.63,1.107,3.076,3.076,0,0,1,.576,1.89,3.491,3.491,0,0,1-1.125,2.733,4.213,4.213,0,0,1-2.927,1.011A4.324,4.324,0,0,1,1.956,16.2,3.236,3.236,0,0,1,.826,13.625H2.461a2.092,2.092,0,0,0,.659,1.617,2.507,2.507,0,0,0,1.767.606,2.46,2.46,0,0,0,1.8-.615,2.371,2.371,0,0,0,.624-1.767,2.151,2.151,0,0,0-.686-1.714,2.987,2.987,0,0,0-1.978-.615H3.428ZM19.2,11.542a7.436,7.436,0,0,1-.976,4.245,3.47,3.47,0,0,1-3.05,1.389,3.5,3.5,0,0,1-3.032-1.358,7.058,7.058,0,0,1-1.02-4.056V9.591A7.271,7.271,0,0,1,12.094,5.4a3.5,3.5,0,0,1,3.059-1.371A3.528,3.528,0,0,1,18.193,5.35a7.017,7.017,0,0,1,1,4.083ZM17.569,9.318a5.958,5.958,0,0,0-.58-3.01,2,2,0,0,0-1.837-.945,1.97,1.97,0,0,0-1.819.94A5.817,5.817,0,0,0,12.744,9.2v2.6a6.053,6.053,0,0,0,.6,3.063,1.993,1.993,0,0,0,1.824.989,1.966,1.966,0,0,0,1.789-.932,5.834,5.834,0,0,0,.611-2.936Z" transform="translate(-1519 -10072.398)" fill="#12263f"/>
          <path id="Trazado_814908" data-name="Trazado 814908" d="M-1903.511-10075.2H-1826" transform="translate(359)" fill="none" stroke="#12263f" stroke-width="1"/>
        </g>
        <path id="Trazado_814909" data-name="Trazado 814909" d="M-1723.951-10194.444v150.826" transform="translate(53.451 -45.406)" fill="none" stroke="#707070" stroke-width="1"/>
      </g>
    </g>
  </g>
</svg>
