<svg xmlns="http://www.w3.org/2000/svg" width="505" height="148" viewBox="0 0 505 148">
  <g id="Grupo_1072695" data-name="Grupo 1072695" transform="translate(1345 9894)">
    <g id="Grupo_1072694" data-name="Grupo 1072694">
      <path id="Trazado_828187" data-name="Trazado 828187" d="M0,0H505V148H0Z" transform="translate(-1345 -9894)" fill="#fff"/>
    </g>
    <g id="Grupo_1070005" data-name="Grupo 1070005" transform="translate(599)">
      <g id="Grupo_1070003" data-name="Grupo 1070003" transform="translate(88)">
        <g id="Grupo_1069986" data-name="Grupo 1069986" transform="translate(-2314 -11071.527)">
          <path id="Trazado_828181" data-name="Trazado 828181" d="M3.779,12.491V17H1.143V4.2H6.135A5.776,5.776,0,0,1,8.67,4.73a3.886,3.886,0,0,1,1.683,1.5,4.178,4.178,0,0,1,.589,2.21,3.674,3.674,0,0,1-1.288,2.966,5.363,5.363,0,0,1-3.564,1.085Zm0-2.136H6.135a2.316,2.316,0,0,0,1.6-.492,1.79,1.79,0,0,0,.549-1.406,2.111,2.111,0,0,0-.554-1.521,2.068,2.068,0,0,0-1.529-.6H3.779ZM18,17a2.821,2.821,0,0,1-.255-.853,3.073,3.073,0,0,1-2.4,1.028,3.376,3.376,0,0,1-2.316-.809,2.6,2.6,0,0,1-.918-2.039,2.687,2.687,0,0,1,1.121-2.32,5.529,5.529,0,0,1,3.239-.817H17.64v-.545A1.567,1.567,0,0,0,17.3,9.591a1.331,1.331,0,0,0-1.068-.4,1.513,1.513,0,0,0-1.006.308,1.045,1.045,0,0,0-.365.844h-2.54a2.551,2.551,0,0,1,.51-1.529,3.37,3.37,0,0,1,1.441-1.1,5.253,5.253,0,0,1,2.092-.4,4.15,4.15,0,0,1,2.791.883,3.09,3.09,0,0,1,1.033,2.483V14.8a4.546,4.546,0,0,0,.378,2.048V17Zm-2.1-1.767a2.188,2.188,0,0,0,1.037-.25,1.645,1.645,0,0,0,.7-.672V12.676H16.69q-1.907,0-2.03,1.318l-.009.149a1.017,1.017,0,0,0,.334.782A1.3,1.3,0,0,0,15.9,15.233Zm11.391-.861a.818.818,0,0,0-.461-.734,5.241,5.241,0,0,0-1.481-.479q-3.393-.712-3.393-2.883a2.613,2.613,0,0,1,1.05-2.114,4.237,4.237,0,0,1,2.747-.848,4.56,4.56,0,0,1,2.9.853,2.687,2.687,0,0,1,1.085,2.215h-2.54a1.229,1.229,0,0,0-.352-.9,1.488,1.488,0,0,0-1.1-.356,1.52,1.52,0,0,0-.993.29.916.916,0,0,0-.352.738.783.783,0,0,0,.4.681,4.114,4.114,0,0,0,1.349.448,11.019,11.019,0,0,1,1.6.426,2.628,2.628,0,0,1,2.013,2.558,2.481,2.481,0,0,1-1.116,2.1,4.815,4.815,0,0,1-2.883.8,5.029,5.029,0,0,1-2.123-.426,3.561,3.561,0,0,1-1.455-1.169,2.716,2.716,0,0,1-.527-1.6h2.408a1.326,1.326,0,0,0,.5,1.037,1.987,1.987,0,0,0,1.248.36,1.839,1.839,0,0,0,1.1-.277A.861.861,0,0,0,27.29,14.372Zm7.146-9.22V7.49h1.626V9.354H34.436V14.1a1.133,1.133,0,0,0,.2.756,1.015,1.015,0,0,0,.773.229,4.051,4.051,0,0,0,.747-.062v1.925a5.229,5.229,0,0,1-1.538.229,2.425,2.425,0,0,1-2.725-2.7V9.354H30.507V7.49H31.9V5.152ZM42.987,17a2.821,2.821,0,0,1-.255-.853,3.073,3.073,0,0,1-2.4,1.028,3.376,3.376,0,0,1-2.316-.809,2.6,2.6,0,0,1-.918-2.039,2.687,2.687,0,0,1,1.121-2.32,5.529,5.529,0,0,1,3.239-.817h1.169v-.545a1.567,1.567,0,0,0-.338-1.055,1.331,1.331,0,0,0-1.068-.4,1.513,1.513,0,0,0-1.006.308,1.045,1.045,0,0,0-.365.844H37.31a2.551,2.551,0,0,1,.51-1.529,3.37,3.37,0,0,1,1.441-1.1,5.253,5.253,0,0,1,2.092-.4,4.15,4.15,0,0,1,2.791.883,3.09,3.09,0,0,1,1.033,2.483V14.8a4.546,4.546,0,0,0,.378,2.048V17Zm-2.1-1.767a2.188,2.188,0,0,0,1.037-.25,1.645,1.645,0,0,0,.7-.672V12.676h-.949q-1.907,0-2.03,1.318l-.009.149a1.017,1.017,0,0,0,.334.782A1.3,1.3,0,0,0,40.887,15.233Zm10.327-3.059a5.731,5.731,0,0,1,1-3.542A3.237,3.237,0,0,1,54.94,7.314a2.913,2.913,0,0,1,2.294,1.037V3.5h2.549V17H57.489l-.123-1.011a2.989,2.989,0,0,1-2.443,1.187,3.228,3.228,0,0,1-2.694-1.323A5.916,5.916,0,0,1,51.214,12.175Zm2.54.189a3.754,3.754,0,0,0,.466,2.051,1.517,1.517,0,0,0,1.354.713,1.7,1.7,0,0,0,1.661-.995V10.375a1.675,1.675,0,0,0-1.644-.995Q53.754,9.38,53.754,12.364Zm12.375,4.812a4.668,4.668,0,0,1-3.406-1.283,4.561,4.561,0,0,1-1.314-3.419v-.246a5.745,5.745,0,0,1,.554-2.562,4.064,4.064,0,0,1,1.569-1.74,4.4,4.4,0,0,1,2.316-.611,3.947,3.947,0,0,1,3.072,1.23,5,5,0,0,1,1.121,3.489v1.037H63.984a2.36,2.36,0,0,0,.743,1.494,2.245,2.245,0,0,0,1.569.563,2.742,2.742,0,0,0,2.294-1.063l1.248,1.4a3.813,3.813,0,0,1-1.547,1.261A5.075,5.075,0,0,1,66.129,17.176Zm-.29-7.813a1.587,1.587,0,0,0-1.226.512,2.651,2.651,0,0,0-.6,1.466h3.533v-.2a1.891,1.891,0,0,0-.457-1.311A1.638,1.638,0,0,0,65.839,9.362Zm16.928,4.28a1.353,1.353,0,0,0-.527-1.147,6.917,6.917,0,0,0-1.9-.844,13.458,13.458,0,0,1-2.171-.875A3.547,3.547,0,0,1,75.99,7.6a3.09,3.09,0,0,1,.584-1.85,3.812,3.812,0,0,1,1.679-1.27,6.318,6.318,0,0,1,2.457-.457,5.751,5.751,0,0,1,2.443.5,3.891,3.891,0,0,1,1.666,1.4,3.668,3.668,0,0,1,.593,2.057H82.775a1.726,1.726,0,0,0-.554-1.367,2.276,2.276,0,0,0-1.556-.488,2.432,2.432,0,0,0-1.5.409,1.289,1.289,0,0,0-.536,1.077,1.235,1.235,0,0,0,.628,1.046,7.1,7.1,0,0,0,1.85.791,7.994,7.994,0,0,1,3.278,1.679,3.343,3.343,0,0,1,1.028,2.5,3.08,3.08,0,0,1-1.257,2.606,5.5,5.5,0,0,1-3.384.945,6.534,6.534,0,0,1-2.689-.541,4.256,4.256,0,0,1-1.85-1.481,3.793,3.793,0,0,1-.637-2.18H78.24q0,2.118,2.531,2.118a2.462,2.462,0,0,0,1.468-.382A1.244,1.244,0,0,0,82.767,13.643Zm3.867-1.485a5.64,5.64,0,0,1,.545-2.522,3.989,3.989,0,0,1,1.569-1.714,4.577,4.577,0,0,1,2.377-.606,4.33,4.33,0,0,1,3.142,1.178,4.727,4.727,0,0,1,1.358,3.2l.018.65a4.97,4.97,0,0,1-1.222,3.511,4.735,4.735,0,0,1-6.561,0,5.058,5.058,0,0,1-1.226-3.586Zm2.54.18a3.555,3.555,0,0,0,.51,2.073,1.831,1.831,0,0,0,2.9.009,3.89,3.89,0,0,0,.519-2.267,3.519,3.519,0,0,0-.519-2.06,1.686,1.686,0,0,0-1.459-.731,1.658,1.658,0,0,0-1.441.726A3.955,3.955,0,0,0,89.174,12.338Zm11.452,1.068,1.758-5.915h2.725l-3.823,10.986-.211.5a2.9,2.9,0,0,1-2.812,1.863,4,4,0,0,1-1.125-.167V18.749l.387.009a2.09,2.09,0,0,0,1.077-.22,1.443,1.443,0,0,0,.558-.729l.3-.782L96.126,7.49h2.733ZM111.489,17a2.821,2.821,0,0,1-.255-.853,3.073,3.073,0,0,1-2.4,1.028,3.376,3.376,0,0,1-2.316-.809,2.6,2.6,0,0,1-.918-2.039,2.687,2.687,0,0,1,1.121-2.32,5.529,5.529,0,0,1,3.239-.817h1.169v-.545a1.567,1.567,0,0,0-.338-1.055,1.331,1.331,0,0,0-1.068-.4,1.513,1.513,0,0,0-1.006.308,1.045,1.045,0,0,0-.365.844h-2.54a2.551,2.551,0,0,1,.51-1.529,3.37,3.37,0,0,1,1.441-1.1,5.253,5.253,0,0,1,2.092-.4,4.15,4.15,0,0,1,2.791.883,3.09,3.09,0,0,1,1.033,2.483V14.8a4.546,4.546,0,0,0,.378,2.048V17Zm-2.1-1.767a2.188,2.188,0,0,0,1.037-.25,1.645,1.645,0,0,0,.7-.672V12.676h-.949q-1.907,0-2.03,1.318l-.009.149a1.017,1.017,0,0,0,.334.782A1.3,1.3,0,0,0,109.389,15.233Zm6.363.519a1.279,1.279,0,0,1,.409-.984,1.588,1.588,0,0,1,2.057,0,1.279,1.279,0,0,1,.409.984,1.261,1.261,0,0,1-.4.971,1.614,1.614,0,0,1-2.065,0A1.261,1.261,0,0,1,115.752,15.752Zm0-7.2a1.279,1.279,0,0,1,.409-.984,1.588,1.588,0,0,1,2.057,0,1.279,1.279,0,0,1,.409.984,1.261,1.261,0,0,1-.4.971,1.614,1.614,0,0,1-2.065,0A1.261,1.261,0,0,1,115.752,8.554ZM7.778,41.643A1.353,1.353,0,0,0,7.251,40.5a6.917,6.917,0,0,0-1.9-.844,13.458,13.458,0,0,1-2.171-.875A3.547,3.547,0,0,1,1,35.6a3.09,3.09,0,0,1,.584-1.85,3.812,3.812,0,0,1,1.679-1.27,6.318,6.318,0,0,1,2.457-.457,5.751,5.751,0,0,1,2.443.5,3.891,3.891,0,0,1,1.666,1.4,3.668,3.668,0,0,1,.593,2.057H7.787a1.726,1.726,0,0,0-.554-1.367,2.276,2.276,0,0,0-1.556-.488,2.432,2.432,0,0,0-1.5.409,1.289,1.289,0,0,0-.536,1.077,1.235,1.235,0,0,0,.628,1.046,7.1,7.1,0,0,0,1.85.791A7.994,7.994,0,0,1,9.4,39.129a3.343,3.343,0,0,1,1.028,2.5,3.08,3.08,0,0,1-1.257,2.606,5.5,5.5,0,0,1-3.384.945,6.534,6.534,0,0,1-2.689-.541,4.256,4.256,0,0,1-1.85-1.481,3.793,3.793,0,0,1-.637-2.18H3.252q0,2.118,2.531,2.118a2.462,2.462,0,0,0,1.468-.382A1.244,1.244,0,0,0,7.778,41.643Zm3.867-1.485a5.64,5.64,0,0,1,.545-2.522,3.989,3.989,0,0,1,1.569-1.714,4.577,4.577,0,0,1,2.377-.606,4.33,4.33,0,0,1,3.142,1.178,4.727,4.727,0,0,1,1.358,3.2l.018.65a4.97,4.97,0,0,1-1.222,3.511,4.247,4.247,0,0,1-3.278,1.323,4.268,4.268,0,0,1-3.283-1.318,5.058,5.058,0,0,1-1.226-3.586Zm2.54.18a3.555,3.555,0,0,0,.51,2.073,1.831,1.831,0,0,0,2.9.009,3.89,3.89,0,0,0,.519-2.267,3.519,3.519,0,0,0-.519-2.06,1.686,1.686,0,0,0-1.459-.731,1.658,1.658,0,0,0-1.441.726A3.955,3.955,0,0,0,14.186,40.338Zm13.377-2.465a6.9,6.9,0,0,0-.914-.07,1.86,1.86,0,0,0-1.89.976V45h-2.54V35.49h2.4l.07,1.134a2.354,2.354,0,0,1,2.118-1.31,2.662,2.662,0,0,1,.791.114Zm.686,2.3A5.573,5.573,0,0,1,29.29,36.65,3.375,3.375,0,0,1,32.1,35.314a2.96,2.96,0,0,1,2.435,1.072l.105-.9h2.3v9.193a4.064,4.064,0,0,1-.567,2.171,3.641,3.641,0,0,1-1.6,1.406,5.608,5.608,0,0,1-2.408.483,5.215,5.215,0,0,1-2.039-.417,3.619,3.619,0,0,1-1.5-1.077L29.953,45.7a2.975,2.975,0,0,0,2.3,1.063,2.178,2.178,0,0,0,1.573-.541,2.027,2.027,0,0,0,.563-1.534v-.51a2.938,2.938,0,0,1-2.312.993,3.366,3.366,0,0,1-2.773-1.34,5.572,5.572,0,0,1-1.059-3.555Zm2.54.189a3.47,3.47,0,0,0,.519,2.029,1.65,1.65,0,0,0,1.424.735,1.764,1.764,0,0,0,1.661-.871V38.251a1.76,1.76,0,0,0-1.644-.871,1.66,1.66,0,0,0-1.437.748A3.911,3.911,0,0,0,30.788,40.364Zm7.708-.207a5.64,5.64,0,0,1,.545-2.522,3.989,3.989,0,0,1,1.569-1.714,4.577,4.577,0,0,1,2.377-.606,4.33,4.33,0,0,1,3.142,1.178,4.727,4.727,0,0,1,1.358,3.2l.018.65a4.97,4.97,0,0,1-1.222,3.511,4.735,4.735,0,0,1-6.561,0A5.058,5.058,0,0,1,38.5,40.271Zm2.54.18a3.555,3.555,0,0,0,.51,2.073,1.831,1.831,0,0,0,2.9.009,3.89,3.89,0,0,0,.519-2.267,3.519,3.519,0,0,0-.519-2.06,1.686,1.686,0,0,0-1.459-.731,1.658,1.658,0,0,0-1.441.726A3.955,3.955,0,0,0,41.036,40.338Zm8.156,3.414a1.279,1.279,0,0,1,.409-.984,1.588,1.588,0,0,1,2.057,0,1.279,1.279,0,0,1,.409.984,1.261,1.261,0,0,1-.4.971,1.614,1.614,0,0,1-2.065,0A1.261,1.261,0,0,1,49.192,43.752Zm0-7.2a1.279,1.279,0,0,1,.409-.984,1.588,1.588,0,0,1,2.057,0,1.279,1.279,0,0,1,.409.984,1.261,1.261,0,0,1-.4.971,1.614,1.614,0,0,1-2.065,0A1.261,1.261,0,0,1,49.192,36.554Z" transform="translate(316 1206.195)" fill="#12263f"/>
          <path id="Trazado_828182" data-name="Trazado 828182" d="M7.928,12.7H9.7v1.327H7.928V17H6.293V14.029H.466v-.958L6.2,4.2H7.928Zm-5.616,0H6.293V6.427L6.1,6.778ZM19.2,11.542a7.436,7.436,0,0,1-.976,4.245,3.47,3.47,0,0,1-3.05,1.389,3.5,3.5,0,0,1-3.032-1.358,7.058,7.058,0,0,1-1.02-4.056V9.591A7.271,7.271,0,0,1,12.094,5.4a3.5,3.5,0,0,1,3.059-1.371A3.528,3.528,0,0,1,18.193,5.35a7.017,7.017,0,0,1,1,4.083ZM17.569,9.318a5.958,5.958,0,0,0-.58-3.01,2,2,0,0,0-1.837-.945,1.97,1.97,0,0,0-1.819.94A5.817,5.817,0,0,0,12.744,9.2v2.6a6.053,6.053,0,0,0,.6,3.063,1.993,1.993,0,0,0,1.824.989,1.966,1.966,0,0,0,1.789-.932,5.834,5.834,0,0,0,.611-2.936ZM6.407,45H4.772V34.163l-3.278,1.2V33.891l4.658-1.749h.255ZM19.2,39.542a7.436,7.436,0,0,1-.976,4.245,3.47,3.47,0,0,1-3.05,1.389,3.5,3.5,0,0,1-3.032-1.358,7.058,7.058,0,0,1-1.02-4.056V37.591a7.271,7.271,0,0,1,.976-4.192,3.5,3.5,0,0,1,3.059-1.371,3.528,3.528,0,0,1,3.041,1.323,7.017,7.017,0,0,1,1,4.083Zm-1.626-2.224a5.958,5.958,0,0,0-.58-3.01,2,2,0,0,0-1.837-.945,1.97,1.97,0,0,0-1.819.94,5.817,5.817,0,0,0-.589,2.892v2.6a6.053,6.053,0,0,0,.6,3.063,1.993,1.993,0,0,0,1.824.989,1.966,1.966,0,0,0,1.789-.932,5.834,5.834,0,0,0,.611-2.936Z" transform="translate(477 1206.195)" fill="#12263f"/>
        </g>
        <path id="Trazado_828186" data-name="Trazado 828186" d="M11.083,7.583H7.1L5.124,19H3.48L5.458,7.583H1.477L1.723,6.2h9.606Zm4.1,1.731a3.428,3.428,0,0,1,2.048.65A3.7,3.7,0,0,1,18.5,11.709a5.4,5.4,0,0,1,.277,2.43l-.018.193a6.4,6.4,0,0,1-.826,2.509,4.848,4.848,0,0,1-1.705,1.745,4.158,4.158,0,0,1-2.294.589,3.434,3.434,0,0,1-2.043-.65A3.611,3.611,0,0,1,10.635,16.8a5.547,5.547,0,0,1-.281-2.4,6.48,6.48,0,0,1,.8-2.654,4.96,4.96,0,0,1,1.718-1.824A4.109,4.109,0,0,1,15.188,9.314Zm-3.234,5.1a5.4,5.4,0,0,0,0,1.151,2.821,2.821,0,0,0,.62,1.652,1.86,1.86,0,0,0,1.419.642,2.534,2.534,0,0,0,1.459-.391,3.284,3.284,0,0,0,1.125-1.261,5.311,5.311,0,0,0,.589-1.872,8.431,8.431,0,0,0,.026-1.362,2.927,2.927,0,0,0-.642-1.679,1.9,1.9,0,0,0-1.424-.65,2.592,2.592,0,0,0-2.092.967,4.776,4.776,0,0,0-1.063,2.6Zm12.2-7.225-.4,2.3h1.731l-.22,1.257H23.537l-.993,5.915a2.062,2.062,0,0,0-.009.422.67.67,0,0,0,.747.686,4.556,4.556,0,0,0,.773-.088l-.123,1.327a4.328,4.328,0,0,1-1.16.158,1.661,1.661,0,0,1-1.424-.7,2.7,2.7,0,0,1-.369-1.833l.967-5.889H20.268l.22-1.257h1.679l.4-2.3ZM31.562,19a2.13,2.13,0,0,1-.062-.5l.026-.5a3.9,3.9,0,0,1-2.777,1.178,2.841,2.841,0,0,1-2.043-.8,2.407,2.407,0,0,1-.716-1.947,2.927,2.927,0,0,1,1.323-2.36,5.631,5.631,0,0,1,3.248-.848l1.661.009.105-.756A1.738,1.738,0,0,0,32,11.129a1.591,1.591,0,0,0-1.252-.514,2.453,2.453,0,0,0-1.446.4,1.7,1.7,0,0,0-.769,1.1l-1.6.009a2.55,2.55,0,0,1,.65-1.481,3.784,3.784,0,0,1,1.468-1A4.742,4.742,0,0,1,30.9,9.306a3.153,3.153,0,0,1,2.312.9,2.794,2.794,0,0,1,.694,2.3l-.773,4.711-.044.677a3.318,3.318,0,0,0,.105.958L33.179,19Zm-2.5-1.23a2.774,2.774,0,0,0,1.446-.365,3.661,3.661,0,0,0,1.173-1.059l.343-1.96-1.2-.009a4.561,4.561,0,0,0-2.3.475,1.748,1.748,0,0,0-.905,1.345,1.361,1.361,0,0,0,.312,1.112A1.486,1.486,0,0,0,29.065,17.77ZM37.055,19H35.473L37.811,5.5H39.4Z" transform="translate(-1998 -9800.332)" fill="#4f9e00"/>
      </g>
      <path id="Trazado_814909" data-name="Trazado 814909" d="M-1723.951-10194.444v95.245" transform="translate(32.451 320.868)" fill="none" stroke="#707070" stroke-width="1"/>
      <g id="Grupo_1070004" data-name="Grupo 1070004" transform="translate(370)">
        <g id="Grupo_1069986-2" data-name="Grupo 1069986" transform="translate(-2314 -11071.527)">
          <path id="Trazado_828183" data-name="Trazado 828183" d="M9.571,5.621,4.623,17H1.942L6.9,6.251H.536V4.2H9.571Zm9.809,4.822H11.522V8.369H19.38Zm0,3.806H11.522V12.175H19.38ZM9.642,45H.87V43.26l4.14-4.412a10.213,10.213,0,0,0,1.261-1.626A2.612,2.612,0,0,0,6.68,35.9a1.955,1.955,0,0,0-.431-1.34,1.555,1.555,0,0,0-1.23-.488,1.677,1.677,0,0,0-1.358.593,2.35,2.35,0,0,0-.5,1.56H.615a4.2,4.2,0,0,1,.558-2.136,3.934,3.934,0,0,1,1.578-1.516,4.8,4.8,0,0,1,2.312-.549,4.54,4.54,0,0,1,3.072.949,3.358,3.358,0,0,1,1.094,2.681,4.3,4.3,0,0,1-.492,1.934,10.745,10.745,0,0,1-1.687,2.294L4.14,42.952h5.5Zm4.14-7.523h1.354a1.907,1.907,0,0,0,1.433-.483,1.771,1.771,0,0,0,.466-1.283,1.566,1.566,0,0,0-.461-1.2,1.788,1.788,0,0,0-1.27-.431,1.874,1.874,0,0,0-1.222.4,1.279,1.279,0,0,0-.492,1.042h-2.54a3.124,3.124,0,0,1,.541-1.8A3.6,3.6,0,0,1,13.1,32.476a5.045,5.045,0,0,1,2.14-.448A4.785,4.785,0,0,1,18.422,33a3.314,3.314,0,0,1,1.151,2.676,2.693,2.693,0,0,1-.536,1.617,3.483,3.483,0,0,1-1.406,1.134,3.18,3.18,0,0,1,1.613,1.16,3.147,3.147,0,0,1,.532,1.828,3.369,3.369,0,0,1-1.244,2.733,5,5,0,0,1-3.292,1.028,4.741,4.741,0,0,1-3.133-1.011,3.3,3.3,0,0,1-1.217-2.672h2.54a1.472,1.472,0,0,0,.541,1.178,1.992,1.992,0,0,0,1.332.457,2,2,0,0,0,1.419-.479,1.654,1.654,0,0,0,.514-1.27q0-1.916-2.109-1.916H13.781Zm15.926.967H21.85V36.369h7.857Zm0,3.806H21.85V40.175h7.857Z" transform="translate(316 1206.195)" fill="#12263f"/>
          <path id="Trazado_828184" data-name="Trazado 828184" d="M9.448,17H1.063V15.831l4.43-4.922A10.524,10.524,0,0,0,6.851,9.094a3.029,3.029,0,0,0,.374-1.446A2.3,2.3,0,0,0,6.618,6,2.12,2.12,0,0,0,5,5.363a2.511,2.511,0,0,0-1.885.69,2.635,2.635,0,0,0-.672,1.92H.817A3.774,3.774,0,0,1,1.956,5.117,4.219,4.219,0,0,1,5,4.027a4.054,4.054,0,0,1,2.821.936A3.193,3.193,0,0,1,8.859,7.455q0,1.89-2.408,4.5L3.023,15.673H9.448Zm4.087-7.189h1.222A2.685,2.685,0,0,0,16.567,9.2a2.026,2.026,0,0,0,.659-1.591,1.985,1.985,0,0,0-2.241-2.25,2.331,2.331,0,0,0-1.683.6,2.107,2.107,0,0,0-.628,1.6H11.048A3.264,3.264,0,0,1,12.16,5.034a4.05,4.05,0,0,1,2.826-1.006,4,4,0,0,1,2.839.958,3.461,3.461,0,0,1,1.028,2.663,2.809,2.809,0,0,1-.541,1.617,3.264,3.264,0,0,1-1.472,1.169,3.145,3.145,0,0,1,1.63,1.107,3.076,3.076,0,0,1,.576,1.89,3.491,3.491,0,0,1-1.125,2.733,4.213,4.213,0,0,1-2.927,1.011,4.324,4.324,0,0,1-2.931-.976,3.236,3.236,0,0,1-1.129-2.575h1.635a2.092,2.092,0,0,0,.659,1.617,2.507,2.507,0,0,0,1.767.606,2.46,2.46,0,0,0,1.8-.615,2.371,2.371,0,0,0,.624-1.767,2.151,2.151,0,0,0-.686-1.714,2.987,2.987,0,0,0-1.978-.615H13.535Zm7.857,9.738-.923-.633a4.241,4.241,0,0,0,.861-2.373V15.075h1.591V16.35a4,4,0,0,1-.435,1.775A4.156,4.156,0,0,1,21.393,19.549Zm5.783-9.738H28.4A2.685,2.685,0,0,0,30.208,9.2a2.026,2.026,0,0,0,.659-1.591,1.985,1.985,0,0,0-2.241-2.25,2.331,2.331,0,0,0-1.683.6,2.107,2.107,0,0,0-.628,1.6H24.688A3.264,3.264,0,0,1,25.8,5.034a4.05,4.05,0,0,1,2.826-1.006,4,4,0,0,1,2.839.958,3.461,3.461,0,0,1,1.028,2.663,2.809,2.809,0,0,1-.541,1.617,3.264,3.264,0,0,1-1.472,1.169,3.145,3.145,0,0,1,1.63,1.107,3.076,3.076,0,0,1,.576,1.89,3.491,3.491,0,0,1-1.125,2.733,4.213,4.213,0,0,1-2.927,1.011A4.324,4.324,0,0,1,25.7,16.2a3.236,3.236,0,0,1-1.129-2.575h1.635a2.092,2.092,0,0,0,.659,1.617,2.507,2.507,0,0,0,1.767.606,2.46,2.46,0,0,0,1.8-.615,2.371,2.371,0,0,0,.624-1.767,2.151,2.151,0,0,0-.686-1.714,2.987,2.987,0,0,0-1.978-.615H27.176Zm10.107,0H38.5A2.685,2.685,0,0,0,40.315,9.2a2.026,2.026,0,0,0,.659-1.591,1.985,1.985,0,0,0-2.241-2.25,2.331,2.331,0,0,0-1.683.6,2.107,2.107,0,0,0-.628,1.6H34.8a3.264,3.264,0,0,1,1.112-2.527,4.05,4.05,0,0,1,2.826-1.006,4,4,0,0,1,2.839.958A3.461,3.461,0,0,1,42.6,7.648a2.809,2.809,0,0,1-.541,1.617,3.264,3.264,0,0,1-1.472,1.169,3.145,3.145,0,0,1,1.63,1.107,3.076,3.076,0,0,1,.576,1.89,3.491,3.491,0,0,1-1.125,2.733,4.213,4.213,0,0,1-2.927,1.011,4.324,4.324,0,0,1-2.931-.976,3.236,3.236,0,0,1-1.129-2.575h1.635a2.092,2.092,0,0,0,.659,1.617,2.507,2.507,0,0,0,1.767.606,2.46,2.46,0,0,0,1.8-.615,2.371,2.371,0,0,0,.624-1.767,2.151,2.151,0,0,0-.686-1.714,2.987,2.987,0,0,0-1.978-.615H37.283ZM49.342,6.664a2.6,2.6,0,0,1,.734-1.9,2.757,2.757,0,0,1,3.779,0,2.687,2.687,0,0,1,.725,1.947v.624a2.563,2.563,0,0,1-.734,1.894,2.53,2.53,0,0,1-1.868.734,2.586,2.586,0,0,1-1.89-.734,2.617,2.617,0,0,1-.747-1.956Zm1.213.673a1.663,1.663,0,0,0,.387,1.132,1.3,1.3,0,0,0,1.037.445,1.28,1.28,0,0,0,1.006-.432,1.717,1.717,0,0,0,.382-1.18V6.659a1.7,1.7,0,0,0-.378-1.136,1.4,1.4,0,0,0-2.057,0,1.759,1.759,0,0,0-.378,1.172Zm5.019,6.525a2.582,2.582,0,0,1,.734-1.894,2.776,2.776,0,0,1,3.775,0,2.649,2.649,0,0,1,.738,1.96v.624a2.582,2.582,0,0,1-.734,1.894,2.525,2.525,0,0,1-1.876.743,2.586,2.586,0,0,1-1.89-.734,2.617,2.617,0,0,1-.747-1.956Zm1.213.682a1.676,1.676,0,0,0,.387,1.141,1.3,1.3,0,0,0,1.037.445,1.27,1.27,0,0,0,1.011-.436,1.748,1.748,0,0,0,.378-1.185v-.652a1.671,1.671,0,0,0-.382-1.136,1.405,1.405,0,0,0-2.039,0,1.7,1.7,0,0,0-.391,1.176Zm-4.438,1.489-.923-.58,6.249-10,.923.58ZM9.325,33.117,4.025,45H2.32L7.6,33.539H.677V32.2H9.325Zm8.227-.923v1.38h-.3A4.281,4.281,0,0,0,14.229,34.7a4.681,4.681,0,0,0-1.3,3.067,3.471,3.471,0,0,1,2.76-1.16,3.319,3.319,0,0,1,2.667,1.178,4.543,4.543,0,0,1,1,3.041,4.528,4.528,0,0,1-1.077,3.164,3.707,3.707,0,0,1-2.887,1.187,3.653,3.653,0,0,1-2.979-1.411,5.591,5.591,0,0,1-1.143-3.634v-.624a8.424,8.424,0,0,1,1.507-5.4,5.536,5.536,0,0,1,4.487-1.912ZM15.416,37.96A2.733,2.733,0,0,0,12.9,39.718v.6a4.2,4.2,0,0,0,.712,2.549,2.133,2.133,0,0,0,1.775.967,2.067,2.067,0,0,0,1.727-.809,3.884,3.884,0,0,0-.009-4.25A2.042,2.042,0,0,0,15.416,37.96Zm5.977,9.589-.923-.633a4.241,4.241,0,0,0,.861-2.373V43.075h1.591V44.35a4,4,0,0,1-.435,1.775A4.156,4.156,0,0,1,21.393,47.549Zm9.8-15.354v1.38h-.3A4.281,4.281,0,0,0,27.87,34.7a4.681,4.681,0,0,0-1.3,3.067,3.471,3.471,0,0,1,2.76-1.16A3.319,3.319,0,0,1,32,37.784a4.543,4.543,0,0,1,1,3.041,4.528,4.528,0,0,1-1.077,3.164,3.707,3.707,0,0,1-2.887,1.187,3.653,3.653,0,0,1-2.979-1.411,5.591,5.591,0,0,1-1.143-3.634v-.624a8.424,8.424,0,0,1,1.507-5.4A5.536,5.536,0,0,1,30.9,32.194ZM29.057,37.96a2.733,2.733,0,0,0-2.514,1.758v.6a4.2,4.2,0,0,0,.712,2.549,2.133,2.133,0,0,0,1.775.967,2.067,2.067,0,0,0,1.727-.809,3.884,3.884,0,0,0-.009-4.25A2.042,2.042,0,0,0,29.057,37.96Zm14.124-4.843L37.881,45H36.176l5.282-11.461H34.532V32.2h8.648Zm6.161,1.547a2.6,2.6,0,0,1,.734-1.9,2.757,2.757,0,0,1,3.779,0,2.687,2.687,0,0,1,.725,1.947v.624a2.563,2.563,0,0,1-.734,1.894,2.53,2.53,0,0,1-1.868.734,2.586,2.586,0,0,1-1.89-.734,2.617,2.617,0,0,1-.747-1.956Zm1.213.673a1.663,1.663,0,0,0,.387,1.132,1.3,1.3,0,0,0,1.037.445,1.28,1.28,0,0,0,1.006-.432,1.717,1.717,0,0,0,.382-1.18v-.643a1.7,1.7,0,0,0-.378-1.136,1.4,1.4,0,0,0-2.057,0,1.759,1.759,0,0,0-.378,1.172Zm5.019,6.525a2.582,2.582,0,0,1,.734-1.894,2.776,2.776,0,0,1,3.775,0,2.649,2.649,0,0,1,.738,1.96v.624a2.582,2.582,0,0,1-.734,1.894,2.525,2.525,0,0,1-1.876.743,2.586,2.586,0,0,1-1.89-.734,2.617,2.617,0,0,1-.747-1.956Zm1.213.682a1.676,1.676,0,0,0,.387,1.141,1.3,1.3,0,0,0,1.037.445,1.27,1.27,0,0,0,1.011-.436,1.748,1.748,0,0,0,.378-1.185v-.652a1.671,1.671,0,0,0-.382-1.136,1.405,1.405,0,0,0-2.039,0,1.7,1.7,0,0,0-.391,1.176Zm-4.438,1.489-.923-.58,6.249-10,.923.58Z" transform="translate(382 1206.195)" fill="#12263f"/>
        </g>
        <path id="Trazado_828185" data-name="Trazado 828185" d="M11.083,7.583H7.1L5.124,19H3.48L5.458,7.583H1.477L1.723,6.2h9.606Zm4.1,1.731a3.428,3.428,0,0,1,2.048.65A3.7,3.7,0,0,1,18.5,11.709a5.4,5.4,0,0,1,.277,2.43l-.018.193a6.4,6.4,0,0,1-.826,2.509,4.848,4.848,0,0,1-1.705,1.745,4.158,4.158,0,0,1-2.294.589,3.434,3.434,0,0,1-2.043-.65A3.611,3.611,0,0,1,10.635,16.8a5.547,5.547,0,0,1-.281-2.4,6.48,6.48,0,0,1,.8-2.654,4.96,4.96,0,0,1,1.718-1.824A4.109,4.109,0,0,1,15.188,9.314Zm-3.234,5.1a5.4,5.4,0,0,0,0,1.151,2.821,2.821,0,0,0,.62,1.652,1.86,1.86,0,0,0,1.419.642,2.534,2.534,0,0,0,1.459-.391,3.284,3.284,0,0,0,1.125-1.261,5.311,5.311,0,0,0,.589-1.872,8.431,8.431,0,0,0,.026-1.362,2.927,2.927,0,0,0-.642-1.679,1.9,1.9,0,0,0-1.424-.65,2.592,2.592,0,0,0-2.092.967,4.776,4.776,0,0,0-1.063,2.6Zm12.2-7.225-.4,2.3h1.731l-.22,1.257H23.537l-.993,5.915a2.062,2.062,0,0,0-.009.422.67.67,0,0,0,.747.686,4.556,4.556,0,0,0,.773-.088l-.123,1.327a4.328,4.328,0,0,1-1.16.158,1.661,1.661,0,0,1-1.424-.7,2.7,2.7,0,0,1-.369-1.833l.967-5.889H20.268l.22-1.257h1.679l.4-2.3ZM31.562,19a2.13,2.13,0,0,1-.062-.5l.026-.5a3.9,3.9,0,0,1-2.777,1.178,2.841,2.841,0,0,1-2.043-.8,2.407,2.407,0,0,1-.716-1.947,2.927,2.927,0,0,1,1.323-2.36,5.631,5.631,0,0,1,3.248-.848l1.661.009.105-.756A1.738,1.738,0,0,0,32,11.129a1.591,1.591,0,0,0-1.252-.514,2.453,2.453,0,0,0-1.446.4,1.7,1.7,0,0,0-.769,1.1l-1.6.009a2.55,2.55,0,0,1,.65-1.481,3.784,3.784,0,0,1,1.468-1A4.742,4.742,0,0,1,30.9,9.306a3.153,3.153,0,0,1,2.312.9,2.794,2.794,0,0,1,.694,2.3l-.773,4.711-.044.677a3.318,3.318,0,0,0,.105.958L33.179,19Zm-2.5-1.23a2.774,2.774,0,0,0,1.446-.365,3.661,3.661,0,0,0,1.173-1.059l.343-1.96-1.2-.009a4.561,4.561,0,0,0-2.3.475,1.748,1.748,0,0,0-.905,1.345,1.361,1.361,0,0,0,.312,1.112A1.486,1.486,0,0,0,29.065,17.77ZM37.055,19H35.473L37.811,5.5H39.4ZM48.12,11.846H41l.246-1.415h7.128Zm-.633,3.647H40.368l.246-1.406h7.128ZM72.624,19H70.146l1.688-9.738-3.111.94.387-2.171,5.344-1.846.325-.009Zm8.446.176A3.245,3.245,0,0,1,78.5,18.051a4.731,4.731,0,0,1-.932-3.041,9.679,9.679,0,0,1,.07-1.3l.36-2.4a7.468,7.468,0,0,1,1.7-3.973,4.109,4.109,0,0,1,3.243-1.31,3.265,3.265,0,0,1,2.571,1.121,4.682,4.682,0,0,1,.936,3.028,9.757,9.757,0,0,1-.07,1.31l-.369,2.382a7.629,7.629,0,0,1-1.692,3.995A4.084,4.084,0,0,1,81.07,19.176ZM84.05,9.882q0-1.746-1.23-1.807-1.775-.079-2.259,2.7l-.439,2.965a10.681,10.681,0,0,0-.141,1.544q-.044,1.781,1.222,1.842,1.784.114,2.268-2.781l.466-3.123A9.2,9.2,0,0,0,84.05,9.882Zm7.128,9.294a3.245,3.245,0,0,1-2.566-1.125,4.731,4.731,0,0,1-.932-3.041,9.679,9.679,0,0,1,.07-1.3l.36-2.4a7.468,7.468,0,0,1,1.7-3.973,4.109,4.109,0,0,1,3.243-1.31,3.265,3.265,0,0,1,2.571,1.121,4.682,4.682,0,0,1,.936,3.028,9.757,9.757,0,0,1-.07,1.31l-.369,2.382a7.629,7.629,0,0,1-1.692,3.995A4.084,4.084,0,0,1,91.178,19.176Zm2.979-9.294q0-1.746-1.23-1.807-1.775-.079-2.259,2.7l-.439,2.965a10.681,10.681,0,0,0-.141,1.544q-.044,1.781,1.222,1.842,1.784.114,2.268-2.781l.466-3.123A9.2,9.2,0,0,0,94.157,9.882ZM106.075,6.01a2.5,2.5,0,0,1,1.859.782,2.433,2.433,0,0,1,.611,1.872l-.053.677a2.864,2.864,0,0,1-.949,1.934,2.776,2.776,0,0,1-2,.694,2.385,2.385,0,0,1-2.47-2.628l.044-.589a2.934,2.934,0,0,1,.91-2A2.822,2.822,0,0,1,106.075,6.01Zm-1.336,3.366a1.242,1.242,0,0,0,.163.809.764.764,0,0,0,.655.334,1.073,1.073,0,0,0,.8-.3,1.544,1.544,0,0,0,.453-.875l.088-.686a1.213,1.213,0,0,0-.154-.839.775.775,0,0,0-.655-.338,1.081,1.081,0,0,0-.831.325,1.49,1.49,0,0,0-.426.861Zm3.076,6.486a2.806,2.806,0,0,1,.932-1.929,2.868,2.868,0,0,1,2.021-.716,2.518,2.518,0,0,1,1.854.773,2.41,2.41,0,0,1,.615,1.872l-.044.589a2.9,2.9,0,0,1-.927,2.021,2.791,2.791,0,0,1-2.026.712,2.489,2.489,0,0,1-1.833-.751,2.381,2.381,0,0,1-.637-1.885Zm1.591.7a1.194,1.194,0,0,0,.185.813.788.788,0,0,0,.65.347,1.09,1.09,0,0,0,.835-.3,1.554,1.554,0,0,0,.422-.879l.088-.7a1.166,1.166,0,0,0-.158-.831.786.786,0,0,0-.65-.33,1.106,1.106,0,0,0-.822.3,1.544,1.544,0,0,0-.453.875Zm-4.553,1.459-1.222-.747L111.349,7.4l1.2.729Z" transform="translate(-1998 -9800.332)" fill="#4f9e00"/>
      </g>
    </g>
  </g>
</svg>
