<svg xmlns="http://www.w3.org/2000/svg" width="505" height="197.954" viewBox="0 0 505 197.954">
  <g id="Grupo_1072699" data-name="Grupo 1072699" transform="translate(-705 -1975)">
    <path id="Trazado_814906" data-name="Trazado 814906" d="M0,0H505V197.954H0Z" transform="translate(705 1975)" fill="#fff"/>
    <path id="Trazado_828212" data-name="Trazado 828212" d="M9.642,17H.87V15.26l4.14-4.412A10.213,10.213,0,0,0,6.271,9.222,2.612,2.612,0,0,0,6.68,7.9a1.955,1.955,0,0,0-.431-1.34,1.555,1.555,0,0,0-1.23-.488,1.677,1.677,0,0,0-1.358.593,2.35,2.35,0,0,0-.5,1.56H.615a4.2,4.2,0,0,1,.558-2.136A3.934,3.934,0,0,1,2.751,4.577a4.8,4.8,0,0,1,2.312-.549,4.54,4.54,0,0,1,3.072.949A3.358,3.358,0,0,1,9.229,7.657a4.3,4.3,0,0,1-.492,1.934,10.745,10.745,0,0,1-1.687,2.294L4.14,14.952h5.5Zm10.169-5.291a6.483,6.483,0,0,1-1.1,4.061A3.835,3.835,0,0,1,15.5,17.176a3.862,3.862,0,0,1-3.2-1.38,6.293,6.293,0,0,1-1.134-3.955V9.485a6.4,6.4,0,0,1,1.112-4.069,3.864,3.864,0,0,1,3.2-1.389,3.867,3.867,0,0,1,3.2,1.375,6.273,6.273,0,0,1,1.134,3.951Zm-2.54-2.59A4.686,4.686,0,0,0,16.835,6.8a1.47,1.47,0,0,0-1.358-.726,1.444,1.444,0,0,0-1.323.691,4.385,4.385,0,0,0-.453,2.16V12.04a4.919,4.919,0,0,0,.426,2.327,1.451,1.451,0,0,0,1.367.761,1.426,1.426,0,0,0,1.345-.73,4.8,4.8,0,0,0,.431-2.235Z" transform="translate(947 2063)" fill="#12263f"/>
    <path id="Trazado_828213" data-name="Trazado 828213" d="M6.407,17H4.772V6.163l-3.278,1.2V5.891L6.152,4.142h.255ZM19.2,11.542a7.436,7.436,0,0,1-.976,4.245,3.47,3.47,0,0,1-3.05,1.389,3.5,3.5,0,0,1-3.032-1.358,7.058,7.058,0,0,1-1.02-4.056V9.591A7.271,7.271,0,0,1,12.094,5.4a3.5,3.5,0,0,1,3.059-1.371A3.528,3.528,0,0,1,18.193,5.35a7.017,7.017,0,0,1,1,4.083ZM17.569,9.318a5.958,5.958,0,0,0-.58-3.01,2,2,0,0,0-1.837-.945,1.97,1.97,0,0,0-1.819.94A5.817,5.817,0,0,0,12.744,9.2v2.6a6.053,6.053,0,0,0,.6,3.063,1.993,1.993,0,0,0,1.824.989,1.966,1.966,0,0,0,1.789-.932,5.834,5.834,0,0,0,.611-2.936ZM6.407,45H4.772V34.163l-3.278,1.2V33.891l4.658-1.749h.255Zm5.511-6.416.65-6.381h6.557v1.5H13.948L13.562,37.2a4.13,4.13,0,0,1,2.136-.554A3.531,3.531,0,0,1,18.475,37.8,4.53,4.53,0,0,1,19.5,40.922a4.372,4.372,0,0,1-1.068,3.116,3.892,3.892,0,0,1-2.984,1.138,4.045,4.045,0,0,1-2.769-.94,3.754,3.754,0,0,1-1.222-2.6H13a2.582,2.582,0,0,0,.782,1.657,2.432,2.432,0,0,0,1.67.558,2.194,2.194,0,0,0,1.78-.773,3.233,3.233,0,0,0,.646-2.136,2.968,2.968,0,0,0-.7-2.061,2.377,2.377,0,0,0-1.859-.778,2.681,2.681,0,0,0-1.67.466l-.431.352ZM9.448,101H1.063V99.831l4.43-4.922a10.524,10.524,0,0,0,1.358-1.815,3.029,3.029,0,0,0,.374-1.446A2.3,2.3,0,0,0,6.618,90,2.12,2.12,0,0,0,5,89.363a2.511,2.511,0,0,0-1.885.69,2.635,2.635,0,0,0-.672,1.92H.817a3.774,3.774,0,0,1,1.138-2.856A4.219,4.219,0,0,1,5,88.027a4.054,4.054,0,0,1,2.821.936,3.193,3.193,0,0,1,1.037,2.492q0,1.89-2.408,4.5L3.023,99.673H9.448Zm2.47-6.416.65-6.381h6.557v1.5H13.948L13.562,93.2a4.13,4.13,0,0,1,2.136-.554A3.531,3.531,0,0,1,18.475,93.8,4.53,4.53,0,0,1,19.5,96.922a4.372,4.372,0,0,1-1.068,3.116,3.892,3.892,0,0,1-2.984,1.138,4.045,4.045,0,0,1-2.769-.94,3.754,3.754,0,0,1-1.222-2.6H13a2.582,2.582,0,0,0,.782,1.657,2.432,2.432,0,0,0,1.67.558,2.194,2.194,0,0,0,1.78-.773,3.233,3.233,0,0,0,.646-2.136,2.968,2.968,0,0,0-.7-2.061,2.377,2.377,0,0,0-1.859-.778,2.681,2.681,0,0,0-1.67.466l-.431.352ZM7.928,124.7H9.7v1.327H7.928V129H6.293v-2.971H.466v-.958L6.2,116.2H7.928Zm-5.616,0H6.293v-6.275l-.193.352Zm9.606-2.118.65-6.381h6.557v1.5H13.948l-.387,3.489a4.13,4.13,0,0,1,2.136-.554,3.531,3.531,0,0,1,2.777,1.156,4.53,4.53,0,0,1,1.028,3.125,4.372,4.372,0,0,1-1.068,3.116,3.892,3.892,0,0,1-2.984,1.138,4.045,4.045,0,0,1-2.769-.94,3.754,3.754,0,0,1-1.222-2.6H13a2.582,2.582,0,0,0,.782,1.657,2.432,2.432,0,0,0,1.67.558,2.194,2.194,0,0,0,1.78-.773,3.233,3.233,0,0,0,.646-2.136,2.968,2.968,0,0,0-.7-2.061,2.377,2.377,0,0,0-1.859-.778,2.681,2.681,0,0,0-1.67.466l-.431.352Z" transform="translate(840 2007)" fill="#12263f"/>
    <path id="Trazado_828214" data-name="Trazado 828214" d="M10.233,17H1.849V15.831l4.43-4.922A10.524,10.524,0,0,0,7.636,9.094,3.029,3.029,0,0,0,8.01,7.648,2.3,2.3,0,0,0,7.4,6a2.12,2.12,0,0,0-1.617-.642,2.511,2.511,0,0,0-1.885.69,2.635,2.635,0,0,0-.672,1.92H1.6A3.774,3.774,0,0,1,2.741,5.117a4.219,4.219,0,0,1,3.045-1.09,4.054,4.054,0,0,1,2.821.936A3.193,3.193,0,0,1,9.645,7.455q0,1.89-2.408,4.5L3.809,15.673h6.425Zm2.47-6.416.65-6.381H19.91v1.5H14.733L14.347,9.2a4.13,4.13,0,0,1,2.136-.554A3.531,3.531,0,0,1,19.26,9.8a4.53,4.53,0,0,1,1.028,3.125,4.372,4.372,0,0,1-1.068,3.116,3.892,3.892,0,0,1-2.984,1.138,4.045,4.045,0,0,1-2.769-.94,3.754,3.754,0,0,1-1.222-2.6h1.538a2.582,2.582,0,0,0,.782,1.657,2.432,2.432,0,0,0,1.67.558,2.194,2.194,0,0,0,1.78-.773,3.233,3.233,0,0,0,.646-2.136,2.968,2.968,0,0,0-.7-2.061A2.377,2.377,0,0,0,16.1,10.1a2.681,2.681,0,0,0-1.67.466L14,10.918Zm0,28,.65-6.381H19.91v1.5H14.733L14.347,37.2a4.13,4.13,0,0,1,2.136-.554A3.531,3.531,0,0,1,19.26,37.8a4.53,4.53,0,0,1,1.028,3.125,4.372,4.372,0,0,1-1.068,3.116,3.892,3.892,0,0,1-2.984,1.138,4.045,4.045,0,0,1-2.769-.94,3.754,3.754,0,0,1-1.222-2.6h1.538a2.582,2.582,0,0,0,.782,1.657,2.432,2.432,0,0,0,1.67.558,2.194,2.194,0,0,0,1.78-.773,3.233,3.233,0,0,0,.646-2.136,2.968,2.968,0,0,0-.7-2.061A2.377,2.377,0,0,0,16.1,38.1a2.681,2.681,0,0,0-1.67.466L14,38.918Zm0,56,.65-6.381H19.91v1.5H14.733L14.347,93.2a4.13,4.13,0,0,1,2.136-.554A3.531,3.531,0,0,1,19.26,93.8a4.53,4.53,0,0,1,1.028,3.125,4.372,4.372,0,0,1-1.068,3.116,3.892,3.892,0,0,1-2.984,1.138,4.045,4.045,0,0,1-2.769-.94,3.754,3.754,0,0,1-1.222-2.6h1.538a2.582,2.582,0,0,0,.782,1.657,2.432,2.432,0,0,0,1.67.558,2.194,2.194,0,0,0,1.78-.773,3.233,3.233,0,0,0,.646-2.136,2.968,2.968,0,0,0-.7-2.061A2.377,2.377,0,0,0,16.1,94.1a2.681,2.681,0,0,0-1.67.466L14,94.918ZM7.192,129H5.558V118.163l-3.278,1.2v-1.477l4.658-1.749h.255Zm12.788-5.458A7.436,7.436,0,0,1,19,127.787a3.47,3.47,0,0,1-3.05,1.389,3.5,3.5,0,0,1-3.032-1.358,7.058,7.058,0,0,1-1.02-4.056v-2.171a7.271,7.271,0,0,1,.976-4.192,3.5,3.5,0,0,1,3.059-1.371,3.528,3.528,0,0,1,3.041,1.323,7.017,7.017,0,0,1,1,4.083Zm-1.626-2.224a5.958,5.958,0,0,0-.58-3.01,2,2,0,0,0-1.837-.945,1.97,1.97,0,0,0-1.819.94,5.817,5.817,0,0,0-.589,2.892v2.6a6.053,6.053,0,0,0,.6,3.063,1.993,1.993,0,0,0,1.824.989,1.966,1.966,0,0,0,1.789-.932,5.834,5.834,0,0,0,.611-2.936Z" transform="translate(1050 2007)" fill="#12263f"/>
    <g id="Grupo_1070024" data-name="Grupo 1070024" transform="translate(-284.837 733.615)">
      <path id="Trazado_814904" data-name="Trazado 814904" d="M-2746.127-10413.115l13.077,10.835" transform="translate(3928.051 11702)" fill="none" stroke="#3b5620" stroke-width="2"/>
      <path id="Polígono_11" data-name="Polígono 11" d="M3.8,0,7.6,6.081H0Z" transform="translate(1199.837 1299.463) rotate(135)" fill="#3b5620"/>
    </g>
    <g id="Grupo_1070031" data-name="Grupo 1070031" transform="translate(-181.923 808.615)">
      <path id="Trazado_814904-2" data-name="Trazado 814904" d="M-2746.127-10413.115l13.077,10.835" transform="translate(3928.051 11702)" fill="none" stroke="#3b5620" stroke-width="2"/>
      <path id="Polígono_11-2" data-name="Polígono 11" d="M3.8,0,7.6,6.081H0Z" transform="translate(1199.837 1299.463) rotate(135)" fill="#3b5620"/>
    </g>
    <g id="Grupo_1070026" data-name="Grupo 1070026" transform="translate(-284.837 756.615)">
      <path id="Trazado_814904-3" data-name="Trazado 814904" d="M-2746.127-10413.115l13.077,10.835" transform="translate(3928.051 11702)" fill="none" stroke="#3b5620" stroke-width="2"/>
      <path id="Polígono_11-3" data-name="Polígono 11" d="M3.8,0,7.6,6.081H0Z" transform="translate(1199.837 1299.463) rotate(135)" fill="#3b5620"/>
    </g>
    <g id="Grupo_1070028" data-name="Grupo 1070028" transform="translate(-181.923 831.615)">
      <path id="Trazado_814904-4" data-name="Trazado 814904" d="M-2746.127-10413.115l13.077,10.835" transform="translate(3928.051 11702)" fill="none" stroke="#3b5620" stroke-width="2"/>
      <path id="Polígono_11-4" data-name="Polígono 11" d="M3.8,0,7.6,6.081H0Z" transform="translate(1199.837 1299.463) rotate(135)" fill="#3b5620"/>
    </g>
    <g id="Grupo_1070025" data-name="Grupo 1070025" transform="translate(897.086 2085)">
      <path id="Trazado_814904-5" data-name="Trazado 814904" d="M-2746.127-10402.28l13.076-10.835" transform="translate(2746.127 10418.232)" fill="none" stroke="#3b5620" stroke-width="2"/>
      <path id="Polígono_11-5" data-name="Polígono 11" d="M3.8,0,7.6,6.081H0Z" transform="translate(12.539 0) rotate(45)" fill="#3b5620"/>
    </g>
    <g id="Grupo_1070029" data-name="Grupo 1070029" transform="translate(1000 2019)">
      <path id="Trazado_814904-6" data-name="Trazado 814904" d="M-2746.127-10402.28l13.076-10.835" transform="translate(2746.127 10418.232)" fill="none" stroke="#3b5620" stroke-width="2"/>
      <path id="Polígono_11-6" data-name="Polígono 11" d="M3.8,0,7.6,6.081H0Z" transform="translate(12.539 0) rotate(45)" fill="#3b5620"/>
    </g>
    <g id="Grupo_1070027" data-name="Grupo 1070027" transform="translate(897.086 2114)">
      <path id="Trazado_814904-7" data-name="Trazado 814904" d="M-2746.127-10402.28l13.076-10.835" transform="translate(2746.127 10418.232)" fill="none" stroke="#3b5620" stroke-width="2"/>
      <path id="Polígono_11-7" data-name="Polígono 11" d="M3.8,0,7.6,6.081H0Z" transform="translate(12.539 0) rotate(45)" fill="#3b5620"/>
    </g>
    <g id="Grupo_1070030" data-name="Grupo 1070030" transform="translate(1000 2048)">
      <path id="Trazado_814904-8" data-name="Trazado 814904" d="M-2746.127-10402.28l13.076-10.835" transform="translate(2746.127 10418.232)" fill="none" stroke="#3b5620" stroke-width="2"/>
      <path id="Polígono_11-8" data-name="Polígono 11" d="M3.8,0,7.6,6.081H0Z" transform="translate(12.539 0) rotate(45)" fill="#3b5620"/>
    </g>
  </g>
</svg>
