<svg xmlns="http://www.w3.org/2000/svg" xmlns:xlink="http://www.w3.org/1999/xlink" width="248" height="163.001" viewBox="0 0 248 163.001">
  <defs>
    <clipPath id="clip-path">
      <rect id="Rectángulo_375975" data-name="Rectángulo 375975" width="144.098" height="110.667" fill="none"/>
    </clipPath>
    <clipPath id="clip-path-2">
      <rect id="Rectángulo_375964" data-name="Rectángulo 375964" width="144.098" height="110.668" fill="none"/>
    </clipPath>
    <clipPath id="clip-path-4">
      <rect id="Rectángulo_375967" data-name="Rectángulo 375967" width="47.203" height="19.424" fill="none"/>
    </clipPath>
    <clipPath id="clip-path-5">
      <path id="Trazado_815206" data-name="Trazado 815206" d="M108.99,52.8A45.743,45.743,0,0,1,90.332,64.91c-11.843,4.045-28.544,7.316-28.544,7.316s21.673-.336,34.507-3.9A16.52,16.52,0,0,0,108.99,52.8" transform="translate(-61.788 -52.802)" fill="none"/>
    </clipPath>
    <linearGradient id="linear-gradient" x1="-1.839" y1="1.164" x2="-1.809" y2="1.164" gradientUnits="objectBoundingBox">
      <stop offset="0" stop-color="#fec793"/>
      <stop offset="1" stop-color="#f8734d"/>
    </linearGradient>
    <clipPath id="clip-path-6">
      <rect id="Rectángulo_375969" data-name="Rectángulo 375969" width="92.446" height="39.462" fill="none"/>
    </clipPath>
    <clipPath id="clip-path-7">
      <path id="Trazado_815207" data-name="Trazado 815207" d="M117.417,39.288s7.373,12.023,2.933,19.388S94.284,76.712,75.545,77.946,36.544,69.639,32,65.587s-3.129-23.182,3.089-24.137S73.832,44.88,79.6,44.5s34.288-8.243,37.82-5.213" transform="translate(-29.326 -38.595)" fill="none"/>
    </clipPath>
    <linearGradient id="linear-gradient-2" x1="-0.397" y1="1.082" x2="-0.382" y2="1.082" xlink:href="#linear-gradient"/>
    <clipPath id="clip-path-8">
      <path id="Trazado_815212" data-name="Trazado 815212" d="M45.286,8.053,64.3,8.975c19.012.922,39.623,7.9,39.623,7.9S96.068,7.97,78.941,6.2a96.262,96.262,0,0,0-9.894-.487A123.619,123.619,0,0,0,45.286,8.053" transform="translate(-45.286 -5.711)" fill="none"/>
    </clipPath>
    <linearGradient id="linear-gradient-3" x1="-1.102" y1="6.884" x2="-1.078" y2="6.884" xlink:href="#linear-gradient"/>
    <clipPath id="clip-path-9">
      <path id="Trazado_815213" data-name="Trazado 815213" d="M13.615,12.749C10.972,23.8,29.908,29.443,29.908,29.443S.634,10.342,35.232,1.9h-.068c-1.233,0-19,.184-21.549,10.852" transform="translate(-13.362 -1.897)" fill="none"/>
    </clipPath>
    <linearGradient id="linear-gradient-4" x1="-0.164" y1="3.652" x2="-0.123" y2="3.652" xlink:href="#linear-gradient"/>
    <clipPath id="clip-path-11">
      <rect id="Rectángulo_375973" data-name="Rectángulo 375973" width="31.992" height="9.24" fill="none"/>
    </clipPath>
    <clipPath id="clip-path-12">
      <rect id="Rectángulo_375963" data-name="Rectángulo 375963" width="248" height="123.388" fill="none"/>
    </clipPath>
    <clipPath id="clip-path-14">
      <rect id="Rectángulo_375942" data-name="Rectángulo 375942" width="109.799" height="33.643" fill="none"/>
    </clipPath>
    <clipPath id="clip-path-15">
      <rect id="Rectángulo_375944" data-name="Rectángulo 375944" width="138.211" height="102.379" fill="none"/>
    </clipPath>
    <clipPath id="clip-path-16">
      <path id="Trazado_815134" data-name="Trazado 815134" d="M.839,98.395c4.324,2.883,60.476,10.8,91.424,10.09,11.936-.292,29.12-1.312,45.947-2.721-27.613-1.782-36.586-9.426-36.586-9.426l.259-1.36c.275-1.344-6.2-.534-28.067-7.288C51.952,80.952,47.628,70.425,45.749,62.862,43.855,55.3,49.8,42.083,63.824,45.046c14.042,2.964,51.016,3.774,54,.275,2.964-3.514-29.427,2.154-45.089,0-15.645-2.17-26.982-6.478-30.5-7.288a3.742,3.742,0,0,1-2.154-6.219c1.62-1.879,4.049-1.62,21.589.81s48.052.81,48.052.81-29.427.275-38.869-1.879c-9.458-2.17-28.083-7.288-32.132-9.458a9.086,9.086,0,0,1-4.583-8.632c.275-1.895,3.774-4.583,3.774-4.583l-.275-.389c-5.3-1.117-8.924-1.992-9.442-2.219C24.906,4.8,27.481,17.06,27.481,17.06l-.729,2.883a17.614,17.614,0,0,0,0,6.478S9.489,42.973,6.6,58.1c-2.883,15.11,3.6,34.545,3.6,34.545S-3.467,95.528.839,98.395" transform="translate(0 -6.151)" fill="none"/>
    </clipPath>
    <linearGradient id="linear-gradient-5" x1="0.024" y1="1.099" x2="0.036" y2="1.099" gradientUnits="objectBoundingBox">
      <stop offset="0" stop-color="#c33d5f"/>
      <stop offset="1" stop-color="#f8734d"/>
    </linearGradient>
    <clipPath id="clip-path-17">
      <rect id="Rectángulo_375945" data-name="Rectángulo 375945" width="109.224" height="43.881" fill="none"/>
    </clipPath>
    <clipPath id="clip-path-18">
      <rect id="Rectángulo_375947" data-name="Rectángulo 375947" width="8.016" height="16.255" fill="none"/>
    </clipPath>
    <clipPath id="clip-path-19">
      <path id="Trazado_815137" data-name="Trazado 815137" d="M87.5,25.556s4.14,3.239,5.218,6.478a23.573,23.573,0,0,1,.541,9.717c-.361.9-5.4-8.639-5.939-9.358s-1.8-6.3-1.8-6.3Z" transform="translate(-85.523 -25.556)" fill="none"/>
    </clipPath>
    <linearGradient id="linear-gradient-6" x1="-16.733" y1="4.792" x2="-16.537" y2="4.792" xlink:href="#linear-gradient-5"/>
    <clipPath id="clip-path-20">
      <rect id="Rectángulo_375948" data-name="Rectángulo 375948" width="43.498" height="17.949" fill="none"/>
    </clipPath>
    <clipPath id="clip-path-21">
      <rect id="Rectángulo_375949" data-name="Rectángulo 375949" width="44.458" height="16.061" fill="none"/>
    </clipPath>
    <clipPath id="clip-path-22">
      <rect id="Rectángulo_375951" data-name="Rectángulo 375951" width="29.755" height="6.757" fill="none"/>
    </clipPath>
    <clipPath id="clip-path-23">
      <path id="Trazado_815144" data-name="Trazado 815144" d="M124.684,62.186s-14.037,4.319-17.815,4.5-12.777-.539-11.878-1.8,14.937-4.319,18.176-4.859,11.517,2.159,11.517,2.159" transform="translate(-94.928 -59.956)" fill="none"/>
    </clipPath>
    <linearGradient id="linear-gradient-7" x1="-4.998" y1="3.628" x2="-4.945" y2="3.628" xlink:href="#linear-gradient-5"/>
    <clipPath id="clip-path-24">
      <path id="Trazado_815151" data-name="Trazado 815151" d="M76.338,33.832c-11.4,12.385,3.148,17.384,3.148,17.384s-2.713.737-1.973,3.157,6.159,1.241,6.159,1.241a30.309,30.309,0,0,0-9.649,17.825,40.3,40.3,0,0,0,2.669,20.321s-7.829,2.212-5.066,5.641c1.618,2.005,5.727,1.8,8.838,1.305a15.431,15.431,0,0,1-2.76-1.4c-3-1.95,2.092-5.215,2.092-5.215s-4.622-4.716-2.954-17.963,8.772-20.84,8.772-20.84a11.013,11.013,0,0,1-3.435-1.974c-1.7-1.435,3.719-2.905,3.719-2.905s-9.257-1.424-11.18-6.433c-1.181-3.071.669-9,6.423-14a23.118,23.118,0,0,0-4.8,3.856" transform="translate(-71.036 -29.976)" fill="none"/>
    </clipPath>
    <linearGradient id="linear-gradient-8" x1="-1.147" y1="2.058" x2="-1.124" y2="2.058" xlink:href="#linear-gradient"/>
    <clipPath id="clip-path-26">
      <rect id="Rectángulo_375955" data-name="Rectángulo 375955" width="43.551" height="15.885" fill="none"/>
    </clipPath>
    <clipPath id="clip-path-27">
      <path id="Trazado_815155" data-name="Trazado 815155" d="M75.41,63.736a42.625,42.625,0,0,0,17.216,9.9c10.927,3.309,26.336,5.983,26.336,5.983s-20-.274-31.837-3.191S75.41,63.736,75.41,63.736" transform="translate(-75.41 -63.736)" fill="none"/>
    </clipPath>
    <linearGradient id="linear-gradient-9" x1="-7.316" y1="0.775" x2="-7.228" y2="0.775" xlink:href="#linear-gradient"/>
    <clipPath id="clip-path-28">
      <rect id="Rectángulo_375957" data-name="Rectángulo 375957" width="85.296" height="32.274" fill="none"/>
    </clipPath>
    <clipPath id="clip-path-29">
      <path id="Trazado_815156" data-name="Trazado 815156" d="M80.356,52.616s-6.8,9.834-2.706,15.855,24.05,14.751,41.339,15.762,35.985-6.794,40.181-10.108,2.888-18.96-2.849-19.739-35.752,2.8-41.072,2.493-31.635-6.741-34.893-4.263" transform="translate(-76.338 -52.049)" fill="none"/>
    </clipPath>
    <linearGradient id="linear-gradient-10" x1="-3.615" y1="0.756" x2="-3.575" y2="0.756" xlink:href="#linear-gradient"/>
    <clipPath id="clip-path-30">
      <path id="Trazado_815161" data-name="Trazado 815161" d="M105.521,25.4c-15.8,1.45-23.05,8.736-23.05,8.736s19.017-5.709,36.558-6.465l17.541-.753A128,128,0,0,0,114.655,25c-2.949,0-6.03.113-9.134.4" transform="translate(-82.471 -24.999)" fill="none"/>
    </clipPath>
    <linearGradient id="linear-gradient-11" x1="-12.587" y1="1.937" x2="-12.455" y2="1.937" xlink:href="#linear-gradient"/>
    <clipPath id="clip-path-31">
      <path id="Trazado_815162" data-name="Trazado 815162" d="M129.677,21.861c31.922,6.907,4.912,22.53,4.912,22.53s17.47-4.614,15.033-13.653c-2.352-8.725-18.742-8.877-19.882-8.877h-.063" transform="translate(-129.677 -21.861)" fill="none"/>
    </clipPath>
    <linearGradient id="linear-gradient-12" x1="-8.78" y1="2.814" x2="-8.713" y2="2.814" xlink:href="#linear-gradient"/>
    <clipPath id="clip-path-33">
      <rect id="Rectángulo_375961" data-name="Rectángulo 375961" width="29.518" height="7.557" fill="none"/>
    </clipPath>
  </defs>
  <g id="Grupo_1072706" data-name="Grupo 1072706" transform="translate(-332 -558)">
    <rect id="Rectángulo_375548" data-name="Rectángulo 375548" width="248" height="163" transform="translate(332 558)" fill="none"/>
    <g id="Grupo_1070181" data-name="Grupo 1070181" transform="translate(435.902 562.699)">
      <g id="Grupo_1070180" data-name="Grupo 1070180" clip-path="url(#clip-path)">
        <g id="Grupo_1070156" data-name="Grupo 1070156" transform="translate(0 -0.001)">
          <g id="Grupo_1070155" data-name="Grupo 1070155" clip-path="url(#clip-path-2)">
            <path id="Trazado_815200" data-name="Trazado 815200" d="M3.992,104.527c1.432,2.81,9.4,1.567,9.4,1.567s20.163,4.463,57.138,4.573c30.22.08,43.173,12.625,49.59,11.109a16.877,16.877,0,0,1,4.173,0s-3.911,6.891-1.545,7.323c3.373.609,9.375-8.883,11.128-11.333,2.995-4.195,4.1-20.618,4.1-20.618A54.933,54.933,0,0,0,140.859,72.3a38.173,38.173,0,0,0-10.458-21.8s5.859,1.425,6.677-1.518a3.122,3.122,0,0,0-2.138-3.856s15.768-6.115,3.412-21.258a25.941,25.941,0,0,0-5.205-4.716C116.839,7.586,82.638,3.248,82.638,3.248s-44.771-7.917-58.456.966c-14.917,9.679-4.107,26-4.107,26s-.966.064-3.1,2.39.243,4.7.243,4.7-.244.293-.664.842C13.654,41.948,2.13,57.966.266,76.135c-2.134,20.8,9.306,24.4,9.306,24.4s-7.012,1.2-5.579,3.989" transform="translate(0 0)" fill="#d69448"/>
            <path id="Trazado_815201" data-name="Trazado 815201" d="M27.388,22.115a23.127,23.127,0,0,0,2.97,2.039c.326.174.654.349,1,.538,13.834,7.394,43.7,11.268,62.792,10.971a90.912,90.912,0,0,0,18.237-1.723,22.5,22.5,0,0,0,4.817-1.657c3.75-1.894,4.362-4.579,1.421-8.024-6.158-7.2-45.052-13.346-45.052-13.346a290.619,290.619,0,0,0-29.92-.736l12.285-4.63S41.521,6.5,36.776,7.9s-20.459,5.151-9.388,14.211" transform="translate(10.44 3.49)" fill="#892727"/>
          </g>
        </g>
        <g id="Grupo_1070170" data-name="Grupo 1070170" transform="translate(0 -0.001)">
          <g id="Grupo_1070169" data-name="Grupo 1070169" clip-path="url(#clip-path-2)">
            <path id="Trazado_815203" data-name="Trazado 815203" d="M13.464,18.586c.508.586,9.162,10.46,29.422,17.07,1.118.367,2.279.715,3.468,1.06.205.052.412.121.617.171a2.517,2.517,0,0,0,.381.106c1.526.422,3.11.839,4.764,1.22,2.547.583,5.237,1.124,8.08,1.572,33.548,5.41,69.713-6.765,69.713-6.765s-38.826,7.454-66.047,3.26c-3.8-.58-7.519-1.347-11.108-2.237-2.036-.5-4.031-1.039-5.971-1.614-1.248-.358-2.482-.733-3.689-1.127-.131-.041-.25-.081-.381-.122A168.435,168.435,0,0,1,14.641,19.242c-.238-.13-.432-.233-.6-.336-.342-.191-.536-.308-.58-.321" transform="translate(5.977 11.691)" fill="#911a10"/>
            <path id="Trazado_815204" data-name="Trazado 815204" d="M125.448,36.419s-14.982,8.6-23.6,9.715-38.351-5.087-50.419-5.379S23.162,35,21.213,34.588s-9.267-11.356-9.267-11.356S49.39,38.712,56.682,39.864s68.766-3.445,68.766-3.445" transform="translate(5.303 14.613)" fill="#ca4c35"/>
            <path id="Trazado_815205" data-name="Trazado 815205" d="M3.992,89.914c1.432,2.81,9.4,1.567,9.4,1.567s20.163,4.463,57.138,4.573c30.22.08,50.559-4.035,56.976-5.552,3.5-2.271,5.956-4.8,7.1-7.567,0,0-26.532,8.831-45.384,7.887-18.257-.9-35.489-7.99-36.553-8.425L59.7,88.966s-26.479.653-37.776-21.985a63.46,63.46,0,0,1-4.681-43.749l-.693.306C13.654,27.335,2.13,43.353.266,61.523c-2.134,20.8,9.306,24.4,9.306,24.4s-7.012,1.2-5.579,3.989" transform="translate(0 14.613)" fill="#ca4c35"/>
            <g id="Grupo_1070163" data-name="Grupo 1070163" transform="translate(89.218 86.013)" opacity="0.53">
              <g id="Grupo_1070162" data-name="Grupo 1070162">
                <g id="Grupo_1070161" data-name="Grupo 1070161" clip-path="url(#clip-path-4)">
                  <g id="Grupo_1070160" data-name="Grupo 1070160" transform="translate(0 0.001)">
                    <g id="Grupo_1070159" data-name="Grupo 1070159" clip-path="url(#clip-path-5)">
                      <path id="Trazado_815252" data-name="Trazado 815252" d="M0,0,48.284-.36l-.149,22.5L-.149,22.5Z" transform="matrix(0.998, -0.058, 0.058, 0.998, -1.002, 0.065)" fill="url(#linear-gradient)"/>
                    </g>
                  </g>
                </g>
              </g>
            </g>
            <g id="Grupo_1070168" data-name="Grupo 1070168" transform="translate(42.345 62.869)" opacity="0.53">
              <g id="Grupo_1070167" data-name="Grupo 1070167">
                <g id="Grupo_1070166" data-name="Grupo 1070166" clip-path="url(#clip-path-6)">
                  <g id="Grupo_1070165" data-name="Grupo 1070165" transform="translate(0 0.001)">
                    <g id="Grupo_1070164" data-name="Grupo 1070164" clip-path="url(#clip-path-7)">
                      <path id="Trazado_815253" data-name="Trazado 815253" d="M0,0,99.44-.741l-.326,49.234-99.44.741Z" transform="translate(-4.095 -2.192) rotate(-3.342)" fill="url(#linear-gradient-2)"/>
                    </g>
                  </g>
                </g>
              </g>
            </g>
            <path id="Trazado_815208" data-name="Trazado 815208" d="M28.255,21.329c.328.174.654.349,1,.538,13.834,7.394,43.7,11.268,62.792,10.971a90.9,90.9,0,0,0,18.237-1.723,22.653,22.653,0,0,0,4.817-1.657c-1.52-2.559-7-10.65-16.065-11.668-.176-.037-.364-.041-.539-.062a86.847,86.847,0,0,0-22.112,1.458s-11.7-6.361-23.581-8.466a31.313,31.313,0,0,0-13.017.01c-7.979,2.044-10.7,6.791-11.528,10.6" transform="translate(12.543 6.315)" fill="#682121"/>
            <path id="Trazado_815209" data-name="Trazado 815209" d="M28.945,22.005a56.934,56.934,0,0,0,9.882,3.967c15.349,4.8,37.591,7.247,52.91,7,.97-.015,1.907-.044,2.833-.073,2.381-.075,4.6-.189,6.646-.389a62.391,62.391,0,0,0,8.759-1.262c-1.066-2.981-3.932-8.6-11.251-13.323a42.239,42.239,0,0,0-7.573-3.809,65.267,65.267,0,0,0-17.47-3.875,78.748,78.748,0,0,0-21.187.614c-14.12,2.465-21.217,8.692-23.549,11.147" transform="translate(12.85 6.177)" fill="#b6c967"/>
            <path id="Trazado_815210" data-name="Trazado 815210" d="M82.092,30.855a62.336,62.336,0,0,0,8.757-1.262c-1.066-2.981-3.932-8.6-11.248-13.325a42.363,42.363,0,0,0-7.575-3.809c9.5,4.859,10.37,12.273,10.48,14.4.092,1.772.267,3.181-.414,3.993" transform="translate(31.975 7.837)" fill="#9eaa55"/>
            <path id="Trazado_815211" data-name="Trazado 815211" d="M35.789,21.247c15.349,4.8,37.591,7.247,52.91,7,.969-.015,1.907-.044,2.832-.073a1,1,0,0,1-.439-.085c-7.332-5.131-13.478-8.9-31.391-10.43-12.117-1.044-21.008.438-23.912,3.584" transform="translate(15.888 10.902)" fill="#9eaa55"/>
          </g>
        </g>
        <g id="Grupo_1070172" data-name="Grupo 1070172" transform="translate(65.39 9.303)">
          <g id="Grupo_1070171" data-name="Grupo 1070171" clip-path="url(#clip-path-8)">
            <path id="Trazado_815254" data-name="Trazado 815254" d="M0,0,59.138-.441l-.1,15L-.1,15Z" transform="translate(-0.576 0.037) rotate(-3.342)" fill="url(#linear-gradient-3)"/>
          </g>
        </g>
        <g id="Grupo_1070174" data-name="Grupo 1070174" transform="translate(19.294 3.09)">
          <g id="Grupo_1070173" data-name="Grupo 1070173" clip-path="url(#clip-path-9)">
            <path id="Trazado_815255" data-name="Trazado 815255" d="M0,0,35.978-.268l-.2,29.763L-.2,29.763Z" transform="translate(-14.149 0.093) rotate(-3.342)" fill="url(#linear-gradient-4)"/>
          </g>
        </g>
        <g id="Grupo_1070179" data-name="Grupo 1070179" transform="translate(0 -0.001)">
          <g id="Grupo_1070178" data-name="Grupo 1070178" clip-path="url(#clip-path-2)">
            <path id="Trazado_815214" data-name="Trazado 815214" d="M33.661,29.734a8.058,8.058,0,0,0,.26,1.679A4.986,4.986,0,0,0,35.4,34.057a3.885,3.885,0,0,0,1.493.619,8.448,8.448,0,0,0,1.24.228c.466.068.96.1,1.44.135a32.427,32.427,0,0,0,3.268-.021s.137-.417.308-1.047a16.391,16.391,0,0,0,.637-4.17,1.994,1.994,0,0,0-.666-1.7,35.794,35.794,0,0,0-3.247-1.81c-1.957-.915-4.13-1.521-5.2-.163a4.892,4.892,0,0,0-.868,1.95,6.3,6.3,0,0,0-.146,1.658" transform="translate(14.942 15.933)" fill="#911a10"/>
            <path id="Trazado_815215" data-name="Trazado 815215" d="M45.56,55.246s-5.776-24.64-7.169-26.723,2.382,27.4,3.72,28.4,3.45-1.678,3.45-1.678" transform="translate(16.908 17.874)" fill="#911a10"/>
            <path id="Trazado_815216" data-name="Trazado 815216" d="M33.338,51.376a3.255,3.255,0,0,0,1.5,2.447,4.738,4.738,0,0,0,2.839.889c.965-.064,1.008-9.008.8-16.418-.046-1.987-.114-3.877-.195-5.438-.045-.862-.085-1.626-.131-2.259-.017-.326-.048-.617-.061-.878a10.053,10.053,0,0,0-.146-1.132s-.035.166-.105.464c-.071.314-.178.779-.3,1.375-.141.612-.306,1.357-.494,2.2-1.376,6.112-3.782,17.187-3.7,18.748" transform="translate(14.799 17.981)" fill="#911a10"/>
            <path id="Trazado_815217" data-name="Trazado 815217" d="M44.368,38.3a3.868,3.868,0,0,0,1.492.619c-1.376,6.112-3.782,17.187-3.7,18.748a3.263,3.263,0,0,0,1.5,2.447L47.3,44.584c-.048-1.987-.116-3.875-.2-5.438.466.068.959.1,1.44.134l.049-.182a19.408,19.408,0,0,1-1.239-2.1,9.907,9.907,0,0,1-.442-.982,6.052,6.052,0,0,1-.251-.67,4.652,4.652,0,0,1-.3-1.888,2.069,2.069,0,0,1,.425-1.025,8.329,8.329,0,0,1,2.056-1.9c-1.957-.915-4.128-1.523-5.2-.163a4.159,4.159,0,0,0-.544.933,18.582,18.582,0,0,0-.234,2.74,2.111,2.111,0,0,0-.234-.065A70.388,70.388,0,0,1,32.331,29.3C26.946,26.41,17.849,21.135,14.64,19.242c-.238-.13-.43-.233-.595-.336-.342-.191-.537-.308-.58-.321.507.586,9.16,10.46,29.42,17.07A4.976,4.976,0,0,0,44.368,38.3" transform="translate(5.978 11.691)" fill="#661410"/>
            <g id="Grupo_1070177" data-name="Grupo 1070177" transform="translate(9.597 98.28)" opacity="0.65">
              <g id="Grupo_1070176" data-name="Grupo 1070176">
                <g id="Grupo_1070175" data-name="Grupo 1070175" clip-path="url(#clip-path-11)">
                  <path id="Trazado_815218" data-name="Trazado 815218" d="M6.646,61.592s7.872-1.606,9.822-1.191,22.17,9.145,22.17,9.145-26.229.912-31.992-7.954" transform="translate(-6.646 -60.332)" fill="#911a10"/>
                </g>
              </g>
            </g>
            <path id="Trazado_815219" data-name="Trazado 815219" d="M41.637,16.621c0,3.6-2.586,6.516-5.776,6.516s-5.776-2.917-5.776-6.516S32.672,10.1,35.862,10.1s5.776,2.917,5.776,6.516" transform="translate(13.356 6.356)" fill="#b6c967"/>
            <path id="Trazado_815220" data-name="Trazado 815220" d="M47.337,12.617c0,3.6-2.585,6.516-5.776,6.516s-5.776-2.916-5.776-6.516a7.009,7.009,0,0,1,.505-2.655,5.531,5.531,0,0,1,10.541-.016,7.155,7.155,0,0,1,.505,2.672" transform="translate(15.887 3.838)" fill="#b6c967"/>
            <path id="Trazado_815221" data-name="Trazado 815221" d="M54.161,15.655c0,3.6-2.586,6.516-5.776,6.516s-5.776-2.917-5.776-6.516,2.585-6.516,5.776-6.516,5.776,2.917,5.776,6.516" transform="translate(18.916 5.749)" fill="#b6c967"/>
            <path id="Trazado_815222" data-name="Trazado 815222" d="M60.161,11.655c0,3.6-2.586,6.516-5.776,6.516s-5.776-2.917-5.776-6.516S51.2,5.139,54.386,5.139s5.776,2.917,5.776,6.516" transform="translate(21.58 3.233)" fill="#b6c967"/>
            <path id="Trazado_815223" data-name="Trazado 815223" d="M66.642,15.083c0,3.6-2.586,6.516-5.776,6.516s-5.776-2.917-5.776-6.516,2.586-6.516,5.776-6.516,5.776,2.917,5.776,6.516" transform="translate(24.457 5.389)" fill="#b6c967"/>
            <path id="Trazado_815224" data-name="Trazado 815224" d="M73.141,14.975c0,3.6-2.586,6.516-5.776,6.516s-5.776-2.917-5.776-6.516,2.586-6.516,5.776-6.516,5.776,2.917,5.776,6.516" transform="translate(27.342 5.321)" fill="#b6c967"/>
            <path id="Trazado_815225" data-name="Trazado 815225" d="M88.685,18.775c0,3.159-2.27,5.719-5.07,5.719s-5.071-2.561-5.071-5.719,2.27-5.719,5.071-5.719,5.07,2.561,5.07,5.719" transform="translate(34.868 8.213)" fill="#9eaa55"/>
            <path id="Trazado_815226" data-name="Trazado 815226" d="M90.907,22.9c0,3.159-2.27,5.719-5.07,5.719s-5.071-2.561-5.071-5.719,2.27-5.719,5.071-5.719,5.07,2.561,5.07,5.719" transform="translate(35.855 10.805)" fill="#9eaa55"/>
            <path id="Trazado_815227" data-name="Trazado 815227" d="M82.434,24.684c0,3.159-2.27,5.719-5.07,5.719s-5.071-2.561-5.071-5.719,2.27-5.719,5.071-5.719,5.07,2.561,5.07,5.719" transform="translate(32.093 11.929)" fill="#b6c967"/>
            <path id="Trazado_815228" data-name="Trazado 815228" d="M83.957,20.767a4.17,4.17,0,1,1-8.28,0,4.17,4.17,0,1,1,8.28,0" transform="translate(33.596 10.125)" fill="#b6c967"/>
            <path id="Trazado_815229" data-name="Trazado 815229" d="M82.434,18.178c0,3.159-2.27,5.719-5.07,5.719s-5.071-2.561-5.071-5.719,2.27-5.719,5.071-5.719,5.07,2.561,5.07,5.719" transform="translate(32.093 7.837)" fill="#b6c967"/>
            <path id="Trazado_815230" data-name="Trazado 815230" d="M40.282,21.025c0,3.144-2.267,5.718-5.068,5.718a5.217,5.217,0,0,1-4.895-4.252,6.15,6.15,0,0,1-.173-1.466,6.283,6.283,0,0,1,.491-2.46A4.914,4.914,0,0,1,31.46,17.2a4.768,4.768,0,0,1,1.848-1.482,4.449,4.449,0,0,1,1.906-.424,5.19,5.19,0,0,1,4.852,4.072c.014.065.029.114.043.163a.339.339,0,0,1,.029.13,6.09,6.09,0,0,1,.144,1.368" transform="translate(13.383 9.618)" fill="#b6c967"/>
            <path id="Trazado_815231" data-name="Trazado 815231" d="M35.572,18.669a5.944,5.944,0,0,1-1.718,4.268,4.665,4.665,0,0,1-1.444,1.026,4.449,4.449,0,0,1-1.906.424c-2.8,0-5.068-2.557-5.068-5.718a5.859,5.859,0,0,1,.26-1.759A5.152,5.152,0,0,1,30.5,12.951,5.214,5.214,0,0,1,35.4,17.186a6.187,6.187,0,0,1,.173,1.482" transform="translate(11.292 8.146)" fill="#b6c967"/>
            <path id="Trazado_815232" data-name="Trazado 815232" d="M43.6,19.385c0,3.159-2.27,5.719-5.07,5.719s-5.071-2.561-5.071-5.719,2.27-5.719,5.071-5.719,5.07,2.561,5.07,5.719" transform="translate(14.852 8.596)" fill="#b6c967"/>
            <path id="Trazado_815233" data-name="Trazado 815233" d="M75.144,22.286c0,3.159-2.27,5.719-5.07,5.719S65,25.445,65,22.286s2.27-5.719,5.071-5.719,5.07,2.561,5.07,5.719" transform="translate(28.857 10.421)" fill="#9eaa55"/>
            <path id="Trazado_815234" data-name="Trazado 815234" d="M68.417,19.54c0,3.159-2.27,5.719-5.07,5.719S58.276,22.7,58.276,19.54s2.27-5.719,5.071-5.719,5.07,2.561,5.07,5.719" transform="translate(25.871 8.694)" fill="#9eaa55"/>
            <path id="Trazado_815235" data-name="Trazado 815235" d="M51.916,19.54c0,3.159-2.27,5.719-5.07,5.719S41.775,22.7,41.775,19.54s2.27-5.719,5.071-5.719,5.07,2.561,5.07,5.719" transform="translate(18.545 8.694)" fill="#9eaa55"/>
            <path id="Trazado_815236" data-name="Trazado 815236" d="M57.878,20.313c0,3.159-2.27,5.719-5.07,5.719s-5.071-2.561-5.071-5.719,2.27-5.719,5.071-5.719,5.07,2.561,5.07,5.719" transform="translate(21.192 9.18)" fill="#9eaa55"/>
            <path id="Trazado_815237" data-name="Trazado 815237" d="M72.22,19.54c0,3.159-2.27,5.719-5.07,5.719S62.079,22.7,62.079,19.54s2.27-5.719,5.071-5.719,5.07,2.561,5.07,5.719" transform="translate(27.559 8.694)" fill="#9eaa55"/>
            <path id="Trazado_815238" data-name="Trazado 815238" d="M63.24,21.379a5.077,5.077,0,0,1-10.141,0,5.077,5.077,0,0,1,10.141,0" transform="translate(23.573 10.421)" fill="#9eaa55"/>
            <path id="Trazado_815239" data-name="Trazado 815239" d="M31.395,15.534a1.708,1.708,0,1,1-3.392,0,1.708,1.708,0,1,1,3.392,0" transform="translate(12.432 8.569)" fill="#d9ea75"/>
            <path id="Trazado_815240" data-name="Trazado 815240" d="M36.34,18.07a1.708,1.708,0,1,1-3.392,0,1.708,1.708,0,1,1,3.392,0" transform="translate(14.627 10.164)" fill="#d9ea75"/>
            <path id="Trazado_815241" data-name="Trazado 815241" d="M36.3,12.5a1.708,1.708,0,1,1-3.392,0,1.708,1.708,0,1,1,3.392,0" transform="translate(14.611 6.659)" fill="#d9ea75"/>
            <path id="Trazado_815242" data-name="Trazado 815242" d="M47.5,11.952a1.708,1.708,0,1,1-3.392,0,1.708,1.708,0,1,1,3.392,0" transform="translate(19.583 6.316)" fill="#d9ea75"/>
            <path id="Trazado_815243" data-name="Trazado 815243" d="M40.829,8.975a1.708,1.708,0,1,1-3.392,0,1.708,1.708,0,1,1,3.392,0" transform="translate(16.62 4.443)" fill="#d9ea75"/>
            <path id="Trazado_815244" data-name="Trazado 815244" d="M66.483,11.324a1.708,1.708,0,1,1-3.392,0,1.708,1.708,0,1,1,3.392,0" transform="translate(28.008 5.921)" fill="#d9ea75"/>
            <path id="Trazado_815245" data-name="Trazado 815245" d="M60,13.127a1.708,1.708,0,1,1-3.392,0,1.708,1.708,0,1,1,3.392,0" transform="translate(25.131 7.055)" fill="#d9ea75"/>
            <path id="Trazado_815246" data-name="Trazado 815246" d="M76.069,23.056a1.708,1.708,0,1,1-1.7-1.912,1.813,1.813,0,0,1,1.7,1.912" transform="translate(32.264 13.3)" fill="#d9ea75"/>
            <path id="Trazado_815247" data-name="Trazado 815247" d="M77.244,15.332a1.708,1.708,0,1,1-3.392,0,1.708,1.708,0,1,1,3.392,0" transform="translate(32.785 8.441)" fill="#d9ea75"/>
            <path id="Trazado_815248" data-name="Trazado 815248" d="M81.534,19.7a1.708,1.708,0,1,1-3.392,0,1.708,1.708,0,1,1,3.392,0" transform="translate(34.69 11.19)" fill="#d9ea75"/>
            <path id="Trazado_815249" data-name="Trazado 815249" d="M42.373,20.968c0,3.144-2.267,5.718-5.068,5.718a5.217,5.217,0,0,1-4.895-4.252,4.449,4.449,0,0,1-1.906.424c-2.8,0-5.068-2.557-5.068-5.718a5.859,5.859,0,0,1,.26-1.759,4.608,4.608,0,0,0,2.671,3.926,3.469,3.469,0,0,0,4.361-.8,4.738,4.738,0,0,0,.823-1.368,5.778,5.778,0,0,0-.286,3.893,4.472,4.472,0,0,0,4.04,3c4.592,0,4.837-4.349,4.852-4.708l.043.147a.339.339,0,0,1,.029.13,6.09,6.09,0,0,1,.144,1.368" transform="translate(11.292 9.675)" fill="#9eaa55"/>
            <path id="Trazado_815250" data-name="Trazado 815250" d="M47.337,11.126c0,3.6-2.585,6.516-5.776,6.516s-5.776-2.916-5.776-6.516a7.009,7.009,0,0,1,.505-2.655c.014-.016-.679,6.7,5.27,6.386,5.761-.293,5.314-5.995,5.27-6.386a7.009,7.009,0,0,1,.505,2.655" transform="translate(15.887 5.329)" fill="#9eaa55"/>
            <path id="Trazado_815251" data-name="Trazado 815251" d="M48.824,19.316a2.8,2.8,0,1,1-5.562,0,2.8,2.8,0,1,1,5.562,0" transform="translate(19.206 10.177)" fill="#b6c967"/>
          </g>
        </g>
      </g>
    </g>
    <g id="Grupo_1070154" data-name="Grupo 1070154" transform="translate(332 597.613)">
      <g id="Grupo_1070153" data-name="Grupo 1070153" clip-path="url(#clip-path-12)">
        <g id="Grupo_1070129" data-name="Grupo 1070129" transform="translate(0 0)">
          <g id="Grupo_1070128" data-name="Grupo 1070128" clip-path="url(#clip-path-12)">
            <path id="Trazado_815093" data-name="Trazado 815093" d="M134.469,5.307s-31.6,7.168-58.395,6.587S17.409,6.8,17.409,6.8,55.786,29.38,62.723,31.314,114.6,29.241,114.6,29.241Z" transform="translate(10.786 3.288)" fill="#911a10"/>
            <path id="Trazado_815094" data-name="Trazado 815094" d="M60.016,4.6A5,5,0,0,1,58.8,7.154a43.317,43.317,0,0,1-10.219,9.3,9.7,9.7,0,0,1-4.421,1.83,1.256,1.256,0,0,1-1.053-.551C40.775,14.717,44.16.271,44.16.271s9.312.858,13.669,2.559c1.312.518,2.17,1.1,2.186,1.765" transform="translate(26.2 0.168)" fill="#f2af97"/>
            <path id="Trazado_815095" data-name="Trazado 815095" d="M48.093,6.063S51.062.934,51.6,2.824s-.541,7.558-1.756,7.288-6.342.27-6.073-2.159,4.319-1.89,4.319-1.89" transform="translate(27.114 1.49)" fill="#e5a18f"/>
            <path id="Trazado_815096" data-name="Trazado 815096" d="M79.563,8.59S77.075.233,73.927,2.1s-5.408,13.564-4.972,15.7S85.4,17.025,86.5,14.148,79.563,8.59,79.563,8.59" transform="translate(42.688 1.13)" fill="#d38c76"/>
            <path id="Trazado_815097" data-name="Trazado 815097" d="M79.545,6s-10.937,5.547-10.608,9.206S79.545,6,79.545,6" transform="translate(42.706 3.718)" fill="#b57261"/>
            <path id="Trazado_815098" data-name="Trazado 815098" d="M47,11.93a5,5,0,0,1-1.914,2.088,43.316,43.316,0,0,1-12.5,5.879,9.715,9.715,0,0,1-4.765.449,1.257,1.257,0,0,1-.844-.837c-1.343-3.565,6.143-16.375,6.143-16.375S41.767,6.693,45.431,9.6c1.1.881,1.749,1.691,1.569,2.331" transform="translate(16.613 1.941)" fill="#f2af97"/>
            <path id="Trazado_815099" data-name="Trazado 815099" d="M34.114,9.209s4.347-4.028,4.306-2.063S35.682,14.21,34.6,13.595s-6.141-1.608-5.17-3.85,4.684-.536,4.684-.536" transform="translate(18.157 4.092)" fill="#e5a18f"/>
            <path id="Trazado_815100" data-name="Trazado 815100" d="M67.5,7.133S65.011-1.224,61.863.639s-5.408,13.564-4.972,15.7,16.445-.771,17.55-3.647S67.5,7.133,67.5,7.133" transform="translate(35.214 0.228)" fill="#d38c76"/>
            <path id="Trazado_815101" data-name="Trazado 815101" d="M67.481,4.545s-10.937,5.547-10.608,9.206S67.481,4.545,67.481,4.545" transform="translate(35.232 2.816)" fill="#b57261"/>
            <path id="Trazado_815102" data-name="Trazado 815102" d="M69.226,15.233s5.62,6.668,7.763,3.7-.463-14.6-1.717-16.38S60.5,9.833,60.642,12.912s8.584,2.321,8.584,2.321" transform="translate(37.571 1.44)" fill="#d38c76"/>
            <path id="Trazado_815103" data-name="Trazado 815103" d="M65.942,15.31s7.81-9.455,6.046-12.678S65.942,15.31,65.942,15.31" transform="translate(40.855 1.363)" fill="#b57261"/>
            <path id="Trazado_815104" data-name="Trazado 815104" d="M79.075,14.631s-.794,8.684,2.821,8.124S91.956,12.168,92.343,10.022,76.787,4.632,74.695,6.893s4.381,7.738,4.381,7.738" transform="translate(46.019 3.794)" fill="#d38c76"/>
            <path id="Trazado_815105" data-name="Trazado 815105" d="M77.24,13.478S89.455,12.39,90.507,8.869,77.24,13.478,77.24,13.478" transform="translate(47.855 4.947)" fill="#b57261"/>
            <path id="Trazado_815106" data-name="Trazado 815106" d="M84.262,11.869s2.766,8.269,5.851,6.3S95.063,4.432,94.555,2.312,78.145,3.635,77.138,6.547s7.124,5.322,7.124,5.322" transform="translate(47.738 1.025)" fill="#d38c76"/>
            <path id="Trazado_815107" data-name="Trazado 815107" d="M81.5,11.862S92.248,5.95,91.8,2.3,81.5,11.862,81.5,11.862" transform="translate(50.497 1.033)" fill="#b57261"/>
            <path id="Trazado_815108" data-name="Trazado 815108" d="M85.894,11.047s8.086-3.263,5.936-6.224S77.815.718,75.729,1.354s2.318,16.3,5.285,17.127,4.88-7.434,4.88-7.434" transform="translate(46.583 0.733)" fill="#d38c76"/>
            <path id="Trazado_815109" data-name="Trazado 815109" d="M85.917,10.994S79.365.629,75.753,1.3s10.164,9.693,10.164,9.693" transform="translate(46.56 0.786)" fill="#b57261"/>
            <path id="Trazado_815110" data-name="Trazado 815110" d="M53.406,15.756a4.991,4.991,0,0,1-2.63,1.053,43.338,43.338,0,0,1-13.815-.125,9.663,9.663,0,0,1-4.486-1.662,1.252,1.252,0,0,1-.4-1.119C32.412,10.109,44.712,1.81,44.712,1.81S50.96,8.768,53,12.975c.611,1.271.844,2.282.4,2.781" transform="translate(19.866 1.121)" fill="#f2af97"/>
            <path id="Trazado_815111" data-name="Trazado 815111" d="M40.968,7.833s5.664-1.746,4.776.008-5.532,5.178-6.24,4.154-4.838-4.112-2.988-5.711,4.452,1.548,4.452,1.548" transform="translate(22.331 3.613)" fill="#e5a18f"/>
            <path id="Trazado_815112" data-name="Trazado 815112" d="M70.531,22.187A4.991,4.991,0,0,1,67.9,23.24a43.338,43.338,0,0,1-13.815-.125A9.663,9.663,0,0,1,49.6,21.453a1.252,1.252,0,0,1-.4-1.119C49.537,16.54,61.837,8.241,61.837,8.241s6.248,6.958,8.289,11.165c.611,1.271.844,2.282.4,2.781" transform="translate(30.476 5.105)" fill="#f2af97"/>
            <path id="Trazado_815113" data-name="Trazado 815113" d="M58.093,14.264s5.664-1.746,4.776.008-5.532,5.178-6.24,4.154-4.838-4.112-2.988-5.711,4.452,1.548,4.452,1.548" transform="translate(32.941 7.597)" fill="#e5a18f"/>
            <path id="Trazado_815114" data-name="Trazado 815114" d="M68.1,13.06a5,5,0,0,1-1.982,2.024,43.318,43.318,0,0,1-12.689,5.461,9.691,9.691,0,0,1-4.776.29,1.259,1.259,0,0,1-.816-.863c-1.224-3.608,6.681-16.165,6.681-16.165s8.525,3.845,12.092,6.872c1.071.917,1.692,1.748,1.492,2.381" transform="translate(29.559 2.358)" fill="#f2af97"/>
            <path id="Trazado_815115" data-name="Trazado 815115" d="M55.165,9.882S59.643,6,59.538,7.963s-2.972,6.969-4.033,6.32-6.085-1.811-5.038-4.02,4.7-.381,4.7-.381" transform="translate(31.179 4.59)" fill="#d38c76"/>
            <path id="Trazado_815116" data-name="Trazado 815116" d="M76.389,14.779A5,5,0,0,1,74.407,16.8a43.318,43.318,0,0,1-12.689,5.461,9.691,9.691,0,0,1-4.776.29,1.259,1.259,0,0,1-.816-.863C54.9,18.082,62.806,5.526,62.806,5.526S71.331,9.371,74.9,12.4c1.071.917,1.692,1.748,1.492,2.381" transform="translate(34.693 3.423)" fill="#f2af97"/>
            <path id="Trazado_815117" data-name="Trazado 815117" d="M63.452,11.6s4.478-3.882,4.373-1.919S64.853,16.651,63.792,16s-6.085-1.811-5.038-4.02,4.7-.381,4.7-.381" transform="translate(36.313 5.655)" fill="#e5a18f"/>
            <path id="Trazado_815118" data-name="Trazado 815118" d="M83.712,15.312a5,5,0,0,1-1.982,2.024A43.337,43.337,0,0,1,69.041,22.8a9.691,9.691,0,0,1-4.776.29,1.259,1.259,0,0,1-.816-.863c-1.224-3.608,6.681-16.165,6.681-16.165S78.654,9.9,82.221,12.931c1.071.917,1.692,1.748,1.492,2.381" transform="translate(39.23 3.754)" fill="#f2af97"/>
            <path id="Trazado_815119" data-name="Trazado 815119" d="M70.775,12.134s4.478-3.882,4.373-1.919-2.972,6.969-4.033,6.32-6.085-1.811-5.038-4.02,4.7-.381,4.7-.381" transform="translate(40.85 5.985)" fill="#e5a18f"/>
            <path id="Trazado_815120" data-name="Trazado 815120" d="M25.831,6.733s-8.493,1.977-6.823,5.234,13.212,6.217,15.371,5.91S34.6,1.416,31.8.139s-5.966,6.593-5.966,6.593" transform="translate(11.642 0)" fill="#d38c76"/>
            <path id="Trazado_815121" data-name="Trazado 815121" d="M23.138,4.157S28.014,15.408,31.686,15.3,23.138,4.157,23.138,4.157" transform="translate(14.335 2.575)" fill="#b57261"/>
            <path id="Trazado_815122" data-name="Trazado 815122" d="M40.063,10.335s-8.491,1.977-6.823,5.234,13.212,6.216,15.371,5.91S48.835,5.018,46.03,3.741s-5.966,6.593-5.966,6.593" transform="translate(20.46 2.231)" fill="#d38c76"/>
            <path id="Trazado_815123" data-name="Trazado 815123" d="M37.37,7.759S42.246,19.01,45.918,18.9,37.37,7.759,37.37,7.759" transform="translate(23.153 4.807)" fill="#b57261"/>
            <path id="Trazado_815124" data-name="Trazado 815124" d="M35.716,16.093s-8.491,1.977-6.823,5.234,13.212,6.216,15.371,5.91S44.488,10.776,41.683,9.5s-5.966,6.593-5.966,6.593" transform="translate(17.766 5.799)" fill="#d38c76"/>
            <path id="Trazado_815125" data-name="Trazado 815125" d="M33.023,13.517S37.9,24.768,41.571,24.661s-8.548-11.144-8.548-11.144" transform="translate(20.46 8.374)" fill="#b57261"/>
            <path id="Trazado_815126" data-name="Trazado 815126" d="M54.537,16.489S52.049,8.132,48.9,9.995s-5.408,13.564-4.972,15.7,16.445-.771,17.55-3.647-6.941-5.558-6.941-5.558" transform="translate(27.183 6.024)" fill="#d38c76"/>
            <path id="Trazado_815127" data-name="Trazado 815127" d="M54.519,13.9s-10.937,5.547-10.608,9.206S54.519,13.9,54.519,13.9" transform="translate(27.201 8.612)" fill="#b57261"/>
            <path id="Trazado_815128" data-name="Trazado 815128" d="M52.842,11.268s-2.488-8.357-5.636-6.494-5.408,13.564-4.972,15.7,16.445-.771,17.55-3.647-6.941-5.558-6.941-5.558" transform="translate(26.133 2.789)" fill="#d38c76"/>
            <path id="Trazado_815129" data-name="Trazado 815129" d="M52.824,8.68s-10.937,5.547-10.608,9.206S52.824,8.68,52.824,8.68" transform="translate(26.151 5.377)" fill="#b57261"/>
            <path id="Trazado_815130" data-name="Trazado 815130" d="M54.992,6.548s-8.585,1.521-7.094,4.86,12.861,6.917,15.033,6.726S64.036,1.707,61.3.283s-6.311,6.264-6.311,6.264" transform="translate(29.568 0.066)" fill="#d38c76"/>
            <path id="Trazado_815131" data-name="Trazado 815131" d="M52.212,4.084s4.266,11.5,7.939,11.586S52.212,4.084,52.212,4.084" transform="translate(32.348 2.53)" fill="#b57261"/>
            <g id="Grupo_1070103" data-name="Grupo 1070103" transform="translate(32.495 3.338)" opacity="0.63" style="mix-blend-mode: multiply;isolation: isolate">
              <g id="Grupo_1070102" data-name="Grupo 1070102">
                <g id="Grupo_1070101" data-name="Grupo 1070101" clip-path="url(#clip-path-14)">
                  <path id="Trazado_815132" data-name="Trazado 815132" d="M20.064,13.881S24.4,7.5,29.78,10.031s5.254,8.551,5.254,8.551l7.235,1.234s4.018-6.331,8.943-3.79,3.663,6.8,3.663,6.8,2.068-6.365,7.6-4.608a7.1,7.1,0,0,1,5.166,7.06l13.144.016s-.978-6.608,6.313-6.914,8.077,4.943,8.077,4.943l11.147-2.17s.581-9.147,8.846-10.561,10.762,1.943,10.762,1.943l3.931-10.479-1.39,14.561-2.535,9.564S83.816,36.835,74.295,35.605s-44.633-6.65-44.633-6.65Z" transform="translate(-20.064 -2.061)" fill="#e5a18f"/>
                </g>
              </g>
            </g>
            <path id="Trazado_815133" data-name="Trazado 815133" d="M.839,98.981c4.324,2.883,60.474,10.8,91.424,10.09,11.936-.292,29.12-1.312,45.947-2.721,26.788-2.235,52.62-5.426,54.822-8.082,1.976-2.381-.632-4.551-3.369-6.009a30.9,30.9,0,0,0-4.551-1.911,36.547,36.547,0,0,0-6.478-7.191,18.726,18.726,0,0,0-7.191-3.612,104.611,104.611,0,0,0-2.17-25.184c-2.867-13.685-17.264-19.435-17.264-19.435a36.372,36.372,0,0,0,.713-7.92c0-5.037-2.883-7.191-2.883-7.191a36.273,36.273,0,0,1,.729-6.478c.47-2.348-1.215-5.312-2.429-7.094a2.227,2.227,0,0,0-.858-.745,2.391,2.391,0,0,0-2.024-.13c-3.644,1.441-6.106,4.246-9.329,5.364C109.35,19.98,95.813,23.44,80.654,22.176c-11.807-.988-36.89-9.717-43.019-13.1A2.568,2.568,0,0,0,36.8,8.9c-.05-.016-.083-.016-.13-.032-4.763-1.02-7.986-1.8-8.472-2.008-3.288-1.474-.711,10.786-.711,10.786l-.73,2.883a17.611,17.611,0,0,0,0,6.478S9.489,43.559,6.6,58.686C3.722,73.8,10.2,93.231,10.2,93.231S-3.469,96.114.839,98.981" transform="translate(0 3.225)" fill="#a6392d"/>
            <g id="Grupo_1070108" data-name="Grupo 1070108" transform="translate(0 9.961)" opacity="0.75" style="mix-blend-mode: multiply;isolation: isolate">
              <g id="Grupo_1070107" data-name="Grupo 1070107">
                <g id="Grupo_1070106" data-name="Grupo 1070106" clip-path="url(#clip-path-15)">
                  <g id="Grupo_1070105" data-name="Grupo 1070105" transform="translate(0 0)">
                    <g id="Grupo_1070104" data-name="Grupo 1070104" clip-path="url(#clip-path-16)">
                      <rect id="Rectángulo_375943" data-name="Rectángulo 375943" width="141.677" height="104.398" transform="translate(-3.467 -1.352)" fill="url(#linear-gradient-5)"/>
                    </g>
                  </g>
                </g>
              </g>
            </g>
            <g id="Grupo_1070111" data-name="Grupo 1070111" transform="translate(53.622 48.038)" opacity="0.5">
              <g id="Grupo_1070110" data-name="Grupo 1070110">
                <g id="Grupo_1070109" data-name="Grupo 1070109" clip-path="url(#clip-path-17)">
                  <path id="Trazado_815135" data-name="Trazado 815135" d="M124.338,30.012a11.129,11.129,0,0,1,12.72,5.8,51.615,51.615,0,0,1,5.233,16.349C143.91,65.3,98.021,76.458,72.108,72.858S34.679,54.863,33.239,50,42.6,33.629,47.815,33.269c4.844-.334,42.381,5.531,76.523-3.257" transform="translate(-33.109 -29.661)" fill="#c4453b"/>
                </g>
              </g>
            </g>
            <path id="Trazado_815136" data-name="Trazado 815136" d="M141.781,26.587s-41.213,9.536-75.224,6.3-37.25-2.34-43.187-6.119-6.846-8.1-6.846-8.1-1.793,13.5,37.077,16.2,60.291,1.8,88.18-8.276" transform="translate(10.23 11.565)" fill="#6b130f"/>
            <g id="Grupo_1070116" data-name="Grupo 1070116" transform="translate(138.51 41.389)" style="mix-blend-mode: multiply;isolation: isolate">
              <g id="Grupo_1070115" data-name="Grupo 1070115">
                <g id="Grupo_1070114" data-name="Grupo 1070114" clip-path="url(#clip-path-18)">
                  <g id="Grupo_1070113" data-name="Grupo 1070113" transform="translate(0 0)">
                    <g id="Grupo_1070112" data-name="Grupo 1070112" clip-path="url(#clip-path-19)">
                      <rect id="Rectángulo_375946" data-name="Rectángulo 375946" width="8.278" height="17.094" transform="translate(0 0)" fill="url(#linear-gradient-6)"/>
                    </g>
                  </g>
                </g>
              </g>
            </g>
            <g id="Grupo_1070119" data-name="Grupo 1070119" transform="translate(107.609 24.107)" opacity="0.72">
              <g id="Grupo_1070118" data-name="Grupo 1070118">
                <g id="Grupo_1070117" data-name="Grupo 1070117" clip-path="url(#clip-path-20)">
                  <path id="Trazado_815138" data-name="Trazado 815138" d="M82.588,18.67s24.293-3.958,25.012-3.778,2.16,4.138,2.34,8.637-20.875,8.278-27.892,8.637-12.417,1.08-13.677.361-1.62-3.6-.539-4.14,9-1.979,9-1.979-8.1.18-9-.36-2.52-5.4-.18-5.759,14.936-1.62,14.936-1.62" transform="translate(-66.443 -14.885)" fill="#c4453b"/>
                </g>
              </g>
            </g>
            <path id="Trazado_815139" data-name="Trazado 815139" d="M32.039,26.486a47.122,47.122,0,0,0-4.859,6.838,30.1,30.1,0,0,0-2.339,7.918s.36-8.278.36-9.9,4.5-5.218,4.5-5.218-5.04,4.138-6.478,4.319-9.178.18-8.459-.721S21.6,25.767,23.4,25.587s7.737,0,7.737,0Z" transform="translate(9.117 15.802)" fill="#6b130f"/>
            <path id="Trazado_815140" data-name="Trazado 815140" d="M7.523,59.445s9.178,0,14.037,1.44S48.551,67.723,55.75,68.8s16.375,2.159,16.375,2.159-32.391-2.339-47.868-5.038S7.523,59.445,7.523,59.445" transform="translate(4.661 36.829)" fill="#7c1511"/>
            <path id="Trazado_815141" data-name="Trazado 815141" d="M73.486,24.19C75.655,25,99.948,21.5,101.019,21.5s3.239,1.62,3.788,5.668a18.852,18.852,0,0,1-.81,7.822s11.962,6.478,16.821,17.815.994,29.152.994,29.152a15.115,15.115,0,0,1,11.6,5.134c5.132,5.668,5.408,7.013,5.408,7.013s1.215-1.846,5.442-1.96a30.845,30.845,0,0,0-4.549-1.911,36.547,36.547,0,0,0-6.478-7.191,18.738,18.738,0,0,0-7.192-3.612,104.557,104.557,0,0,0-2.169-25.184C121,40.564,106.6,34.814,106.6,34.814a36.292,36.292,0,0,0,.714-7.92c0-5.037-2.883-7.191-2.883-7.191a36.351,36.351,0,0,1,.727-6.478c.47-2.348-1.215-5.312-2.429-7.094a2.227,2.227,0,0,0-.858-.745c.5,1.765,1.744,6.888,1.307,9.091-.81,4.049-7.022,3.785-11.607,4.854-4.583,1.085-20.245,4.049-18.089,4.859" transform="translate(45.404 3.337)" fill="#e66153"/>
            <g id="Grupo_1070122" data-name="Grupo 1070122" transform="translate(103.105 10.939)" opacity="0.72">
              <g id="Grupo_1070121" data-name="Grupo 1070121">
                <g id="Grupo_1070120" data-name="Grupo 1070120" clip-path="url(#clip-path-21)">
                  <path id="Trazado_815142" data-name="Trazado 815142" d="M103.574,6.88a3.619,3.619,0,0,1,4.544,3.634,5.726,5.726,0,0,1-1.853,4.376c-3.239,2.7-34.911,7.738-39.049,7.918s-4.051-2.884-2.79-2.884,9.792-3.024,17.906-5.753C87.61,12.4,97.878,8.4,103.574,6.88" transform="translate(-63.662 -6.754)" fill="#c4453b"/>
                </g>
              </g>
            </g>
            <path id="Trazado_815143" data-name="Trazado 815143" d="M22.719,8.495c3.95,1.263,9.554,2.964,13.182,3.709,6.124,1.263,16.2,12.338,46.885,9.447C94.548,20.543,114.449,11.524,120.9,8.8,94.318,18.05,83.537,21.042,68.378,19.778,56.571,18.791,35,11.135,23.56,8.673c-.292-.065-.567-.13-.841-.178" transform="translate(14.076 5.263)" fill="#e66153"/>
            <g id="Grupo_1070127" data-name="Grupo 1070127" transform="translate(153.743 97.102)" opacity="0.75" style="mix-blend-mode: multiply;isolation: isolate">
              <g id="Grupo_1070126" data-name="Grupo 1070126">
                <g id="Grupo_1070125" data-name="Grupo 1070125" clip-path="url(#clip-path-22)">
                  <g id="Grupo_1070124" data-name="Grupo 1070124" transform="translate(-0.001 0)">
                    <g id="Grupo_1070123" data-name="Grupo 1070123" clip-path="url(#clip-path-23)">
                      <rect id="Rectángulo_375950" data-name="Rectángulo 375950" width="30.592" height="7.377" transform="translate(-0.836 -0.468)" fill="url(#linear-gradient-7)"/>
                    </g>
                  </g>
                </g>
              </g>
            </g>
            <path id="Trazado_815145" data-name="Trazado 815145" d="M88.474,67.164s-.4-8.71-3.9-7.662-8.519,11.86-8.61,14.04,16.147,3.215,17.911.69-5.4-7.068-5.4-7.068" transform="translate(47.062 36.81)" fill="#d38c76"/>
            <path id="Trazado_815146" data-name="Trazado 815146" d="M88.481,64.2S76.53,66.946,75.967,70.577,88.481,64.2,88.481,64.2" transform="translate(47.055 39.775)" fill="#b57261"/>
            <path id="Trazado_815147" data-name="Trazado 815147" d="M70.643,69.927s-5.447,3.791-3.349,5.625,11.094.671,12.534-.155S75.346,63.7,73,63.584s-2.36,6.344-2.36,6.344" transform="translate(41.395 39.393)" fill="#d38c76"/>
            <path id="Trazado_815148" data-name="Trazado 815148" d="M69.178,67.5s6.619,6.58,9.185,5.469S69.178,67.5,69.178,67.5" transform="translate(42.86 41.82)" fill="#b57261"/>
            <path id="Trazado_815149" data-name="Trazado 815149" d="M200.3,105.789c-1.322,2.3-8.669,1.281-8.669,1.281s-18.6,3.65-52.718,3.74c-27.882.066-46.648-3.3-52.569-4.54-1.318-.264-2-.437-2-.437a33.124,33.124,0,0,1-3.88.868c-3.113.5-7.222.7-8.84-1.305-2.761-3.43,5.068-5.641,5.068-5.641a40.3,40.3,0,0,1-2.669-20.321,30.317,30.317,0,0,1,9.649-17.826s-5.406,1.166-6.161-1.241c-.739-2.42,1.974-3.155,1.974-3.155s-14.549-5-3.148-17.386a23.2,23.2,0,0,1,4.8-3.856c15.046-9.463,46.6-13.012,46.6-13.012s41.308-6.473,53.936.79c13.763,7.916,3.788,21.266,3.788,21.266s.891.052,2.862,1.956c1.958,1.888-.225,3.843-.225,3.843s.227.24.614.69c2.674,3.1,13.306,16.2,15.026,31.065,1.969,17.01-8.585,19.956-8.585,19.956s6.469.978,5.147,3.263" transform="translate(44.011 12.578)" fill="#fb734f"/>
            <path id="Trazado_815150" data-name="Trazado 815150" d="M164.434,38.414a21.463,21.463,0,0,1-2.74,1.668c-.3.143-.6.285-.92.441-12.764,6.046-40.321,9.214-57.935,8.972a94.276,94.276,0,0,1-16.826-1.411,22.715,22.715,0,0,1-4.446-1.354c-3.459-1.55-4.025-3.744-1.31-6.562,5.681-5.887,41.568-10.916,41.568-10.916,12.95-1.019,27.605-.6,27.605-.6L138.1,24.865s13.3.776,17.676,1.927S174.649,31,164.434,38.414" transform="translate(48.663 15.405)" fill="#892727"/>
          </g>
        </g>
        <g id="Grupo_1070131" data-name="Grupo 1070131" transform="translate(115.048 48.548)">
          <g id="Grupo_1070130" data-name="Grupo 1070130" clip-path="url(#clip-path-24)">
            <rect id="Rectángulo_375953" data-name="Rectángulo 375953" width="72.53" height="25.089" transform="matrix(0.058, -0.998, 0.998, 0.058, -10.255, 71.187)" fill="url(#linear-gradient-8)"/>
          </g>
        </g>
        <g id="Grupo_1070143" data-name="Grupo 1070143" transform="translate(0 0)">
          <g id="Grupo_1070142" data-name="Grupo 1070142" clip-path="url(#clip-path-12)">
            <path id="Trazado_815152" data-name="Trazado 815152" d="M183.152,35.59c-.468.479-8.454,8.555-27.145,13.961-1.032.3-2.1.585-3.2.868-.189.042-.381.1-.568.139a2.614,2.614,0,0,1-.353.086c-1.407.345-2.868.687-4.4,1-2.35.478-4.831.92-7.455,1.286-30.953,4.425-64.321-5.532-64.321-5.532s35.823,6.1,60.939,2.666c3.511-.475,6.937-1.1,10.249-1.83,1.879-.41,3.72-.849,5.508-1.318,1.152-.293,2.292-.6,3.4-.923.121-.032.23-.066.353-.1a166.75,166.75,0,0,0,25.9-9.763c.219-.109.4-.191.549-.275.316-.155.5-.251.536-.262" transform="translate(46.909 22.05)" fill="#911a10"/>
            <path id="Trazado_815153" data-name="Trazado 815153" d="M78.64,50.2s13.825,7.035,21.778,7.946,35.386-4.161,46.52-4.4,26.075-4.7,27.874-5.045,8.55-9.287,8.55-9.287-34.547,12.662-41.274,13.6S78.64,50.2,78.64,50.2" transform="translate(48.722 24.418)" fill="#ca4c35"/>
            <path id="Trazado_815154" data-name="Trazado 815154" d="M196.953,93.948c-1.322,2.3-8.669,1.281-8.669,1.281s-18.6,3.65-52.718,3.74c-27.882.066-46.648-3.3-52.569-4.54-3.228-1.858-5.5-3.924-6.551-6.188,0,0,24.481,7.223,41.875,6.451,16.843-.737,32.743-6.535,33.726-6.891l-6.493,5.374s24.429.533,34.853-17.982a46.479,46.479,0,0,0,4.319-35.779l.64.251c2.674,3.1,13.306,16.2,15.026,31.065,1.969,17.01-8.585,19.956-8.585,19.956s6.469.978,5.147,3.263" transform="translate(47.362 24.418)" fill="#ca4c35"/>
            <g id="Grupo_1070136" data-name="Grupo 1070136" transform="translate(122.131 103.224)" opacity="0.53">
              <g id="Grupo_1070135" data-name="Grupo 1070135">
                <g id="Grupo_1070134" data-name="Grupo 1070134" clip-path="url(#clip-path-26)">
                  <g id="Grupo_1070133" data-name="Grupo 1070133" transform="translate(0 0)">
                    <g id="Grupo_1070132" data-name="Grupo 1070132" clip-path="url(#clip-path-27)">
                      <rect id="Rectángulo_375954" data-name="Rectángulo 375954" width="18.404" height="44.53" transform="matrix(0.058, -0.998, 0.998, 0.058, -1.051, 15.831)" fill="url(#linear-gradient-9)"/>
                    </g>
                  </g>
                </g>
              </g>
            </g>
            <g id="Grupo_1070141" data-name="Grupo 1070141" transform="translate(123.634 84.296)" opacity="0.53">
              <g id="Grupo_1070140" data-name="Grupo 1070140">
                <g id="Grupo_1070139" data-name="Grupo 1070139" clip-path="url(#clip-path-28)">
                  <g id="Grupo_1070138" data-name="Grupo 1070138" transform="translate(0 0)">
                    <g id="Grupo_1070137" data-name="Grupo 1070137" clip-path="url(#clip-path-29)">
                      <rect id="Rectángulo_375956" data-name="Rectángulo 375956" width="40.282" height="91.708" transform="translate(-4.827 33.076) rotate(-86.658)" fill="url(#linear-gradient-10)"/>
                    </g>
                  </g>
                </g>
              </g>
            </g>
            <path id="Trazado_815157" data-name="Trazado 815157" d="M160.537,37.793c-.3.143-.6.285-.92.441-12.764,6.046-40.321,9.214-57.935,8.972A94.3,94.3,0,0,1,84.855,45.8a22.7,22.7,0,0,1-4.444-1.354c1.4-2.094,6.46-8.712,14.824-9.544.162-.029.335-.032.5-.05a90.16,90.16,0,0,1,20.4,1.192s10.793-5.2,21.757-6.922a32.5,32.5,0,0,1,12.009.006c7.363,1.671,9.871,5.555,10.637,8.67" transform="translate(49.819 17.694)" fill="#682121"/>
            <path id="Trazado_815158" data-name="Trazado 815158" d="M157.917,38.345a56.5,56.5,0,0,1-9.118,3.244c-14.161,3.923-34.683,5.928-48.817,5.728-.894-.013-1.76-.036-2.612-.06-2.2-.062-4.248-.154-6.133-.317a64.719,64.719,0,0,1-8.082-1.033c.985-2.437,3.628-7.034,10.38-10.9a41.106,41.106,0,0,1,6.988-3.116,66.87,66.87,0,0,1,16.119-3.168,81.905,81.905,0,0,1,19.548.5c13.026,2.016,19.576,7.108,21.726,9.117" transform="translate(51.52 17.583)" fill="#ffc45c"/>
            <path id="Trazado_815159" data-name="Trazado 815159" d="M91.236,45.6a64.044,64.044,0,0,1-8.08-1.033c.983-2.437,3.628-7.034,10.378-10.9a41.167,41.167,0,0,1,6.988-3.114c-8.763,3.973-9.568,10.036-9.669,11.779-.086,1.45-.246,2.6.382,3.265" transform="translate(51.52 18.928)" fill="#ffe48f"/>
            <path id="Trazado_815160" data-name="Trazado 815160" d="M143.363,37.761c-14.163,3.924-34.684,5.928-48.82,5.728-.892-.011-1.759-.036-2.612-.058a1.016,1.016,0,0,0,.4-.071c6.765-4.2,12.437-7.28,28.964-8.529,11.18-.855,19.383.358,22.063,2.93" transform="translate(56.957 21.411)" fill="#ffab31"/>
          </g>
        </g>
        <g id="Grupo_1070145" data-name="Grupo 1070145" transform="translate(133.567 40.487)">
          <g id="Grupo_1070144" data-name="Grupo 1070144" clip-path="url(#clip-path-30)">
            <rect id="Rectángulo_375959" data-name="Rectángulo 375959" width="12.273" height="54.54" transform="translate(-0.532 9.104) rotate(-86.658)" fill="url(#linear-gradient-11)"/>
          </g>
        </g>
        <g id="Grupo_1070147" data-name="Grupo 1070147" transform="translate(210.02 35.405)">
          <g id="Grupo_1070146" data-name="Grupo 1070146" clip-path="url(#clip-path-31)">
            <rect id="Rectángulo_375960" data-name="Rectángulo 375960" width="24.352" height="33.181" transform="translate(-1.311 22.453) rotate(-86.658)" fill="url(#linear-gradient-12)"/>
          </g>
        </g>
        <g id="Grupo_1070152" data-name="Grupo 1070152" transform="translate(0 0)">
          <g id="Grupo_1070151" data-name="Grupo 1070151" clip-path="url(#clip-path-12)">
            <path id="Trazado_815163" data-name="Trazado 815163" d="M129.015,44.739a5.9,5.9,0,0,1-.24,1.373,3.993,3.993,0,0,1-1.369,2.162,3.825,3.825,0,0,1-1.377.507,8.807,8.807,0,0,1-1.145.186c-.431.055-.886.083-1.328.11-1.592.066-3.016-.016-3.016-.016s-.126-.342-.283-.857a12.04,12.04,0,0,1-.588-3.411,1.551,1.551,0,0,1,.615-1.393c.619-.324,1.751-.965,3-1.479,1.8-.75,3.809-1.245,4.8-.134a3.317,3.317,0,0,1,.5.764,3.112,3.112,0,0,1,.3.831,4.585,4.585,0,0,1,.134,1.356" transform="translate(74.141 25.488)" fill="#911a10"/>
            <path id="Trazado_815164" data-name="Trazado 815164" d="M117.54,65.619s5.33-20.151,6.616-21.856-2.2,22.41-3.433,23.228-3.182-1.372-3.182-1.372" transform="translate(72.823 27.06)" fill="#911a10"/>
            <path id="Trazado_815165" data-name="Trazado 815165" d="M127.553,62.456a2.636,2.636,0,0,1-1.385,2,4.767,4.767,0,0,1-2.619.729c-.891-.052-.93-7.367-.735-13.428.04-1.626.1-3.171.178-4.447.042-.7.079-1.33.121-1.848.016-.266.044-.505.057-.717a7.533,7.533,0,0,1,.133-.926s.032.134.1.379.164.636.282,1.124.282,1.111.455,1.8c1.268,5,3.489,14.056,3.414,15.332" transform="translate(76.032 27.148)" fill="#911a10"/>
            <path id="Trazado_815166" data-name="Trazado 815166" d="M126.026,51.713a3.834,3.834,0,0,1-1.378.507c1.27,5,3.489,14.056,3.414,15.332a2.64,2.64,0,0,1-1.383,2l-3.357-12.7c.042-1.626.105-3.171.18-4.447-.429.055-.884.083-1.326.11l-.045-.151a15.341,15.341,0,0,0,1.142-1.722,6.9,6.9,0,0,0,.407-.8,4.716,4.716,0,0,0,.235-.547,3.471,3.471,0,0,0,.277-1.545,1.6,1.6,0,0,0-.394-.836,7.335,7.335,0,0,0-1.9-1.553c1.806-.748,3.811-1.245,4.8-.133a3.355,3.355,0,0,1,.505.763,13.83,13.83,0,0,1,.214,2.241,2.144,2.144,0,0,1,.217-.053,69.578,69.578,0,0,0,9.5-3.822c4.969-2.366,13.361-6.679,16.322-8.229.22-.107.4-.189.549-.274.316-.155.5-.251.536-.262-.47.479-8.454,8.555-27.147,13.961a3.987,3.987,0,0,1-1.365,2.162" transform="translate(75.523 22.05)" fill="#661410"/>
            <g id="Grupo_1070150" data-name="Grupo 1070150" transform="translate(209.628 113.257)" opacity="0.65">
              <g id="Grupo_1070149" data-name="Grupo 1070149">
                <g id="Grupo_1070148" data-name="Grupo 1070148" clip-path="url(#clip-path-33)">
                  <path id="Trazado_815167" data-name="Trazado 815167" d="M158.952,70.961s-7.264-1.313-9.063-.975-20.453,7.479-20.453,7.479,24.2.747,29.516-6.5" transform="translate(-129.434 -69.931)" fill="#911a10"/>
                </g>
              </g>
            </g>
            <path id="Trazado_815168" data-name="Trazado 815168" d="M114.085,33.394a6.817,6.817,0,0,0,2.745-.612c.785-.556,2.912-1.561,3.2.421s-2.862,4.507-6.747,4.086-3.6-4.58.8-3.9" transform="translate(68.501 19.844)" fill="#ffab31"/>
            <path id="Trazado_815169" data-name="Trazado 815169" d="M120.659,37.051a6.8,6.8,0,0,0-2.582,1.118c-.667.693-2.567,2.08-3.225.188s1.963-4.964,5.86-5.28,4.4,3.822-.053,3.974" transform="translate(71.095 20.482)" fill="#ffab31"/>
            <path id="Trazado_815170" data-name="Trazado 815170" d="M108.028,37.676a6.806,6.806,0,0,0-2.517-1.255c-.96-.065-3.246-.625-2.22-2.347s5.061-1.694,7.813,1.082-.092,5.826-3.076,2.52" transform="translate(63.835 20.385)" fill="#ffab31"/>
            <path id="Trazado_815171" data-name="Trazado 815171" d="M103.822,38.619a6.8,6.8,0,0,0-2.81.117c-.873.407-3.144,1.02-3.079-.983s3.615-3.927,7.366-2.825,2.732,5.145-1.477,3.691" transform="translate(60.675 21.44)" fill="#ffab31"/>
            <path id="Trazado_815172" data-name="Trazado 815172" d="M97.048,36.51a6.8,6.8,0,0,0,2.693.81c.957-.1,3.3.065,2.586,1.937s-4.7,2.528-7.882.258-.9-5.756,2.6-3" transform="translate(57.574 21.993)" fill="#ffab31"/>
            <path id="Trazado_815173" data-name="Trazado 815173" d="M93.141,39.531a6.811,6.811,0,0,0,2.677-.865c.73-.625,2.755-1.822,3.228.125s-2.431,4.752-6.341,4.692-4.008-4.227.436-3.952" transform="translate(55.63 23.373)" fill="#ffab31"/>
            <path id="Trazado_815174" data-name="Trazado 815174" d="M84.6,38.335a6.811,6.811,0,0,0,2.677-.865c.73-.625,2.755-1.822,3.228.125s-2.431,4.752-6.341,4.692-4.008-4.227.436-3.952" transform="translate(50.336 22.632)" fill="#ffe48f"/>
            <path id="Trazado_815175" data-name="Trazado 815175" d="M85.989,35.019a6.8,6.8,0,0,0,2.693.81c.957-.1,3.3.066,2.586,1.939s-4.7,2.527-7.884.256-.9-5.758,2.6-3" transform="translate(50.723 21.068)" fill="#ffe48f"/>
            <path id="Trazado_815176" data-name="Trazado 815176" d="M103.888,36.417a6.793,6.793,0,0,0,2.8.266c.918-.283,3.252-.583,2.915,1.393s-4.115,3.4-7.68,1.8-2.008-5.469,1.965-3.456" transform="translate(61.912 22.211)" fill="#ffc45c"/>
            <path id="Trazado_815177" data-name="Trazado 815177" d="M107.906,37.609a6.8,6.8,0,0,0,2.339-1.563c.533-.8,2.152-2.507,3.139-.763s-1.04,5.236-4.817,6.245-5.011-2.97-.661-3.919" transform="translate(65.146 21.391)" fill="#ffc45c"/>
            <path id="Trazado_815178" data-name="Trazado 815178" d="M96.778,39.126a6.811,6.811,0,0,0,2.677-.865c.73-.625,2.755-1.822,3.228.125s-2.431,4.752-6.341,4.692-4.008-4.227.436-3.952" transform="translate(57.884 23.122)" fill="#ffab31"/>
            <path id="Trazado_815179" data-name="Trazado 815179" d="M114.606,37.409a6.808,6.808,0,0,0,2.7.773c.956-.112,3.3.019,2.612,1.9s-4.666,2.593-7.879.366-.977-5.745,2.562-3.04" transform="translate(68.458 22.57)" fill="#ffab31"/>
            <path id="Trazado_815180" data-name="Trazado 815180" d="M118.216,36.671a6.808,6.808,0,0,0,2.7.773c.956-.112,3.3.019,2.612,1.9s-4.666,2.593-7.879.366-.977-5.745,2.562-3.04" transform="translate(70.694 22.112)" fill="#ffab31"/>
            <path id="Trazado_815181" data-name="Trazado 815181" d="M97.538,28.947a6.808,6.808,0,0,0,2.7.773c.956-.112,3.3.019,2.612,1.9s-4.666,2.593-7.879.366-.977-5.745,2.562-3.04" transform="translate(57.883 17.327)" fill="#ffc45c"/>
            <path id="Trazado_815182" data-name="Trazado 815182" d="M94.292,30.7a6.81,6.81,0,0,0,2.8.243c.917-.292,3.247-.609,2.928,1.369s-4.088,3.435-7.665,1.861S90.3,28.724,94.292,30.7" transform="translate(55.972 18.682)" fill="#ffc45c"/>
            <path id="Trazado_815183" data-name="Trazado 815183" d="M126.033,32.409a6.817,6.817,0,0,0,2.745-.612c.785-.556,2.912-1.561,3.2.421s-2.862,4.507-6.747,4.086-3.6-4.58.8-3.9" transform="translate(75.904 19.233)" fill="#ffe48f"/>
            <path id="Trazado_815184" data-name="Trazado 815184" d="M125.6,34.164a6.8,6.8,0,0,0-2.81-.13c-.9.329-3.22.74-2.98-1.25s3.945-3.6,7.584-2.167,2.271,5.366-1.794,3.547" transform="translate(74.22 18.631)" fill="#ffe48f"/>
            <path id="Trazado_815185" data-name="Trazado 815185" d="M120.349,32.32a6.8,6.8,0,0,0-2.81-.13c-.9.329-3.22.74-2.98-1.25s3.945-3.6,7.584-2.167,2.271,5.366-1.794,3.547" transform="translate(70.965 17.488)" fill="#ffe48f"/>
            <path id="Trazado_815186" data-name="Trazado 815186" d="M112.554,28.9a6.809,6.809,0,0,0,2.727-.69c.769-.577,2.867-1.641,3.213.332s-2.734,4.585-6.63,4.272-3.728-4.476.69-3.914" transform="translate(67.583 16.977)" fill="#ffe48f"/>
            <path id="Trazado_815187" data-name="Trazado 815187" d="M113.742,30.58a6.809,6.809,0,0,0,2.727-.69c.769-.577,2.867-1.641,3.213.332s-2.734,4.585-6.63,4.272-3.728-4.476.69-3.914" transform="translate(68.32 18.018)" fill="#ffe48f"/>
            <path id="Trazado_815188" data-name="Trazado 815188" d="M106.8,28.328a6.815,6.815,0,0,0,2.776.452c.936-.223,3.284-.366,2.816,1.582s-4.331,3.121-7.782,1.284-1.639-5.591,2.19-3.318" transform="translate(63.677 17.111)" fill="#ffe48f"/>
            <path id="Trazado_815189" data-name="Trazado 815189" d="M100.381,31.319a6.818,6.818,0,0,0,2.708.761c.956-.117,3.3,0,2.62,1.888s-4.655,2.614-7.878.4-1-5.74,2.549-3.051" transform="translate(59.646 18.803)" fill="#ffe48f"/>
            <path id="Trazado_815190" data-name="Trazado 815190" d="M96.429,32.113a6.815,6.815,0,0,0,2.776.452c.936-.223,3.284-.366,2.816,1.582s-4.331,3.121-7.782,1.284-1.639-5.591,2.19-3.318" transform="translate(57.251 19.456)" fill="#ffe48f"/>
            <path id="Trazado_815191" data-name="Trazado 815191" d="M128.8,32.912a3.318,3.318,0,0,1-3.775,1.6c-2.517-.73,4.106-3.364,3.775-1.6" transform="translate(77.106 20.019)" fill="#fff4d7"/>
            <path id="Trazado_815192" data-name="Trazado 815192" d="M126.243,36.17a3.317,3.317,0,0,1-4.062-.541c-1.8-1.9,5.244-.815,4.062.541" transform="translate(75.515 21.439)" fill="#fff4d7"/>
            <path id="Trazado_815193" data-name="Trazado 815193" d="M120.034,32.479a3.317,3.317,0,0,1,3.837-1.44c2.484.832-4.24,3.192-3.837,1.44" transform="translate(74.357 19.117)" fill="#fff4d7"/>
            <path id="Trazado_815194" data-name="Trazado 815194" d="M112.151,32.23a3.317,3.317,0,0,1,3.837-1.44c2.484.832-4.24,3.192-3.837,1.44" transform="translate(69.473 18.962)" fill="#fff4d7"/>
            <path id="Trazado_815195" data-name="Trazado 815195" d="M115.395,30.009a3.317,3.317,0,0,1,3.837-1.44c2.484.832-4.238,3.192-3.837,1.44" transform="translate(71.483 17.586)" fill="#fff4d7"/>
            <path id="Trazado_815196" data-name="Trazado 815196" d="M101.157,32.549a3.318,3.318,0,0,1-4.06-.559c-1.79-1.914,5.247-.792,4.06.559" transform="translate(59.976 19.187)" fill="#fff4d7"/>
            <path id="Trazado_815197" data-name="Trazado 815197" d="M97.017,33.694a3.317,3.317,0,0,1-3.978-.985c-1.577-2.094,5.3-.233,3.978.985" transform="translate(57.497 19.679)" fill="#fff4d7"/>
            <path id="Trazado_815198" data-name="Trazado 815198" d="M87.369,36.921a3.316,3.316,0,0,1-3.978-.986c-1.577-2.092,5.3-.232,3.978.986" transform="translate(51.52 21.678)" fill="#fff4d7"/>
            <path id="Trazado_815199" data-name="Trazado 815199" d="M107.67,30.074a3.316,3.316,0,0,1-3.978-.986c-1.577-2.092,5.3-.232,3.978.986" transform="translate(64.097 17.436)" fill="#fff4d7"/>
          </g>
        </g>
      </g>
    </g>
  </g>
</svg>
