<svg xmlns="http://www.w3.org/2000/svg" width="505" height="197.954" viewBox="0 0 505 197.954">
  <g id="Grupo_1072701" data-name="Grupo 1072701" transform="translate(4140 9002.477)">
    <g id="Grupo_1070036" data-name="Grupo 1070036" transform="translate(0 545.523)">
      <g id="Grupo_1070033" data-name="Grupo 1070033" transform="translate(-4845 -11523)">
        <path id="Trazado_814906" data-name="Trazado 814906" d="M0,0H505V197.954H0Z" transform="translate(705 1975)" fill="#fff"/>
      </g>
    </g>
    <g id="Grupo_1070037" data-name="Grupo 1070037" transform="translate(-2206.489 1121.898)">
      <path id="Trazado_828218" data-name="Trazado 828218" d="M8.666,9.846H1.336V8.431h7.33Zm0,3.647H1.336V12.087h7.33Z" transform="translate(-1826 -10089.199)" fill="#12263f"/>
      <path id="Trazado_828219" data-name="Trazado 828219" d="M6.407,17H4.772V6.163l-3.278,1.2V5.891L6.152,4.142h.255ZM19.2,11.542a7.436,7.436,0,0,1-.976,4.245,3.47,3.47,0,0,1-3.05,1.389,3.5,3.5,0,0,1-3.032-1.358,7.058,7.058,0,0,1-1.02-4.056V9.591A7.271,7.271,0,0,1,12.094,5.4a3.5,3.5,0,0,1,3.059-1.371A3.528,3.528,0,0,1,18.193,5.35a7.017,7.017,0,0,1,1,4.083ZM17.569,9.318a5.958,5.958,0,0,0-.58-3.01,2,2,0,0,0-1.837-.945,1.97,1.97,0,0,0-1.819.94A5.817,5.817,0,0,0,12.744,9.2v2.6a6.053,6.053,0,0,0,.6,3.063,1.993,1.993,0,0,0,1.824.989,1.966,1.966,0,0,0,1.789-.932,5.834,5.834,0,0,0,.611-2.936ZM29.3,11.542a7.436,7.436,0,0,1-.976,4.245,3.47,3.47,0,0,1-3.05,1.389,3.5,3.5,0,0,1-3.032-1.358,7.058,7.058,0,0,1-1.02-4.056V9.591A7.271,7.271,0,0,1,22.2,5.4,3.5,3.5,0,0,1,25.26,4.027,3.528,3.528,0,0,1,28.3,5.35a7.017,7.017,0,0,1,1,4.083ZM27.677,9.318a5.958,5.958,0,0,0-.58-3.01,2,2,0,0,0-1.837-.945,1.97,1.97,0,0,0-1.819.94A5.817,5.817,0,0,0,22.852,9.2v2.6a6.053,6.053,0,0,0,.6,3.063,1.993,1.993,0,0,0,1.824.989,1.966,1.966,0,0,0,1.789-.932,5.834,5.834,0,0,0,.611-2.936ZM39.2,10.962,41.309,7.49h1.9l-3.111,4.7L43.3,17H41.423l-2.2-3.56L37.028,17h-1.89l3.208-4.808-3.111-4.7h1.881ZM54.563,17H52.928V6.163l-3.278,1.2V5.891l4.658-1.749h.255Zm12.788-5.458a7.436,7.436,0,0,1-.976,4.245,4.054,4.054,0,0,1-6.082.031,7.058,7.058,0,0,1-1.02-4.056V9.591A7.271,7.271,0,0,1,60.249,5.4a4.127,4.127,0,0,1,6.1-.048,7.017,7.017,0,0,1,1,4.083ZM65.725,9.318a5.958,5.958,0,0,0-.58-3.01,2,2,0,0,0-1.837-.945,1.97,1.97,0,0,0-1.819.94A5.817,5.817,0,0,0,60.9,9.2v2.6a6.053,6.053,0,0,0,.6,3.063,1.993,1.993,0,0,0,1.824.989,1.966,1.966,0,0,0,1.789-.932,5.834,5.834,0,0,0,.611-2.936Z" transform="translate(-1903.511 -10099.199)" fill="#12263f"/>
      <path id="Trazado_828220" data-name="Trazado 828220" d="M9.448,17H1.063V15.831l4.43-4.922A10.524,10.524,0,0,0,6.851,9.094a3.029,3.029,0,0,0,.374-1.446A2.3,2.3,0,0,0,6.618,6,2.12,2.12,0,0,0,5,5.363a2.511,2.511,0,0,0-1.885.69,2.635,2.635,0,0,0-.672,1.92H.817A3.774,3.774,0,0,1,1.956,5.117,4.219,4.219,0,0,1,5,4.027a4.054,4.054,0,0,1,2.821.936A3.193,3.193,0,0,1,8.859,7.455q0,1.89-2.408,4.5L3.023,15.673H9.448Zm10.107,0H11.171V15.831l4.43-4.922a10.524,10.524,0,0,0,1.358-1.815,3.029,3.029,0,0,0,.374-1.446A2.3,2.3,0,0,0,16.726,6a2.12,2.12,0,0,0-1.617-.642,2.511,2.511,0,0,0-1.885.69,2.635,2.635,0,0,0-.672,1.92H10.925a3.774,3.774,0,0,1,1.138-2.856,4.219,4.219,0,0,1,3.045-1.09,4.054,4.054,0,0,1,2.821.936,3.193,3.193,0,0,1,1.037,2.492q0,1.89-2.408,4.5l-3.428,3.718h6.425Zm1.837,2.549-.923-.633a4.241,4.241,0,0,0,.861-2.373V15.075h1.591V16.35a4,4,0,0,1-.435,1.775A4.156,4.156,0,0,1,21.393,19.549ZM33.2,17H24.812V15.831l4.43-4.922A10.524,10.524,0,0,0,30.6,9.094a3.029,3.029,0,0,0,.374-1.446A2.3,2.3,0,0,0,30.366,6a2.12,2.12,0,0,0-1.617-.642,2.511,2.511,0,0,0-1.885.69,2.635,2.635,0,0,0-.672,1.92H24.565A3.774,3.774,0,0,1,25.7,5.117a4.219,4.219,0,0,1,3.045-1.09,4.054,4.054,0,0,1,2.821.936,3.193,3.193,0,0,1,1.037,2.492q0,1.89-2.408,4.5l-3.428,3.718H33.2Z" transform="translate(-1806.511 -10089.199)" fill="#12263f"/>
      <path id="Trazado_828221" data-name="Trazado 828221" d="M7.928,12.7H9.7v1.327H7.928V17H6.293V14.029H.466v-.958L6.2,4.2H7.928Zm-5.616,0H6.293V6.427L6.1,6.778Zm9.606-2.118.65-6.381h6.557v1.5H13.948L13.562,9.2A4.13,4.13,0,0,1,15.7,8.642,3.531,3.531,0,0,1,18.475,9.8,4.53,4.53,0,0,1,19.5,12.922a4.372,4.372,0,0,1-1.068,3.116,3.892,3.892,0,0,1-2.984,1.138,4.045,4.045,0,0,1-2.769-.94,3.754,3.754,0,0,1-1.222-2.6H13a2.582,2.582,0,0,0,.782,1.657,2.432,2.432,0,0,0,1.67.558,2.194,2.194,0,0,0,1.78-.773,3.233,3.233,0,0,0,.646-2.136,2.968,2.968,0,0,0-.7-2.061,2.377,2.377,0,0,0-1.859-.778,2.681,2.681,0,0,0-1.67.466l-.431.352Z" transform="translate(-1878 -10072.398)" fill="#12263f"/>
      <path id="Trazado_814907" data-name="Trazado 814907" d="M-1903.511-10075.2h68.648" fill="none" stroke="#12263f" stroke-width="1"/>
    </g>
    <g id="Grupo_1070038" data-name="Grupo 1070038" transform="translate(-2050.489 1171.299)">
      <path id="Trazado_828222" data-name="Trazado 828222" d="M8.666,9.846H1.336V8.431h7.33Zm0,3.647H1.336V12.087h7.33Z" transform="translate(-1826 -10089.199)" fill="#12263f"/>
      <path id="Trazado_828223" data-name="Trazado 828223" d="M6.407,17H4.772V6.163l-3.278,1.2V5.891L6.152,4.142h.255ZM19.2,11.542a7.436,7.436,0,0,1-.976,4.245,3.47,3.47,0,0,1-3.05,1.389,3.5,3.5,0,0,1-3.032-1.358,7.058,7.058,0,0,1-1.02-4.056V9.591A7.271,7.271,0,0,1,12.094,5.4a3.5,3.5,0,0,1,3.059-1.371A3.528,3.528,0,0,1,18.193,5.35a7.017,7.017,0,0,1,1,4.083ZM17.569,9.318a5.958,5.958,0,0,0-.58-3.01,2,2,0,0,0-1.837-.945,1.97,1.97,0,0,0-1.819.94A5.817,5.817,0,0,0,12.744,9.2v2.6a6.053,6.053,0,0,0,.6,3.063,1.993,1.993,0,0,0,1.824.989,1.966,1.966,0,0,0,1.789-.932,5.834,5.834,0,0,0,.611-2.936ZM29.3,11.542a7.436,7.436,0,0,1-.976,4.245,3.47,3.47,0,0,1-3.05,1.389,3.5,3.5,0,0,1-3.032-1.358,7.058,7.058,0,0,1-1.02-4.056V9.591A7.271,7.271,0,0,1,22.2,5.4,3.5,3.5,0,0,1,25.26,4.027,3.528,3.528,0,0,1,28.3,5.35a7.017,7.017,0,0,1,1,4.083ZM27.677,9.318a5.958,5.958,0,0,0-.58-3.01,2,2,0,0,0-1.837-.945,1.97,1.97,0,0,0-1.819.94A5.817,5.817,0,0,0,22.852,9.2v2.6a6.053,6.053,0,0,0,.6,3.063,1.993,1.993,0,0,0,1.824.989,1.966,1.966,0,0,0,1.789-.932,5.834,5.834,0,0,0,.611-2.936ZM39.2,10.962,41.309,7.49h1.9l-3.111,4.7L43.3,17H41.423l-2.2-3.56L37.028,17h-1.89l3.208-4.808-3.111-4.7h1.881Zm10.767-.378.65-6.381h6.557v1.5H52L51.609,9.2a4.13,4.13,0,0,1,2.136-.554A3.531,3.531,0,0,1,56.522,9.8a4.53,4.53,0,0,1,1.028,3.125,4.372,4.372,0,0,1-1.068,3.116A3.892,3.892,0,0,1,53.5,17.176a4.045,4.045,0,0,1-2.769-.94,3.754,3.754,0,0,1-1.222-2.6h1.538a2.582,2.582,0,0,0,.782,1.657,2.432,2.432,0,0,0,1.67.558,2.194,2.194,0,0,0,1.78-.773,3.233,3.233,0,0,0,.646-2.136,2.968,2.968,0,0,0-.7-2.061,2.377,2.377,0,0,0-1.859-.778,2.681,2.681,0,0,0-1.67.466l-.431.352Z" transform="translate(-1903.511 -10099.199)" fill="#12263f"/>
      <path id="Trazado_828224" data-name="Trazado 828224" d="M6.407,17H4.772V6.163l-3.278,1.2V5.891L6.152,4.142h.255Zm10.107,0H14.88V6.163L11.6,7.367V5.891L16.26,4.142h.255Zm4.878,2.549-.923-.633a4.241,4.241,0,0,0,.861-2.373V15.075h1.591V16.35a4,4,0,0,1-.435,1.775A4.156,4.156,0,0,1,21.393,19.549ZM30.155,17H28.521V6.163l-3.278,1.2V5.891L29.9,4.142h.255Z" transform="translate(-1806.511 -10089.199)" fill="#12263f"/>
      <path id="Trazado_828225" data-name="Trazado 828225" d="M7.928,12.7H9.7v1.327H7.928V17H6.293V14.029H.466v-.958L6.2,4.2H7.928Zm-5.616,0H6.293V6.427L6.1,6.778Zm9.606-2.118.65-6.381h6.557v1.5H13.948L13.562,9.2A4.13,4.13,0,0,1,15.7,8.642,3.531,3.531,0,0,1,18.475,9.8,4.53,4.53,0,0,1,19.5,12.922a4.372,4.372,0,0,1-1.068,3.116,3.892,3.892,0,0,1-2.984,1.138,4.045,4.045,0,0,1-2.769-.94,3.754,3.754,0,0,1-1.222-2.6H13a2.582,2.582,0,0,0,.782,1.657,2.432,2.432,0,0,0,1.67.558,2.194,2.194,0,0,0,1.78-.773,3.233,3.233,0,0,0,.646-2.136,2.968,2.968,0,0,0-.7-2.061,2.377,2.377,0,0,0-1.859-.778,2.681,2.681,0,0,0-1.67.466l-.431.352Z" transform="translate(-1878 -10072.398)" fill="#12263f"/>
      <path id="Trazado_814907-2" data-name="Trazado 814907" d="M-1903.511-10075.2h68.648" fill="none" stroke="#12263f" stroke-width="1"/>
    </g>
    <g id="Grupo_1070039" data-name="Grupo 1070039" transform="translate(-1895.489 1226.299)">
      <path id="Trazado_828226" data-name="Trazado 828226" d="M8.666,9.846H1.336V8.431h7.33Zm0,3.647H1.336V12.087h7.33Z" transform="translate(-1826 -10089.199)" fill="#12263f"/>
      <path id="Trazado_828227" data-name="Trazado 828227" d="M6.407,17H4.772V6.163l-3.278,1.2V5.891L6.152,4.142h.255ZM19.2,11.542a7.436,7.436,0,0,1-.976,4.245,3.47,3.47,0,0,1-3.05,1.389,3.5,3.5,0,0,1-3.032-1.358,7.058,7.058,0,0,1-1.02-4.056V9.591A7.271,7.271,0,0,1,12.094,5.4a3.5,3.5,0,0,1,3.059-1.371A3.528,3.528,0,0,1,18.193,5.35a7.017,7.017,0,0,1,1,4.083ZM17.569,9.318a5.958,5.958,0,0,0-.58-3.01,2,2,0,0,0-1.837-.945,1.97,1.97,0,0,0-1.819.94A5.817,5.817,0,0,0,12.744,9.2v2.6a6.053,6.053,0,0,0,.6,3.063,1.993,1.993,0,0,0,1.824.989,1.966,1.966,0,0,0,1.789-.932,5.834,5.834,0,0,0,.611-2.936ZM29.3,11.542a7.436,7.436,0,0,1-.976,4.245,3.47,3.47,0,0,1-3.05,1.389,3.5,3.5,0,0,1-3.032-1.358,7.058,7.058,0,0,1-1.02-4.056V9.591A7.271,7.271,0,0,1,22.2,5.4,3.5,3.5,0,0,1,25.26,4.027,3.528,3.528,0,0,1,28.3,5.35a7.017,7.017,0,0,1,1,4.083ZM27.677,9.318a5.958,5.958,0,0,0-.58-3.01,2,2,0,0,0-1.837-.945,1.97,1.97,0,0,0-1.819.94A5.817,5.817,0,0,0,22.852,9.2v2.6a6.053,6.053,0,0,0,.6,3.063,1.993,1.993,0,0,0,1.824.989,1.966,1.966,0,0,0,1.789-.932,5.834,5.834,0,0,0,.611-2.936ZM39.2,10.962,41.309,7.49h1.9l-3.111,4.7L43.3,17H41.423l-2.2-3.56L37.028,17h-1.89l3.208-4.808-3.111-4.7h1.881ZM57.6,17H49.219V15.831l4.43-4.922a10.524,10.524,0,0,0,1.358-1.815,3.029,3.029,0,0,0,.374-1.446A2.3,2.3,0,0,0,54.773,6a2.12,2.12,0,0,0-1.617-.642,2.511,2.511,0,0,0-1.885.69,2.635,2.635,0,0,0-.672,1.92H48.973a3.774,3.774,0,0,1,1.138-2.856,4.219,4.219,0,0,1,3.045-1.09,4.054,4.054,0,0,1,2.821.936,3.193,3.193,0,0,1,1.037,2.492q0,1.89-2.408,4.5l-3.428,3.718H57.6Zm2.47-6.416.65-6.381H67.28v1.5H62.1L61.717,9.2a4.13,4.13,0,0,1,2.136-.554A3.531,3.531,0,0,1,66.63,9.8a4.53,4.53,0,0,1,1.028,3.125,4.372,4.372,0,0,1-1.068,3.116,3.892,3.892,0,0,1-2.984,1.138,4.045,4.045,0,0,1-2.769-.94,3.754,3.754,0,0,1-1.222-2.6h1.538a2.582,2.582,0,0,0,.782,1.657,2.432,2.432,0,0,0,1.67.558,2.194,2.194,0,0,0,1.78-.773,3.233,3.233,0,0,0,.646-2.136,2.968,2.968,0,0,0-.7-2.061,2.377,2.377,0,0,0-1.859-.778,2.681,2.681,0,0,0-1.67.466l-.431.352Z" transform="translate(-1903.511 -10099.199)" fill="#12263f"/>
      <path id="Trazado_828228" data-name="Trazado 828228" d="M1.811,10.584,2.461,4.2H9.018v1.5H3.841L3.454,9.2A4.13,4.13,0,0,1,5.59,8.642,3.531,3.531,0,0,1,8.367,9.8,4.53,4.53,0,0,1,9.4,12.922a4.372,4.372,0,0,1-1.068,3.116,3.892,3.892,0,0,1-2.984,1.138,4.045,4.045,0,0,1-2.769-.94,3.754,3.754,0,0,1-1.222-2.6H2.892a2.582,2.582,0,0,0,.782,1.657,2.432,2.432,0,0,0,1.67.558,2.194,2.194,0,0,0,1.78-.773,3.233,3.233,0,0,0,.646-2.136,2.968,2.968,0,0,0-.7-2.061A2.377,2.377,0,0,0,5.212,10.1a2.681,2.681,0,0,0-1.67.466l-.431.352Zm10.107,0,.65-6.381h6.557v1.5H13.948L13.562,9.2A4.13,4.13,0,0,1,15.7,8.642,3.531,3.531,0,0,1,18.475,9.8,4.53,4.53,0,0,1,19.5,12.922a4.372,4.372,0,0,1-1.068,3.116,3.892,3.892,0,0,1-2.984,1.138,4.045,4.045,0,0,1-2.769-.94,3.754,3.754,0,0,1-1.222-2.6H13a2.582,2.582,0,0,0,.782,1.657,2.432,2.432,0,0,0,1.67.558,2.194,2.194,0,0,0,1.78-.773,3.233,3.233,0,0,0,.646-2.136,2.968,2.968,0,0,0-.7-2.061,2.377,2.377,0,0,0-1.859-.778,2.681,2.681,0,0,0-1.67.466l-.431.352Zm9.475,8.965-.923-.633a4.241,4.241,0,0,0,.861-2.373V15.075h1.591V16.35a4,4,0,0,1-.435,1.775A4.156,4.156,0,0,1,21.393,19.549Zm9.8-15.354v1.38h-.3A4.281,4.281,0,0,0,27.87,6.7a4.681,4.681,0,0,0-1.3,3.067,3.471,3.471,0,0,1,2.76-1.16A3.319,3.319,0,0,1,32,9.784a4.543,4.543,0,0,1,1,3.041,4.528,4.528,0,0,1-1.077,3.164,3.707,3.707,0,0,1-2.887,1.187,3.653,3.653,0,0,1-2.979-1.411,5.591,5.591,0,0,1-1.143-3.634v-.624a8.424,8.424,0,0,1,1.507-5.4A5.536,5.536,0,0,1,30.9,4.194ZM29.057,9.96a2.733,2.733,0,0,0-2.514,1.758v.6a4.2,4.2,0,0,0,.712,2.549,2.133,2.133,0,0,0,1.775.967,2.067,2.067,0,0,0,1.727-.809,3.355,3.355,0,0,0,.628-2.118,3.356,3.356,0,0,0-.637-2.131A2.042,2.042,0,0,0,29.057,9.96Z" transform="translate(-1806.511 -10089.199)" fill="#12263f"/>
      <path id="Trazado_828229" data-name="Trazado 828229" d="M7.928,12.7H9.7v1.327H7.928V17H6.293V14.029H.466v-.958L6.2,4.2H7.928Zm-5.616,0H6.293V6.427L6.1,6.778Zm9.606-2.118.65-6.381h6.557v1.5H13.948L13.562,9.2A4.13,4.13,0,0,1,15.7,8.642,3.531,3.531,0,0,1,18.475,9.8,4.53,4.53,0,0,1,19.5,12.922a4.372,4.372,0,0,1-1.068,3.116,3.892,3.892,0,0,1-2.984,1.138,4.045,4.045,0,0,1-2.769-.94,3.754,3.754,0,0,1-1.222-2.6H13a2.582,2.582,0,0,0,.782,1.657,2.432,2.432,0,0,0,1.67.558,2.194,2.194,0,0,0,1.78-.773,3.233,3.233,0,0,0,.646-2.136,2.968,2.968,0,0,0-.7-2.061,2.377,2.377,0,0,0-1.859-.778,2.681,2.681,0,0,0-1.67.466l-.431.352Z" transform="translate(-1878 -10072.398)" fill="#12263f"/>
      <path id="Trazado_814907-3" data-name="Trazado 814907" d="M-1903.511-10075.2h68.648" fill="none" stroke="#12263f" stroke-width="1"/>
    </g>
  </g>
</svg>
