<svg xmlns="http://www.w3.org/2000/svg" xmlns:xlink="http://www.w3.org/1999/xlink" width="190" height="190" viewBox="0 0 190 190">
  <defs>
    <clipPath id="clip-path">
      <rect id="Rectángulo_376700" data-name="Rectángulo 376700" width="190" height="188.609" fill="none"/>
    </clipPath>
    <clipPath id="clip-path-3">
      <rect id="Rectángulo_376681" data-name="Rectángulo 376681" width="138.109" height="79.907" fill="none"/>
    </clipPath>
    <clipPath id="clip-path-4">
      <rect id="Rectángulo_376697" data-name="Rectángulo 376697" width="45.476" height="26.341" fill="none"/>
    </clipPath>
    <clipPath id="clip-path-6">
      <rect id="Rectángulo_376698" data-name="Rectángulo 376698" width="32.974" height="19.103" fill="none"/>
    </clipPath>
  </defs>
  <g id="Grupo_1072707" data-name="Grupo 1072707" transform="translate(-285 -1029)">
    <rect id="Rectángulo_376612" data-name="Rectángulo 376612" width="190" height="190" transform="translate(285 1029)" fill="none"/>
    <g id="Grupo_1071050" data-name="Grupo 1071050" transform="translate(285 1030.391)">
      <g id="Grupo_1071049" data-name="Grupo 1071049" clip-path="url(#clip-path)">
        <g id="Grupo_1071048" data-name="Grupo 1071048">
          <g id="Grupo_1071047" data-name="Grupo 1071047" clip-path="url(#clip-path)">
            <path id="Trazado_823293" data-name="Trazado 823293" d="M162.175,105.032c-37.1-21.42-97.248-21.42-134.349,0s-37.1,56.149,0,77.57,97.249,21.42,134.349,0,37.1-56.149,0-77.57" transform="translate(0 -10.059)" fill="#3b5620" opacity="0.27"/>
            <g id="Grupo_1071001" data-name="Grupo 1071001" transform="translate(17.789 83.085)" opacity="0.1">
              <g id="Grupo_1071000" data-name="Grupo 1071000">
                <g id="Grupo_1070999" data-name="Grupo 1070999" clip-path="url(#clip-path-3)">
                  <path id="Trazado_823294" data-name="Trazado 823294" d="M123.943,93.676,107.3,103.282,82.341,117.7,59.305,131l-12.126,7-14.189,8.2-12.933,7.46,34.229,19.932,19.327-11.161,7.943-4.584,17.628-10.184,23.923-13.806,26.258-15.158,8.8-5.087Z" transform="translate(-20.056 -93.676)"/>
                </g>
              </g>
            </g>
            <path id="Trazado_823295" data-name="Trazado 823295" d="M156.218,61.023l1.29-.748-.145,51.04-1.29.749Z" transform="translate(-17.646 -6.815)" fill="#afb1b1"/>
            <path id="Trazado_823296" data-name="Trazado 823296" d="M147.186,55.8l1.295-.751,8.022,4.632-1.29.748Z" transform="translate(-16.641 -6.224)" fill="#c4c5c5"/>
            <path id="Trazado_823297" data-name="Trazado 823297" d="M155.195,60.528l-.145,51.041-8.026-4.632.144-51.038Z" transform="translate(-16.623 -6.32)" fill="#dee0df"/>
            <path id="Trazado_823298" data-name="Trazado 823298" d="M126.143,107.223c4.267-2.38,11.04-2.31,15.129.153,2.323,1.4,3.234,3.264,2.844,5.054l9.181,5.68,7.215-4.166L132.475,97.617l-13.633,7.872,5.457,3.15a8.111,8.111,0,0,1,1.844-1.416" transform="translate(-13.436 -11.037)" fill="#f3f4f4"/>
            <path id="Trazado_823299" data-name="Trazado 823299" d="M141.51,113.434a5.85,5.85,0,0,1-3.155,3.707c-4.266,2.381-11.042,2.311-15.135-.147-3.357-2.027-3.818-5.022-1.528-7.351l-5.457-3.15L95.782,118.3l5.417,3.132a8.057,8.057,0,0,1,1.939-1.517c4.267-2.381,11.042-2.308,15.136.152,2.851,1.718,3.594,4.136,2.376,6.253l8.528,5.215,21.514-12.422Z" transform="translate(-10.829 -12.04)" fill="#f3f4f4"/>
            <path id="Trazado_823300" data-name="Trazado 823300" d="M118.243,127.826a6.744,6.744,0,0,1-2.692,2.513c-4.264,2.381-11.037,2.311-15.131-.153-3.311-1.991-3.8-4.936-1.627-7.247l-5.417-3.132L74.5,130.7l5.064,2.925a9.55,9.55,0,0,1,.976-.663c4.261-2.376,11.033-2.309,15.131.155,2.671,1.6,3.505,3.832,2.6,5.853l8.9,5.379,19.6-11.312Z" transform="translate(-8.424 -13.545)" fill="#f3f4f4"/>
            <path id="Trazado_823301" data-name="Trazado 823301" d="M57.16,146.191c4.269-2.375,11.043-2.306,15.133.157,2.82,1.694,3.583,4.072,2.425,6.17l8.756,5.32,6.507-3.753,14.445-8.343-8.9-5.38a6.531,6.531,0,0,1-2.915,2.91c-4.264,2.381-11.044,2.309-15.136-.149-3.731-2.253-3.9-5.711-.654-8.107l-5.065-2.925-9.935,5.731-11.63,6.716,5.2,3a8.164,8.164,0,0,1,1.773-1.352" transform="translate(-5.674 -14.934)" fill="#f3f4f4"/>
            <path id="Trazado_823302" data-name="Trazado 823302" d="M73.369,154.1a6.8,6.8,0,0,1-2.737,2.593c-4.258,2.38-11.041,2.314-15.126-.149-3.4-2.044-3.832-5.081-1.468-7.418l-5.2-3-10.593,6.116,28.044,16.325,15.834-9.143Z" transform="translate(-4.324 -16.521)" fill="#f3f4f4"/>
            <path id="Trazado_823303" data-name="Trazado 823303" d="M69.865,165.164v2.32l85.111-49.522v-1.937Z" transform="translate(-7.899 -13.118)" fill="#dee0df"/>
            <path id="Trazado_823304" data-name="Trazado 823304" d="M66.29,169.347,38.246,153.021v2.663L66.29,171.667Z" transform="translate(-4.324 -17.301)" fill="#e3e5e5"/>
            <path id="Trazado_823305" data-name="Trazado 823305" d="M124.261,61.991c4.267-2.38,11.039-2.31,15.129.153,2.326,1.4,3.234,3.264,2.845,5.054l9.179,5.682,7.215-4.166L130.587,52.385l-13.63,7.872,5.458,3.15a8.04,8.04,0,0,1,1.846-1.416" transform="translate(-13.223 -5.923)" fill="#f3f4f4"/>
            <path id="Trazado_823306" data-name="Trazado 823306" d="M139.627,68.2a5.851,5.851,0,0,1-3.158,3.708c-4.266,2.381-11.04,2.314-15.133-.15-3.359-2.024-3.817-5.019-1.528-7.349l-5.458-3.149L93.9,73.069,99.314,76.2a8.181,8.181,0,0,1,1.94-1.516c4.268-2.379,11.04-2.308,15.134.154,2.852,1.717,3.6,4.135,2.378,6.253l8.527,5.213,21.514-12.42Z" transform="translate(-10.616 -6.926)" fill="#f3f4f4"/>
            <path id="Trazado_823307" data-name="Trazado 823307" d="M108.884,121.076h1.9a7.625,7.625,0,0,0,7.625-7.626V45.443H101.257V113.45a7.627,7.627,0,0,0,7.627,7.626" transform="translate(-11.448 -5.138)" fill="#ade9f4"/>
            <path id="Trazado_823308" data-name="Trazado 823308" d="M109.416,120.947h1.409a5.63,5.63,0,0,0,5.627-5.629V65.111H103.789v50.207a5.63,5.63,0,0,0,5.627,5.629" transform="translate(-11.735 -7.362)" fill="#784413"/>
            <path id="Trazado_823309" data-name="Trazado 823309" d="M114.7,62.092c2.42,1.457,2.334,3.781-.19,5.189a9.863,9.863,0,0,1-8.954-.09c-2.418-1.455-2.342-3.778.183-5.189a9.878,9.878,0,0,1,8.961.091" transform="translate(-11.734 -6.894)" fill="#5e320e"/>
            <path id="Trazado_823310" data-name="Trazado 823310" d="M116.359,82.595a6.8,6.8,0,0,1-2.691,2.512c-4.267,2.38-11.038,2.31-15.132-.152-3.311-1.994-3.8-4.937-1.628-7.252l-5.417-3.129L72.618,85.468,77.683,88.4a9.166,9.166,0,0,1,.978-.66c4.258-2.38,11.032-2.31,15.13.153,2.671,1.605,3.5,3.832,2.6,5.851l8.9,5.382,19.6-11.313Z" transform="translate(-8.21 -8.431)" fill="#f3f4f4"/>
            <path id="Trazado_823311" data-name="Trazado 823311" d="M85.666,133.326h1.908A7.625,7.625,0,0,0,95.2,125.7V57.694H78.04V125.7a7.628,7.628,0,0,0,7.626,7.626" transform="translate(-8.823 -6.523)" fill="#ade9f4"/>
            <path id="Trazado_823312" data-name="Trazado 823312" d="M86.2,133.2h1.406a5.635,5.635,0,0,0,5.633-5.633v-50.2H80.571v50.2A5.632,5.632,0,0,0,86.2,133.2" transform="translate(-9.109 -8.747)" fill="#784413"/>
            <path id="Trazado_823313" data-name="Trazado 823313" d="M76.984,59.353V55.382c0,1.369,1.419,2.355,3.181,3.417a12.661,12.661,0,0,0,12.37.161c1.956-1.086,3.474-2.179,3.474-3.634V59.3c0,1.452-.966,2.907-2.922,3.99a14.8,14.8,0,0,1-13.443-.134c-1.767-1.063-2.649-2.435-2.659-3.8" transform="translate(-8.704 -6.255)" fill="#7fe2f4"/>
            <path id="Trazado_823314" data-name="Trazado 823314" d="M93.363,50.829c3.643,2.189,3.514,5.676-.285,7.791a14.807,14.807,0,0,1-13.444-.137c-3.639-2.189-3.509-5.677.279-7.79a14.812,14.812,0,0,1,13.45.137" transform="translate(-8.704 -5.557)" fill="#cdf6fc"/>
            <path id="Trazado_823315" data-name="Trazado 823315" d="M86.644,58.982a12.3,12.3,0,0,1-6.135-1.49c-1.293-.78-2.012-1.734-1.986-2.678.013-.972.824-1.983,2.226-2.763a12.447,12.447,0,0,1,5.95-1.376,12.207,12.207,0,0,1,6.131,1.49c1.3.784,2.008,1.734,2,2.676-.02.976-.829,1.98-2.225,2.763a12.448,12.448,0,0,1-5.96,1.377" transform="translate(-8.878 -5.729)" fill="#7fe2f4"/>
            <path id="Trazado_823316" data-name="Trazado 823316" d="M91.48,74.342c2.419,1.46,2.336,3.781-.188,5.189a9.862,9.862,0,0,1-8.955-.091c-2.419-1.456-2.344-3.781.181-5.188a9.866,9.866,0,0,1,8.962.09" transform="translate(-9.11 -8.278)" fill="#5e320e"/>
            <path id="Trazado_823317" data-name="Trazado 823317" d="M55.278,100.959c4.269-2.374,11.042-2.306,15.132.157,2.82,1.691,3.583,4.072,2.427,6.17l8.754,5.321,6.507-3.755,14.445-8.342-8.9-5.382a6.518,6.518,0,0,1-2.912,2.911c-4.27,2.381-11.047,2.31-15.136-.149-3.733-2.252-3.9-5.712-.657-8.106L69.87,86.858,59.937,92.59,48.308,99.305l5.2,3a8.177,8.177,0,0,1,1.774-1.352" transform="translate(-5.462 -9.82)" fill="#f3f4f4"/>
            <path id="Trazado_823318" data-name="Trazado 823318" d="M62.533,146.2h1.908a7.624,7.624,0,0,0,7.624-7.625V70.571H54.91V138.58a7.625,7.625,0,0,0,7.623,7.625" transform="translate(-6.208 -7.979)" fill="#ade9f4"/>
            <path id="Trazado_823319" data-name="Trazado 823319" d="M63.071,146.074H64.48a5.631,5.631,0,0,0,5.629-5.629V90.238H57.443v50.208a5.628,5.628,0,0,0,5.628,5.629" transform="translate(-6.495 -10.202)" fill="#784413"/>
            <path id="Trazado_823320" data-name="Trazado 823320" d="M68.348,87.219c2.423,1.46,2.338,3.781-.187,5.19a9.862,9.862,0,0,1-8.952-.09c-2.421-1.455-2.346-3.777.177-5.189a9.876,9.876,0,0,1,8.963.089" transform="translate(-6.494 -9.735)" fill="#5e320e"/>
            <path id="Trazado_823321" data-name="Trazado 823321" d="M71.486,108.873a6.832,6.832,0,0,1-2.738,2.592c-4.261,2.381-11.041,2.314-15.128-.149-3.393-2.044-3.831-5.081-1.467-7.418l-5.2-3-10.593,6.115L64.4,123.332l15.835-9.139Z" transform="translate(-4.111 -11.407)" fill="#f3f4f4"/>
            <path id="Trazado_823322" data-name="Trazado 823322" d="M67.979,119.929v2.323l85.112-49.523V70.8Z" transform="translate(-7.686 -8.004)" fill="#dee0df"/>
            <path id="Trazado_823323" data-name="Trazado 823323" d="M64.4,124.112,36.364,107.787v2.662L64.4,126.434Z" transform="translate(-4.111 -12.187)" fill="#e3e5e5"/>
            <path id="Trazado_823324" data-name="Trazado 823324" d="M54.05,112.464l1.291-.749-.142,51.04-1.294.749Z" transform="translate(-6.095 -12.631)" fill="#afb1b1"/>
            <path id="Trazado_823325" data-name="Trazado 823325" d="M45.021,107.239l1.292-.746,8.024,4.632-1.291.749Z" transform="translate(-5.09 -12.04)" fill="#c4c5c5"/>
            <path id="Trazado_823326" data-name="Trazado 823326" d="M53.027,111.969l-.145,51.041-8.026-4.633L45,107.334Z" transform="translate(-5.072 -12.135)" fill="#dee0df"/>
            <path id="Trazado_823327" data-name="Trazado 823327" d="M111.46,63.707l-1.819-.052c.034-.022,5.681-3.7,5.849-7.008.126-2.475.154-4.571-3.252-7.161l1.131-1.05c2.76,2.551,3.832,5.749,3.2,8.558-.907,4.063-4.954,6.617-5.114,6.713" transform="translate(-12.396 -5.476)" fill="#492309"/>
            <path id="Trazado_823328" data-name="Trazado 823328" d="M100.2,47.1V43.131c0,1.371,1.42,2.355,3.186,3.418a12.641,12.641,0,0,0,12.367.16c1.956-1.086,3.474-2.177,3.474-3.634v3.973c.005,1.448-.968,2.9-2.923,3.99-3.789,2.112-9.814,2.053-13.439-.135-1.774-1.065-2.653-2.437-2.664-3.8" transform="translate(-11.329 -4.87)" fill="#7fe2f4"/>
            <path id="Trazado_823329" data-name="Trazado 823329" d="M116.581,38.58c3.64,2.188,3.513,5.674-.286,7.789a14.813,14.813,0,0,1-13.443-.136c-3.639-2.189-3.511-5.676.279-7.792a14.8,14.8,0,0,1,13.45.138" transform="translate(-11.329 -4.171)" fill="#cdf6fc"/>
            <path id="Trazado_823330" data-name="Trazado 823330" d="M109.859,46.733a12.227,12.227,0,0,1-6.133-1.493c-1.295-.778-2.012-1.73-1.987-2.676.012-.972.824-1.98,2.225-2.764a12.46,12.46,0,0,1,5.951-1.371,12.232,12.232,0,0,1,6.133,1.487c1.3.781,2.006,1.732,2,2.674-.024.976-.832,1.984-2.227,2.764a12.438,12.438,0,0,1-5.962,1.378" transform="translate(-11.503 -4.345)" fill="#7fe2f4"/>
            <path id="Trazado_823331" data-name="Trazado 823331" d="M111.362,42.908c-.218-.16-4.744-3.441-5.306-7.362a4.311,4.311,0,0,1,.882-3.362c3.064-3.95,8.037-14.64,2.856-20.683l-4.422-6.9,5.283,6.164c5.629,6.569.42,17.935-2.822,22.11a3.174,3.174,0,0,0-.656,2.509c.492,3.445,5.582,7.269,5.633,7.306Z" transform="translate(-11.913 -0.52)" fill="#5e310d"/>
            <path id="Trazado_823332" data-name="Trazado 823332" d="M111.077,63.993s-3.725,1.027-5.386-1.216a10.792,10.792,0,0,1-2.084-6.771s10.183,1.834,7.471,7.987" transform="translate(-11.713 -6.332)" fill="#95c501"/>
            <path id="Trazado_823333" data-name="Trazado 823333" d="M111.074,63.993a15.49,15.49,0,0,1-7.471-7.987s-.914,10.2,7.471,7.987" transform="translate(-11.71 -6.332)" fill="#b4dd0a"/>
            <path id="Trazado_823334" data-name="Trazado 823334" d="M110.895,29.686s2.095-2.025,3.327-2.073.67.1,3.167,0a9.446,9.446,0,0,0,3.441-.565,20.548,20.548,0,0,1-5.513,1.42c-3.618.513-4.713,2.867-4.713,2.867Z" transform="translate(-12.505 -3.058)" fill="#5e310d"/>
            <path id="Trazado_823335" data-name="Trazado 823335" d="M125.674,34.468a2.785,2.785,0,0,0-1.2-1.184,7.579,7.579,0,0,1-1.033-.76,1.012,1.012,0,0,1-.389-.7,3.174,3.174,0,0,1-1.344-.839,2.819,2.819,0,0,1-.52-.673c-.83-.13-1.549-1.607-1.583-1.679l.255-.122a3.577,3.577,0,0,0,1.187,1.464,1.522,1.522,0,0,1-.02-.9,1.015,1.015,0,0,1,.737-.738.6.6,0,0,1,.6.243.882.882,0,0,1,.144.786,1.454,1.454,0,0,1-.93.9.6.6,0,0,1-.067.023,2.609,2.609,0,0,0,.4.487,2.888,2.888,0,0,0,1.186.758,1.075,1.075,0,0,1,.787-.657.473.473,0,0,1,.48.136.455.455,0,0,1-.107.633,1.175,1.175,0,0,1-.907.229.863.863,0,0,0,.286.428,7.779,7.779,0,0,0,1,.734,2.966,2.966,0,0,1,1.047,1.421m-2.3-2.867a.889.889,0,0,0,.692-.158c.036-.033.148-.145.068-.25-.026-.036-.106-.047-.2-.028a.8.8,0,0,0-.561.436m-1.5-2.985a.35.35,0,0,0-.059.005.744.744,0,0,0-.517.54,1.268,1.268,0,0,0,.075.878.337.337,0,0,0,.1-.027,1.192,1.192,0,0,0,.763-.718.6.6,0,0,0-.094-.538.323.323,0,0,0-.264-.14" transform="translate(-13.523 -3.203)" fill="#b4dd0a"/>
            <path id="Trazado_823336" data-name="Trazado 823336" d="M113.044,38.6a2.973,2.973,0,0,1,.831-1.556,7.707,7.707,0,0,0,.886-.869.828.828,0,0,0,.222-.466,1.167,1.167,0,0,1-.93-.1.453.453,0,0,1-.2-.612.481.481,0,0,1,.456-.2,1.078,1.078,0,0,1,.873.539,2.963,2.963,0,0,0,1.066-.921,2.824,2.824,0,0,0,.326-.539c-.024,0-.046-.007-.069-.012a1.475,1.475,0,0,1-1.053-.765.9.9,0,0,1,.031-.8.6.6,0,0,1,.557-.326,1.007,1.007,0,0,1,.831.624,1.485,1.485,0,0,1,.111.892,3.546,3.546,0,0,0,.966-1.617l.27.083c-.023.078-.525,1.642-1.33,1.89a2.739,2.739,0,0,1-.415.737,3.194,3.194,0,0,1-1.212,1.024,1.012,1.012,0,0,1-.285.741,7.493,7.493,0,0,1-.918.9,2.772,2.772,0,0,0-1.017,1.344m1.255-3.518c-.1,0-.174.017-.2.058-.065.114.062.21.1.236a.9.9,0,0,0,.709.059.813.813,0,0,0-.616-.352m1.433-2.64a.608.608,0,0,0-.017.545,1.2,1.2,0,0,0,.859.6.429.429,0,0,0,.1.011,1.244,1.244,0,0,0-.051-.876.743.743,0,0,0-.587-.464.4.4,0,0,0-.059,0,.329.329,0,0,0-.243.177" transform="translate(-12.781 -3.605)" fill="#b4dd0a"/>
            <path id="Trazado_823337" data-name="Trazado 823337" d="M118.738,28.107s-1.652,1.385-.631,4.628,1.816,9,3.7,11.131,1.457-2.459,1.317-3.513-2.769-14.474-4.385-12.246" transform="translate(-13.316 -3.15)" fill="#95c501"/>
            <path id="Trazado_823338" data-name="Trazado 823338" d="M123.248,40.355c-.129-.966-2.344-12.29-3.958-12.483a2.915,2.915,0,0,0-.238,2.434c.706,1.693,2.591,8.123,2.584,9.817a10.047,10.047,0,0,0,1.3,4.252c.685-.412.417-3.225.311-4.02" transform="translate(-13.441 -3.151)" fill="#b4dd0a"/>
            <path id="Trazado_823339" data-name="Trazado 823339" d="M118.489,27.973s-2.042.683-2.282,4.074-1.605,9.035-.637,11.714,2.257-1.754,2.512-2.787,2.73-14.484.407-13" transform="translate(-13.028 -3.15)" fill="#95c501"/>
            <path id="Trazado_823340" data-name="Trazado 823340" d="M118.209,40.98c.234-.947,2.322-12.295.892-13.068a2.925,2.925,0,0,0-1.11,2.18c.036,1.837-.569,8.507-1.2,10.081a10.075,10.075,0,0,0-.348,4.431c.788-.132,1.572-2.844,1.764-3.624" transform="translate(-13.154 -3.156)" fill="#b4dd0a"/>
            <path id="Trazado_823341" data-name="Trazado 823341" d="M64.237,89.72l-1.818-.053c.035-.02,5.68-3.7,5.848-7.007.127-2.475.155-4.572-3.249-7.161l1.129-1.049c2.761,2.549,3.83,5.748,3.2,8.556-.907,4.063-4.952,6.617-5.114,6.714" transform="translate(-7.057 -8.417)" fill="#492309"/>
            <path id="Trazado_823342" data-name="Trazado 823342" d="M53.854,72.23V68.261c0,1.371,1.418,2.356,3.182,3.417a12.644,12.644,0,0,0,12.368.159c1.957-1.086,3.473-2.178,3.473-3.635v3.973c0,1.45-.968,2.906-2.922,3.992-3.8,2.111-9.818,2.051-13.444-.136-1.769-1.064-2.648-2.434-2.658-3.8" transform="translate(-6.089 -7.711)" fill="#7fe2f4"/>
            <path id="Trazado_823343" data-name="Trazado 823343" d="M70.237,63.708c3.639,2.187,3.51,5.674-.287,7.79A14.826,14.826,0,0,1,56.5,71.364c-3.637-2.193-3.506-5.679.278-7.794a14.817,14.817,0,0,1,13.456.138" transform="translate(-6.089 -7.012)" fill="#cdf6fc"/>
            <path id="Trazado_823344" data-name="Trazado 823344" d="M63.514,71.862a12.264,12.264,0,0,1-6.136-1.491c-1.292-.781-2.011-1.732-1.987-2.677.014-.974.824-1.981,2.229-2.765a12.438,12.438,0,0,1,5.95-1.369A12.2,12.2,0,0,1,69.7,65.047c1.3.778,2,1.73,1.993,2.673-.021.975-.828,1.982-2.226,2.764a12.453,12.453,0,0,1-5.958,1.377" transform="translate(-6.263 -7.186)" fill="#7fe2f4"/>
            <path id="Trazado_823345" data-name="Trazado 823345" d="M66.706,40.369s-.482-10.21,3.2-12.073,4.678-1.153,8.494-5.535,14.773-4.382,17.6-2.12S93.953,22.217,90.42,27.3s-4.1,5.607-12.015,9.866-11.238,5.829-11.7,3.207" transform="translate(-7.54 -2.165)" fill="#b4dd0a"/>
            <path id="Trazado_823346" data-name="Trazado 823346" d="M61.706,55.636s.316-6.7-2.1-7.921-3.07-.757-5.573-3.631-9.692-2.874-11.546-1.391,1.344,1.033,3.665,4.365,2.689,3.68,7.881,6.473,7.372,3.825,7.676,2.106" transform="translate(-4.741 -4.716)" fill="#b4dd0a"/>
            <path id="Trazado_823347" data-name="Trazado 823347" d="M64.531,54.849s2.095-2.026,3.327-2.071.672.094,3.169,0a9.466,9.466,0,0,0,3.44-.566,20.578,20.578,0,0,1-5.512,1.421c-3.618.511-4.712,2.864-4.712,2.864Z" transform="translate(-7.263 -5.903)" fill="#5e310d"/>
            <path id="Trazado_823348" data-name="Trazado 823348" d="M59.081,61.791s-2.092-2.024-3.326-2.073-.671.1-3.166,0a9.43,9.43,0,0,1-3.44-.564,20.551,20.551,0,0,0,5.513,1.421c3.617.511,4.71,2.865,4.71,2.865Z" transform="translate(-5.557 -6.688)" fill="#5e310d"/>
            <path id="Trazado_823349" data-name="Trazado 823349" d="M78.487,37.543c7.916-4.257,8.48-4.787,12.015-9.865,2.862-4.113,6.6-4.445,6.419-5.624-1.763-.254-4.765-.345-6.845,1.419a64.716,64.716,0,0,1-10.994,6.784,14.544,14.544,0,0,0-6.026,5.372c-1.01,1.88-4.686,5.311-5.643,6.189,1.33.826,4.719-.856,11.073-4.276" transform="translate(-7.622 -2.478)" fill="#95c501"/>
            <path id="Trazado_823350" data-name="Trazado 823350" d="M46.148,47.128c2.316,3.332,2.689,3.68,7.881,6.473s7.372,3.825,7.676,2.106c0,0,0-.068,0-.165a16.151,16.151,0,0,0-3.77-3.588c-2.262-1.416-6.927-4.239-8.906-6.863-1.071-1.421-3.634-2.271-5.76-2.754a3.212,3.212,0,0,0-.789.426c-1.854,1.483,1.344,1.034,3.665,4.366" transform="translate(-4.741 -4.787)" fill="#95c501"/>
            <path id="Trazado_823351" data-name="Trazado 823351" d="M65,68.072c-.22-.16-4.745-3.442-5.307-7.362a4.313,4.313,0,0,1,.883-3.364c3.064-3.948,8.036-14.636,2.856-20.681l-4.423-6.9,5.282,6.162c5.629,6.569.42,17.934-2.82,22.111a3.156,3.156,0,0,0-.656,2.51c.491,3.443,5.582,7.269,5.63,7.3Z" transform="translate(-6.672 -3.365)" fill="#5e310d"/>
            <path id="Trazado_823352" data-name="Trazado 823352" d="M63.255,67.9s-.241-5.094,1.6-6.022,2.334-.574,4.236-2.76,7.369-2.187,8.779-1.058-1.023.786-2.786,3.321-2.044,2.795-5.993,4.919-5.6,2.908-5.834,1.6" transform="translate(-7.15 -6.48)" fill="#b4dd0a"/>
            <path id="Trazado_823353" data-name="Trazado 823353" d="M69.13,66.488c3.949-2.124,4.232-2.389,5.993-4.921,1.428-2.051,3.293-2.217,3.2-2.8a4.408,4.408,0,0,0-3.415.706,32.386,32.386,0,0,1-5.481,3.385,7.227,7.227,0,0,0-3.008,2.68,18.4,18.4,0,0,1-2.814,3.087c.663.411,2.355-.427,5.522-2.133" transform="translate(-7.192 -6.636)" fill="#95c501"/>
            <path id="Trazado_823354" data-name="Trazado 823354" d="M112.951,22.093s-.283-5.989,1.883-7.079,2.74-.679,4.98-3.247,8.664-2.571,10.319-1.244-1.2.924-3.271,3.9-2.408,3.287-7.048,5.786-6.59,3.418-6.863,1.88" transform="translate(-12.769 -1.091)" fill="#b4dd0a"/>
            <path id="Trazado_823355" data-name="Trazado 823355" d="M119.863,20.437c4.64-2.5,4.973-2.807,7.048-5.786,1.676-2.413,3.869-2.608,3.764-3.3a5.184,5.184,0,0,0-4.014.831,38.011,38.011,0,0,1-6.447,3.981,8.534,8.534,0,0,0-3.537,3.149,21.4,21.4,0,0,1-3.309,3.629c.781.484,2.769-.5,6.5-2.507" transform="translate(-12.817 -1.274)" fill="#95c501"/>
            <path id="Trazado_823356" data-name="Trazado 823356" d="M109.662,11.484s-.8-6.657-3.387-7.462-3.151-.237-6.1-2.659S90.143.138,88.56,1.908s1.5.8,4.337,3.7,3.262,3.182,8.848,5.075,7.9,2.549,7.917.8" transform="translate(-9.964 0)" fill="#b4dd0a"/>
            <path id="Trazado_823357" data-name="Trazado 823357" d="M92.9,5.778c2.84,2.9,3.262,3.183,8.848,5.075s7.9,2.55,7.917.8c0,0-.008-.067-.021-.163a16.1,16.1,0,0,0-4.313-2.913C102.862,7.56,97.793,5.55,95.406,3.29c-1.292-1.223-3.958-1.638-6.135-1.761a3.194,3.194,0,0,0-.71.551c-1.581,1.77,1.5.8,4.337,3.7" transform="translate(-9.964 -0.173)" fill="#95c501"/>
            <g id="Grupo_1071043" data-name="Grupo 1071043" transform="translate(133.853 121.288)" opacity="0.1">
              <g id="Grupo_1071042" data-name="Grupo 1071042">
                <g id="Grupo_1071041" data-name="Grupo 1071041" clip-path="url(#clip-path-4)">
                  <g id="Grupo_1071040" data-name="Grupo 1071040">
                    <g id="Grupo_1071039" data-name="Grupo 1071039">
                      <g id="Grupo_1071038" data-name="Grupo 1071038" clip-path="url(#clip-path-4)">
                        <path id="Trazado_823365" data-name="Trazado 823365" d="M189.681,140.608c8.907,5.142,8.954,13.482.1,18.623s-23.248,5.145-32.155,0-8.957-13.481-.106-18.623,23.248-5.145,32.159,0" transform="translate(-150.916 -136.749)"/>
                      </g>
                    </g>
                  </g>
                </g>
              </g>
            </g>
            <path id="Trazado_823366" data-name="Trazado 823366" d="M188.268,144.115l-1.49.05.8,2.183,1.49-.049Z" transform="translate(-21.117 -16.294)" fill="#a2c4c5"/>
            <path id="Trazado_823367" data-name="Trazado 823367" d="M189.038,146.577l-1.49.049-1,.576,1.49-.046Z" transform="translate(-21.091 -16.572)" fill="#9fc0c1"/>
            <path id="Trazado_823368" data-name="Trazado 823368" d="M188.034,147.23l-1.49.046.978,2.69,1.494-.051Z" transform="translate(-21.091 -16.646)" fill="#147f91"/>
            <path id="Trazado_823369" data-name="Trazado 823369" d="M188.14,144.115l-1.49.05-1,.576,1.488-.047Z" transform="translate(-20.99 -16.294)" fill="#9fc0c1"/>
            <path id="Trazado_823370" data-name="Trazado 823370" d="M183.326,130.546l-1.489.049.8,2.194,1.489-.049Z" transform="translate(-20.559 -14.76)" fill="#a2c4c5"/>
            <path id="Trazado_823371" data-name="Trazado 823371" d="M184.1,133.021l-1.489.048-1,.579,1.49-.048Z" transform="translate(-20.533 -15.039)" fill="#9fc0c1"/>
            <path id="Trazado_823372" data-name="Trazado 823372" d="M183.1,133.673l-1.49.048,3.584,9.839,1.488-.047Z" transform="translate(-20.533 -15.113)" fill="#147f91"/>
            <path id="Trazado_823373" data-name="Trazado 823373" d="M183.2,130.546l-1.489.049-1.007.578,1.5-.046Z" transform="translate(-20.43 -14.76)" fill="#9fc0c1"/>
            <path id="Trazado_823374" data-name="Trazado 823374" d="M177.493,114.527l-1.492.049.8,2.185,1.49-.05Z" transform="translate(-19.899 -12.949)" fill="#a2c4c5"/>
            <path id="Trazado_823375" data-name="Trazado 823375" d="M177.26,117.643l-1.49.048,4.374,12.023,1.5-.046Z" transform="translate(-19.873 -13.301)" fill="#147f91"/>
            <path id="Trazado_823376" data-name="Trazado 823376" d="M178.262,116.99l-1.49.05-1,.577,1.49-.048Z" transform="translate(-19.873 -13.227)" fill="#9fc0c1"/>
            <path id="Trazado_823377" data-name="Trazado 823377" d="M177.365,114.527l-1.492.049-1,.577,1.489-.046Z" transform="translate(-19.771 -12.949)" fill="#9fc0c1"/>
            <path id="Trazado_823378" data-name="Trazado 823378" d="M169.857,93.572l-1.486.047.793,2.186,1.492-.049Z" transform="translate(-19.036 -10.579)" fill="#a2c4c5"/>
            <path id="Trazado_823379" data-name="Trazado 823379" d="M169.625,96.687l-1.491.048,5.976,16.4,1.49-.046Z" transform="translate(-19.009 -10.932)" fill="#147f91"/>
            <path id="Trazado_823380" data-name="Trazado 823380" d="M170.629,96.035l-1.492.048-1,.579,1.491-.049Z" transform="translate(-19.009 -10.858)" fill="#9fc0c1"/>
            <path id="Trazado_823381" data-name="Trazado 823381" d="M185.333,144.767l-1.489.047-14.15,8.17,1.487-.049Z" transform="translate(-19.186 -16.368)" fill="#147f91"/>
            <path id="Trazado_823382" data-name="Trazado 823382" d="M171.954,156.441l-1.492.048-1,.582,1.49-.05Z" transform="translate(-19.159 -17.687)" fill="#9fc0c1"/>
            <path id="Trazado_823383" data-name="Trazado 823383" d="M169.729,93.572l-1.486.047-1.006.579,1.493-.048Z" transform="translate(-18.908 -10.579)" fill="#9fc0c1"/>
            <path id="Trazado_823384" data-name="Trazado 823384" d="M170.242,153.443l.8,2.185,1-.58,14.148-8.17,1-.579-.8-2.184-1,.578-14.153,8.17Z" transform="translate(-19.248 -16.294)" fill="#29b2dc"/>
            <path id="Trazado_823385" data-name="Trazado 823385" d="M170.052,154.632l-1.489.047.795,2.187,1.49-.05Z" transform="translate(-19.058 -17.483)" fill="#a2c4c5"/>
            <path id="Trazado_823386" data-name="Trazado 823386" d="M171.053,153.977l-1.487.049-1,.579,1.489-.048Z" transform="translate(-19.058 -17.409)" fill="#9fc0c1"/>
            <path id="Trazado_823387" data-name="Trazado 823387" d="M180.394,131.2l-1.5.046-14.147,8.171,1.49-.049Z" transform="translate(-18.627 -14.834)" fill="#147f91"/>
            <path id="Trazado_823388" data-name="Trazado 823388" d="M164.024,77.552l-1.488.047.793,2.186,1.49-.049Z" transform="translate(-18.376 -8.768)" fill="#a2c4c5"/>
            <path id="Trazado_823389" data-name="Trazado 823389" d="M167.013,142.885l-1.49.048-1,.578,1.49-.049Z" transform="translate(-18.601 -16.155)" fill="#9fc0c1"/>
            <path id="Trazado_823390" data-name="Trazado 823390" d="M164.792,80.015l-1.49.048-1,.577,1.488-.046Z" transform="translate(-18.35 -9.047)" fill="#9fc0c1"/>
            <path id="Trazado_823391" data-name="Trazado 823391" d="M163.789,80.668l-1.489.046,4.379,12.024,1.493-.047Z" transform="translate(-18.35 -9.12)" fill="#147f91"/>
            <path id="Trazado_823392" data-name="Trazado 823392" d="M165.112,141.066l-1.49.048.8,2.192,1.49-.048Z" transform="translate(-18.499 -15.949)" fill="#a2c4c5"/>
            <path id="Trazado_823393" data-name="Trazado 823393" d="M165.3,139.876l.8,2.192,1-.578,14.153-8.17,1-.578-.8-2.2-1,.581L166.3,139.3Z" transform="translate(-18.689 -14.76)" fill="#29b2dc"/>
            <path id="Trazado_823394" data-name="Trazado 823394" d="M166.114,140.412l-1.49.048-1,.581,1.489-.049Z" transform="translate(-18.499 -15.875)" fill="#9fc0c1"/>
            <path id="Trazado_823395" data-name="Trazado 823395" d="M163.9,77.552l-1.488.047-1,.579,1.486-.05Z" transform="translate(-18.249 -8.768)" fill="#9fc0c1"/>
            <path id="Trazado_823396" data-name="Trazado 823396" d="M174.559,115.182l-1.49.046L158.917,123.4l1.49-.044Z" transform="translate(-17.967 -13.023)" fill="#147f91"/>
            <path id="Trazado_823397" data-name="Trazado 823397" d="M161.175,126.854l-1.49.047-1,.579,1.488-.047Z" transform="translate(-17.941 -14.342)" fill="#9fc0c1"/>
            <path id="Trazado_823398" data-name="Trazado 823398" d="M157.735,60.289l-1.488.051.8,2.184,1.49-.047Z" transform="translate(-17.665 -6.816)" fill="#a2c4c5"/>
            <path id="Trazado_823399" data-name="Trazado 823399" d="M158.505,62.755l-1.49.047-1,.579,1.489-.051Z" transform="translate(-17.639 -7.095)" fill="#9fc0c1"/>
            <path id="Trazado_823400" data-name="Trazado 823400" d="M157.5,63.4l-1.49.051L160.8,76.578l1.486-.05Z" transform="translate(-17.639 -7.168)" fill="#147f91"/>
            <path id="Trazado_823401" data-name="Trazado 823401" d="M159.276,125.044l-1.49.049.8,2.183,1.489-.047Z" transform="translate(-17.84 -14.138)" fill="#a2c4c5"/>
            <path id="Trazado_823402" data-name="Trazado 823402" d="M160.279,124.394l-1.49.044-1,.582,1.49-.049Z" transform="translate(-17.84 -14.064)" fill="#9fc0c1"/>
            <path id="Trazado_823403" data-name="Trazado 823403" d="M159.466,123.855l.795,2.185,1-.579,14.153-8.17,1-.578-.795-2.185-1,.58-14.152,8.17Z" transform="translate(-18.029 -12.949)" fill="#29b2dc"/>
            <path id="Trazado_823404" data-name="Trazado 823404" d="M157.607,60.289l-1.488.051-1,.577,1.49-.048Z" transform="translate(-17.538 -6.816)" fill="#9fc0c1"/>
            <path id="Trazado_823405" data-name="Trazado 823405" d="M151.9,44.269l-1.49.048.795,2.186,1.49-.051Z" transform="translate(-17.006 -5.005)" fill="#a2c4c5"/>
            <path id="Trazado_823406" data-name="Trazado 823406" d="M151.668,47.384l-1.49.048,4.381,12.025,1.49-.048Z" transform="translate(-16.979 -5.357)" fill="#147f91"/>
            <path id="Trazado_823407" data-name="Trazado 823407" d="M152.67,46.732l-1.49.05-1,.577,1.489-.048Z" transform="translate(-16.979 -5.284)" fill="#9fc0c1"/>
            <path id="Trazado_823408" data-name="Trazado 823408" d="M166.926,94.224l-1.493.047-14.149,8.17,1.49-.049Z" transform="translate(-17.104 -10.653)" fill="#147f91"/>
            <path id="Trazado_823409" data-name="Trazado 823409" d="M151.774,44.269l-1.49.048-1,.578,1.489-.047Z" transform="translate(-16.878 -5.005)" fill="#9fc0c1"/>
            <path id="Trazado_823410" data-name="Trazado 823410" d="M153.543,105.9l-1.49.05-1,.579,1.49-.049Z" transform="translate(-17.078 -11.973)" fill="#9fc0c1"/>
            <path id="Trazado_823411" data-name="Trazado 823411" d="M152.647,103.434l-1.49.048-1,.578,1.49-.046Z" transform="translate(-16.977 -11.694)" fill="#9fc0c1"/>
            <path id="Trazado_823412" data-name="Trazado 823412" d="M151.834,102.9l.8,2.185,1-.58,14.15-8.17,1-.578-.8-2.185-1,.578-14.152,8.17Z" transform="translate(-17.167 -10.579)" fill="#29b2dc"/>
            <path id="Trazado_823413" data-name="Trazado 823413" d="M151.644,104.089l-1.49.046.8,2.187,1.49-.049Z" transform="translate(-16.977 -11.768)" fill="#a2c4c5"/>
            <path id="Trazado_823414" data-name="Trazado 823414" d="M149.238,40.706l-1.492.05,1.362,3.737,1.489-.047Z" transform="translate(-16.704 -4.602)" fill="#147f91"/>
            <path id="Trazado_823415" data-name="Trazado 823415" d="M151.242,39.4l-1.49.048-2.006,1.158,1.492-.05Z" transform="translate(-16.704 -4.455)" fill="#29b2dc"/>
            <path id="Trazado_823416" data-name="Trazado 823416" d="M149.428,40.559l1.36,3.739,1-.579.795,2.185-1,.578,4.381,12.025,1-.58.8,2.187-1,.576,4.78,13.126,1-.577.795,2.185-1,.579,4.383,12.023,1-.579.8,2.185-1,.579,5.975,16.4,1-.58.8,2.185-1,.579,4.38,12.025,1-.581.8,2.194-1,.579,3.582,9.84,1-.578.8,2.184-1,.579.982,2.686,2-1.157L151.432,39.4Z" transform="translate(-16.894 -4.455)" fill="#29b2dc"/>
            <path id="Trazado_823417" data-name="Trazado 823417" d="M161.088,78.2l-1.486.05-14.153,8.17,1.49-.046Z" transform="translate(-16.445 -8.842)" fill="#147f91"/>
            <path id="Trazado_823418" data-name="Trazado 823418" d="M147.708,89.879l-1.49.047-1,.578,1.49-.046Z" transform="translate(-16.418 -10.162)" fill="#9fc0c1"/>
            <path id="Trazado_823419" data-name="Trazado 823419" d="M146,86.879l.8,2.185,1-.578,14.149-8.17,1-.579-.8-2.185-1,.577L147,86.3Z" transform="translate(-16.507 -8.768)" fill="#29b2dc"/>
            <path id="Trazado_823420" data-name="Trazado 823420" d="M145.809,88.068l-1.492.048.8,2.185,1.49-.047Z" transform="translate(-16.317 -9.957)" fill="#a2c4c5"/>
            <path id="Trazado_823421" data-name="Trazado 823421" d="M146.811,87.417l-1.49.046-1,.579,1.492-.048Z" transform="translate(-16.317 -9.883)" fill="#9fc0c1"/>
            <path id="Trazado_823422" data-name="Trazado 823422" d="M154.8,60.943l-1.49.047-14.149,8.17,1.489-.049Z" transform="translate(-15.734 -6.89)" fill="#147f91"/>
            <path id="Trazado_823423" data-name="Trazado 823423" d="M141.421,72.614l-1.492.051-1,.58,1.492-.051Z" transform="translate(-15.707 -8.21)" fill="#9fc0c1"/>
            <path id="Trazado_823424" data-name="Trazado 823424" d="M140.525,70.153l-1.49.048-1,.581,1.49-.049Z" transform="translate(-15.606 -7.932)" fill="#9fc0c1"/>
            <path id="Trazado_823425" data-name="Trazado 823425" d="M139.712,69.618l.795,2.183,1-.581,14.149-8.169,1-.576-.8-2.187-1,.58-14.15,8.17Z" transform="translate(-15.796 -6.816)" fill="#29b2dc"/>
            <path id="Trazado_823426" data-name="Trazado 823426" d="M139.523,70.807l-1.49.049.793,2.185,1.492-.051Z" transform="translate(-15.606 -8.006)" fill="#a2c4c5"/>
            <path id="Trazado_823427" data-name="Trazado 823427" d="M148.967,44.922l-1.49.047-14.152,8.172,1.493-.048Z" transform="translate(-15.074 -5.079)" fill="#147f91"/>
            <path id="Trazado_823428" data-name="Trazado 823428" d="M135.586,56.6l-1.492.051-1,.577,1.49-.049Z" transform="translate(-15.047 -6.399)" fill="#9fc0c1"/>
            <path id="Trazado_823429" data-name="Trazado 823429" d="M133.685,54.788l-1.49.047.795,2.185,1.49-.049Z" transform="translate(-14.946 -6.194)" fill="#a2c4c5"/>
            <path id="Trazado_823430" data-name="Trazado 823430" d="M134.69,54.135l-1.492.047-1,.579,1.49-.047Z" transform="translate(-14.946 -6.121)" fill="#9fc0c1"/>
            <path id="Trazado_823431" data-name="Trazado 823431" d="M133.875,53.6l.795,2.183,1-.579,14.149-8.17,1-.579-.795-2.184-1,.578L134.88,53.019Z" transform="translate(-15.136 -5.005)" fill="#29b2dc"/>
            <path id="Trazado_823432" data-name="Trazado 823432" d="M131.211,51.077,166.6,148.241l2-1.154-.977-2.69-1,.58-.8-2.185,1-.58-3.582-9.838-1,.577-.8-2.192,1-.58-4.381-12.024-1,.579-.8-2.185,1-.577-5.974-16.4-1,.58-.8-2.185,1-.58-4.38-12.022-1,.578-.8-2.185,1-.577-4.781-13.129-1,.58-.795-2.182,1-.58-4.381-12.025-1,.579-.795-2.183,1-.578-1.362-3.741Z" transform="translate(-14.835 -5.644)" fill="#29b2dc"/>
            <path id="Trazado_823433" data-name="Trazado 823433" d="M131.021,51.225l-1.489.048,35.389,97.164,1.491-.048Z" transform="translate(-14.645 -5.792)" fill="#147f91"/>
            <path id="Trazado_823434" data-name="Trazado 823434" d="M133.026,49.918l-1.49.048-2,1.159,1.489-.048Z" transform="translate(-14.645 -5.644)" fill="#29b2dc"/>
            <path id="Trazado_823435" data-name="Trazado 823435" d="M172.43,136.909s1.275,2.045-.495,2.532-1.24-.62-5.092.35-3.393-1.193-3.314-1.638,1.765-1.063,2.607-1.283,4.2-1,4.2-1l2.057.38Z" transform="translate(-18.482 -15.362)" fill="#111114"/>
            <path id="Trazado_823436" data-name="Trazado 823436" d="M176.055,130.669s-1.472.216-1.111,1.068,2.05,2.145,2.272,2.683a6.548,6.548,0,0,0,2.052,2.279c.8.137,1.613.091,1.479-2.1s-2.726-4.025-4.693-3.926" transform="translate(-19.773 -14.773)" fill="#111114"/>
            <path id="Trazado_823437" data-name="Trazado 823437" d="M182.549,88.486s2.867,4.251,1,11.419c0,0-3.208,10.823-2.636,12.949s2.529,7.24,1.242,11.615a50.5,50.5,0,0,0-1.29,5.158c-.1,1.155-2.01,1.259-2.29-.032-.6-2.74-.148-6.813-.562-8.842-1.359-6.638-2.06-10.092-1.634-14.611s-.091-14.736-.091-14.736,5.111.53,6.257-2.922" transform="translate(-19.928 -10.004)" fill="#efb185"/>
            <path id="Trazado_823438" data-name="Trazado 823438" d="M178.685,91.392s2.464,4.5-.059,11.464c0,0-4.2,10.48-3.828,12.65s1.846,7.446.156,11.679a36.549,36.549,0,0,0-1.766,5.018c-.2,1.779-2,2-2.187.7-.388-2.662.4-7.739.173-9.8-.733-6.729-1.116-10.238-.265-14.693s1.275-14.689,1.275-14.689,5.043,1.015,6.5-2.325" transform="translate(-19.268 -10.333)" fill="#efb185"/>
            <path id="Trazado_823439" data-name="Trazado 823439" d="M182.624,90.7s3.038,2.819,1.818,12.832c-1.122,9.222-.575,10.362-.575,10.362s-7.459,4.111-14.338.953c0,0-.765-2.106,0-10.419s1.913-10.283,1.913-10.283,6.212,2.709,11.182-3.446" transform="translate(-19.129 -10.255)" fill="#632bee"/>
            <path id="Trazado_823440" data-name="Trazado 823440" d="M170.365,136.528a1.633,1.633,0,0,0,2.818.491s.279,2.359-1.41,2.053-2.364-2.053-1.408-2.545" transform="translate(-19.212 -15.436)" fill="#111114"/>
            <path id="Trazado_823441" data-name="Trazado 823441" d="M159.31,61.833s-3.312-3.856-5.2-3.239-1.889,2.342-1.393,2.52,3.781.584,5.34,2.1c0,0,1.212-.288,1.256-1.381" transform="translate(-17.235 -6.617)" fill="#efb185"/>
            <path id="Trazado_823442" data-name="Trazado 823442" d="M181.651,65.993c1.064.8,1.54,3.4-2.334,4.24s-12.061,2.961-13.229,1.938c-.942-.834-1.808-2.787,2.98-4.228s9.97-3.911,12.583-1.949" transform="translate(-18.695 -7.379)" fill="#f9f9f9"/>
            <path id="Trazado_823443" data-name="Trazado 823443" d="M168.761,70.3s-1.319,2.649-3.538,1.484-7.809-9.018-7.809-9.018,2-1.127,1.667-2.294c0,0,9.636,7.221,9.68,9.828" transform="translate(-17.797 -6.837)" fill="#f9f9f9"/>
            <path id="Trazado_823444" data-name="Trazado 823444" d="M181.482,64.513s3.364,1.153,1.9,6.1-2.106,10.618-1.142,12.187a33.677,33.677,0,0,1,4.507,21.5s.131,4.405-8.775,5.294c-2.975.3-12.1-.681-10.952-5.655a50.815,50.815,0,0,0,.231-21.744c-.37-1.866-1.75-9.294,3.479-12.267S178,64.6,181.482,64.513" transform="translate(-18.86 -7.294)" fill="#e5eeff"/>
            <path id="Trazado_823445" data-name="Trazado 823445" d="M171.095,71.445c1.313-.066,3.326,1.619.9,4.717s-7.324,9.9-8.863,9.851c-1.245-.037-3.146-.978-.4-5.11s5.133-9.3,8.369-9.458" transform="translate(-18.239 -8.077)" fill="#f9f9f9"/>
            <path id="Trazado_823446" data-name="Trazado 823446" d="M152.879,76.783a17.056,17.056,0,0,0-2.531-1.043c-.534-.072-1.478-1.2-1.675-1.863s-.533-2.476.419-2.14,1.334.7,1.961.82A4.328,4.328,0,0,1,153,73.741c.258.378,1.073,1.6,1.073,1.6Z" transform="translate(-16.784 -8.106)" fill="#efb185"/>
            <path id="Trazado_823447" data-name="Trazado 823447" d="M164.111,84.346s-1.225,2.663-3.462,1.574-8.006-8.705-8.006-8.705,1.948-1.176,1.586-2.324c0,0,9.764,6.872,9.881,9.455" transform="translate(-17.258 -8.467)" fill="#f9f9f9"/>
            <path id="Trazado_823448" data-name="Trazado 823448" d="M173.4,65.619v3.049a4.2,4.2,0,0,0,4.495-.384V65.223a10.507,10.507,0,0,1-4.495.4" transform="translate(-19.605 -7.374)" fill="#efb185"/>
            <path id="Trazado_823449" data-name="Trazado 823449" d="M172.349,54.458a7.426,7.426,0,0,0-1.469,4.381c.215,2.342-.129,2.814.012,3.858a2.532,2.532,0,0,0,.533,1.539c.727.7,2.213.951,4.233.214,2.445-.9,5.02-4.248,3.971-7.271s-3.6-5.182-7.281-2.72" transform="translate(-19.317 -6.036)" fill="#efb185"/>
            <path id="Trazado_823450" data-name="Trazado 823450" d="M179.562,60.415c-.979-2.718-3.409-5.979-3.388-6.153a7.558,7.558,0,0,0-1.707-1.147,5.471,5.471,0,0,0-2.727.99,13.232,13.232,0,0,0-.509,1.628c.585.652,1.769,1.394,1.95,1.943a7.115,7.115,0,0,1-.2,4.146c-.39.869,1.175,2.145.849,2.92a.146.146,0,0,0-.01.1,6.774,6.774,0,0,0,1.887-.424,7.071,7.071,0,0,0,3.86-4" transform="translate(-19.359 -6.005)" fill="#e6a376"/>
            <path id="Trazado_823451" data-name="Trazado 823451" d="M173.445,53.092s-3.838.98-2.864,3.37,4.2,1.924,3.918,3.45-1.828,4.157-.767,4.806-1.443,2.523,1.6,4.65c3.079,2.15.338,6.823,2.729,7.013s4.48.989,5.916-1.5a10.4,10.4,0,0,0,1.132-9.081c-2.243-5.942-2.3-7.132-3.73-9.041s-4.3-4.573-7.938-3.668" transform="translate(-19.268 -5.982)" fill="#131c24"/>
            <path id="Trazado_823452" data-name="Trazado 823452" d="M120.231,137.08l-6.509,6.907-9.214-6.8,7.026-6.033Z" transform="translate(-11.816 -14.829)" fill="#29b2dc"/>
            <path id="Trazado_823453" data-name="Trazado 823453" d="M119.55,137.759l-.57.732-7.033-4.921.577-.762Z" transform="translate(-12.657 -15.015)" fill="#163759"/>
            <path id="Trazado_823454" data-name="Trazado 823454" d="M117.658,139.521l-.569.731-7.036-4.921.576-.762Z" transform="translate(-12.443 -15.215)" fill="#163759"/>
            <path id="Trazado_823455" data-name="Trazado 823455" d="M115.991,141.827l-.57.73-7.034-4.919.576-.764Z" transform="translate(-12.254 -15.475)" fill="#163759"/>
            <g id="Grupo_1071046" data-name="Grupo 1071046" transform="translate(75.727 157.009)" opacity="0.2" style="mix-blend-mode: multiply;isolation: isolate">
              <g id="Grupo_1071045" data-name="Grupo 1071045">
                <g id="Grupo_1071044" data-name="Grupo 1071044" clip-path="url(#clip-path-6)">
                  <path id="Trazado_823456" data-name="Trazado 823456" d="M90.245,179.822c-6.455,3.727-6.492,9.777-.072,13.512s16.855,3.722,23.317,0,6.491-9.78.073-13.507-16.855-3.732-23.318,0" transform="translate(-85.381 -177.023)" fill="#26868d"/>
                </g>
              </g>
            </g>
            <path id="Trazado_823457" data-name="Trazado 823457" d="M98.072,189.059s-1.691,1.24-.41,2.211,1.2-.106,4.012,1.926,3.141.128,3.214-.263-1.089-1.424-1.695-1.878-3.092-2.169-3.092-2.169l-1.793-.351Z" transform="translate(-10.988 -21.316)" fill="#111114"/>
            <path id="Trazado_823458" data-name="Trazado 823458" d="M107.983,185.556s1.177.62.632,1.233-2.358,1.2-2.7,1.591a5.712,5.712,0,0,1-2.394,1.314c-.712-.11-1.385-.387-.628-2.193s3.468-2.594,5.092-1.944" transform="translate(-11.595 -20.954)" fill="#111114"/>
            <path id="Trazado_823459" data-name="Trazado 823459" d="M97.863,146.4s-4.124,4.384-.074,10.743c0,0,2.939,9.405,2.575,11.3-.348,1.9-1.717,6.5-.294,10.238a41.952,41.952,0,0,1,1.62,4.956c.155,1.567,1.657.615,1.84-.529.378-2.328-.32-6.161-.094-7.954.741-5.886,1.126-8.96.439-12.877s-.029-12.366-.029-12.366-4.748-.57-5.982-3.511" transform="translate(-10.855 -16.553)" fill="#471bce"/>
            <path id="Trazado_823460" data-name="Trazado 823460" d="M103.129,149.678s-5.113,2.812-1.024,9l.858,10.772s-3.623,4.446-4.578,14.972c0,0,1.478,2.091,2.247.529s6.878-12.4,7.419-15.87,3.605-14.2,1.8-20.539c0,0-2.42,2.774-6.718,1.137" transform="translate(-11.124 -16.794)" fill="#632bee"/>
            <path id="Trazado_823461" data-name="Trazado 823461" d="M99.328,125.981s-2.667.915-1.508,4.833,1.673,8.414.907,9.661a26.7,26.7,0,0,0-3.571,17.035s-.1,3.492,6.955,4.193c2.358.235,9.582-.538,8.679-4.48a40.243,40.243,0,0,1-.184-17.231c.293-1.479,1.385-7.364-2.758-9.721s-5.757-4.222-8.521-4.289" transform="translate(-10.734 -14.244)" fill="#e5eeff"/>
            <path id="Trazado_823462" data-name="Trazado 823462" d="M108.007,126.711l-1.087,3.534s-3.422,1.063-5.071-2.042l1.088-3.549a12.786,12.786,0,0,0,5.07,2.056" transform="translate(-11.515 -14.094)" fill="#efb185"/>
            <path id="Trazado_823463" data-name="Trazado 823463" d="M107.983,114.582s2.748.524,3.379,2.771.9,5.444-.733,6.892c-1.743,1.541-1.241,2.786-.711,3.509s-7.8,1.816-10.143-3.853c0,0,.293-12.83,8.209-9.318" transform="translate(-11.281 -12.886)" fill="#231202"/>
            <path id="Trazado_823464" data-name="Trazado 823464" d="M110.744,134.288c-.535-1.69-3.016-2.284-3.467.117s1.572,12,5.4,14.469c0,0,2.891.741-1.932-14.586" transform="translate(-12.122 -15.015)" fill="#efb185"/>
            <path id="Trazado_823465" data-name="Trazado 823465" d="M113.372,149.394a14.657,14.657,0,0,0,5.7-6.447s2.924-1.047,2.1-5.472c0,0-.378-.6-1.275,1.725,0,0-.678,1.346-.972.15s-.752-1.875-.9-.748-.3,3.145-.3,3.145l-4.345,3.456Z" transform="translate(-12.818 -15.535)" fill="#efb185"/>
            <path id="Trazado_823466" data-name="Trazado 823466" d="M110.3,132.746a2.258,2.258,0,0,0-3.159.361c-1.3,1.25-.037,7.1.753,8.749a4.172,4.172,0,0,0,4.993-2.1s-.765-5.727-2.587-7.008" transform="translate(-12.05 -14.954)" fill="#f9f9f9"/>
          </g>
        </g>
      </g>
    </g>
  </g>
</svg>
