<svg id="Grupo_1072692" data-name="Grupo 1072692" xmlns="http://www.w3.org/2000/svg" width="262" height="146.391" viewBox="0 0 262 146.391">
  <path id="Trazado_828158" data-name="Trazado 828158" d="M0,0H262V146.391H0Z" fill="#fffad0"/>
  <g id="Grupo_1069984" data-name="Grupo 1069984" transform="translate(12 39)">
    <g id="Grupo_1072691" data-name="Grupo 1072691">
      <path id="Trazado_828159" data-name="Trazado 828159" d="M3.359,10.992V15H1.016V3.625H5.453a5.134,5.134,0,0,1,2.254.469A3.454,3.454,0,0,1,9.2,5.426a3.714,3.714,0,0,1,.523,1.965,3.266,3.266,0,0,1-1.145,2.637,4.767,4.767,0,0,1-3.168.965Zm0-1.9H5.453a2.059,2.059,0,0,0,1.418-.437,1.591,1.591,0,0,0,.488-1.25,1.876,1.876,0,0,0-.492-1.352,1.839,1.839,0,0,0-1.359-.531H3.359ZM16,15a2.507,2.507,0,0,1-.227-.758,2.732,2.732,0,0,1-2.133.914,3,3,0,0,1-2.059-.719,2.312,2.312,0,0,1-.816-1.812,2.389,2.389,0,0,1,1-2.062,4.915,4.915,0,0,1,2.879-.727H15.68V9.352a1.393,1.393,0,0,0-.3-.937,1.183,1.183,0,0,0-.949-.352,1.345,1.345,0,0,0-.895.273.929.929,0,0,0-.324.75H10.953a2.268,2.268,0,0,1,.453-1.359,3,3,0,0,1,1.281-.98,4.669,4.669,0,0,1,1.859-.355,3.689,3.689,0,0,1,2.48.785,2.747,2.747,0,0,1,.918,2.207v3.664a4.041,4.041,0,0,0,.336,1.82V15Zm-1.867-1.57a1.945,1.945,0,0,0,.922-.223,1.462,1.462,0,0,0,.625-.6V11.156h-.844q-1.7,0-1.8,1.172l-.008.133a.9.9,0,0,0,.3.7A1.153,1.153,0,0,0,14.133,13.43Zm10.125-.766a.727.727,0,0,0-.41-.652,4.659,4.659,0,0,0-1.316-.426q-3.016-.633-3.016-2.562a2.323,2.323,0,0,1,.934-1.879,3.766,3.766,0,0,1,2.441-.754,4.053,4.053,0,0,1,2.574.758,2.388,2.388,0,0,1,.965,1.969H24.172a1.092,1.092,0,0,0-.312-.8A1.322,1.322,0,0,0,22.883,8,1.351,1.351,0,0,0,22,8.258a.814.814,0,0,0-.312.656.7.7,0,0,0,.355.605,3.657,3.657,0,0,0,1.2.4,9.8,9.8,0,0,1,1.422.379,2.336,2.336,0,0,1,1.789,2.273,2.2,2.2,0,0,1-.992,1.871,4.28,4.28,0,0,1-2.562.715,4.47,4.47,0,0,1-1.887-.379,3.166,3.166,0,0,1-1.293-1.039,2.414,2.414,0,0,1-.469-1.426h2.141a1.179,1.179,0,0,0,.445.922,1.766,1.766,0,0,0,1.109.32,1.635,1.635,0,0,0,.98-.246A.766.766,0,0,0,24.258,12.664Zm6.352-8.2V6.547h1.445V8.2H30.609v4.219a1.007,1.007,0,0,0,.18.672.9.9,0,0,0,.688.2,3.6,3.6,0,0,0,.664-.055v1.711a4.648,4.648,0,0,1-1.367.2,2.156,2.156,0,0,1-2.422-2.4V8.2H27.117V6.547h1.234V4.469ZM38.211,15a2.507,2.507,0,0,1-.227-.758,2.732,2.732,0,0,1-2.133.914,3,3,0,0,1-2.059-.719,2.312,2.312,0,0,1-.816-1.812,2.389,2.389,0,0,1,1-2.062,4.915,4.915,0,0,1,2.879-.727h1.039V9.352a1.393,1.393,0,0,0-.3-.937,1.183,1.183,0,0,0-.949-.352,1.345,1.345,0,0,0-.895.273.929.929,0,0,0-.324.75H33.164a2.268,2.268,0,0,1,.453-1.359,3,3,0,0,1,1.281-.98,4.669,4.669,0,0,1,1.859-.355,3.689,3.689,0,0,1,2.48.785,2.747,2.747,0,0,1,.918,2.207v3.664a4.041,4.041,0,0,0,.336,1.82V15Zm-1.867-1.57a1.945,1.945,0,0,0,.922-.223,1.462,1.462,0,0,0,.625-.6V11.156h-.844q-1.7,0-1.8,1.172l-.008.133a.9.9,0,0,0,.3.7A1.153,1.153,0,0,0,36.344,13.43Zm9.18-2.719a5.094,5.094,0,0,1,.887-3.148,2.877,2.877,0,0,1,2.426-1.172,2.589,2.589,0,0,1,2.039.922V3h2.266V15H51.1l-.109-.9a2.657,2.657,0,0,1-2.172,1.055,2.869,2.869,0,0,1-2.395-1.176A5.258,5.258,0,0,1,45.523,10.711Zm2.258.168A3.337,3.337,0,0,0,48.2,12.7a1.349,1.349,0,0,0,1.2.634,1.511,1.511,0,0,0,1.477-.884V9.111a1.489,1.489,0,0,0-1.461-.884Q47.781,8.227,47.781,10.879Zm11,4.277a4.15,4.15,0,0,1-3.027-1.141,4.054,4.054,0,0,1-1.168-3.039v-.219a5.106,5.106,0,0,1,.492-2.277,3.612,3.612,0,0,1,1.395-1.547,3.914,3.914,0,0,1,2.059-.543,3.508,3.508,0,0,1,2.73,1.094,4.444,4.444,0,0,1,1,3.1v.922H56.875a2.1,2.1,0,0,0,.66,1.328,2,2,0,0,0,1.395.5,2.437,2.437,0,0,0,2.039-.945l1.109,1.242A3.389,3.389,0,0,1,60.7,14.754,4.511,4.511,0,0,1,58.781,15.156Zm-.258-6.945a1.411,1.411,0,0,0-1.09.455,2.357,2.357,0,0,0-.535,1.3h3.141V9.788a1.681,1.681,0,0,0-.406-1.165A1.456,1.456,0,0,0,58.523,8.211ZM72.1,12.664a.727.727,0,0,0-.41-.652,4.659,4.659,0,0,0-1.316-.426q-3.016-.633-3.016-2.562a2.323,2.323,0,0,1,.934-1.879,3.766,3.766,0,0,1,2.441-.754,4.053,4.053,0,0,1,2.574.758,2.388,2.388,0,0,1,.965,1.969H72.016a1.092,1.092,0,0,0-.312-.8A1.322,1.322,0,0,0,70.727,8a1.351,1.351,0,0,0-.883.258.814.814,0,0,0-.312.656.7.7,0,0,0,.355.605,3.657,3.657,0,0,0,1.2.4,9.8,9.8,0,0,1,1.422.379A2.336,2.336,0,0,1,74.3,12.57a2.2,2.2,0,0,1-.992,1.871,4.28,4.28,0,0,1-2.562.715,4.47,4.47,0,0,1-1.887-.379,3.166,3.166,0,0,1-1.293-1.039,2.414,2.414,0,0,1-.469-1.426h2.141a1.179,1.179,0,0,0,.445.922,1.766,1.766,0,0,0,1.109.32,1.635,1.635,0,0,0,.98-.246A.766.766,0,0,0,72.1,12.664ZM75.4,10.7a5.013,5.013,0,0,1,.484-2.242A3.546,3.546,0,0,1,77.277,6.93a4.069,4.069,0,0,1,2.113-.539,3.849,3.849,0,0,1,2.793,1.047,4.2,4.2,0,0,1,1.207,2.844l.016.578A4.418,4.418,0,0,1,82.32,13.98a4.209,4.209,0,0,1-5.832,0A4.5,4.5,0,0,1,75.4,10.8Zm2.258.16a3.16,3.16,0,0,0,.453,1.843,1.628,1.628,0,0,0,2.578.008,3.457,3.457,0,0,0,.461-2.015,3.128,3.128,0,0,0-.461-1.831,1.5,1.5,0,0,0-1.3-.649,1.474,1.474,0,0,0-1.281.646A3.516,3.516,0,0,0,77.656,10.856Zm10.18.949L89.4,6.547H91.82l-3.4,9.766-.187.445a2.577,2.577,0,0,1-2.5,1.656,3.552,3.552,0,0,1-1-.148V16.555l.344.008a1.857,1.857,0,0,0,.957-.2,1.283,1.283,0,0,0,.5-.648l.266-.7L83.836,6.547h2.43ZM97.492,15a2.507,2.507,0,0,1-.227-.758,2.732,2.732,0,0,1-2.133.914,3,3,0,0,1-2.059-.719,2.312,2.312,0,0,1-.816-1.812,2.389,2.389,0,0,1,1-2.062,4.915,4.915,0,0,1,2.879-.727h1.039V9.352a1.393,1.393,0,0,0-.3-.937,1.183,1.183,0,0,0-.949-.352,1.345,1.345,0,0,0-.895.273.929.929,0,0,0-.324.75H92.445A2.268,2.268,0,0,1,92.9,7.727a3,3,0,0,1,1.281-.98,4.669,4.669,0,0,1,1.859-.355,3.689,3.689,0,0,1,2.48.785,2.747,2.747,0,0,1,.918,2.207v3.664a4.041,4.041,0,0,0,.336,1.82V15Zm-1.867-1.57a1.945,1.945,0,0,0,.922-.223,1.462,1.462,0,0,0,.625-.6V11.156h-.844q-1.7,0-1.8,1.172l-.008.133a.9.9,0,0,0,.3.7A1.153,1.153,0,0,0,95.625,13.43ZM6.914,60.016A1.2,1.2,0,0,0,6.445,59a6.148,6.148,0,0,0-1.687-.75,11.963,11.963,0,0,1-1.93-.777,3.153,3.153,0,0,1-1.937-2.82A2.747,2.747,0,0,1,1.41,53,3.389,3.389,0,0,1,2.9,51.875a5.616,5.616,0,0,1,2.184-.406,5.112,5.112,0,0,1,2.172.441,3.458,3.458,0,0,1,1.48,1.246,3.261,3.261,0,0,1,.527,1.828H6.922A1.534,1.534,0,0,0,6.43,53.77a2.023,2.023,0,0,0-1.383-.434,2.162,2.162,0,0,0-1.336.363,1.146,1.146,0,0,0-.477.957,1.1,1.1,0,0,0,.559.93,6.311,6.311,0,0,0,1.645.7,7.106,7.106,0,0,1,2.914,1.492A2.972,2.972,0,0,1,9.266,60a2.737,2.737,0,0,1-1.117,2.316,4.891,4.891,0,0,1-3.008.84,5.808,5.808,0,0,1-2.391-.48,3.783,3.783,0,0,1-1.645-1.316,3.371,3.371,0,0,1-.566-1.937H2.891q0,1.883,2.25,1.883a2.189,2.189,0,0,0,1.3-.34A1.106,1.106,0,0,0,6.914,60.016Zm3.438-1.32a5.013,5.013,0,0,1,.484-2.242A3.546,3.546,0,0,1,12.23,54.93a4.069,4.069,0,0,1,2.113-.539,3.849,3.849,0,0,1,2.793,1.047,4.2,4.2,0,0,1,1.207,2.844l.016.578a4.418,4.418,0,0,1-1.086,3.121,3.775,3.775,0,0,1-2.914,1.176,3.793,3.793,0,0,1-2.918-1.172,4.5,4.5,0,0,1-1.09-3.187Zm2.258.16a3.16,3.16,0,0,0,.453,1.843,1.628,1.628,0,0,0,2.578.008,3.457,3.457,0,0,0,.461-2.015,3.128,3.128,0,0,0-.461-1.831,1.5,1.5,0,0,0-1.3-.649,1.474,1.474,0,0,0-1.281.646A3.516,3.516,0,0,0,12.609,58.856ZM24.5,56.664a6.134,6.134,0,0,0-.812-.062,1.654,1.654,0,0,0-1.68.867V63H19.75V54.547h2.133l.063,1.008a2.092,2.092,0,0,1,1.883-1.164,2.366,2.366,0,0,1,.7.1Zm.609,2.047a4.954,4.954,0,0,1,.926-3.133,3,3,0,0,1,2.5-1.187,2.631,2.631,0,0,1,2.164.953l.094-.8h2.047v8.172a3.613,3.613,0,0,1-.5,1.93,3.236,3.236,0,0,1-1.418,1.25,4.985,4.985,0,0,1-2.141.43,4.635,4.635,0,0,1-1.812-.371A3.217,3.217,0,0,1,25.625,65l1-1.375a2.645,2.645,0,0,0,2.047.945,1.936,1.936,0,0,0,1.4-.48,1.8,1.8,0,0,0,.5-1.363v-.453a2.612,2.612,0,0,1-2.055.883,2.992,2.992,0,0,1-2.465-1.191,4.953,4.953,0,0,1-.941-3.16Zm2.258.168a3.085,3.085,0,0,0,.461,1.8,1.466,1.466,0,0,0,1.266.653,1.568,1.568,0,0,0,1.477-.775V57a1.564,1.564,0,0,0-1.461-.775,1.476,1.476,0,0,0-1.277.665A3.477,3.477,0,0,0,27.367,58.879Zm6.852-.184a5.013,5.013,0,0,1,.484-2.242A3.546,3.546,0,0,1,36.1,54.93a4.069,4.069,0,0,1,2.113-.539A3.849,3.849,0,0,1,41,55.438a4.2,4.2,0,0,1,1.207,2.844l.016.578a4.418,4.418,0,0,1-1.086,3.121,4.209,4.209,0,0,1-5.832,0,4.5,4.5,0,0,1-1.09-3.187Zm2.258.16A3.16,3.16,0,0,0,36.93,60.7a1.628,1.628,0,0,0,2.578.008,3.457,3.457,0,0,0,.461-2.015,3.128,3.128,0,0,0-.461-1.831,1.5,1.5,0,0,0-1.3-.649,1.474,1.474,0,0,0-1.281.646A3.516,3.516,0,0,0,36.477,58.856Z" transform="translate(0 0.5)" fill="#12263f"/>
      <path id="Trazado_828160" data-name="Trazado 828160" d="M7.487,11.941H9.164v1.253H7.487V16H5.943V13.194H.44v-.9L5.852,3.914H7.487Zm-5.3,0h3.76V6.014l-.183.332Zm15.946-1.1a7.023,7.023,0,0,1-.921,4.009,3.277,3.277,0,0,1-2.88,1.312,3.3,3.3,0,0,1-2.864-1.282,6.666,6.666,0,0,1-.963-3.831V9a6.867,6.867,0,0,1,.921-3.959,3.3,3.3,0,0,1,2.889-1.295A3.332,3.332,0,0,1,17.183,5a6.627,6.627,0,0,1,.946,3.856Zm-1.536-2.1A5.627,5.627,0,0,0,16.045,5.9a1.886,1.886,0,0,0-1.735-.892,1.861,1.861,0,0,0-1.718.888,5.494,5.494,0,0,0-.556,2.731v2.457a5.717,5.717,0,0,0,.569,2.893,1.882,1.882,0,0,0,1.722.934,1.856,1.856,0,0,0,1.689-.88,5.51,5.51,0,0,0,.577-2.772Zm7.579-2.507a2.452,2.452,0,0,1,.693-1.793,2.6,2.6,0,0,1,3.569,0,2.537,2.537,0,0,1,.685,1.839v.589a2.421,2.421,0,0,1-.693,1.789,2.389,2.389,0,0,1-1.764.693,2.442,2.442,0,0,1-1.785-.693,2.472,2.472,0,0,1-.706-1.847Zm1.146.636a1.571,1.571,0,0,0,.365,1.069,1.232,1.232,0,0,0,.979.42,1.208,1.208,0,0,0,.95-.408,1.622,1.622,0,0,0,.361-1.115V6.233a1.61,1.61,0,0,0-.357-1.073,1.324,1.324,0,0,0-1.942,0,1.661,1.661,0,0,0-.357,1.107Zm4.74,6.163a2.438,2.438,0,0,1,.693-1.789,2.622,2.622,0,0,1,3.565,0,2.5,2.5,0,0,1,.7,1.851v.589a2.438,2.438,0,0,1-.693,1.789,2.385,2.385,0,0,1-1.772.7,2.442,2.442,0,0,1-1.785-.693,2.472,2.472,0,0,1-.706-1.847Zm1.146.644a1.583,1.583,0,0,0,.365,1.077,1.232,1.232,0,0,0,.979.42,1.2,1.2,0,0,0,.955-.412,1.65,1.65,0,0,0,.357-1.119v-.616a1.578,1.578,0,0,0-.361-1.073,1.327,1.327,0,0,0-1.926,0,1.6,1.6,0,0,0-.369,1.111Zm-4.192,1.406-.872-.548,5.9-9.446.872.548ZM6.051,64H4.507V53.765L1.411,54.9V53.508l4.4-1.652h.241Zm12.078-5.155a7.023,7.023,0,0,1-.921,4.009,3.277,3.277,0,0,1-2.88,1.312,3.3,3.3,0,0,1-2.864-1.282,6.666,6.666,0,0,1-.963-3.831V57a6.867,6.867,0,0,1,.921-3.959,3.3,3.3,0,0,1,2.889-1.295A3.332,3.332,0,0,1,17.183,53a6.627,6.627,0,0,1,.946,3.856Zm-1.536-2.1a5.627,5.627,0,0,0-.548-2.843,1.886,1.886,0,0,0-1.735-.892,1.861,1.861,0,0,0-1.718.888,5.494,5.494,0,0,0-.556,2.731v2.457a5.717,5.717,0,0,0,.569,2.893,1.882,1.882,0,0,0,1.722.934,1.856,1.856,0,0,0,1.689-.88,5.51,5.51,0,0,0,.577-2.772Zm7.579-2.507a2.452,2.452,0,0,1,.693-1.793,2.6,2.6,0,0,1,3.569,0,2.537,2.537,0,0,1,.685,1.839v.589a2.421,2.421,0,0,1-.693,1.789,2.389,2.389,0,0,1-1.764.693,2.442,2.442,0,0,1-1.785-.693,2.472,2.472,0,0,1-.706-1.847Zm1.146.636a1.571,1.571,0,0,0,.365,1.069,1.232,1.232,0,0,0,.979.42,1.208,1.208,0,0,0,.95-.408,1.622,1.622,0,0,0,.361-1.115v-.607a1.61,1.61,0,0,0-.357-1.073,1.324,1.324,0,0,0-1.942,0,1.661,1.661,0,0,0-.357,1.107Zm4.74,6.163a2.438,2.438,0,0,1,.693-1.789,2.622,2.622,0,0,1,3.565,0,2.5,2.5,0,0,1,.7,1.851v.589a2.438,2.438,0,0,1-.693,1.789,2.385,2.385,0,0,1-1.772.7,2.442,2.442,0,0,1-1.785-.693,2.472,2.472,0,0,1-.706-1.847Zm1.146.644a1.583,1.583,0,0,0,.365,1.077,1.232,1.232,0,0,0,.979.42,1.2,1.2,0,0,0,.955-.412,1.65,1.65,0,0,0,.357-1.119v-.616a1.578,1.578,0,0,0-.361-1.073,1.327,1.327,0,0,0-1.926,0,1.6,1.6,0,0,0-.369,1.111Zm-4.192,1.406-.872-.548,5.9-9.446.872.548Z" transform="translate(117)" fill="#12263f"/>
      <path id="Trazado_828161" data-name="Trazado 828161" d="M8.807,4.777,3.8,16H2.191L7.18,5.176H.639V3.914H8.807ZM8.923,64H1V62.9l4.184-4.648A9.939,9.939,0,0,0,6.47,56.533a2.861,2.861,0,0,0,.353-1.365,2.169,2.169,0,0,0-.573-1.552,2,2,0,0,0-1.527-.606,2.372,2.372,0,0,0-1.781.652,2.489,2.489,0,0,0-.635,1.814H.772a3.565,3.565,0,0,1,1.075-2.7,3.985,3.985,0,0,1,2.876-1.029,3.829,3.829,0,0,1,2.665.884,3.015,3.015,0,0,1,.979,2.353q0,1.785-2.274,4.25L2.855,62.747H8.923Zm3.86-6.79h1.154a2.536,2.536,0,0,0,1.71-.573,1.914,1.914,0,0,0,.623-1.5,1.875,1.875,0,0,0-2.117-2.125,2.2,2.2,0,0,0-1.59.569,1.99,1.99,0,0,0-.594,1.507H10.434a3.083,3.083,0,0,1,1.05-2.386,3.825,3.825,0,0,1,2.669-.95,3.78,3.78,0,0,1,2.681.9,3.269,3.269,0,0,1,.971,2.515,2.653,2.653,0,0,1-.51,1.527,3.082,3.082,0,0,1-1.39,1.1,2.97,2.97,0,0,1,1.54,1.046,2.9,2.9,0,0,1,.544,1.785,3.3,3.3,0,0,1-1.062,2.582,3.979,3.979,0,0,1-2.764.955,4.084,4.084,0,0,1-2.768-.921,3.056,3.056,0,0,1-1.067-2.432H11.87a1.975,1.975,0,0,0,.623,1.527,2.368,2.368,0,0,0,1.668.573,2.324,2.324,0,0,0,1.7-.581,2.239,2.239,0,0,0,.589-1.668,2.032,2.032,0,0,0-.647-1.619,2.821,2.821,0,0,0-1.868-.581H12.783Z" transform="translate(217)" fill="#12263f"/>
      <path id="Trazado_828162" data-name="Trazado 828162" d="M6.051,16H4.507V5.765L1.411,6.9V5.508l4.4-1.652h.241Zm12.3-11.223L13.348,16h-1.61L16.726,5.176H10.185V3.914h8.168Z" transform="translate(172.837 24)" fill="#12263f"/>
      <g id="Grupo_1069977" data-name="Grupo 1069977" transform="translate(154.191 8.5)">
        <path id="Trazado_814904" data-name="Trazado 814904" d="M-2746.127-10413.115l13.077,10.835" transform="translate(2746.127 10413.115)" fill="none" stroke="#3b5620" stroke-width="2"/>
        <path id="Polígono_11" data-name="Polígono 11" d="M3.8,0,7.6,6.081H0Z" transform="translate(17.914 10.578) rotate(135)" fill="#3b5620"/>
      </g>
      <g id="Grupo_1069983" data-name="Grupo 1069983" transform="translate(194.569 43.5)">
        <path id="Trazado_814904-2" data-name="Trazado 814904" d="M-2746.127-10413.115l13.077,10.835" transform="translate(2746.127 10413.115)" fill="none" stroke="#3b5620" stroke-width="2"/>
        <path id="Polígono_11-2" data-name="Polígono 11" d="M3.8,0,7.6,6.081H0Z" transform="translate(17.914 10.578) rotate(135)" fill="#3b5620"/>
      </g>
      <g id="Grupo_1069981" data-name="Grupo 1069981" transform="translate(154.191 41.5)">
        <path id="Trazado_814904-3" data-name="Trazado 814904" d="M-2746.127-10402.28l13.076-10.835" transform="translate(2746.127 10418.232)" fill="none" stroke="#3b5620" stroke-width="2"/>
        <path id="Polígono_11-3" data-name="Polígono 11" d="M3.8,0,7.6,6.081H0Z" transform="translate(12.539 0) rotate(45)" fill="#3b5620"/>
      </g>
      <g id="Grupo_1069982" data-name="Grupo 1069982" transform="translate(194.569 8.5)">
        <path id="Trazado_814904-4" data-name="Trazado 814904" d="M-2746.127-10402.28l13.076-10.835" transform="translate(2746.127 10418.232)" fill="none" stroke="#3b5620" stroke-width="2"/>
        <path id="Polígono_11-4" data-name="Polígono 11" d="M3.8,0,7.6,6.081H0Z" transform="translate(12.539 0) rotate(45)" fill="#3b5620"/>
      </g>
    </g>
  </g>
</svg>
