<svg xmlns="http://www.w3.org/2000/svg" xmlns:xlink="http://www.w3.org/1999/xlink" width="275.255" height="241.008" viewBox="0 0 275.255 241.008">
  <defs>
    <clipPath id="clip-path">
      <rect id="Rectángulo_376137" data-name="Rectángulo 376137" width="275.255" height="224.018" fill="none"/>
    </clipPath>
    <clipPath id="clip-path-3">
      <rect id="Rectángulo_376019" data-name="Rectángulo 376019" width="259.515" height="221.374" fill="#dbf9bd"/>
    </clipPath>
    <clipPath id="clip-path-7">
      <rect id="Rectángulo_376117" data-name="Rectángulo 376117" width="27.377" height="10.547" fill="none"/>
    </clipPath>
  </defs>
  <g id="Grupo_1072694" data-name="Grupo 1072694" transform="translate(-285 -2327.566)">
    <rect id="Rectángulo_376018" data-name="Rectángulo 376018" width="275" height="230" rx="16" transform="translate(285.127 2327.566)" fill="none"/>
    <g id="Grupo_1070236" data-name="Grupo 1070236" transform="translate(285 2344.557)">
      <g id="Grupo_1070235" data-name="Grupo 1070235" clip-path="url(#clip-path)">
        <g id="Grupo_1070221" data-name="Grupo 1070221">
          <g id="Grupo_1070220" data-name="Grupo 1070220" clip-path="url(#clip-path)">
            <path id="Trazado_815291" data-name="Trazado 815291" d="M13.138,117.611S9.594,142.231,24.322,169.7c12.83,23.931,36.052,40.614,63.649,47.681,18.215,4.664,36.986,4.445,55.464,3.292,23.771-1.483,50.2-.093,72.142-9.05,34.162-13.943,55.036-50.449,56.62-84.336,1.024-21.893-7.4-47.036-29.784-58.574-8.29-4.272-17.5-7.446-24.756-13.287-8.7-7-12.5-17.157-18.99-25.632-8.024-10.472-19.517-16.438-31.99-21.263C126.138-7.148,87.454-.11,55.869,20.606s-44.618,84.936-42.73,97.005" transform="translate(-5.549 0)" fill="#92e3a9"/>
            <g id="Grupo_1070219" data-name="Grupo 1070219" transform="translate(7.215)" opacity="0.7">
              <g id="Grupo_1070218" data-name="Grupo 1070218">
                <g id="Grupo_1070217" data-name="Grupo 1070217" clip-path="url(#clip-path-3)">
                  <path id="Trazado_815292" data-name="Trazado 815292" d="M13.138,117.611S9.594,142.231,24.322,169.7c12.83,23.931,36.052,40.614,63.649,47.681,18.215,4.664,36.986,4.445,55.464,3.292,23.771-1.483,50.2-.093,72.142-9.05,34.162-13.943,55.036-50.449,56.62-84.336,1.024-21.893-7.4-47.036-29.784-58.574-8.29-4.272-17.5-7.446-24.756-13.287-8.7-7-12.5-17.157-18.99-25.632-8.024-10.472-19.517-16.438-31.99-21.263C126.138-7.148,87.454-.11,55.869,20.606s-44.618,84.936-42.73,97.005" transform="translate(-12.764 0)" fill="#dbf9bd"/>
                </g>
              </g>
            </g>
          </g>
        </g>
        <rect id="Rectángulo_376021" data-name="Rectángulo 376021" width="86.65" height="99.327" transform="translate(40.719 48.9)" fill="#bdbdbd"/>
        <rect id="Rectángulo_376022" data-name="Rectángulo 376022" width="78.833" height="94.072" transform="translate(44.627 54.154)" fill="#dbdbdb"/>
        <rect id="Rectángulo_376023" data-name="Rectángulo 376023" width="78.833" height="5.255" transform="translate(44.627 70.301)" fill="#bdbdbd"/>
        <rect id="Rectángulo_376024" data-name="Rectángulo 376024" width="5.674" height="1.773" transform="translate(103.357 1.138)" fill="#bdbdbd"/>
        <rect id="Rectángulo_376025" data-name="Rectángulo 376025" width="5.674" height="1.773" transform="translate(103.357 3.62)" fill="#bdbdbd"/>
        <rect id="Rectángulo_376026" data-name="Rectángulo 376026" width="5.674" height="1.773" transform="translate(103.357 6.103)" fill="#bdbdbd"/>
        <rect id="Rectángulo_376027" data-name="Rectángulo 376027" width="5.674" height="1.773" transform="translate(103.357 8.585)" fill="#bdbdbd"/>
        <rect id="Rectángulo_376028" data-name="Rectángulo 376028" width="5.674" height="1.773" transform="translate(103.357 11.067)" fill="#bdbdbd"/>
        <rect id="Rectángulo_376029" data-name="Rectángulo 376029" width="5.674" height="1.773" transform="translate(103.357 13.55)" fill="#bdbdbd"/>
        <rect id="Rectángulo_376030" data-name="Rectángulo 376030" width="5.674" height="1.773" transform="translate(103.357 16.032)" fill="#bdbdbd"/>
        <rect id="Rectángulo_376031" data-name="Rectángulo 376031" width="5.674" height="1.773" transform="translate(103.357 18.514)" fill="#bdbdbd"/>
        <rect id="Rectángulo_376032" data-name="Rectángulo 376032" width="5.674" height="1.773" transform="translate(103.357 20.997)" fill="#bdbdbd"/>
        <rect id="Rectángulo_376033" data-name="Rectángulo 376033" width="5.674" height="1.773" transform="translate(103.357 23.479)" fill="#bdbdbd"/>
        <rect id="Rectángulo_376034" data-name="Rectángulo 376034" width="5.674" height="1.773" transform="translate(103.357 25.962)" fill="#bdbdbd"/>
        <rect id="Rectángulo_376035" data-name="Rectángulo 376035" width="5.674" height="1.773" transform="translate(103.357 28.444)" fill="#bdbdbd"/>
        <rect id="Rectángulo_376036" data-name="Rectángulo 376036" width="5.674" height="1.773" transform="translate(103.357 30.927)" fill="#bdbdbd"/>
        <rect id="Rectángulo_376037" data-name="Rectángulo 376037" width="5.674" height="1.773" transform="translate(103.357 33.409)" fill="#bdbdbd"/>
        <rect id="Rectángulo_376038" data-name="Rectángulo 376038" width="5.674" height="1.773" transform="translate(103.357 35.891)" fill="#bdbdbd"/>
        <rect id="Rectángulo_376039" data-name="Rectángulo 376039" width="5.674" height="1.773" transform="translate(103.357 38.374)" fill="#bdbdbd"/>
        <rect id="Rectángulo_376040" data-name="Rectángulo 376040" width="5.674" height="1.773" transform="translate(103.357 40.856)" fill="#bdbdbd"/>
        <rect id="Rectángulo_376041" data-name="Rectángulo 376041" width="5.674" height="1.773" transform="translate(103.357 43.339)" fill="#bdbdbd"/>
        <rect id="Rectángulo_376042" data-name="Rectángulo 376042" width="5.674" height="1.773" transform="translate(103.357 45.821)" fill="#bdbdbd"/>
        <rect id="Rectángulo_376043" data-name="Rectángulo 376043" width="5.674" height="1.773" transform="translate(103.357 48.303)" fill="#bdbdbd"/>
        <rect id="Rectángulo_376044" data-name="Rectángulo 376044" width="44.273" height="99.327" transform="translate(138.932 48.9)" fill="#bdbdbd"/>
        <rect id="Rectángulo_376045" data-name="Rectángulo 376045" width="37.368" height="94.072" transform="translate(142.385 54.154)" fill="#dbdbdb"/>
        <rect id="Rectángulo_376046" data-name="Rectángulo 376046" width="37.368" height="5.255" transform="translate(142.385 70.301)" fill="#bdbdbd"/>
        <rect id="Rectángulo_376047" data-name="Rectángulo 376047" width="5.674" height="1.773" transform="translate(159.195 1.138)" fill="#bdbdbd"/>
        <rect id="Rectángulo_376048" data-name="Rectángulo 376048" width="5.674" height="1.773" transform="translate(159.195 3.62)" fill="#bdbdbd"/>
        <rect id="Rectángulo_376049" data-name="Rectángulo 376049" width="5.674" height="1.773" transform="translate(159.195 6.103)" fill="#bdbdbd"/>
        <rect id="Rectángulo_376050" data-name="Rectángulo 376050" width="5.674" height="1.773" transform="translate(159.195 8.585)" fill="#bdbdbd"/>
        <rect id="Rectángulo_376051" data-name="Rectángulo 376051" width="5.674" height="1.773" transform="translate(159.195 11.067)" fill="#bdbdbd"/>
        <rect id="Rectángulo_376052" data-name="Rectángulo 376052" width="5.674" height="1.773" transform="translate(159.195 13.55)" fill="#bdbdbd"/>
        <rect id="Rectángulo_376053" data-name="Rectángulo 376053" width="5.674" height="1.773" transform="translate(159.195 16.032)" fill="#bdbdbd"/>
        <rect id="Rectángulo_376054" data-name="Rectángulo 376054" width="5.674" height="1.773" transform="translate(159.195 18.514)" fill="#bdbdbd"/>
        <rect id="Rectángulo_376055" data-name="Rectángulo 376055" width="5.674" height="1.773" transform="translate(159.195 20.997)" fill="#bdbdbd"/>
        <rect id="Rectángulo_376056" data-name="Rectángulo 376056" width="5.674" height="1.773" transform="translate(159.195 23.479)" fill="#bdbdbd"/>
        <rect id="Rectángulo_376057" data-name="Rectángulo 376057" width="5.674" height="1.773" transform="translate(159.195 25.962)" fill="#bdbdbd"/>
        <rect id="Rectángulo_376058" data-name="Rectángulo 376058" width="5.674" height="1.773" transform="translate(159.195 28.444)" fill="#bdbdbd"/>
        <rect id="Rectángulo_376059" data-name="Rectángulo 376059" width="5.674" height="1.773" transform="translate(159.195 30.927)" fill="#bdbdbd"/>
        <rect id="Rectángulo_376060" data-name="Rectángulo 376060" width="5.674" height="1.773" transform="translate(159.195 33.409)" fill="#bdbdbd"/>
        <rect id="Rectángulo_376061" data-name="Rectángulo 376061" width="5.674" height="1.773" transform="translate(159.195 35.891)" fill="#bdbdbd"/>
        <rect id="Rectángulo_376062" data-name="Rectángulo 376062" width="5.674" height="1.773" transform="translate(159.195 38.374)" fill="#bdbdbd"/>
        <rect id="Rectángulo_376063" data-name="Rectángulo 376063" width="5.674" height="1.773" transform="translate(159.195 40.856)" fill="#bdbdbd"/>
        <rect id="Rectángulo_376064" data-name="Rectángulo 376064" width="5.674" height="1.773" transform="translate(159.195 43.339)" fill="#bdbdbd"/>
        <rect id="Rectángulo_376065" data-name="Rectángulo 376065" width="5.674" height="1.773" transform="translate(159.195 45.821)" fill="#bdbdbd"/>
        <rect id="Rectángulo_376066" data-name="Rectángulo 376066" width="5.674" height="1.773" transform="translate(159.195 48.303)" fill="#bdbdbd"/>
        <rect id="Rectángulo_376067" data-name="Rectángulo 376067" width="124.695" height="21.841" transform="translate(21.875 134.535)" fill="#bdbdbd"/>
        <g id="Grupo_1070223" data-name="Grupo 1070223">
          <g id="Grupo_1070222" data-name="Grupo 1070222" clip-path="url(#clip-path)">
            <path id="Trazado_815293" data-name="Trazado 815293" d="M51.48,244.392a2.643,2.643,0,1,1-2.642-2.642,2.642,2.642,0,0,1,2.642,2.642" transform="translate(-20.083 -105.103)" fill="#92e3a9"/>
            <rect id="Rectángulo_376068" data-name="Rectángulo 376068" width="6.937" height="5.286" transform="translate(36.351 136.646)" fill="#92e3a9"/>
            <rect id="Rectángulo_376069" data-name="Rectángulo 376069" width="6.937" height="5.286" transform="translate(44.94 136.646)" fill="gray"/>
            <rect id="Rectángulo_376070" data-name="Rectángulo 376070" width="124.695" height="50.257" transform="translate(21.875 84.343)" fill="#dbdbdb"/>
            <rect id="Rectángulo_376071" data-name="Rectángulo 376071" width="124.695" height="67.326" transform="translate(21.875 156.41)" fill="#dbdbdb"/>
            <rect id="Rectángulo_376072" data-name="Rectángulo 376072" width="63.059" height="46.464" transform="translate(52.693 86.239)" fill="#bdbdbd"/>
            <path id="Trazado_815294" data-name="Trazado 815294" d="M96.985,221.311a5.564,5.564,0,1,0,10.668,0Z" transform="translate(-42.065 -96.217)" fill="#92e3a9"/>
            <path id="Trazado_815295" data-name="Trazado 815295" d="M103.967,208.109V200.74H99.648v7.369a6.229,6.229,0,1,0,4.319,0Z" transform="translate(-41.554 -87.274)" fill="none" stroke="#fff" stroke-miterlimit="10" stroke-width="1"/>
            <path id="Trazado_815296" data-name="Trazado 815296" d="M141.555,221.311a5.564,5.564,0,1,0,10.668,0Z" transform="translate(-61.442 -96.217)" fill="#92e3a9"/>
            <path id="Trazado_815297" data-name="Trazado 815297" d="M148.537,208.109V200.74h-4.319v7.369a6.229,6.229,0,1,0,4.319,0Z" transform="translate(-60.931 -87.274)" fill="none" stroke="#fff" stroke-miterlimit="10" stroke-width="1"/>
            <path id="Trazado_815298" data-name="Trazado 815298" d="M120.816,224.892a4.122,4.122,0,1,0,7.9,0Z" transform="translate(-52.452 -97.774)" fill="#92e3a9"/>
            <path id="Trazado_815299" data-name="Trazado 815299" d="M125.988,215.113v-5.459h-3.2v5.459a4.614,4.614,0,1,0,3.2,0Z" transform="translate(-52.073 -91.149)" fill="none" stroke="#fff" stroke-miterlimit="10" stroke-width="1"/>
            <rect id="Rectángulo_376073" data-name="Rectángulo 376073" width="2.809" height="3.603" transform="translate(60.069 92.986)" fill="#858585"/>
            <path id="Trazado_815300" data-name="Trazado 815300" d="M107.581,170.9h-4.128a2.149,2.149,0,0,0-2.149,2.149v8.416h8.425v-8.416a2.148,2.148,0,0,0-2.148-2.149" transform="translate(-44.043 -74.299)" fill="#dbdbdb"/>
            <rect id="Rectángulo_376074" data-name="Rectángulo 376074" width="2.809" height="3.603" transform="translate(77.825 92.986)" fill="#858585"/>
            <path id="Trazado_815301" data-name="Trazado 815301" d="M138.993,170.9h-4.128a2.149,2.149,0,0,0-2.149,2.149v8.416h8.425v-8.416a2.148,2.148,0,0,0-2.148-2.149" transform="translate(-57.7 -74.299)" fill="#dbdbdb"/>
            <rect id="Rectángulo_376075" data-name="Rectángulo 376075" width="2.809" height="3.603" transform="translate(93.21 92.986)" fill="#858585"/>
            <path id="Trazado_815302" data-name="Trazado 815302" d="M166.211,170.9h-4.128a2.149,2.149,0,0,0-2.149,2.149v8.416h8.426v-8.416a2.149,2.149,0,0,0-2.149-2.149" transform="translate(-69.533 -74.299)" fill="#dbdbdb"/>
            <rect id="Rectángulo_376076" data-name="Rectángulo 376076" width="2.809" height="3.603" transform="translate(104.327 92.986)" fill="#858585"/>
            <path id="Trazado_815303" data-name="Trazado 815303" d="M185.88,170.9h-4.128a2.149,2.149,0,0,0-2.149,2.149v8.416h8.425v-8.416a2.148,2.148,0,0,0-2.148-2.149" transform="translate(-78.084 -74.299)" fill="#dbdbdb"/>
            <rect id="Rectángulo_376077" data-name="Rectángulo 376077" width="63.059" height="4.741" transform="translate(52.693 107.1)" fill="#dbdbdb"/>
            <path id="Trazado_815304" data-name="Trazado 815304" d="M53.725,282.227l1.262,2.327h7.171l1.267-2.327Z" transform="translate(-23.357 -122.701)" fill="gray"/>
            <path id="Trazado_815305" data-name="Trazado 815305" d="M112.123,282.227l1.262,2.327h7.171l1.267-2.327Z" transform="translate(-48.747 -122.701)" fill="gray"/>
            <path id="Trazado_815306" data-name="Trazado 815306" d="M170.522,282.227l1.262,2.327h7.171l1.267-2.327Z" transform="translate(-74.136 -122.701)" fill="gray"/>
            <path id="Trazado_815307" data-name="Trazado 815307" d="M228.921,282.227l1.262,2.327h7.171l1.267-2.327Z" transform="translate(-99.526 -122.701)" fill="gray"/>
            <path id="Trazado_815308" data-name="Trazado 815308" d="M53.725,309.263l1.262,2.327h7.171l1.267-2.327Z" transform="translate(-23.357 -134.455)" fill="gray"/>
            <path id="Trazado_815309" data-name="Trazado 815309" d="M112.123,309.263l1.262,2.327h7.171l1.267-2.327Z" transform="translate(-48.747 -134.455)" fill="gray"/>
            <path id="Trazado_815310" data-name="Trazado 815310" d="M170.522,309.263l1.262,2.327h7.171l1.267-2.327Z" transform="translate(-74.136 -134.455)" fill="gray"/>
            <path id="Trazado_815311" data-name="Trazado 815311" d="M228.921,309.263l1.262,2.327h7.171l1.267-2.327Z" transform="translate(-99.526 -134.455)" fill="gray"/>
            <line id="Línea_892" data-name="Línea 892" x2="121.286" transform="translate(23.275 159.527)" fill="none" stroke="gray" stroke-miterlimit="10" stroke-width="1"/>
            <line id="Línea_893" data-name="Línea 893" x2="121.286" transform="translate(23.275 174.739)" fill="none" stroke="gray" stroke-miterlimit="10" stroke-width="1"/>
            <path id="Trazado_815312" data-name="Trazado 815312" d="M413.594,217.559l-2.489-9.665v-2.642h-3.523v2.642l-2.488,9.665a1.025,1.025,0,0,0,.993,1.281H412.6a1.025,1.025,0,0,0,.993-1.281" transform="translate(-176.105 -89.236)" fill="#bdbdbd"/>
            <path id="Trazado_815313" data-name="Trazado 815313" d="M412.138,218.383h-4.426l-1.306,5.073a.27.27,0,0,0,.262.337h6.514a.271.271,0,0,0,.262-.337Z" transform="translate(-176.685 -94.944)" fill="gray"/>
            <path id="Trazado_815314" data-name="Trazado 815314" d="M440.2,217.559l-2.488-9.665v-2.642h-3.523v2.642l-2.488,9.665a1.025,1.025,0,0,0,.993,1.281h6.514a1.025,1.025,0,0,0,.993-1.281" transform="translate(-187.673 -89.236)" fill="#bdbdbd"/>
            <path id="Trazado_815315" data-name="Trazado 815315" d="M438.746,218.383H434.32l-1.306,5.073a.27.27,0,0,0,.262.337h6.514a.27.27,0,0,0,.261-.337Z" transform="translate(-188.254 -94.944)" fill="gray"/>
            <line id="Línea_894" data-name="Línea 894" y1="28.827" transform="translate(232.992 89.429)" fill="none" stroke="#bdbdbd" stroke-miterlimit="10" stroke-width="1"/>
            <rect id="Rectángulo_376078" data-name="Rectángulo 376078" width="95.419" height="56.194" transform="translate(172.631 129.56)" fill="#dbdbdb"/>
            <rect id="Rectángulo_376079" data-name="Rectángulo 376079" width="90.144" height="53.963" transform="translate(175.268 131.792)" fill="#bdbdbd"/>
            <path id="Trazado_815316" data-name="Trazado 815316" d="M395.265,271.641l3.246,4.463h25.156l3.455-4.463Z" transform="translate(-171.846 -118.099)" fill="gray"/>
            <rect id="Rectángulo_376080" data-name="Rectángulo 376080" width="19.525" height="1.918" transform="translate(229.882 156.087)" fill="#5c5c5c"/>
            <rect id="Rectángulo_376081" data-name="Rectángulo 376081" width="16.026" height="4.853" transform="translate(204.488 146.13)" fill="gray"/>
            <rect id="Rectángulo_376082" data-name="Rectángulo 376082" width="2.37" height="5.802" transform="translate(227.625 139.558)" fill="#263238"/>
            <rect id="Rectángulo_376083" data-name="Rectángulo 376083" width="2.37" height="5.802" transform="translate(227.625 139.558)" fill="none" stroke="#263238" stroke-miterlimit="10" stroke-width="1"/>
            <path id="Trazado_815317" data-name="Trazado 815317" d="M403.473,252.292H400.66a2.149,2.149,0,0,0-2.149,2.149v6.767h7.111v-6.767a2.149,2.149,0,0,0-2.149-2.149" transform="translate(-173.257 -109.687)" fill="#dbdbdb"/>
            <rect id="Rectángulo_376084" data-name="Rectángulo 376084" width="2.37" height="5.802" transform="translate(237.387 139.558)" fill="#263238"/>
            <rect id="Rectángulo_376085" data-name="Rectángulo 376085" width="2.37" height="5.802" transform="translate(237.387 139.558)" fill="none" stroke="#263238" stroke-miterlimit="10" stroke-width="1"/>
            <path id="Trazado_815318" data-name="Trazado 815318" d="M420.744,252.292h-2.813a2.149,2.149,0,0,0-2.149,2.149v6.767h7.111v-6.767a2.149,2.149,0,0,0-2.149-2.149" transform="translate(-180.766 -109.687)" fill="#dbdbdb"/>
            <rect id="Rectángulo_376086" data-name="Rectángulo 376086" width="2.37" height="5.802" transform="translate(247.149 139.558)" fill="#263238"/>
            <rect id="Rectángulo_376087" data-name="Rectángulo 376087" width="2.37" height="5.802" transform="translate(247.149 139.558)" fill="none" stroke="#263238" stroke-miterlimit="10" stroke-width="1"/>
            <path id="Trazado_815319" data-name="Trazado 815319" d="M438.016,252.292H435.2a2.149,2.149,0,0,0-2.149,2.149v6.767h7.111v-6.767a2.149,2.149,0,0,0-2.149-2.149" transform="translate(-188.275 -109.687)" fill="#dbdbdb"/>
            <rect id="Rectángulo_376088" data-name="Rectángulo 376088" width="16.026" height="4.176" transform="translate(204.488 141.954)" fill="#a3a3a3"/>
            <rect id="Rectángulo_376089" data-name="Rectángulo 376089" width="90.144" height="3.651" transform="translate(175.268 150.658)" fill="#dbdbdb"/>
            <rect id="Rectángulo_376090" data-name="Rectángulo 376090" width="6.238" height="19.019" transform="translate(202.118 167.496)" fill="#263238"/>
            <rect id="Rectángulo_376091" data-name="Rectángulo 376091" width="6.238" height="19.019" transform="translate(202.118 167.496)" fill="none" stroke="#263238" stroke-linecap="round" stroke-linejoin="round" stroke-width="1"/>
            <rect id="Rectángulo_376092" data-name="Rectángulo 376092" width="29.061" height="24.04" transform="translate(190.707 158.216)" fill="#545454"/>
            <rect id="Rectángulo_376093" data-name="Rectángulo 376093" width="25.014" height="20.693" transform="translate(192.73 159.889)" fill="#fff"/>
            <path id="Trazado_815320" data-name="Trazado 815320" d="M350.462,291.615l7.733,5.575-5.215,2.878" transform="translate(-152.367 -126.783)" fill="none" stroke="#828282" stroke-miterlimit="10" stroke-width="1"/>
            <path id="Trazado_815321" data-name="Trazado 815321" d="M367.92,292.252l-3.776,5.215,1.8,6.834" transform="translate(-158.315 -127.06)" fill="none" stroke="#828282" stroke-miterlimit="10" stroke-width="1"/>
            <line id="Línea_895" data-name="Línea 895" x2="8.093" y2="4.676" transform="translate(205.828 170.407)" fill="none" stroke="#828282" stroke-miterlimit="10" stroke-width="1"/>
            <path id="Trazado_815322" data-name="Trazado 815322" d="M348.83,289.367a1.888,1.888,0,1,1-1.888-1.888,1.889,1.889,0,0,1,1.888,1.888" transform="translate(-150.016 -124.985)" fill="#92e3a9"/>
            <path id="Trazado_815323" data-name="Trazado 815323" d="M355.352,305.116a1.888,1.888,0,1,1-1.888-1.888,1.889,1.889,0,0,1,1.888,1.888" transform="translate(-152.851 -131.832)" fill="#92e3a9"/>
            <path id="Trazado_815324" data-name="Trazado 815324" d="M371.26,290.8a1.888,1.888,0,1,1-1.888-1.888,1.889,1.889,0,0,1,1.888,1.888" transform="translate(-159.768 -125.607)" fill="#92e3a9"/>
            <path id="Trazado_815325" data-name="Trazado 815325" d="M378.9,308.3a1.888,1.888,0,1,1-1.888-1.888A1.889,1.889,0,0,1,378.9,308.3" transform="translate(-163.087 -133.215)" fill="#92e3a9"/>
            <path id="Trazado_815326" data-name="Trazado 815326" d="M367.761,312.115a1.888,1.888,0,1,1-1.888-1.888,1.889,1.889,0,0,1,1.888,1.888" transform="translate(-158.246 -134.875)" fill="#92e3a9"/>
            <rect id="Rectángulo_376094" data-name="Rectángulo 376094" width="7.608" height="1.674" transform="translate(240.003 174.191)" fill="#263238"/>
            <rect id="Rectángulo_376095" data-name="Rectángulo 376095" width="7.608" height="1.674" transform="translate(240.003 174.191)" fill="none" stroke="#263238" stroke-linecap="round" stroke-linejoin="round" stroke-width="1"/>
            <path id="Trazado_815327" data-name="Trazado 815327" d="M406.436,321.515v-3.749a3.8,3.8,0,0,1,1.3-2.864l4.631-4.038h16.889l4.4,4.044a3.8,3.8,0,0,1,1.229,2.8v4.417Z" transform="translate(-176.702 -135.151)" fill="#c4c4c4"/>
            <path id="Trazado_815328" data-name="Trazado 815328" d="M433.483,317.178c0,1.554-3.645,2.815-8.14,2.815s-8.14-1.26-8.14-2.815,3.644-2.815,8.14-2.815,8.14,1.26,8.14,2.815" transform="translate(-181.384 -136.673)" fill="#dbdbdb"/>
            <rect id="Rectángulo_376096" data-name="Rectángulo 376096" width="95.794" height="37.981" transform="translate(172.631 185.755)" fill="#dbdbdb"/>
            <line id="Línea_896" data-name="Línea 896" x2="95.399" transform="translate(172.601 205.534)" fill="none" stroke="gray" stroke-miterlimit="10" stroke-width="1"/>
            <rect id="Rectángulo_376097" data-name="Rectángulo 376097" width="29.791" height="37.981" transform="translate(238.634 185.755)" fill="#bdbdbd"/>
            <rect id="Rectángulo_376098" data-name="Rectángulo 376098" width="99.507" height="3.651" transform="translate(170.775 185.755)" fill="gray"/>
            <path id="Trazado_815329" data-name="Trazado 815329" d="M388.266,335.15l1.5,2.774h8.549l1.51-2.774Z" transform="translate(-168.803 -145.71)" fill="gray"/>
            <path id="Trazado_815330" data-name="Trazado 815330" d="M388.266,363.414l1.5,2.774h8.549l1.51-2.774Z" transform="translate(-168.803 -157.998)" fill="gray"/>
            <path id="Trazado_815331" data-name="Trazado 815331" d="M331.469,335.15l1.5,2.774h8.549l1.51-2.774Z" transform="translate(-144.11 -145.71)" fill="gray"/>
            <path id="Trazado_815332" data-name="Trazado 815332" d="M331.469,363.414l1.5,2.774h8.549l1.51-2.774Z" transform="translate(-144.11 -157.998)" fill="gray"/>
            <line id="Línea_897" data-name="Línea 897" x2="26.481" transform="translate(231.098 99.321)" fill="none" stroke="#bdbdbd" stroke-miterlimit="10" stroke-width="1"/>
            <line id="Línea_898" data-name="Línea 898" x2="2.346" transform="translate(228.753 99.321)" fill="none" stroke="#bdbdbd" stroke-miterlimit="10" stroke-width="3"/>
            <line id="Línea_899" data-name="Línea 899" y2="17.805" transform="translate(248.253 99.604)" fill="none" stroke="#bdbdbd" stroke-miterlimit="10" stroke-width="1"/>
          </g>
        </g>
        <rect id="Rectángulo_376100" data-name="Rectángulo 376100" width="4.666" height="5.275" transform="translate(39.503 152.89)" fill="#263238"/>
        <rect id="Rectángulo_376101" data-name="Rectángulo 376101" width="4.666" height="5.275" transform="translate(39.503 152.89)" fill="none" stroke="#263238" stroke-miterlimit="10" stroke-width="1"/>
        <rect id="Rectángulo_376102" data-name="Rectángulo 376102" width="8.926" height="3.246" transform="translate(37.068 150.861)" fill="#263238"/>
        <rect id="Rectángulo_376103" data-name="Rectángulo 376103" width="8.926" height="3.246" transform="translate(37.068 150.861)" fill="none" stroke="#263238" stroke-miterlimit="10" stroke-width="1"/>
        <rect id="Rectángulo_376104" data-name="Rectángulo 376104" width="20.084" height="53.557" transform="translate(31.591 156.542)" fill="#fff"/>
        <rect id="Rectángulo_376105" data-name="Rectángulo 376105" width="20.084" height="53.557" transform="translate(31.591 156.542)" fill="none" stroke="#263238" stroke-miterlimit="10" stroke-width="1"/>
        <g id="Grupo_1070225" data-name="Grupo 1070225">
          <g id="Grupo_1070224" data-name="Grupo 1070224" clip-path="url(#clip-path)">
            <path id="Trazado_815333" data-name="Trazado 815333" d="M70.9,301.143a5.173,5.173,0,1,1-5.173-5.173,5.173,5.173,0,0,1,5.173,5.173" transform="translate(-26.327 -128.676)" fill="#263238"/>
            <circle id="Elipse_5892" data-name="Elipse 5892" cx="5.173" cy="5.173" r="5.173" transform="translate(34.229 167.294)" fill="none" stroke="#263238" stroke-miterlimit="10" stroke-width="1"/>
            <path id="Trazado_815334" data-name="Trazado 815334" d="M109.771,386.93l-9.212-11.564H73.984L64.845,386.93Z" transform="translate(-28.192 -163.194)" fill="#fff"/>
            <path id="Trazado_815335" data-name="Trazado 815335" d="M109.771,386.93l-9.212-11.564H73.984L64.845,386.93Z" transform="translate(-28.192 -163.194)" fill="none" stroke="#263238" stroke-miterlimit="10" stroke-width="1"/>
            <path id="Trazado_815336" data-name="Trazado 815336" d="M113.437,372.995h-36.4a3.2,3.2,0,0,1-3.2-3.2v-.245h42.806v.245a3.2,3.2,0,0,1-3.2,3.2" transform="translate(-32.101 -160.664)" fill="#fff"/>
            <path id="Trazado_815337" data-name="Trazado 815337" d="M113.437,372.995h-36.4a3.2,3.2,0,0,1-3.2-3.2v-.245h42.806v.245A3.2,3.2,0,0,1,113.437,372.995Z" transform="translate(-32.101 -160.664)" fill="none" stroke="#263238" stroke-miterlimit="10" stroke-width="1"/>
            <rect id="Rectángulo_376106" data-name="Rectángulo 376106" width="9.626" height="1.925" transform="matrix(0.838, -0.546, 0.546, 0.838, 59.193, 143.569)" fill="#fff"/>
            <rect id="Rectángulo_376107" data-name="Rectángulo 376107" width="9.626" height="1.925" transform="matrix(0.838, -0.546, 0.546, 0.838, 59.193, 143.569)" fill="none" stroke="#263238" stroke-miterlimit="10" stroke-width="1"/>
            <rect id="Rectángulo_376108" data-name="Rectángulo 376108" width="8.984" height="5.776" transform="translate(64.298 137.689) rotate(-33.092)" fill="#263238"/>
            <rect id="Rectángulo_376109" data-name="Rectángulo 376109" width="8.984" height="5.776" transform="translate(64.298 137.689) rotate(-33.092)" fill="none" stroke="#263238" stroke-miterlimit="10" stroke-width="1"/>
            <rect id="Rectángulo_376110" data-name="Rectángulo 376110" width="1.826" height="5.883" transform="translate(40.72 125.503)" fill="#263238"/>
            <rect id="Rectángulo_376111" data-name="Rectángulo 376111" width="1.826" height="5.883" transform="translate(40.72 125.503)" fill="none" stroke="#263238" stroke-miterlimit="10" stroke-width="1"/>
            <rect id="Rectángulo_376112" data-name="Rectángulo 376112" width="3.651" height="11.564" transform="translate(39.706 130.98)" fill="#fff"/>
            <rect id="Rectángulo_376113" data-name="Rectángulo 376113" width="3.651" height="11.564" transform="translate(39.706 130.98)" fill="none" stroke="#263238" stroke-miterlimit="10" stroke-width="1"/>
            <rect id="Rectángulo_376114" data-name="Rectángulo 376114" width="8.52" height="6.695" transform="translate(37.271 141.326)" fill="#fff"/>
            <rect id="Rectángulo_376115" data-name="Rectángulo 376115" width="8.52" height="6.695" transform="translate(37.271 141.326)" fill="none" stroke="#263238" stroke-miterlimit="10" stroke-width="1"/>
            <path id="Trazado_815338" data-name="Trazado 815338" d="M81.334,244.363l-9.7,8.2-21.544,1.9.489,5.54,26-2.293,8.783-6.553Z" transform="translate(-21.775 -106.239)" fill="#fff"/>
            <path id="Trazado_815339" data-name="Trazado 815339" d="M81.334,244.363l-9.7,8.2-21.544,1.9.489,5.54,26-2.293,8.783-6.553Z" transform="translate(-21.775 -106.239)" fill="none" stroke="#263238" stroke-miterlimit="10" stroke-width="1"/>
          </g>
        </g>
        <g id="Grupo_1070230" data-name="Grupo 1070230">
          <g id="Grupo_1070229" data-name="Grupo 1070229" clip-path="url(#clip-path)">
            <path id="Trazado_815340" data-name="Trazado 815340" d="M379.73,126.414l-.968,10.162s-5.613-.387-7.259-3.678-.91-7.593-.91-7.593l.716-3.924a6.261,6.261,0,0,1,5.9.291,4.879,4.879,0,0,1,2.516,4.742" transform="translate(-161.049 -52.507)" fill="#b5b5b5"/>
            <path id="Trazado_815341" data-name="Trazado 815341" d="M379.73,126.414l-.968,10.162s-5.613-.387-7.259-3.678-.91-7.593-.91-7.593l.716-3.924a6.261,6.261,0,0,1,5.9.291A4.879,4.879,0,0,1,379.73,126.414Z" transform="translate(-161.049 -52.507)" fill="none" stroke="#263238" stroke-miterlimit="10" stroke-width="1"/>
            <path id="Trazado_815342" data-name="Trazado 815342" d="M310.577,162.507l20.575-5.014,10.2-28.7a53.186,53.186,0,0,0,4.149,6.57,22.5,22.5,0,0,0,5.014,3.976s-3.458,18.846-4.668,24.9-1.383,7.089-2.939,8.472-20.229,13.14-20.229,13.14,6.224,11.584,6.916,19.71,1.21,17.635,1.21,17.635-15.215-24.205-20.748-31.294-7.78-17.808-6.57-23.34,7.089-6.051,7.089-6.051" transform="translate(-131.806 -55.994)" fill="#fff"/>
            <path id="Trazado_815343" data-name="Trazado 815343" d="M310.577,162.507l20.575-5.014,10.2-28.7a53.186,53.186,0,0,0,4.149,6.57,22.5,22.5,0,0,0,5.014,3.976s-3.458,18.846-4.668,24.9-1.383,7.089-2.939,8.472-20.229,13.14-20.229,13.14,6.224,11.584,6.916,19.71,1.21,17.635,1.21,17.635-15.215-24.205-20.748-31.294-7.78-17.808-6.57-23.34S310.577,162.507,310.577,162.507Z" transform="translate(-131.806 -55.994)" fill="none" stroke="#263238" stroke-miterlimit="10" stroke-width="1"/>
            <path id="Trazado_815344" data-name="Trazado 815344" d="M329.21,195.666,334,213.494l3.508-21.113" transform="translate(-143.127 -83.64)" fill="none" stroke="#263238" stroke-miterlimit="10" stroke-width="1"/>
            <path id="Trazado_815345" data-name="Trazado 815345" d="M353.68,180.452a10.252,10.252,0,0,1,6.224,8.126" transform="translate(-153.766 -78.453)" fill="none" stroke="#263238" stroke-miterlimit="10" stroke-width="1"/>
            <path id="Trazado_815346" data-name="Trazado 815346" d="M360.409,180.452s6.57,1.383,6.916,8.3" transform="translate(-156.692 -78.453)" fill="none" stroke="#263238" stroke-miterlimit="10" stroke-width="1"/>
            <path id="Trazado_815347" data-name="Trazado 815347" d="M317.28,200.334l8.645,17.981-1.9,3.285,4.322,3.458,1.21,6.743" transform="translate(-137.941 -87.097)" fill="none" stroke="#263238" stroke-miterlimit="10" stroke-width="1"/>
            <path id="Trazado_815348" data-name="Trazado 815348" d="M251.618,161s-10.2,3.285-13.485,9.682,4.668,17.981,5.878,22.3-.518,5.878-2.074,4.668-3.285,1.21-1.556,3.976,11.238.692,14.35-.864,2.42-11.93.691-18.673-3.8-14.35-2.766-17.635S251.618,161,251.618,161" transform="translate(-103.188 -69.996)" fill="#263238"/>
            <path id="Trazado_815349" data-name="Trazado 815349" d="M251.618,161s-10.2,3.285-13.485,9.682,4.668,17.981,5.878,22.3-.518,5.878-2.074,4.668-3.285,1.21-1.556,3.976,11.238.692,14.35-.864,2.42-11.93.691-18.673-3.8-14.35-2.766-17.635S251.618,161,251.618,161Z" transform="translate(-103.188 -69.996)" fill="none" stroke="#263238" stroke-miterlimit="10" stroke-width="1"/>
            <path id="Trazado_815350" data-name="Trazado 815350" d="M305.277,136.134s5.014,6.051,5.36,8.472a15.866,15.866,0,0,1,.173,3.8s2.42,2.766,2.939,3.112,2.247,1.383,1.21,2.766a3.734,3.734,0,0,1-2.766,1.383,46.581,46.581,0,0,1-.346,7.781c-.518,2.42-1.556,3.285-3.458,3.458s-4.322.173-4.322.173l-1.9,9.682,2.42,12.621L286.6,169.848s1.729-7.089,1.729-8.472-2.593-3.976-.346-11.238,17.29-14,17.29-14" transform="translate(-124.604 -59.186)" fill="#b5b5b5"/>
            <path id="Trazado_815351" data-name="Trazado 815351" d="M305.277,136.134s5.014,6.051,5.36,8.472a15.866,15.866,0,0,1,.173,3.8s2.42,2.766,2.939,3.112,2.247,1.383,1.21,2.766a3.734,3.734,0,0,1-2.766,1.383,46.581,46.581,0,0,1-.346,7.781c-.518,2.42-1.556,3.285-3.458,3.458s-4.322.173-4.322.173l-1.9,9.682,2.42,12.621L286.6,169.848s1.729-7.089,1.729-8.472-2.593-3.976-.346-11.238S305.277,136.134,305.277,136.134Z" transform="translate(-124.604 -59.186)" fill="none" stroke="#263238" stroke-miterlimit="10" stroke-width="1"/>
            <path id="Trazado_815352" data-name="Trazado 815352" d="M276.48,149.225s3.112,1.037,3.976-1.21-.518-5.014,3.8-7.435,11.929-4.149,13.485-8.126-.173-8.126-2.593-8.645-5.36.864-10.028,1.037-18.353.1-22.676,6.672-.146,18.4,1.064,20.991,1.21,9.336,6.224,9.682,8.472-3.458,8.818-6.224-2.075-6.743-2.075-6.743" transform="translate(-113.27 -53.777)" fill="#263238"/>
            <path id="Trazado_815353" data-name="Trazado 815353" d="M276.48,149.225s3.112,1.037,3.976-1.21-.518-5.014,3.8-7.435,11.929-4.149,13.485-8.126-.173-8.126-2.593-8.645-5.36.864-10.028,1.037-18.353.1-22.676,6.672-.146,18.4,1.064,20.991,1.21,9.336,6.224,9.682,8.472-3.458,8.818-6.224S276.48,149.225,276.48,149.225Z" transform="translate(-113.27 -53.777)" fill="none" stroke="#263238" stroke-miterlimit="10" stroke-width="1"/>
            <g id="Grupo_1070228" data-name="Grupo 1070228" transform="translate(162 84.901)" opacity="0.5">
              <g id="Grupo_1070227" data-name="Grupo 1070227">
                <g id="Grupo_1070226" data-name="Grupo 1070226" clip-path="url(#clip-path-7)">
                  <path id="Trazado_815354" data-name="Trazado 815354" d="M286.6,158.676l24.9-8.472s4.5,2.766,1.383,6.4l-12.794,4.15-13.313-.346Z" transform="translate(-286.604 -150.204)" fill="#fff"/>
                  <line id="Línea_900" data-name="Línea 900" y1="8.472" x2="24.897" transform="translate(0 0)" fill="#fff"/>
                  <line id="Línea_901" data-name="Línea 901" x2="2.593" y2="5.187" transform="translate(10.892 5.36)" fill="#fff"/>
                </g>
              </g>
            </g>
            <path id="Trazado_815355" data-name="Trazado 815355" d="M286.6,158.676l24.9-8.472s4.5,2.766,1.383,6.4l-12.794,4.15-13.313-.346Z" transform="translate(-124.604 -65.303)" fill="none" stroke="#263238" stroke-miterlimit="10" stroke-width="1"/>
            <line id="Línea_902" data-name="Línea 902" y1="8.472" x2="24.897" transform="translate(162 84.901)" fill="none" stroke="#263238" stroke-linecap="round" stroke-miterlimit="10" stroke-width="2"/>
            <line id="Línea_903" data-name="Línea 903" x2="2.593" y2="5.187" transform="translate(172.892 90.261)" fill="none" stroke="#263238" stroke-miterlimit="10" stroke-width="1"/>
            <path id="Trazado_815356" data-name="Trazado 815356" d="M288.238,167.44c-.519,0-5.014-6.051-7.262-4.322s-.173,7.953,2.593,9.164,5.014-1.729,5.014-1.729" transform="translate(-121.743 -70.782)" fill="#b5b5b5"/>
            <path id="Trazado_815357" data-name="Trazado 815357" d="M288.238,167.44c-.519,0-5.014-6.051-7.262-4.322s-.173,7.953,2.593,9.164,5.014-1.729,5.014-1.729" transform="translate(-121.743 -70.782)" fill="none" stroke="#263238" stroke-miterlimit="10" stroke-width="1"/>
            <path id="Trazado_815358" data-name="Trazado 815358" d="M323.163,157.572c0,.859-.31,1.556-.692,1.556s-.691-.7-.691-1.556.31-1.556.691-1.556.692.7.692,1.556" transform="translate(-139.897 -67.83)" fill="#263238"/>
            <path id="Trazado_815359" data-name="Trazado 815359" d="M274.117,192.11s8.991,7.435,14,15.56S305.929,230.32,308,235.16s3.8,9.856,3.8,14,.346,35.616.346,36.308v21.784H259.075s3.285-45.471,3.285-55.153-4.149-18.5-1.037-32.331,8.3-21.784,12.794-27.663" transform="translate(-112.636 -83.522)" fill="#fff"/>
            <path id="Trazado_815360" data-name="Trazado 815360" d="M274.117,192.11s8.991,7.435,14,15.56S305.929,230.32,308,235.16s3.8,9.856,3.8,14,.346,35.616.346,36.308v21.784H259.075s3.285-45.471,3.285-55.153-4.149-18.5-1.037-32.331S269.621,197.988,274.117,192.11Z" transform="translate(-112.636 -83.522)" fill="none" stroke="#263238" stroke-miterlimit="10" stroke-width="1"/>
            <path id="Trazado_815361" data-name="Trazado 815361" d="M279.569,200.98l19.191,26.453,4.841-1.556-.346,5.878,12.1,6.4" transform="translate(-121.545 -87.378)" fill="none" stroke="#263238" stroke-miterlimit="10" stroke-width="1"/>
            <path id="Trazado_815362" data-name="Trazado 815362" d="M322.223,355.713H294.3v4.467H319.99" transform="translate(-127.952 -154.65)" fill="none" stroke="#263238" stroke-miterlimit="10" stroke-width="1"/>
            <path id="Trazado_815363" data-name="Trazado 815363" d="M395.265,158.974h-.187a1.213,1.213,0,0,1-1.214-1.214v-7.578h2.614v7.578a1.214,1.214,0,0,1-1.214,1.214" transform="translate(-171.237 -65.293)" fill="#fff"/>
            <path id="Trazado_815364" data-name="Trazado 815364" d="M395.265,158.974h-.187a1.213,1.213,0,0,1-1.214-1.214v-7.578h2.614v7.578A1.214,1.214,0,0,1,395.265,158.974Z" transform="translate(-171.237 -65.293)" fill="none" stroke="#263238" stroke-miterlimit="10" stroke-width="1"/>
            <rect id="Rectángulo_376118" data-name="Rectángulo 376118" width="3.864" height="2.614" transform="translate(222.003 83.298)" fill="#fff"/>
            <rect id="Rectángulo_376119" data-name="Rectángulo 376119" width="3.864" height="2.614" transform="translate(222.003 83.298)" fill="none" stroke="#263238" stroke-miterlimit="10" stroke-width="1"/>
            <path id="Trazado_815365" data-name="Trazado 815365" d="M418.03,122.561s1.355,2.129,1.162,3.387-2.033,6.775-2.614,6.872-.677-.581-.484-2.516.484-3.194.484-3.775.388-5.13,1.452-3.968" transform="translate(-180.862 -53.202)" fill="#92e3a9"/>
            <path id="Trazado_815366" data-name="Trazado 815366" d="M418.03,122.561s1.355,2.129,1.162,3.387-2.033,6.775-2.614,6.872-.677-.581-.484-2.516.484-3.194.484-3.775S416.966,121.4,418.03,122.561Z" transform="translate(-180.862 -53.202)" fill="none" stroke="#263238" stroke-linecap="round" stroke-linejoin="round" stroke-width="1"/>
            <path id="Trazado_815367" data-name="Trazado 815367" d="M372.615,114.38s-2.226,3.871-.581,6.1,5.226,2.42,5.226,2.42.58,4.355,1.452,5.033A16.058,16.058,0,0,1,382,132.672c.291,1.065,2.323-.29,2.323-1.162s-1.452-4.355-1.839-5.323.484-3.581.774-4.452a4.816,4.816,0,0,1,.581-1.258s2.807,2.71,3.1,4.259-.484,7.259.29,7.937,2.807.484,3.194-.677a72.8,72.8,0,0,0,1.065-9.1c0-1.162-1.839-5.13-1.839-5.13s3,3,3.1,4.065-.774,7.839-.29,8.033a1.771,1.771,0,0,0,1.935-.1,6.672,6.672,0,0,0,1.258-2.129s1.936-4.548,2.71-6.678,1.452-4.549-.291-5.42a72.267,72.267,0,0,0-8.033-3.581c-4.936-1.935-11.9-3.387-14.421-1.548a7.575,7.575,0,0,0-3,3.968" transform="translate(-161.483 -47.635)" fill="#1b3f5e"/>
            <path id="Trazado_815368" data-name="Trazado 815368" d="M372.615,114.38s-2.226,3.871-.581,6.1,5.226,2.42,5.226,2.42.58,4.355,1.452,5.033A16.058,16.058,0,0,1,382,132.672c.291,1.065,2.323-.29,2.323-1.162s-1.452-4.355-1.839-5.323.484-3.581.774-4.452a4.816,4.816,0,0,1,.581-1.258s2.807,2.71,3.1,4.259-.484,7.259.29,7.937,2.807.484,3.194-.677a72.8,72.8,0,0,0,1.065-9.1c0-1.162-1.839-5.13-1.839-5.13s3,3,3.1,4.065-.774,7.839-.29,8.033a1.771,1.771,0,0,0,1.935-.1,6.672,6.672,0,0,0,1.258-2.129s1.936-4.548,2.71-6.678,1.452-4.549-.291-5.42a72.267,72.267,0,0,0-8.033-3.581c-4.936-1.935-11.9-3.387-14.421-1.548A7.575,7.575,0,0,0,372.615,114.38Z" transform="translate(-161.483 -47.635)" fill="none" stroke="#263238" stroke-linecap="round" stroke-linejoin="round" stroke-width="1"/>
            <line id="Línea_904" data-name="Línea 904" x1="0.387" y1="6.968" transform="translate(215.391 68.294)" fill="none" stroke="#263238" stroke-miterlimit="10" stroke-width="1"/>
            <path id="Trazado_815369" data-name="Trazado 815369" d="M378.3,124.828s-3.871-.1-4.259-5.033" transform="translate(-162.619 -52.082)" fill="none" stroke="#263238" stroke-miterlimit="10" stroke-width="1"/>
            <path id="Trazado_815370" data-name="Trazado 815370" d="M412.367,128.811s1.258-3.678.193-5.42-5.13-4.452-5.13-4.452" transform="translate(-177.135 -51.71)" fill="none" stroke="#263238" stroke-miterlimit="10" stroke-width="1"/>
            <path id="Trazado_815371" data-name="Trazado 815371" d="M368.078,213.473a95.178,95.178,0,0,0,6.478-7.046c.114-.455.227-6.592.909-7.956s2.955-5.342,3.069-6.592.114-5.455,0-6.933,1.364-1.591,2.387-.227a8.441,8.441,0,0,1,1.25,5,9.955,9.955,0,0,0,.341,3.41,9.781,9.781,0,0,0,3.069,2.273c.909.227,6.364-2.5,7.955-3.069s2.614-5.228,2.841-5.682.341-3.864.454-4.66,1.591-1.818,2.159.114.341,6.478.228,7.729,0,3.864-.569,4.546-4.2,3.864-4.546,4.318-1.7,4.887-2.16,5.569-4.318,2.159-6.933,3.75a41.032,41.032,0,0,0-5.342,4.091,1.254,1.254,0,0,1,0,1.7,7.817,7.817,0,0,1-2.273,1.364l-2.387,5.682Z" transform="translate(-160.026 -78.691)" fill="#b5b5b5"/>
            <path id="Trazado_815372" data-name="Trazado 815372" d="M368.078,213.473a95.178,95.178,0,0,0,6.478-7.046c.114-.455.227-6.592.909-7.956s2.955-5.342,3.069-6.592.114-5.455,0-6.933,1.364-1.591,2.387-.227a8.441,8.441,0,0,1,1.25,5,9.955,9.955,0,0,0,.341,3.41,9.781,9.781,0,0,0,3.069,2.273c.909.227,6.364-2.5,7.955-3.069s2.614-5.228,2.841-5.682.341-3.864.454-4.66,1.591-1.818,2.159.114.341,6.478.228,7.729,0,3.864-.569,4.546-4.2,3.864-4.546,4.318-1.7,4.887-2.16,5.569-4.318,2.159-6.933,3.75a41.032,41.032,0,0,0-5.342,4.091,1.254,1.254,0,0,1,0,1.7,7.817,7.817,0,0,1-2.273,1.364l-2.387,5.682Z" transform="translate(-160.026 -78.691)" fill="none" stroke="#263238" stroke-miterlimit="10" stroke-width="1"/>
            <path id="Trazado_815373" data-name="Trazado 815373" d="M394.37,204.268c.454-.682,1.818-5.114,2.159-5.569s3.978-3.637,4.546-4.319.454-3.3.568-4.546.341-5.8-.227-7.728-2.046-.909-2.159-.114-.227,4.2-.454,4.659-1.25,5.114-2.841,5.683-7.046,3.3-7.956,3.069a9.785,9.785,0,0,1-3.069-2.273,9.974,9.974,0,0,1-.341-3.41,8.438,8.438,0,0,0-1.25-5c-1.022-1.364-2.5-1.25-2.386.227s.114,5.683,0,6.933-2.386,5.228-3.069,6.592-.8,7.5-.909,7.955a40.911,40.911,0,0,1-3.325,3.791l6.066,5.2.1-.239a7.838,7.838,0,0,0,2.273-1.364,1.254,1.254,0,0,0,0-1.7,40.963,40.963,0,0,1,5.341-4.092c2.614-1.591,6.478-3.069,6.933-3.75" transform="translate(-162.451 -78.691)" fill="#1b3f5e"/>
            <path id="Trazado_815374" data-name="Trazado 815374" d="M394.37,204.268c.454-.682,1.818-5.114,2.159-5.569s3.978-3.637,4.546-4.319.454-3.3.568-4.546.341-5.8-.227-7.728-2.046-.909-2.159-.114-.227,4.2-.454,4.659-1.25,5.114-2.841,5.683-7.046,3.3-7.956,3.069a9.785,9.785,0,0,1-3.069-2.273,9.974,9.974,0,0,1-.341-3.41,8.438,8.438,0,0,0-1.25-5c-1.022-1.364-2.5-1.25-2.386.227s.114,5.683,0,6.933-2.386,5.228-3.069,6.592-.8,7.5-.909,7.955a40.911,40.911,0,0,1-3.325,3.791l6.066,5.2.1-.239a7.838,7.838,0,0,0,2.273-1.364,1.254,1.254,0,0,0,0-1.7,40.963,40.963,0,0,1,5.341-4.092C390.051,206.427,393.916,204.949,394.37,204.268Z" transform="translate(-162.451 -78.691)" fill="none" stroke="#263238" stroke-linecap="round" stroke-linejoin="round" stroke-width="1"/>
            <line id="Línea_905" data-name="Línea 905" x1="3.864" y2="2.841" transform="translate(230.214 120.007)" fill="none" stroke="#263238" stroke-miterlimit="10" stroke-width="1"/>
            <path id="Trazado_815375" data-name="Trazado 815375" d="M274.927,223.774s5.878-1.037,9.336,1.729,4.668,7.953,4.841,8.472,16.425,15.388,16.425,15.388l20.4-18.846,10.028,9.855s-12.794,16.252-19.364,22.476-11.411,9.164-12.622,9.682-2.42,0-3.8-.864-30.084-29.738-30.084-29.738" transform="translate(-117.423 -97.206)" fill="#fff"/>
            <path id="Trazado_815376" data-name="Trazado 815376" d="M274.927,223.774s5.878-1.037,9.336,1.729,4.668,7.953,4.841,8.472,16.425,15.388,16.425,15.388l20.4-18.846,10.028,9.855s-12.794,16.252-19.364,22.476-11.411,9.164-12.622,9.682-2.42,0-3.8-.864-30.084-29.738-30.084-29.738" transform="translate(-117.423 -97.206)" fill="none" stroke="#263238" stroke-miterlimit="10" stroke-width="1"/>
            <path id="Trazado_815377" data-name="Trazado 815377" d="M278.039,241.335s5.36-5.014,8.126-5.187a6.214,6.214,0,0,1,4.668,2.074" transform="translate(-120.88 -102.664)" fill="none" stroke="#263238" stroke-miterlimit="10" stroke-width="1"/>
            <path id="Trazado_815378" data-name="Trazado 815378" d="M273.145,235.829s6.57-4.322,10.374-2.248" transform="translate(-118.753 -101.307)" fill="none" stroke="#263238" stroke-miterlimit="10" stroke-width="1"/>
            <path id="Trazado_815379" data-name="Trazado 815379" d="M329.81,269.191s-4.5,9.509-3.8,14" transform="translate(-141.703 -117.034)" fill="none" stroke="#263238" stroke-miterlimit="10" stroke-width="1"/>
            <path id="Trazado_815380" data-name="Trazado 815380" d="M326.342,270.108a16.854,16.854,0,0,0-6.4,8.472" transform="translate(-139.1 -117.432)" fill="none" stroke="#263238" stroke-miterlimit="10" stroke-width="1"/>
            <path id="Trazado_815381" data-name="Trazado 815381" d="M406.323,180.488h-.186a1.214,1.214,0,0,1-1.214-1.214V171.7h2.614v7.578a1.214,1.214,0,0,1-1.214,1.214" transform="translate(-176.045 -74.647)" fill="#fff"/>
            <path id="Trazado_815382" data-name="Trazado 815382" d="M406.323,180.488h-.186a1.214,1.214,0,0,1-1.214-1.214V171.7h2.614v7.578A1.214,1.214,0,0,1,406.323,180.488Z" transform="translate(-176.045 -74.647)" fill="none" stroke="#263238" stroke-miterlimit="10" stroke-width="1"/>
            <rect id="Rectángulo_376120" data-name="Rectángulo 376120" width="3.864" height="2.614" transform="translate(228.254 95.459)" fill="#fff"/>
            <rect id="Rectángulo_376121" data-name="Rectángulo 376121" width="3.864" height="2.614" transform="translate(228.254 95.459)" fill="none" stroke="#263238" stroke-miterlimit="10" stroke-width="1"/>
            <path id="Trazado_815383" data-name="Trazado 815383" d="M414.969,180.488h-.186a1.214,1.214,0,0,1-1.214-1.214V171.7h2.614v7.578a1.214,1.214,0,0,1-1.214,1.214" transform="translate(-179.804 -74.647)" fill="#fff"/>
            <path id="Trazado_815384" data-name="Trazado 815384" d="M414.969,180.488h-.186a1.214,1.214,0,0,1-1.214-1.214V171.7h2.614v7.578A1.214,1.214,0,0,1,414.969,180.488Z" transform="translate(-179.804 -74.647)" fill="none" stroke="#263238" stroke-miterlimit="10" stroke-width="1"/>
            <rect id="Rectángulo_376122" data-name="Rectángulo 376122" width="3.864" height="2.614" transform="translate(233.141 95.459)" fill="#fff"/>
            <rect id="Rectángulo_376123" data-name="Rectángulo 376123" width="3.864" height="2.614" transform="translate(233.141 95.459)" fill="none" stroke="#263238" stroke-miterlimit="10" stroke-width="1"/>
            <rect id="Rectángulo_376124" data-name="Rectángulo 376124" width="16.593" height="8.524" transform="translate(221.463 101.027)" fill="#263238"/>
            <rect id="Rectángulo_376125" data-name="Rectángulo 376125" width="16.593" height="8.524" transform="translate(221.463 101.027)" fill="none" stroke="#263238" stroke-miterlimit="10" stroke-width="1"/>
          </g>
        </g>
        <g id="Grupo_1070232" data-name="Grupo 1070232">
          <g id="Grupo_1070231" data-name="Grupo 1070231" clip-path="url(#clip-path)">
            <path id="Trazado_815385" data-name="Trazado 815385" d="M118.82,199.685s-.2,6.553,1.192,9.135,3.773,3.575,3.972,5.759-.795,5.163.6,5.958,11.319,10.723,14.5,10.525,6.553-4.766,6.553-4.766l7.149,4.568,9.532-19.66-6.354-5.759s-2.582-15.49-6.157-19.859-16.88-5.561-23.632-2.383-9.135,10.326-10.724,11.716-4.964,2.78-3.177,5.362,6.553-.6,6.553-.6" transform="translate(-48.588 -78.869)" fill="#fff"/>
            <path id="Trazado_815386" data-name="Trazado 815386" d="M118.82,199.685s-.2,6.553,1.192,9.135,3.773,3.575,3.972,5.759-.795,5.163.6,5.958,11.319,10.723,14.5,10.525,6.553-4.766,6.553-4.766l7.149,4.568,9.532-19.66-6.354-5.759s-2.582-15.49-6.157-19.859-16.88-5.561-23.632-2.383-9.135,10.326-10.724,11.716-4.964,2.78-3.177,5.362S118.82,199.685,118.82,199.685Z" transform="translate(-48.588 -78.869)" fill="none" stroke="#263238" stroke-miterlimit="10" stroke-width="1"/>
            <path id="Trazado_815387" data-name="Trazado 815387" d="M154.168,209.416a9.855,9.855,0,0,0,2.135-3.657l-.348-.315s-2.581-15.489-6.156-19.859-16.88-5.56-23.632-2.383-9.135,10.327-10.724,11.717-4.964,2.78-3.177,5.362c1.666,2.407,5.921-.192,6.487-.553l.066-.042a35.963,35.963,0,0,0,5.362-2.185,34.119,34.119,0,0,0,4.568-3.177s-4.17,6.951-2.581,9.135,6.354,1.192,6.354,1.192,3.177,4.17,5.163,3.177-.795-4.766,2.184-6.156,5.362,4.568,5.362,5.56,7.149,3.575,8.936,2.185" transform="translate(-48.588 -78.869)" fill="#263238"/>
            <path id="Trazado_815388" data-name="Trazado 815388" d="M154.168,209.416a9.855,9.855,0,0,0,2.135-3.657l-.348-.315s-2.581-15.489-6.156-19.859-16.88-5.56-23.632-2.383-9.135,10.327-10.724,11.717-4.964,2.78-3.177,5.362c1.666,2.407,5.921-.192,6.487-.553l.066-.042a35.963,35.963,0,0,0,5.362-2.185,34.119,34.119,0,0,0,4.568-3.177s-4.17,6.951-2.581,9.135,6.354,1.192,6.354,1.192,3.177,4.17,5.163,3.177-.795-4.766,2.184-6.156,5.362,4.568,5.362,5.56S152.381,210.806,154.168,209.416Z" transform="translate(-48.588 -78.869)" fill="none" stroke="#263238" stroke-miterlimit="10" stroke-width="1"/>
            <path id="Trazado_815389" data-name="Trazado 815389" d="M165.651,215.4l-13.885,16.137a13.651,13.651,0,0,1-5.759-2.185c-2.383-1.787-4.369-6.156-4.369-6.156s10.128-11.121,15.291-14.3c4.507-2.773,5.987-3.277,6.291-3.36-.176-.674-.361-1.352-.556-2.026a44.127,44.127,0,0,0-9.309,6.18c-5.535,4.5-17.244,16.223-20.173,19.174a1.613,1.613,0,0,0,.712,1.281c1.391.794,11.32,10.723,14.5,10.525a4.886,4.886,0,0,0,1.87-.56,43.481,43.481,0,0,1,2.5-7.781c1.028-1.886,11.227-12.941,14-15.93Z" transform="translate(-57.902 -88.479)" fill="#1b3f5e"/>
            <path id="Trazado_815390" data-name="Trazado 815390" d="M165.651,215.4l-13.885,16.137a13.651,13.651,0,0,1-5.759-2.185c-2.383-1.787-4.369-6.156-4.369-6.156s10.128-11.121,15.291-14.3c4.507-2.773,5.987-3.277,6.291-3.36-.176-.674-.361-1.352-.556-2.026a44.127,44.127,0,0,0-9.309,6.18c-5.535,4.5-17.244,16.223-20.173,19.174a1.613,1.613,0,0,0,.712,1.281c1.391.794,11.32,10.723,14.5,10.525a4.886,4.886,0,0,0,1.87-.56,43.481,43.481,0,0,1,2.5-7.781c1.028-1.886,11.227-12.941,14-15.93Z" transform="translate(-57.902 -88.479)" fill="none" stroke="#263238" stroke-linecap="round" stroke-linejoin="round" stroke-width="1"/>
            <path id="Trazado_815391" data-name="Trazado 815391" d="M158.89,223.169s-1.787-6.354.6-7.546,5.362,1.39,5.759,4.17a14.11,14.11,0,0,1-.993,6.157,9.993,9.993,0,0,1,.794,5.759" transform="translate(-68.799 -93.615)" fill="#fff"/>
            <path id="Trazado_815392" data-name="Trazado 815392" d="M158.89,223.169s-1.787-6.354.6-7.546,5.362,1.39,5.759,4.17a14.11,14.11,0,0,1-.993,6.157,9.993,9.993,0,0,1,.794,5.759" transform="translate(-68.799 -93.615)" fill="none" stroke="#263238" stroke-miterlimit="10" stroke-width="1"/>
            <path id="Trazado_815393" data-name="Trazado 815393" d="M139.975,237.085c.395.766.392,1.554-.005,1.758s-1.039-.251-1.435-1.017-.392-1.554.005-1.758,1.04.251,1.435,1.017" transform="translate(-60.102 -102.612)" fill="#263238"/>
            <path id="Trazado_815394" data-name="Trazado 815394" d="M132.229,229.622s.231-2.775,3.585-2.2" transform="translate(-57.488 -98.841)" fill="none" stroke="#263238" stroke-miterlimit="10" stroke-width="1"/>
            <path id="Trazado_815395" data-name="Trazado 815395" d="M188.982,230.009,173.97,253.948l5.883,4.26,13.8-25.967Z" transform="translate(-75.635 -99.999)" fill="#fff"/>
            <path id="Trazado_815396" data-name="Trazado 815396" d="M188.982,230.009,173.97,253.948l5.883,4.26,13.8-25.967Z" transform="translate(-75.635 -99.999)" fill="none" stroke="#263238" stroke-miterlimit="10" stroke-width="1"/>
            <path id="Trazado_815397" data-name="Trazado 815397" d="M187.484,234.675s-11.564,20.084-13.8,24.547-8.723,15.418-9.129,21.91-2.434,44.631-2.434,44.631h46.659s3.449-29.01,3.246-40.168-3.043-27.59-11.564-38.748-12.984-12.172-12.984-12.172" transform="translate(-70.486 -102.027)" fill="#fff"/>
            <path id="Trazado_815398" data-name="Trazado 815398" d="M187.484,234.675s-11.564,20.084-13.8,24.547-8.723,15.418-9.129,21.91-2.434,44.631-2.434,44.631h46.659s3.449-29.01,3.246-40.168-3.043-27.59-11.564-38.748S187.484,234.675,187.484,234.675Z" transform="translate(-70.486 -102.027)" fill="none" stroke="#263238" stroke-miterlimit="10" stroke-width="1"/>
            <path id="Trazado_815399" data-name="Trazado 815399" d="M194.506,240.059s-6.9,12.984-11.564,20.49-10.752,15.62-12.375,20.286-1.623,6.695-1.623,6.695" transform="translate(-73.451 -104.368)" fill="none" stroke="#263238" stroke-miterlimit="10" stroke-width="1"/>
            <path id="Trazado_815400" data-name="Trazado 815400" d="M86.281,314.05,80.8,309.993s-2.637-6.695-4.26-8.52-3.854-1.42-5.274-3.043-3.043-5.274-3.854-5.68-2.637.608-2.637,2.232,1.826,4.26,1.826,4.868v.609s-6.9-2.029-7.709-1.42-1.623,2.637-1.015,3.651,1.826,1.42,1.826,2.232-1.42,3.449-.609,4.463a6.9,6.9,0,0,0,2.029,1.623s0,3.855,1.217,5.478,10.549,2.84,13.389,3.246,11.158,4.463,11.158,4.463Z" transform="translate(-25.071 -127.237)" fill="#92e3a9"/>
            <path id="Trazado_815401" data-name="Trazado 815401" d="M86.281,314.05,80.8,309.993s-2.637-6.695-4.26-8.52-3.854-1.42-5.274-3.043-3.043-5.274-3.854-5.68-2.637.608-2.637,2.232,1.826,4.26,1.826,4.868v.609s-6.9-2.029-7.709-1.42-1.623,2.637-1.015,3.651,1.826,1.42,1.826,2.232-1.42,3.449-.609,4.463a6.9,6.9,0,0,0,2.029,1.623s0,3.855,1.217,5.478,10.549,2.84,13.389,3.246,11.158,4.463,11.158,4.463Z" transform="translate(-25.071 -127.237)" fill="none" stroke="#263238" stroke-linecap="round" stroke-linejoin="round" stroke-width="1"/>
            <path id="Trazado_815402" data-name="Trazado 815402" d="M160.646,268.771a25.692,25.692,0,0,0-11.969,15.418c-3.246,11.158-5.274,22.721-5.274,22.721s-2.029-.405-2.029.812a6.364,6.364,0,0,1-.2,1.826l-35.3-6.695-.811,16.636s45.848,8.52,48.282,8.52,5.072-.812,5.884-2.84,14-31.647,14-31.647" transform="translate(-45.676 -116.851)" fill="#fff"/>
            <path id="Trazado_815403" data-name="Trazado 815403" d="M160.646,268.771a25.692,25.692,0,0,0-11.969,15.418c-3.246,11.158-5.274,22.721-5.274,22.721s-2.029-.405-2.029.812a6.364,6.364,0,0,1-.2,1.826l-35.3-6.695-.811,16.636s45.848,8.52,48.282,8.52,5.072-.812,5.884-2.84,14-31.647,14-31.647" transform="translate(-45.676 -116.851)" fill="none" stroke="#263238" stroke-miterlimit="10" stroke-width="1"/>
            <path id="Trazado_815404" data-name="Trazado 815404" d="M210.579,285.281s6.9,3.854,8.114,9.129" transform="translate(-91.551 -124.029)" fill="none" stroke="#263238" stroke-miterlimit="10" stroke-width="1"/>
            <path id="Trazado_815405" data-name="Trazado 815405" d="M201.965,295.689c.609,0,10.955.812,13.186,6.695" transform="translate(-87.806 -128.554)" fill="none" stroke="#263238" stroke-miterlimit="10" stroke-width="1"/>
            <path id="Trazado_815406" data-name="Trazado 815406" d="M218.833,318.738s7.912-3.651,10.346-11.564" transform="translate(-95.14 -133.547)" fill="none" stroke="#263238" stroke-miterlimit="10" stroke-width="1"/>
            <path id="Trazado_815407" data-name="Trazado 815407" d="M172.176,341.27s4.057,7.506,3.854,12.781" transform="translate(-74.855 -148.371)" fill="none" stroke="#263238" stroke-miterlimit="10" stroke-width="1"/>
            <path id="Trazado_815408" data-name="Trazado 815408" d="M176.482,339.117s4.057.812,6.9,6.289" transform="translate(-76.727 -147.435)" fill="none" stroke="#263238" stroke-miterlimit="10" stroke-width="1"/>
            <path id="Trazado_815409" data-name="Trazado 815409" d="M259.317,325.478h-7.3a3.123,3.123,0,0,0-2.921,2.434l-7.547,37.328h12.172l7.547-37.328a1.936,1.936,0,0,0-1.947-2.434" transform="translate(-105.015 -141.505)" fill="#263238"/>
            <path id="Trazado_815410" data-name="Trazado 815410" d="M259.317,325.478h-7.3a3.123,3.123,0,0,0-2.921,2.434l-7.547,37.328h12.172l7.547-37.328A1.936,1.936,0,0,0,259.317,325.478Z" transform="translate(-105.015 -141.505)" fill="none" stroke="#263238" stroke-miterlimit="10" stroke-width="1"/>
          </g>
        </g>
        <g id="Grupo_1070234" data-name="Grupo 1070234">
          <g id="Grupo_1070233" data-name="Grupo 1070233" clip-path="url(#clip-path)">
            <line id="Línea_906" data-name="Línea 906" x2="275.255" transform="translate(0 223.735)" fill="none" stroke="#263238" stroke-miterlimit="10" stroke-width="1"/>
            <path id="Trazado_815411" data-name="Trazado 815411" d="M27.936,374.165h-.35a2.279,2.279,0,0,1-2.279-2.279V348.911h4.908v22.975a2.279,2.279,0,0,1-2.279,2.279" transform="translate(-11.002 -151.693)" fill="#fff"/>
            <path id="Trazado_815412" data-name="Trazado 815412" d="M27.936,374.165h-.35a2.279,2.279,0,0,1-2.279-2.279V348.911h4.908v22.975A2.279,2.279,0,0,1,27.936,374.165Z" transform="translate(-11.002 -151.693)" fill="none" stroke="#263238" stroke-linecap="round" stroke-linejoin="round" stroke-width="1"/>
            <path id="Trazado_815413" data-name="Trazado 815413" d="M25.306,365.389v13.485a2.454,2.454,0,0,0,4.909,0V365.389Z" transform="translate(-11.002 -158.857)" fill="#b0c0d2"/>
            <path id="Trazado_815414" data-name="Trazado 815414" d="M25.306,365.389v13.485a2.454,2.454,0,0,0,4.909,0V365.389Z" transform="translate(-11.002 -158.857)" fill="none" stroke="#263238" stroke-linecap="round" stroke-linejoin="round" stroke-width="1"/>
            <rect id="Rectángulo_376128" data-name="Rectángulo 376128" width="6.64" height="4.62" transform="translate(13.438 196.496)" fill="#fff"/>
            <rect id="Rectángulo_376129" data-name="Rectángulo 376129" width="6.64" height="4.62" transform="translate(13.438 196.496)" fill="none" stroke="#263238" stroke-linecap="round" stroke-linejoin="round" stroke-width="1"/>
            <path id="Trazado_815415" data-name="Trazado 815415" d="M44.648,374.165h0a2.454,2.454,0,0,1-2.454-2.454v-22.8H47.1v22.8a2.454,2.454,0,0,1-2.454,2.454" transform="translate(-18.344 -151.693)" fill="#fff"/>
            <path id="Trazado_815416" data-name="Trazado 815416" d="M44.648,374.165h0a2.454,2.454,0,0,1-2.454-2.454v-22.8H47.1v22.8A2.454,2.454,0,0,1,44.648,374.165Z" transform="translate(-18.344 -151.693)" fill="none" stroke="#263238" stroke-linecap="round" stroke-linejoin="round" stroke-width="1"/>
            <path id="Trazado_815417" data-name="Trazado 815417" d="M42.194,365.389v13.485a2.454,2.454,0,1,0,4.908,0V365.389Z" transform="translate(-18.344 -158.857)" fill="#727997"/>
            <path id="Trazado_815418" data-name="Trazado 815418" d="M42.194,365.389v13.485a2.454,2.454,0,1,0,4.908,0V365.389Z" transform="translate(-18.344 -158.857)" fill="none" stroke="#263238" stroke-linecap="round" stroke-linejoin="round" stroke-width="1"/>
            <rect id="Rectángulo_376130" data-name="Rectángulo 376130" width="6.64" height="4.62" transform="translate(22.984 196.496)" fill="#fff"/>
            <rect id="Rectángulo_376131" data-name="Rectángulo 376131" width="6.64" height="4.62" transform="translate(22.984 196.496)" fill="none" stroke="#263238" stroke-linecap="round" stroke-linejoin="round" stroke-width="1"/>
            <path id="Trazado_815419" data-name="Trazado 815419" d="M61.536,374.165h0a2.454,2.454,0,0,1-2.454-2.454v-22.8h4.909v22.8a2.454,2.454,0,0,1-2.454,2.454" transform="translate(-25.687 -151.693)" fill="#fff"/>
            <path id="Trazado_815420" data-name="Trazado 815420" d="M61.536,374.165h0a2.454,2.454,0,0,1-2.454-2.454v-22.8h4.909v22.8A2.454,2.454,0,0,1,61.536,374.165Z" transform="translate(-25.687 -151.693)" fill="none" stroke="#263238" stroke-linecap="round" stroke-linejoin="round" stroke-width="1"/>
            <path id="Trazado_815421" data-name="Trazado 815421" d="M59.082,365.389v13.485a2.454,2.454,0,0,0,4.909,0V365.389Z" transform="translate(-25.687 -158.857)" fill="#dee4f0"/>
            <path id="Trazado_815422" data-name="Trazado 815422" d="M59.082,365.389v13.485a2.454,2.454,0,0,0,4.909,0V365.389Z" transform="translate(-25.687 -158.857)" fill="none" stroke="#263238" stroke-linecap="round" stroke-linejoin="round" stroke-width="1"/>
            <rect id="Rectángulo_376132" data-name="Rectángulo 376132" width="6.64" height="4.62" transform="translate(32.53 196.496)" fill="#fff"/>
            <rect id="Rectángulo_376133" data-name="Rectángulo 376133" width="6.64" height="4.62" transform="translate(32.53 196.496)" fill="none" stroke="#263238" stroke-linecap="round" stroke-linejoin="round" stroke-width="1"/>
            <path id="Trazado_815423" data-name="Trazado 815423" d="M78.424,374.165h0a2.454,2.454,0,0,1-2.454-2.454v-22.8h4.909v22.8a2.454,2.454,0,0,1-2.454,2.454" transform="translate(-33.029 -151.693)" fill="#fff"/>
            <path id="Trazado_815424" data-name="Trazado 815424" d="M78.424,374.165h0a2.454,2.454,0,0,1-2.454-2.454v-22.8h4.909v22.8A2.454,2.454,0,0,1,78.424,374.165Z" transform="translate(-33.029 -151.693)" fill="none" stroke="#263238" stroke-linecap="round" stroke-linejoin="round" stroke-width="1"/>
            <path id="Trazado_815425" data-name="Trazado 815425" d="M75.97,365.389v13.485a2.454,2.454,0,1,0,4.908,0V365.389Z" transform="translate(-33.029 -158.857)" fill="#fffad0"/>
            <path id="Trazado_815426" data-name="Trazado 815426" d="M75.97,365.389v13.485a2.454,2.454,0,1,0,4.908,0V365.389Z" transform="translate(-33.029 -158.857)" fill="none" stroke="#263238" stroke-linecap="round" stroke-linejoin="round" stroke-width="1"/>
            <rect id="Rectángulo_376134" data-name="Rectángulo 376134" width="6.64" height="4.62" transform="translate(42.075 196.496)" fill="#fff"/>
            <rect id="Rectángulo_376135" data-name="Rectángulo 376135" width="6.64" height="4.62" transform="translate(42.075 196.496)" fill="none" stroke="#263238" stroke-linecap="round" stroke-linejoin="round" stroke-width="1"/>
            <path id="Trazado_815427" data-name="Trazado 815427" d="M59.052,360.213H16.3v1.453H59.052v15.148H14.229v3.528H61.957V360.213Z" transform="translate(-6.186 -156.606)" fill="#fff"/>
            <path id="Trazado_815428" data-name="Trazado 815428" d="M59.052,360.213H16.3v1.453H59.052v15.148H14.229v3.528H61.957V360.213Z" transform="translate(-6.186 -156.606)" fill="none" stroke="#263238" stroke-linecap="round" stroke-linejoin="round" stroke-width="1"/>
            <path id="Trazado_815429" data-name="Trazado 815429" d="M362.307,369.47l-5.59-21.711v-5.935H348.8v5.935l-5.59,21.711a2.3,2.3,0,0,0,2.23,2.877h14.633a2.3,2.3,0,0,0,2.23-2.877" transform="translate(-149.184 -148.612)" fill="#fff"/>
            <path id="Trazado_815430" data-name="Trazado 815430" d="M362.307,369.47l-5.59-21.711v-5.935H348.8v5.935l-5.59,21.711a2.3,2.3,0,0,0,2.23,2.877h14.633A2.3,2.3,0,0,0,362.307,369.47Z" transform="translate(-149.184 -148.612)" fill="none" stroke="#263238" stroke-miterlimit="10" stroke-width="1"/>
            <path id="Trazado_815431" data-name="Trazado 815431" d="M359.035,371.324h-9.941l-2.934,11.394a.608.608,0,0,0,.588.759h14.634a.607.607,0,0,0,.587-.759Z" transform="translate(-150.488 -161.437)" fill="#d2e1f1"/>
            <path id="Trazado_815432" data-name="Trazado 815432" d="M394.557,349.862V337.324h-7.348v12.538a10.6,10.6,0,1,0,7.348,0" transform="translate(-165.333 -146.655)" fill="#fff"/>
            <path id="Trazado_815433" data-name="Trazado 815433" d="M394.557,349.862V337.324h-7.348v12.538a10.6,10.6,0,1,0,7.348,0Z" transform="translate(-165.333 -146.655)" fill="none" stroke="#263238" stroke-miterlimit="10" stroke-width="1"/>
            <path id="Trazado_815434" data-name="Trazado 815434" d="M382.677,372.324a9.467,9.467,0,1,0,18.152,0Z" transform="translate(-166.203 -161.872)" fill="#b0c0d2"/>
            <path id="Trazado_815435" data-name="Trazado 815435" d="M436.83,354.185V331.214h-4.85v22.971a6.995,6.995,0,1,0,4.85,0" transform="translate(-185.821 -143.999)" fill="#fff"/>
            <path id="Trazado_815436" data-name="Trazado 815436" d="M436.83,354.185V331.214h-4.85v22.971a6.995,6.995,0,1,0,4.85,0Z" transform="translate(-185.821 -143.999)" fill="none" stroke="#263238" stroke-miterlimit="10" stroke-width="1"/>
            <path id="Trazado_815437" data-name="Trazado 815437" d="M428.989,380.314a6.249,6.249,0,1,0,11.98,0Z" transform="translate(-186.395 -165.346)" fill="#727997"/>
          </g>
        </g>
      </g>
    </g>
  </g>
</svg>
