<svg xmlns="http://www.w3.org/2000/svg" xmlns:xlink="http://www.w3.org/1999/xlink" width="505" height="742" viewBox="0 0 505 742">
  <defs>
    <linearGradient id="linear-gradient" x1="0.5" x2="0.5" y2="1" gradientUnits="objectBoundingBox">
      <stop offset="0" stop-color="#f9fef5"/>
      <stop offset="1" stop-color="#e7f7f8"/>
    </linearGradient>
    <clipPath id="clip-path">
      <rect id="Rectángulo_376202" data-name="Rectángulo 376202" width="77.779" height="86.272" fill="none"/>
    </clipPath>
  </defs>
  <g id="Grupo_1072695" data-name="Grupo 1072695" transform="translate(-6409 8331)">
    <g id="Grupo_1070289" data-name="Grupo 1070289">
      <path id="Trazado_828211" data-name="Trazado 828211" d="M0,0H505V742H0Z" transform="translate(6409 -8331)" fill="url(#linear-gradient)"/>
      <path id="Trazado_828212" data-name="Trazado 828212" d="M8.9-5.432H4.052v3.059h5.73V0H.967V-12.8H9.8v2.382H4.052v2.7H8.9Zm6.979,2.76a.684.684,0,0,0-.4-.606,6.016,6.016,0,0,0-1.5-.475A6.853,6.853,0,0,1,12.155-4.4a3.062,3.062,0,0,1-1.1-.971,2.319,2.319,0,0,1-.378-1.31A2.628,2.628,0,0,1,11.76-8.837a4.453,4.453,0,0,1,2.83-.848,4.934,4.934,0,0,1,3.023.853,2.666,2.666,0,0,1,1.143,2.241H15.785q0-1.143-1.2-1.143a1.194,1.194,0,0,0-.782.259.8.8,0,0,0-.316.646.737.737,0,0,0,.387.642,3.654,3.654,0,0,0,1.235.4,10.671,10.671,0,0,1,1.49.378A2.706,2.706,0,0,1,18.738-2.76,2.491,2.491,0,0,1,17.583-.642,5.068,5.068,0,0,1,14.59.176a5.172,5.172,0,0,1-2.18-.439,3.645,3.645,0,0,1-1.494-1.2A2.707,2.707,0,0,1,10.38-3.05h2.769a1.145,1.145,0,0,0,.439.962,1.808,1.808,0,0,0,1.081.3,1.422,1.422,0,0,0,.91-.246A.787.787,0,0,0,15.882-2.672Zm8.262.563a1.317,1.317,0,0,0,.967-.338,1.241,1.241,0,0,0,.334-.945h2.777A3.288,3.288,0,0,1,27.1-.826a4.168,4.168,0,0,1-2.887,1,4.22,4.22,0,0,1-3.27-1.3,5.125,5.125,0,0,1-1.2-3.6v-.123A5.792,5.792,0,0,1,20.281-7.4a3.872,3.872,0,0,1,1.534-1.7,4.573,4.573,0,0,1,2.373-.593,4.116,4.116,0,0,1,2.944,1.028,3.647,3.647,0,0,1,1.09,2.786H25.444A1.626,1.626,0,0,0,25.084-7a1.244,1.244,0,0,0-.967-.4q-1.151,0-1.345,1.468a10.357,10.357,0,0,0-.062,1.283,4.068,4.068,0,0,0,.343,1.986A1.187,1.187,0,0,0,24.144-2.109ZM34.831,0a3.344,3.344,0,0,1-.281-.853A2.754,2.754,0,0,1,32.265.176a3.374,3.374,0,0,1-2.285-.813,2.588,2.588,0,0,1-.94-2.043,2.66,2.66,0,0,1,1.143-2.338A5.821,5.821,0,0,1,33.5-5.81h.914v-.5q0-1.316-1.134-1.316a.927.927,0,0,0-1.055,1.042H29.268a2.655,2.655,0,0,1,1.173-2.239,4.931,4.931,0,0,1,2.993-.86,4.323,4.323,0,0,1,2.874.888,3.086,3.086,0,0,1,1.081,2.435v4.21a4.311,4.311,0,0,0,.4,2V0ZM32.977-1.934a1.652,1.652,0,0,0,.918-.237,1.487,1.487,0,0,0,.523-.536V-4.228h-.861q-1.547,0-1.547,1.389a.848.848,0,0,0,.272.655A.986.986,0,0,0,32.977-1.934ZM42.152,0H39.182V-13.5h2.971Zm7.181,0a3.344,3.344,0,0,1-.281-.853A2.754,2.754,0,0,1,46.767.176a3.374,3.374,0,0,1-2.285-.813,2.588,2.588,0,0,1-.94-2.043,2.66,2.66,0,0,1,1.143-2.338,5.821,5.821,0,0,1,3.322-.791h.914v-.5q0-1.316-1.134-1.316a.927.927,0,0,0-1.055,1.042H43.77a2.655,2.655,0,0,1,1.173-2.239,4.931,4.931,0,0,1,2.993-.86A4.323,4.323,0,0,1,50.81-8.8a3.086,3.086,0,0,1,1.081,2.435v4.21a4.311,4.311,0,0,0,.4,2V0ZM47.479-1.934a1.652,1.652,0,0,0,.918-.237,1.487,1.487,0,0,0,.523-.536V-4.228h-.861q-1.547,0-1.547,1.389a.848.848,0,0,0,.272.655A.986.986,0,0,0,47.479-1.934ZM66.841-4.685a5.735,5.735,0,0,1-1,3.538A3.2,3.2,0,0,1,63.149.176,2.742,2.742,0,0,1,61-.782V3.656H58.034V-9.51H60.8l.088.879a2.742,2.742,0,0,1,2.241-1.055,3.224,3.224,0,0,1,2.733,1.3,5.805,5.805,0,0,1,.976,3.564Zm-2.962-.185Q63.879-7.4,62.4-7.4A1.394,1.394,0,0,0,61-6.645V-2.9a1.439,1.439,0,0,0,1.424.791q1.415,0,1.459-2.443ZM78.979,0H75.911V-5.344H71.367V0H68.282V-12.8h3.085v5.08h4.544V-12.8h3.067Z" transform="translate(6505 -8270.246)" fill="#12263f"/>
      <path id="Trazado_828213" data-name="Trazado 828213" d="M1.079,0V-12.086H5.313a5.559,5.559,0,0,1,3.337.843A2.881,2.881,0,0,1,9.787-8.774,2.731,2.731,0,0,1,9.33-7.209a2.637,2.637,0,0,1-1.27.992,2.551,2.551,0,0,1,1.465.938,2.773,2.773,0,0,1,.535,1.727A3.19,3.19,0,0,1,8.948-.913,5.007,5.007,0,0,1,5.777,0Zm2.49-5.263V-2H5.7A2.059,2.059,0,0,0,7.076-2.42,1.437,1.437,0,0,0,7.57-3.578,1.518,1.518,0,0,0,5.852-5.263Zm0-1.76H5.412Q7.3-7.056,7.3-8.525a1.388,1.388,0,0,0-.477-1.183,2.51,2.51,0,0,0-1.507-.361H3.569ZM16.975,0a2.664,2.664,0,0,1-.241-.805,2.9,2.9,0,0,1-2.266.971A3.189,3.189,0,0,1,12.281-.6a2.456,2.456,0,0,1-.867-1.926,2.538,2.538,0,0,1,1.058-2.191,5.222,5.222,0,0,1,3.059-.772h1.1V-6a1.48,1.48,0,0,0-.32-1,1.257,1.257,0,0,0-1.009-.374,1.429,1.429,0,0,0-.95.291.987.987,0,0,0-.344.8h-2.4a2.41,2.41,0,0,1,.481-1.444A3.182,3.182,0,0,1,13.456-8.77a4.961,4.961,0,0,1,1.976-.378,3.92,3.92,0,0,1,2.635.834,2.918,2.918,0,0,1,.975,2.345v3.893A4.294,4.294,0,0,0,19.4-.141V0ZM14.991-1.668a2.066,2.066,0,0,0,.979-.237,1.554,1.554,0,0,0,.664-.635V-4.084h-.9q-1.8,0-1.917,1.245l-.008.141a.96.96,0,0,0,.315.739A1.225,1.225,0,0,0,14.991-1.668Zm9.629-.1A1.573,1.573,0,0,0,25.7-2.133a1.28,1.28,0,0,0,.432-.971h2.25a3.077,3.077,0,0,1-.5,1.673A3.286,3.286,0,0,1,26.542-.253a4.2,4.2,0,0,1-1.88.419,3.9,3.9,0,0,1-3.038-1.224,4.845,4.845,0,0,1-1.112-3.383V-4.6a4.79,4.79,0,0,1,1.1-3.312,3.854,3.854,0,0,1,3.03-1.237,3.778,3.778,0,0,1,2.7.959A3.4,3.4,0,0,1,28.38-5.636h-2.25A1.648,1.648,0,0,0,25.7-6.775a1.439,1.439,0,0,0-1.1-.438,1.445,1.445,0,0,0-1.266.611A3.541,3.541,0,0,0,22.91-4.62v.249a3.586,3.586,0,0,0,.423,2A1.463,1.463,0,0,0,24.62-1.768Zm8-9.421v2.208h1.536v1.76H32.622v4.482a1.07,1.07,0,0,0,.191.714.959.959,0,0,0,.73.216,3.826,3.826,0,0,0,.706-.058V-.05A4.939,4.939,0,0,1,32.8.166a2.29,2.29,0,0,1-2.573-2.548V-7.222H28.912v-1.76h1.312v-2.208ZM39.628.166a4.409,4.409,0,0,1-3.217-1.212A4.308,4.308,0,0,1,35.17-4.275v-.232a5.426,5.426,0,0,1,.523-2.42,3.838,3.838,0,0,1,1.482-1.644,4.159,4.159,0,0,1,2.187-.577,3.727,3.727,0,0,1,2.9,1.162,4.722,4.722,0,0,1,1.058,3.3v.979H37.6A2.229,2.229,0,0,0,38.3-2.3a2.12,2.12,0,0,0,1.482.531,2.589,2.589,0,0,0,2.167-1l1.179,1.32A3.6,3.6,0,0,1,41.67-.261,4.793,4.793,0,0,1,39.628.166Zm-.274-7.379A1.5,1.5,0,0,0,38.2-6.73a2.5,2.5,0,0,0-.569,1.384h3.337v-.192a1.786,1.786,0,0,0-.432-1.238A1.547,1.547,0,0,0,39.354-7.213Zm10.376.481a6.517,6.517,0,0,0-.863-.066,1.757,1.757,0,0,0-1.785.921V0h-2.4V-8.981h2.266l.066,1.071a2.223,2.223,0,0,1,2-1.237,2.514,2.514,0,0,1,.747.108ZM53.416,0H51.008V-8.981h2.407ZM50.867-11.306a1.181,1.181,0,0,1,.361-.888,1.356,1.356,0,0,1,.984-.349,1.36,1.36,0,0,1,.979.349,1.175,1.175,0,0,1,.365.888,1.178,1.178,0,0,1-.369.9,1.363,1.363,0,0,1-.975.349,1.363,1.363,0,0,1-.975-.349A1.178,1.178,0,0,1,50.867-11.306ZM60.6,0a2.664,2.664,0,0,1-.241-.805,2.9,2.9,0,0,1-2.266.971A3.189,3.189,0,0,1,55.9-.6a2.456,2.456,0,0,1-.867-1.926,2.538,2.538,0,0,1,1.058-2.191,5.222,5.222,0,0,1,3.059-.772h1.1V-6a1.48,1.48,0,0,0-.32-1,1.257,1.257,0,0,0-1.009-.374,1.429,1.429,0,0,0-.95.291.987.987,0,0,0-.344.8h-2.4a2.41,2.41,0,0,1,.481-1.444A3.182,3.182,0,0,1,57.076-8.77a4.961,4.961,0,0,1,1.976-.378,3.92,3.92,0,0,1,2.635.834,2.918,2.918,0,0,1,.975,2.345v3.893A4.294,4.294,0,0,0,63.02-.141V0ZM58.612-1.668a2.066,2.066,0,0,0,.979-.237,1.554,1.554,0,0,0,.664-.635V-4.084h-.9q-1.8,0-1.917,1.245l-.008.141a.96.96,0,0,0,.315.739A1.225,1.225,0,0,0,58.612-1.668ZM69.37-2.482a.773.773,0,0,0-.436-.693,4.95,4.95,0,0,0-1.4-.452q-3.2-.672-3.2-2.723a2.468,2.468,0,0,1,.992-2,4,4,0,0,1,2.594-.8,4.307,4.307,0,0,1,2.735.805A2.538,2.538,0,0,1,71.677-6.25h-2.4a1.161,1.161,0,0,0-.332-.851,1.405,1.405,0,0,0-1.038-.336,1.436,1.436,0,0,0-.938.274.865.865,0,0,0-.332.7.739.739,0,0,0,.378.643,3.885,3.885,0,0,0,1.274.423A10.407,10.407,0,0,1,69.8-5a2.482,2.482,0,0,1,1.9,2.416A2.343,2.343,0,0,1,70.648-.594a4.548,4.548,0,0,1-2.723.76,4.75,4.75,0,0,1-2-.4,3.363,3.363,0,0,1-1.374-1.1,2.565,2.565,0,0,1-.5-1.515h2.274a1.252,1.252,0,0,0,.473.979,1.877,1.877,0,0,0,1.179.34A1.737,1.737,0,0,0,69.017-1.8.814.814,0,0,0,69.37-2.482Z" transform="translate(6450 -7957.623)" fill="#12263f"/>
      <path id="Trazado_828214" data-name="Trazado 828214" d="M10.691,0h-1.6L3-9.313V0H1.4V-12.086H3l6.1,9.355v-9.355h1.585Zm6.317.166a3.924,3.924,0,0,1-2.972-1.2,4.452,4.452,0,0,1-1.146-3.208v-.282A5.39,5.39,0,0,1,13.4-6.91a3.982,3.982,0,0,1,1.428-1.644,3.59,3.59,0,0,1,1.988-.594A3.364,3.364,0,0,1,19.54-7.994a5,5,0,0,1,.971,3.3v.639H14.427A3.193,3.193,0,0,0,15.2-1.905a2.44,2.44,0,0,0,1.888.818,2.675,2.675,0,0,0,1.378-.332,3.462,3.462,0,0,0,.988-.88l.938.73A3.772,3.772,0,0,1,17.008.166Zm-.191-8.052a2.048,2.048,0,0,0-1.561.677,3.288,3.288,0,0,0-.78,1.9h4.5v-.116a2.925,2.925,0,0,0-.631-1.814A1.928,1.928,0,0,0,16.817-7.886Zm11.015,7A3.262,3.262,0,0,1,25.2.166a2.792,2.792,0,0,1-2.187-.834,3.611,3.611,0,0,1-.76-2.469V-8.981H23.79v5.8q0,2.042,1.66,2.042a2.3,2.3,0,0,0,2.341-1.312V-8.981h1.536V0H27.866Zm5.91-10.268v2.175h1.677v1.187H33.743v5.577a1.247,1.247,0,0,0,.224.81.943.943,0,0,0,.764.27,3.718,3.718,0,0,0,.73-.1V0a4.478,4.478,0,0,1-1.179.165A1.912,1.912,0,0,1,32.73-.457a2.675,2.675,0,0,1-.523-1.768v-5.57H30.572V-8.981h1.635v-2.175ZM41.554-7.6a4.6,4.6,0,0,0-.755-.058,2.024,2.024,0,0,0-2.05,1.287V0H37.212V-8.981h1.494l.025,1.038a2.391,2.391,0,0,1,2.142-1.2,1.569,1.569,0,0,1,.681.116Zm.838,3.03a5.3,5.3,0,0,1,.519-2.374,3.87,3.87,0,0,1,1.444-1.627,3.932,3.932,0,0,1,2.113-.573,3.788,3.788,0,0,1,2.968,1.27A4.886,4.886,0,0,1,50.568-4.5v.108a5.351,5.351,0,0,1-.5,2.353A3.813,3.813,0,0,1,48.63-.415a3.977,3.977,0,0,1-2.146.581A3.778,3.778,0,0,1,43.525-1.1a4.861,4.861,0,0,1-1.133-3.362Zm1.544.183a3.842,3.842,0,0,0,.693,2.4,2.218,2.218,0,0,0,1.855.9A2.2,2.2,0,0,0,48.344-2a4.2,4.2,0,0,0,.689-2.569,3.836,3.836,0,0,0-.7-2.395,2.23,2.23,0,0,0-1.864-.917,2.205,2.205,0,0,0-1.834.9A4.17,4.17,0,0,0,43.936-4.391Z" transform="translate(6804 -7958.246)" fill="#12263f"/>
      <path id="Trazado_828215" data-name="Trazado 828215" d="M8.077-3.163H3.013L1.876,0H.232L4.848-12.086H6.242L10.866,0H9.23Zm-4.582-1.3H7.6L5.545-10.119ZM13.92,0H12.385V-12.75H13.92Zm6.06-1.087a2.212,2.212,0,0,0,1.436-.5A1.752,1.752,0,0,0,22.1-2.831h1.453a2.785,2.785,0,0,1-.531,1.469A3.5,3.5,0,0,1,21.711-.249,3.772,3.772,0,0,1,19.98.166a3.7,3.7,0,0,1-2.918-1.224,4.877,4.877,0,0,1-1.083-3.349v-.257A5.407,5.407,0,0,1,16.46-7a3.667,3.667,0,0,1,1.382-1.585,3.926,3.926,0,0,1,2.129-.564,3.6,3.6,0,0,1,2.511.9,3.234,3.234,0,0,1,1.067,2.349H22.1a2.116,2.116,0,0,0-.66-1.432,2.053,2.053,0,0,0-1.465-.56,2.149,2.149,0,0,0-1.814.843,3.957,3.957,0,0,0-.643,2.436v.291a3.878,3.878,0,0,0,.639,2.391A2.16,2.16,0,0,0,19.98-1.087ZM30.821,0A3.226,3.226,0,0,1,30.6-.946,3.426,3.426,0,0,1,28.048.166a3.17,3.17,0,0,1-2.179-.751,2.43,2.43,0,0,1-.851-1.905,2.539,2.539,0,0,1,1.067-2.179,5.029,5.029,0,0,1,3-.776H30.58v-.706A1.725,1.725,0,0,0,30.1-7.433a1.935,1.935,0,0,0-1.419-.477A2.239,2.239,0,0,0,27.3-7.5a1.223,1.223,0,0,0-.556,1H25.2a2.119,2.119,0,0,1,.477-1.3,3.258,3.258,0,0,1,1.295-.992,4.356,4.356,0,0,1,1.8-.365,3.551,3.551,0,0,1,2.432.776,2.8,2.8,0,0,1,.913,2.137V-2.1a5.054,5.054,0,0,0,.315,1.967V0ZM28.272-1.17a2.7,2.7,0,0,0,1.37-.374,2.259,2.259,0,0,0,.938-.971V-4.358h-1.2q-2.822,0-2.822,1.652a1.4,1.4,0,0,0,.481,1.129A1.85,1.85,0,0,0,28.272-1.17ZM36.191,0H34.656V-12.75h1.536Zm4.125,0H38.781V-8.981h1.536Zm-1.66-11.364a.917.917,0,0,1,.228-.631.857.857,0,0,1,.677-.257.87.87,0,0,1,.681.257.907.907,0,0,1,.232.631.877.877,0,0,1-.232.623.886.886,0,0,1-.681.249.872.872,0,0,1-.677-.249A.886.886,0,0,1,38.657-11.364Zm5.57,2.382.05,1.129a3.273,3.273,0,0,1,2.689-1.295q2.847,0,2.872,3.212V0H48.3V-5.943a2.068,2.068,0,0,0-.444-1.436A1.78,1.78,0,0,0,46.5-7.844a2.216,2.216,0,0,0-1.312.4A2.706,2.706,0,0,0,44.31-6.4V0H42.774V-8.981Zm7.521,4.408a5.3,5.3,0,0,1,.519-2.374A3.87,3.87,0,0,1,53.71-8.575a3.932,3.932,0,0,1,2.113-.573,3.788,3.788,0,0,1,2.968,1.27A4.886,4.886,0,0,1,59.923-4.5v.108a5.351,5.351,0,0,1-.5,2.353A3.813,3.813,0,0,1,57.985-.415a3.977,3.977,0,0,1-2.146.581A3.778,3.778,0,0,1,52.88-1.1a4.861,4.861,0,0,1-1.133-3.362Zm1.544.183a3.842,3.842,0,0,0,.693,2.4,2.218,2.218,0,0,0,1.855.9A2.2,2.2,0,0,0,57.7-2a4.2,4.2,0,0,0,.689-2.569,3.836,3.836,0,0,0-.7-2.395,2.23,2.23,0,0,0-1.864-.917,2.205,2.205,0,0,0-1.834.9A4.17,4.17,0,0,0,53.291-4.391Z" transform="translate(6804 -8138.246)" fill="#12263f"/>
      <path id="Trazado_828216" data-name="Trazado 828216" d="M8.077-3.163H3.013L1.876,0H.232L4.848-12.086H6.242L10.866,0H9.23Zm-4.582-1.3H7.6L5.545-10.119ZM6.333-15.323H8.193l-2.225,2.44-1.237,0ZM15.854-1.087a2.212,2.212,0,0,0,1.436-.5,1.752,1.752,0,0,0,.681-1.245h1.453a2.785,2.785,0,0,1-.531,1.469A3.5,3.5,0,0,1,17.585-.249a3.772,3.772,0,0,1-1.731.415,3.7,3.7,0,0,1-2.918-1.224,4.877,4.877,0,0,1-1.083-3.349v-.257A5.407,5.407,0,0,1,12.335-7a3.667,3.667,0,0,1,1.382-1.585,3.926,3.926,0,0,1,2.129-.564,3.6,3.6,0,0,1,2.511.9,3.234,3.234,0,0,1,1.067,2.349H17.971a2.116,2.116,0,0,0-.66-1.432,2.053,2.053,0,0,0-1.465-.56,2.149,2.149,0,0,0-1.814.843,3.957,3.957,0,0,0-.643,2.436v.291a3.878,3.878,0,0,0,.639,2.391A2.16,2.16,0,0,0,15.854-1.087ZM22.819,0H21.283V-8.981h1.536Zm-1.66-11.364a.917.917,0,0,1,.228-.631.857.857,0,0,1,.677-.257.87.87,0,0,1,.681.257.907.907,0,0,1,.232.631.877.877,0,0,1-.232.623.886.886,0,0,1-.681.249.872.872,0,0,1-.677-.249A.886.886,0,0,1,21.159-11.364Zm3.744,6.8a5.261,5.261,0,0,1,.979-3.324,3.1,3.1,0,0,1,2.565-1.258,3.115,3.115,0,0,1,2.5,1.079V-12.75h1.536V0H31.07L31-.963A3.127,3.127,0,0,1,28.43.166a3.068,3.068,0,0,1-2.544-1.278A5.321,5.321,0,0,1,24.9-4.449Zm1.536.174A3.984,3.984,0,0,0,27.069-2a2.039,2.039,0,0,0,1.743.863,2.24,2.24,0,0,0,2.133-1.312V-6.574a2.257,2.257,0,0,0-2.117-1.27,2.049,2.049,0,0,0-1.76.872A4.386,4.386,0,0,0,26.438-4.391Zm8.019-.183a5.3,5.3,0,0,1,.519-2.374A3.87,3.87,0,0,1,36.42-8.575a3.932,3.932,0,0,1,2.113-.573A3.788,3.788,0,0,1,41.5-7.877,4.886,4.886,0,0,1,42.633-4.5v.108a5.351,5.351,0,0,1-.5,2.353A3.813,3.813,0,0,1,40.695-.415a3.977,3.977,0,0,1-2.146.581A3.778,3.778,0,0,1,35.59-1.1a4.861,4.861,0,0,1-1.133-3.362ZM36-4.391a3.842,3.842,0,0,0,.693,2.4,2.218,2.218,0,0,0,1.855.9A2.2,2.2,0,0,0,40.408-2,4.2,4.2,0,0,0,41.1-4.574a3.836,3.836,0,0,0-.7-2.395,2.23,2.23,0,0,0-1.864-.917,2.205,2.205,0,0,0-1.834.9A4.17,4.17,0,0,0,36-4.391Z" transform="translate(6804 -7776.246)" fill="#12263f"/>
      <g id="Trazado_828217" data-name="Trazado 828217" transform="translate(6450 -8301.246)" fill="none">
        <path d="M0,0H190V50H0Z" stroke="none"/>
        <path d="M 2 2 L 2 48 L 188 48 L 188 2 L 2 2 M 0 0 L 190 0 L 190 50 L 0 50 L 0 0 Z" stroke="none" fill="#3b5620"/>
      </g>
      <path id="Trazado_828218" data-name="Trazado 828218" d="M4,0H31a4,4,0,0,1,4,4V31a4,4,0,0,1-4,4H4a4,4,0,0,1-4-4V4A4,4,0,0,1,4,0Z" transform="translate(6743.981 -7981.246) rotate(90)" fill="#089924"/>
      <path id="Trazado_828219" data-name="Trazado 828219" d="M4,0H31a4,4,0,0,1,4,4V31a4,4,0,0,1-4,4H4a4,4,0,0,1-4-4V4A4,4,0,0,1,4,0Z" transform="translate(6743.981 -7936.246) rotate(90)" fill="#00bd7d"/>
      <path id="Trazado_828220" data-name="Trazado 828220" d="M4,0H31a4,4,0,0,1,4,4V31a4,4,0,0,1-4,4H4a4,4,0,0,1-4-4V4A4,4,0,0,1,4,0Z" transform="translate(6743.981 -8026.246) rotate(90)" fill="#49b045"/>
      <path id="Trazado_828221" data-name="Trazado 828221" d="M4,0H31a4,4,0,0,1,4,4V31a4,4,0,0,1-4,4H4a4,4,0,0,1-4-4V4A4,4,0,0,1,4,0Z" transform="translate(6743.981 -8071.246) rotate(90)" fill="#81cf2e"/>
      <path id="Trazado_828222" data-name="Trazado 828222" d="M4,0H31a4,4,0,0,1,4,4V31a4,4,0,0,1-4,4H4a4,4,0,0,1-4-4V4A4,4,0,0,1,4,0Z" transform="translate(6743.981 -8116.246) rotate(90)" fill="#cad634"/>
      <path id="Trazado_828223" data-name="Trazado 828223" d="M4,0H31a4,4,0,0,1,4,4V31a4,4,0,0,1-4,4H4a4,4,0,0,1-4-4V4A4,4,0,0,1,4,0Z" transform="translate(6743.981 -8161.246) rotate(90)" fill="#f4e31a"/>
      <path id="Trazado_828224" data-name="Trazado 828224" d="M4,0H31a4,4,0,0,1,4,4V31a4,4,0,0,1-4,4H4a4,4,0,0,1-4-4V4A4,4,0,0,1,4,0Z" transform="translate(6743.981 -8206.246) rotate(90)" fill="#ffb701"/>
      <path id="Trazado_828225" data-name="Trazado 828225" d="M4,0H31a4,4,0,0,1,4,4V31a4,4,0,0,1-4,4H4a4,4,0,0,1-4-4V4A4,4,0,0,1,4,0Z" transform="translate(6743.981 -8251.246) rotate(90)" fill="#f85616"/>
      <path id="Trazado_828226" data-name="Trazado 828226" d="M4,0H31a4,4,0,0,1,4,4V31a4,4,0,0,1-4,4H4a4,4,0,0,1-4-4V4A4,4,0,0,1,4,0Z" transform="translate(6743.981 -8296.246) rotate(90)" fill="#db1225"/>
      <path id="Trazado_828227" data-name="Trazado 828227" d="M4,0H31a4,4,0,0,1,4,4V31a4,4,0,0,1-4,4H4a4,4,0,0,1-4-4V4A4,4,0,0,1,4,0Z" transform="translate(6743.981 -7891.246) rotate(90)" fill="#46cfbf"/>
      <path id="Trazado_828228" data-name="Trazado 828228" d="M4,0H31a4,4,0,0,1,4,4V31a4,4,0,0,1-4,4H4a4,4,0,0,1-4-4V4A4,4,0,0,1,4,0Z" transform="translate(6743.981 -7846.246) rotate(90)" fill="#4690d0"/>
      <path id="Trazado_828229" data-name="Trazado 828229" d="M4,0H31a4,4,0,0,1,4,4V31a4,4,0,0,1-4,4H4a4,4,0,0,1-4-4V4A4,4,0,0,1,4,0Z" transform="translate(6743.981 -7801.246) rotate(90)" fill="#3355ae"/>
      <path id="Trazado_828230" data-name="Trazado 828230" d="M4,0H31a4,4,0,0,1,4,4V31a4,4,0,0,1-4,4H4a4,4,0,0,1-4-4V4A4,4,0,0,1,4,0Z" transform="translate(6743.981 -7756.246) rotate(90)" fill="#4d4eab"/>
      <path id="Trazado_828231" data-name="Trazado 828231" d="M4,0H31a4,4,0,0,1,4,4V31a4,4,0,0,1-4,4H4a4,4,0,0,1-4-4V4A4,4,0,0,1,4,0Z" transform="translate(6743.981 -7711.246) rotate(90)" fill="#562eab"/>
      <path id="Trazado_828232" data-name="Trazado 828232" d="M4,0H31a4,4,0,0,1,4,4V31a4,4,0,0,1-4,4H4a4,4,0,0,1-4-4V4A4,4,0,0,1,4,0Z" transform="translate(6743.981 -7666.246) rotate(90)" fill="#362690"/>
      <path id="Trazado_828233" data-name="Trazado 828233" d="M9.677-11.215,4.9,0H1.767l4.79-10.512H.457V-12.8h9.22Z" transform="translate(6720.981 -7957.246)" fill="#fff"/>
      <path id="Trazado_828234" data-name="Trazado 828234" d="M9.413-9.378a2.954,2.954,0,0,1-.461,1.644,3.361,3.361,0,0,1-1.27,1.143,3.7,3.7,0,0,1,1.45,1.226,3.164,3.164,0,0,1,.536,1.841A3.349,3.349,0,0,1,8.486-.817,4.909,4.909,0,0,1,5.229.176a5,5,0,0,1-3.287-1,3.325,3.325,0,0,1-1.2-2.7,3.2,3.2,0,0,1,.527-1.819A3.586,3.586,0,0,1,2.76-6.592,3.38,3.38,0,0,1,1.477-7.734a2.934,2.934,0,0,1-.466-1.644,3.284,3.284,0,0,1,1.134-2.637A4.558,4.558,0,0,1,5.2-12.981a4.586,4.586,0,0,1,3.076.967A3.284,3.284,0,0,1,9.413-9.378ZM6.7-3.762a1.69,1.69,0,0,0-.409-1.217,1.423,1.423,0,0,0-1.077-.426,1.438,1.438,0,0,0-1.081.426,1.678,1.678,0,0,0-.413,1.217,1.693,1.693,0,0,0,.417,1.208,1.433,1.433,0,0,0,1.094.444,1.377,1.377,0,0,0,1.063-.439A1.723,1.723,0,0,0,6.7-3.762ZM5.2-10.7a1.1,1.1,0,0,0-.91.391A1.7,1.7,0,0,0,3.981-9.22,1.8,1.8,0,0,0,4.3-8.112a1.092,1.092,0,0,0,.932.422,1.047,1.047,0,0,0,.91-.422,1.856,1.856,0,0,0,.3-1.107A1.7,1.7,0,0,0,6.13-10.3,1.109,1.109,0,0,0,5.2-10.7Z" transform="translate(6720.981 -7912.246)" fill="#fff"/>
      <path id="Trazado_828235" data-name="Trazado 828235" d="M7.937-12.981v2.329H7.8a4.447,4.447,0,0,0-2.729.8,3.358,3.358,0,0,0-1.314,2.21,3.464,3.464,0,0,1,2.531-.984A3.231,3.231,0,0,1,8.938-7.418a4.892,4.892,0,0,1,.984,3.182A4.48,4.48,0,0,1,9.347-2,4.108,4.108,0,0,1,7.739-.4a4.622,4.622,0,0,1-2.29.576,4.777,4.777,0,0,1-2.435-.62,4.26,4.26,0,0,1-1.67-1.771A5.832,5.832,0,0,1,.729-4.869V-6.056a7.387,7.387,0,0,1,.848-3.555A6.149,6.149,0,0,1,4-12.085a6.923,6.923,0,0,1,3.489-.9ZM5.265-6.363a1.7,1.7,0,0,0-.984.272,1.73,1.73,0,0,0-.589.668v.888q0,2.426,1.679,2.426A1.362,1.362,0,0,0,6.5-2.716a2.472,2.472,0,0,0,.453-1.521A2.426,2.426,0,0,0,6.491-5.77,1.476,1.476,0,0,0,5.265-6.363Z" transform="translate(6720.981 -8002.246)" fill="#fff"/>
      <path id="Trazado_828236" data-name="Trazado 828236" d="M.958-6.251,1.74-12.8H9.22v2.3H4.148l-.29,2.542a3.493,3.493,0,0,1,.831-.327A3.79,3.79,0,0,1,5.7-8.42,3.754,3.754,0,0,1,8.626-7.291,4.549,4.549,0,0,1,9.65-4.122,4.541,4.541,0,0,1,9.1-1.894,3.776,3.776,0,0,1,7.559-.36,4.87,4.87,0,0,1,5.212.176a5.24,5.24,0,0,1-2.259-.5A4.052,4.052,0,0,1,1.3-1.682,3.308,3.308,0,0,1,.712-3.636H3.683a1.68,1.68,0,0,0,.448,1.114,1.423,1.423,0,0,0,1.063.412q1.494,0,1.494-2.21,0-2.044-1.828-2.044A1.824,1.824,0,0,0,3.313-5.7Z" transform="translate(6720.981 -8047.246)" fill="#fff"/>
      <path id="Trazado_828237" data-name="Trazado 828237" d="M8.6-5h1.3v2.285H8.6V0H5.643V-2.716H.694L.519-4.526l5.124-8.244V-12.8H8.6ZM3.34-5h2.3V-8.938l-.185.3Z" transform="translate(6720.981 -8092.246)" fill="#fff"/>
      <path id="Trazado_828238" data-name="Trazado 828238" d="M3.489-7.638h1.4A1.453,1.453,0,0,0,6.548-9.264a1.406,1.406,0,0,0-.4-1.033,1.5,1.5,0,0,0-1.116-.4,1.606,1.606,0,0,0-1.024.343,1.046,1.046,0,0,0-.435.853H.615a3.032,3.032,0,0,1,.563-1.8,3.715,3.715,0,0,1,1.56-1.235,5.334,5.334,0,0,1,2.193-.444,5.241,5.241,0,0,1,3.357.976A3.243,3.243,0,0,1,9.51-9.325,2.7,2.7,0,0,1,9-7.765,3.6,3.6,0,0,1,7.532-6.574a3.441,3.441,0,0,1,1.6,1.121,2.951,2.951,0,0,1,.58,1.859A3.3,3.3,0,0,1,8.394-.853,5.472,5.472,0,0,1,4.931.176,5.675,5.675,0,0,1,2.6-.3,3.656,3.656,0,0,1,.967-1.63,3.45,3.45,0,0,1,.413-3.56H3.393a1.334,1.334,0,0,0,.475,1.02,1.676,1.676,0,0,0,1.169.431,1.755,1.755,0,0,0,1.248-.435A1.454,1.454,0,0,0,6.75-3.656a1.7,1.7,0,0,0-.483-1.371,2.021,2.021,0,0,0-1.336-.4H3.489Z" transform="translate(6720.981 -8137.246)" fill="#fff"/>
      <path id="Trazado_828239" data-name="Trazado 828239" d="M9.712,0H.782V-1.934L4.9-6.258A4.909,4.909,0,0,0,6.416-9.009a1.913,1.913,0,0,0-.36-1.257A1.287,1.287,0,0,0,5.01-10.7a1.3,1.3,0,0,0-1.1.576,2.366,2.366,0,0,0-.422,1.437H.519a4.2,4.2,0,0,1,.589-2.175,4.129,4.129,0,0,1,1.635-1.56,4.856,4.856,0,0,1,2.338-.562,4.777,4.777,0,0,1,3.195.958A3.42,3.42,0,0,1,9.4-9.272,4,4,0,0,1,9.114-7.8,6.456,6.456,0,0,1,8.24-6.3a22.029,22.029,0,0,1-1.912,2.1L4.676-2.285H9.712Z" transform="translate(6720.981 -8182.246)" fill="#fff"/>
      <path id="Trazado_828240" data-name="Trazado 828240" d="M7.348,0H4.377V-9.457L1.459-8.6v-2.25L7.075-12.8h.272Z" transform="translate(6720.981 -8227.246)" fill="#fff"/>
      <path id="Trazado_828241" data-name="Trazado 828241" d="M9.668-5.229a6.11,6.11,0,0,1-1.165,4A4.024,4.024,0,0,1,5.221.176a4.046,4.046,0,0,1-3.3-1.415A6.1,6.1,0,0,1,.747-5.229V-7.567a6.11,6.11,0,0,1,1.165-4A4.034,4.034,0,0,1,5.2-12.973a4.036,4.036,0,0,1,3.3,1.415,6.116,6.116,0,0,1,1.169,4ZM6.706-7.945a4.564,4.564,0,0,0-.36-2.061A1.2,1.2,0,0,0,5.2-10.687a1.176,1.176,0,0,0-1.112.633,4.3,4.3,0,0,0-.374,1.916v3.27a4.6,4.6,0,0,0,.36,2.1,1.209,1.209,0,0,0,1.143.664,1.193,1.193,0,0,0,1.116-.646,4.39,4.39,0,0,0,.369-2.026Z" transform="translate(6720.981 -8272.246)" fill="#fff"/>
      <path id="Trazado_828242" data-name="Trazado 828242" d="M6.618-4.948a3.128,3.128,0,0,1-2.145.861,3.463,3.463,0,0,1-2.76-1.178A4.64,4.64,0,0,1,.694-8.411,4.722,4.722,0,0,1,1.266-10.7a4.287,4.287,0,0,1,1.6-1.67,4.373,4.373,0,0,1,2.281-.615,4.245,4.245,0,0,1,2.29.637,4.29,4.29,0,0,1,1.6,1.8,6.189,6.189,0,0,1,.589,2.685v1.134A7.693,7.693,0,0,1,8.793-3.05,5.734,5.734,0,0,1,6.425-.659,7.4,7.4,0,0,1,2.839.176H2.654V-2.2l.563-.009Q6.275-2.355,6.618-4.948ZM5.273-6.223a1.442,1.442,0,0,0,1.389-.835v-1.23a3.2,3.2,0,0,0-.413-1.819A1.3,1.3,0,0,0,5.133-10.7a1.225,1.225,0,0,0-1.046.668,2.968,2.968,0,0,0-.422,1.617,2.661,2.661,0,0,0,.431,1.6A1.378,1.378,0,0,0,5.273-6.223Z" transform="translate(6720.981 -7867.246)" fill="#fff"/>
      <path id="Trazado_828243" data-name="Trazado 828243" d="M7.348,0H4.377V-9.457L1.459-8.6v-2.25L7.075-12.8h.272ZM20.092-5.229a6.11,6.11,0,0,1-1.165,4A4.024,4.024,0,0,1,15.645.176a4.046,4.046,0,0,1-3.3-1.415,6.1,6.1,0,0,1-1.169-3.99V-7.567a6.11,6.11,0,0,1,1.165-4,4.034,4.034,0,0,1,3.292-1.406,4.036,4.036,0,0,1,3.3,1.415,6.116,6.116,0,0,1,1.169,4ZM17.13-7.945a4.564,4.564,0,0,0-.36-2.061,1.2,1.2,0,0,0-1.143-.681,1.176,1.176,0,0,0-1.112.633,4.3,4.3,0,0,0-.374,1.916v3.27a4.6,4.6,0,0,0,.36,2.1,1.209,1.209,0,0,0,1.143.664,1.193,1.193,0,0,0,1.116-.646,4.39,4.39,0,0,0,.369-2.026Z" transform="translate(6715.481 -7822.746)" fill="#fff"/>
      <path id="Trazado_828244" data-name="Trazado 828244" d="M7.348,0H4.377V-9.457L1.459-8.6v-2.25L7.075-12.8h.272ZM17.771,0H14.8V-9.457L11.883-8.6v-2.25L17.5-12.8h.272Z" transform="translate(6715.481 -7777.746)" fill="#fff"/>
      <path id="Trazado_828245" data-name="Trazado 828245" d="M7.348,0H4.377V-9.457L1.459-8.6v-2.25L7.075-12.8h.272ZM20.136,0h-8.93V-1.934l4.113-4.324A4.909,4.909,0,0,0,16.84-9.009a1.913,1.913,0,0,0-.36-1.257,1.287,1.287,0,0,0-1.046-.431,1.3,1.3,0,0,0-1.1.576,2.366,2.366,0,0,0-.422,1.437H10.942a4.2,4.2,0,0,1,.589-2.175,4.129,4.129,0,0,1,1.635-1.56,4.856,4.856,0,0,1,2.338-.562,4.777,4.777,0,0,1,3.195.958,3.42,3.42,0,0,1,1.121,2.751A4,4,0,0,1,19.538-7.8a6.456,6.456,0,0,1-.875,1.5,22.029,22.029,0,0,1-1.912,2.1L15.1-2.285h5.036Z" transform="translate(6715.481 -7732.746)" fill="#fff"/>
      <path id="Trazado_828246" data-name="Trazado 828246" d="M7.348,0H4.377V-9.457L1.459-8.6v-2.25L7.075-12.8h.272Zm6.565-7.638h1.4a1.453,1.453,0,0,0,1.661-1.626,1.406,1.406,0,0,0-.4-1.033,1.5,1.5,0,0,0-1.116-.4,1.606,1.606,0,0,0-1.024.343A1.046,1.046,0,0,0,14-9.5H11.039a3.032,3.032,0,0,1,.563-1.8,3.715,3.715,0,0,1,1.56-1.235,5.334,5.334,0,0,1,2.193-.444,5.241,5.241,0,0,1,3.357.976,3.243,3.243,0,0,1,1.222,2.681,2.7,2.7,0,0,1-.505,1.56,3.6,3.6,0,0,1-1.472,1.191,3.441,3.441,0,0,1,1.6,1.121,2.951,2.951,0,0,1,.58,1.859A3.3,3.3,0,0,1,18.817-.853,5.472,5.472,0,0,1,15.354.176,5.675,5.675,0,0,1,13.021-.3a3.656,3.656,0,0,1-1.63-1.327,3.45,3.45,0,0,1-.554-1.929h2.979a1.334,1.334,0,0,0,.475,1.02,1.676,1.676,0,0,0,1.169.431,1.755,1.755,0,0,0,1.248-.435,1.454,1.454,0,0,0,.466-1.112,1.7,1.7,0,0,0-.483-1.371,2.021,2.021,0,0,0-1.336-.4H13.913Z" transform="translate(6715.481 -7687.746)" fill="#fff"/>
      <path id="Trazado_828247" data-name="Trazado 828247" d="M7.348,0H4.377V-9.457L1.459-8.6v-2.25L7.075-12.8h.272ZM19.028-5h1.3v2.285h-1.3V0H16.066V-2.716H11.118l-.176-1.811,5.124-8.244V-12.8h2.962ZM13.764-5h2.3V-8.938l-.185.3Z" transform="translate(6715.481 -7642.746)" fill="#fff"/>
      <path id="Trazado_815438" data-name="Trazado 815438" d="M8878-8642.807v30.372" transform="translate(15301.09 914.754) rotate(-90)" fill="none" stroke="#1b3f5e" stroke-width="2"/>
      <path id="Trazado_815441" data-name="Trazado 815441" d="M8878-8642.807v30.372" transform="translate(15401.307 914.254) rotate(-90)" fill="none" stroke="#1b3f5e" stroke-width="2"/>
      <path id="Trazado_815439" data-name="Trazado 815439" d="M8899.669-8578v20.981h316.755V-8578" transform="translate(15336.5 914.423) rotate(-90)" fill="none" stroke="#1b3f5e" stroke-width="2"/>
      <path id="Trazado_815440" data-name="Trazado 815440" d="M8899.669-8578v20.981h316.755V-8578" transform="translate(15336.5 1275.423) rotate(-90)" fill="none" stroke="#1b3f5e" stroke-width="2"/>
      <path id="Trazado_828248" data-name="Trazado 828248" d="M60.915,0A60.915,60.915,0,1,1,0,60.915,60.915,60.915,0,0,1,60.915,0Z" transform="translate(6536.453 -7903.331) rotate(-90)" fill="#fffad0"/>
      <g id="Grupo_1070288" data-name="Grupo 1070288" transform="translate(6559.759 -8007.612)">
        <g id="Grupo_1070286" data-name="Grupo 1070286" transform="translate(0 0)" clip-path="url(#clip-path)">
          <path id="Trazado_815453" data-name="Trazado 815453" d="M76.744,42.987c-5.519,1.871-8.384,6.094-4.474,12.19C76.832,62.29,83.859,58.6,85.408,57.27c4.073-3.5,6.19-7.423,3.591-11.056-3.354-4.687-8.02-4.663-12.256-3.227" transform="translate(-12.361 -7.392)" fill="#81a512"/>
          <path id="Trazado_815454" data-name="Trazado 815454" d="M78.093,55.638a21.786,21.786,0,0,1-4.86-7.163,10.157,10.157,0,0,1-.588-2.54c-2.515,2.268-3.123,5.623-.374,9.907,3.327,5.188,7.963,4.63,10.832,3.432a19,19,0,0,1-5.009-3.636" transform="translate(-12.361 -8.058)" fill="#4a7518"/>
          <path id="Trazado_815455" data-name="Trazado 815455" d="M63.291,52.269c-5.162,2.705-8.92,5.8-5.012,11.891,4.563,7.114,12.614,3.068,14.164,1.738,4.073-3.5,4.923-6.9,1.175-10.9-2.916-3.114-6.72-4.62-10.327-2.729" transform="translate(-9.939 -9.023)" fill="#81a512"/>
          <path id="Trazado_815456" data-name="Trazado 815456" d="M59.2,55.611c-2.631,2.221-3.659,5.013-.923,9.281,2.9,4.525,7.215,4.534,10.369,3.6-4.917-3.023-9.071-7.741-9.446-12.88" transform="translate(-9.94 -9.755)" fill="#4a7518"/>
          <path id="Trazado_815457" data-name="Trazado 815457" d="M50.89,62.589C45.847,65.51,42.47,71.9,47.77,76.833,53.958,82.59,60.752,76.672,61.922,75c3.077-4.4,2.741-6.257-1.569-10.851-2.89-3.08-6.149-3.479-9.463-1.559" transform="translate(-7.91 -10.775)" fill="#81a512"/>
          <path id="Trazado_815458" data-name="Trazado 815458" d="M53.375,77.562c-3.409-2.493-6.058-5.93-6.8-9.8-2.007,3.1-2.272,6.952,1.2,10.184a8.234,8.234,0,0,0,9.09,1.813,29.627,29.627,0,0,1-3.487-2.2" transform="translate(-7.912 -11.887)" fill="#4a7518"/>
          <path id="Trazado_815459" data-name="Trazado 815459" d="M39.066,75.707c-4.985,4.269-5.234,7.234-1.935,11.668,5.046,6.78,12.765.224,13.936-1.45,3.076-4.4,2.847-6.359-1.569-10.851-2.992-3.042-6.452-2.776-10.432.632" transform="translate(-6.129 -12.799)" fill="#81a512"/>
          <path id="Trazado_815460" data-name="Trazado 815460" d="M42.849,88.488A14.544,14.544,0,0,1,37.1,80.052a10.621,10.621,0,0,1-.26-1.11c-2.729,3.193-2.418,5.843.29,9.482,2.825,3.8,6.487,3.411,9.37,2.043a19.82,19.82,0,0,1-3.652-1.979" transform="translate(-6.129 -13.848)" fill="#4a7518"/>
          <path id="Trazado_815461" data-name="Trazado 815461" d="M30.121,83.071c-2.814-.2-14.4,1.118-9.9,9.111,4.431,7.868,12.221,7.494,16.188,4.867,1.829-1.211,4.508-3.914,1.436-8.435-2.4-3.528-5.609-5.394-7.724-5.542" transform="translate(-3.367 -14.569)" fill="#81a512"/>
          <path id="Trazado_815462" data-name="Trazado 815462" d="M29.142,95.825c-2.625-2.368-4.934-5.2-5.429-8.837a9.785,9.785,0,0,1,.008-2.753c-3.339,1.158-6.1,3.543-3.5,8.154,3.424,6.08,8.849,7.228,12.971,6.228a18.7,18.7,0,0,1-4.05-2.792" transform="translate(-3.367 -14.777)" fill="#4a7518"/>
          <path id="Trazado_815463" data-name="Trazado 815463" d="M14.993,86.14c-2.776-.5-13.285,1.324-8.783,9.318,4.43,7.867,15.035,5.751,16.757,5.367s3.828-2.912,1.772-7.428c-1.767-3.883-6.174-6.614-9.746-7.257" transform="translate(-0.895 -15.097)" fill="#81a512"/>
          <path id="Trazado_815464" data-name="Trazado 815464" d="M14.693,51.858c4.947-3.08,6.773-7.846,1.577-12.889C10.206,33.083,4.205,38.277,3,39.926c-3.168,4.333-4.335,8.638-.975,11.584,4.333,3.8,8.872,2.712,12.668.348" transform="translate(0 -6.356)" fill="#81a512"/>
          <path id="Trazado_815465" data-name="Trazado 815465" d="M11.7,40.5a21.78,21.78,0,0,1,6.365,5.866A10.144,10.144,0,0,1,19.216,48.7c1.932-2.782,1.758-6.187-1.894-9.732C12.9,34.676,8.513,36.277,5.993,38.1A19,19,0,0,1,11.7,40.5" transform="translate(-1.051 -6.356)" fill="#4a7518"/>
          <path id="Trazado_815466" data-name="Trazado 815466" d="M25.9,30.71c1.028-5.737.891-10.6-6.32-11.251C11.164,18.7,9.423,27.542,9.523,29.582c.265,5.361,1.925,7.965,7.556,8.291A8.376,8.376,0,0,0,25.9,30.71" transform="translate(-1.67 -3.405)" fill="#81a512"/>
          <path id="Trazado_815467" data-name="Trazado 815467" d="M26.046,31.5c.071-.262.132-.526.18-.794,1.028-5.737.892-10.6-6.32-11.251a8.287,8.287,0,0,0-8.538,4.573A13.811,13.811,0,0,1,26.046,31.5" transform="translate(-1.994 -3.406)" fill="#4a7518"/>
          <path id="Trazado_815468" data-name="Trazado 815468" d="M32.416,21.9c4.244-3.994,6.075-10.987-.211-14.58-7.336-4.2-12.6,3.116-13.36,5.013-1.992,4.985-2.1,8.191,2.389,11.434,3.424,2.473,8.393.758,11.182-1.867" transform="translate(-3.075 -1.059)" fill="#81a512"/>
          <path id="Trazado_815469" data-name="Trazado 815469" d="M31.678,14.827a16.328,16.328,0,0,1,2.239,6.635c3.927-4.05,5.428-10.675-.638-14.144a8.293,8.293,0,0,0-9.631.562C27.16,8.9,29.7,11.217,31.678,14.827" transform="translate(-4.148 -1.059)" fill="#4a7518"/>
          <path id="Trazado_815470" data-name="Trazado 815470" d="M43.875,15.951c6.48-1.033,8.244-3.43,7.749-8.934C50.867-1.4,40.859.152,38.987.967c-4.922,2.141-7.277,3.514-5.86,9.651.96,4.157,5.573,6.159,10.748,5.333" transform="translate(-5.74 -0.052)" fill="#81a512"/>
          <path id="Trazado_815471" data-name="Trazado 815471" d="M53.806,7.016C53.3,1.43,48.729.236,45.159.3a13.838,13.838,0,0,1,5.846,7,11.857,11.857,0,0,1,.618,6.715c1.939-1.441,2.485-3.638,2.183-7" transform="translate(-7.922 -0.053)" fill="#4a7518"/>
          <path id="Trazado_815472" data-name="Trazado 815472" d="M58.572,15.57c2.654.957,14.151,3.024,13.079-6.086C70.6.516,62.831-.646,58.158.249c-2.154.413-6.365,1.969-5.8,7.406.582,5.571,3.077,6.786,6.211,7.916" transform="translate(-9.176 0)" fill="#81a512"/>
        </g>
      </g>
    </g>
  </g>
</svg>
