<svg xmlns="http://www.w3.org/2000/svg" width="505" height="317" viewBox="0 0 505 317">
  <g id="Grupo_1072698" data-name="Grupo 1072698" transform="translate(1345 9018)">
    <rect id="Rectángulo_375525" data-name="Rectángulo 375525" width="505" height="317" transform="translate(-1345 -9018)" fill="#fff"/>
    <g id="Grupo_1070044" data-name="Grupo 1070044" transform="translate(847.989 1328.007)">
      <path id="Trazado_828207" data-name="Trazado 828207" d="M7.708,15.7Q7.9,14.3,6.249,13.647l-1.521-.554-.51-.22q-2.566-1.169-2.4-3.287a3.438,3.438,0,0,1,.729-1.881,4.151,4.151,0,0,1,1.7-1.261A5.455,5.455,0,0,1,6.5,6.027a4.5,4.5,0,0,1,2.07.519A3.333,3.333,0,0,1,9.958,7.921a3.75,3.75,0,0,1,.422,1.991L8.719,9.9a2.292,2.292,0,0,0-.527-1.83,2.361,2.361,0,0,0-1.758-.666,3.274,3.274,0,0,0-2.013.564,2.2,2.2,0,0,0-.932,1.585q-.176,1.312,1.608,1.99l1.31.467.659.281q2.479,1.143,2.294,3.393a3.389,3.389,0,0,1-.729,1.868,4.079,4.079,0,0,1-1.718,1.217,5.924,5.924,0,0,1-2.333.4,4.882,4.882,0,0,1-2.2-.514A3.592,3.592,0,0,1,.861,17.277a3.462,3.462,0,0,1-.457-2l1.652.009a2.177,2.177,0,0,0,.62,1.815,2.789,2.789,0,0,0,1.973.69,3.523,3.523,0,0,0,2.1-.554A2.156,2.156,0,0,0,7.708,15.7ZM16,9.314a3.428,3.428,0,0,1,2.048.65,3.7,3.7,0,0,1,1.261,1.745,5.4,5.4,0,0,1,.277,2.43l-.018.193a6.4,6.4,0,0,1-.826,2.509,4.848,4.848,0,0,1-1.705,1.745,4.158,4.158,0,0,1-2.294.589,3.434,3.434,0,0,1-2.043-.65A3.611,3.611,0,0,1,11.452,16.8a5.547,5.547,0,0,1-.281-2.4,6.48,6.48,0,0,1,.8-2.654,4.96,4.96,0,0,1,1.718-1.824A4.109,4.109,0,0,1,16,9.314Zm-3.234,5.1a5.4,5.4,0,0,0,0,1.151,2.821,2.821,0,0,0,.62,1.652,1.86,1.86,0,0,0,1.419.642,2.534,2.534,0,0,0,1.459-.391,3.284,3.284,0,0,0,1.125-1.261,5.311,5.311,0,0,0,.589-1.872,8.431,8.431,0,0,0,.026-1.362,2.927,2.927,0,0,0-.642-1.679,1.9,1.9,0,0,0-1.424-.65,2.592,2.592,0,0,0-2.092.967,4.776,4.776,0,0,0-1.063,2.6ZM26.684,10.94l-.747-.079a2.722,2.722,0,0,0-2.408,1.38L22.359,19H20.769l1.652-9.51,1.538-.009-.237,1.107A2.843,2.843,0,0,1,26.1,9.3a2.918,2.918,0,0,1,.756.132Zm.545,3.287a7.75,7.75,0,0,1,.839-2.7,4.39,4.39,0,0,1,1.529-1.7,3.545,3.545,0,0,1,1.973-.523,2.926,2.926,0,0,1,2.5,1.248l.316-1.063h1.459L34.26,18.8a4.627,4.627,0,0,1-1.477,2.914,4.159,4.159,0,0,1-3.015,1.042,4.281,4.281,0,0,1-1.85-.457,3.518,3.518,0,0,1-1.393-1.2l.905-.976a2.853,2.853,0,0,0,4.2.677,3.265,3.265,0,0,0,1.042-1.9l.176-.844a3.6,3.6,0,0,1-2.716,1.125,2.8,2.8,0,0,1-1.542-.479,2.913,2.913,0,0,1-1.015-1.31,5.354,5.354,0,0,1-.4-1.912A9.825,9.825,0,0,1,27.229,14.228Zm1.538.9a3.345,3.345,0,0,0,.435,1.944,1.644,1.644,0,0,0,1.393.724,2.881,2.881,0,0,0,2.452-1.4l.747-4.363a2,2,0,0,0-1.907-1.352,2.468,2.468,0,0,0-2.123,1.053,5.488,5.488,0,0,0-.98,2.941ZM41.933,9.314a3.428,3.428,0,0,1,2.048.65,3.7,3.7,0,0,1,1.261,1.745,5.4,5.4,0,0,1,.277,2.43l-.018.193a6.4,6.4,0,0,1-.826,2.509,4.848,4.848,0,0,1-1.705,1.745,4.158,4.158,0,0,1-2.294.589,3.434,3.434,0,0,1-2.043-.65A3.611,3.611,0,0,1,37.38,16.8a5.547,5.547,0,0,1-.281-2.4,6.48,6.48,0,0,1,.8-2.654,4.96,4.96,0,0,1,1.718-1.824A4.109,4.109,0,0,1,41.933,9.314Zm-3.234,5.1a5.4,5.4,0,0,0,0,1.151,2.821,2.821,0,0,0,.62,1.652,1.86,1.86,0,0,0,1.419.642,2.534,2.534,0,0,0,1.459-.391,3.284,3.284,0,0,0,1.125-1.261,5.311,5.311,0,0,0,.589-1.872,8.431,8.431,0,0,0,.026-1.362,2.927,2.927,0,0,0-.642-1.679,1.9,1.9,0,0,0-1.424-.65,2.592,2.592,0,0,0-2.092.967,4.776,4.776,0,0,0-1.063,2.6Zm9.079,2.742a.952.952,0,0,1,.712.264.908.908,0,0,1,.272.7.95.95,0,0,1-.29.7,1.046,1.046,0,0,1-.7.286.886.886,0,0,1-.967-.932.983.983,0,0,1,.976-1.02Zm1.345-7.761a.952.952,0,0,1,.712.264.908.908,0,0,1,.272.7.95.95,0,0,1-.29.7,1.046,1.046,0,0,1-.7.286.886.886,0,0,1-.967-.932.983.983,0,0,1,.976-1.02Z" transform="translate(-1963.989 -10089.199)" fill="#4f9e00"/>
      <path id="Trazado_828208" data-name="Trazado 828208" d="M8.666,9.846H1.336V8.431h7.33Zm0,3.647H1.336V12.087h7.33Z" transform="translate(-1801 -10089.199)" fill="#12263f"/>
      <path id="Trazado_828209" data-name="Trazado 828209" d="M7.295,11.375a3.978,3.978,0,0,1-1.217.976,3.3,3.3,0,0,1-1.551.369A3.41,3.41,0,0,1,2.6,12.175a3.543,3.543,0,0,1-1.27-1.534A5.229,5.229,0,0,1,.879,8.457a5.327,5.327,0,0,1,.488-2.312A3.583,3.583,0,0,1,2.751,4.572a3.947,3.947,0,0,1,2.092-.545A3.574,3.574,0,0,1,7.835,5.447,6.191,6.191,0,0,1,8.93,9.318v.475q0,3.735-1.477,5.454A5.673,5.673,0,0,1,3,17.009H2.681v-1.38h.343a4.476,4.476,0,0,0,3.094-1.048A4.5,4.5,0,0,0,7.295,11.375Zm-2.5,0a2.511,2.511,0,0,0,1.507-.5A2.953,2.953,0,0,0,7.3,9.635v-.65a4.474,4.474,0,0,0-.694-2.6,2.122,2.122,0,0,0-3.48-.18,3.39,3.39,0,0,0-.65,2.167,3.528,3.528,0,0,0,.628,2.158A1.99,1.99,0,0,0,4.79,11.375ZM17.552,4.194v1.38h-.3A4.281,4.281,0,0,0,14.229,6.7a4.681,4.681,0,0,0-1.3,3.067,3.471,3.471,0,0,1,2.76-1.16,3.319,3.319,0,0,1,2.667,1.178,4.543,4.543,0,0,1,1,3.041,4.528,4.528,0,0,1-1.077,3.164,3.707,3.707,0,0,1-2.887,1.187,3.653,3.653,0,0,1-2.979-1.411,5.591,5.591,0,0,1-1.143-3.634v-.624a8.424,8.424,0,0,1,1.507-5.4,5.536,5.536,0,0,1,4.487-1.912ZM15.416,9.96A2.733,2.733,0,0,0,12.9,11.718v.6a4.2,4.2,0,0,0,.712,2.549,2.133,2.133,0,0,0,1.775.967,2.067,2.067,0,0,0,1.727-.809,3.355,3.355,0,0,0,.628-2.118,3.356,3.356,0,0,0-.637-2.131A2.042,2.042,0,0,0,15.416,9.96Zm13.676,1L31.2,7.49h1.9l-3.111,4.7L33.2,17H31.315l-2.2-3.56L26.921,17h-1.89l3.208-4.808-3.111-4.7h1.881ZM47.5,17H39.111V15.831l4.43-4.922A10.524,10.524,0,0,0,44.9,9.094a3.029,3.029,0,0,0,.374-1.446A2.3,2.3,0,0,0,44.666,6a2.12,2.12,0,0,0-1.617-.642,2.511,2.511,0,0,0-1.885.69,2.635,2.635,0,0,0-.672,1.92H38.865A3.774,3.774,0,0,1,40,5.117a4.219,4.219,0,0,1,3.045-1.09,4.054,4.054,0,0,1,2.821.936,3.193,3.193,0,0,1,1.037,2.492q0,1.89-2.408,4.5l-3.428,3.718H47.5ZM57.6,17H49.219V15.831l4.43-4.922a10.524,10.524,0,0,0,1.358-1.815,3.029,3.029,0,0,0,.374-1.446A2.3,2.3,0,0,0,54.773,6a2.12,2.12,0,0,0-1.617-.642,2.511,2.511,0,0,0-1.885.69,2.635,2.635,0,0,0-.672,1.92H48.973a3.774,3.774,0,0,1,1.138-2.856,4.219,4.219,0,0,1,3.045-1.09,4.054,4.054,0,0,1,2.821.936,3.193,3.193,0,0,1,1.037,2.492q0,1.89-2.408,4.5l-3.428,3.718H57.6Zm1.837,2.549-.923-.633a4.241,4.241,0,0,0,.861-2.373V15.075H60.97V16.35a4,4,0,0,1-.435,1.775A4.156,4.156,0,0,1,59.44,19.549ZM71.244,17H62.859V15.831l4.43-4.922a10.524,10.524,0,0,0,1.358-1.815,3.029,3.029,0,0,0,.374-1.446A2.3,2.3,0,0,0,68.414,6,2.12,2.12,0,0,0,66.8,5.363a2.511,2.511,0,0,0-1.885.69,2.635,2.635,0,0,0-.672,1.92H62.613a3.774,3.774,0,0,1,1.138-2.856A4.219,4.219,0,0,1,66.8,4.027a4.054,4.054,0,0,1,2.821.936,3.193,3.193,0,0,1,1.037,2.492q0,1.89-2.408,4.5l-3.428,3.718h6.425ZM79.2,11.375a3.978,3.978,0,0,1-1.217.976,3.3,3.3,0,0,1-1.551.369,3.41,3.41,0,0,1-1.929-.545,3.543,3.543,0,0,1-1.27-1.534,5.229,5.229,0,0,1-.448-2.184,5.327,5.327,0,0,1,.488-2.312,3.583,3.583,0,0,1,1.384-1.573,3.947,3.947,0,0,1,2.092-.545,3.574,3.574,0,0,1,2.993,1.419,6.191,6.191,0,0,1,1.094,3.872v.475q0,3.735-1.477,5.454A5.673,5.673,0,0,1,74.9,17.009h-.316v-1.38h.343a4.476,4.476,0,0,0,3.094-1.048A4.5,4.5,0,0,0,79.2,11.375Zm-2.5,0a2.511,2.511,0,0,0,1.507-.5,2.953,2.953,0,0,0,1.006-1.239v-.65a4.474,4.474,0,0,0-.694-2.6,2.122,2.122,0,0,0-3.48-.18,3.39,3.39,0,0,0-.65,2.167,3.528,3.528,0,0,0,.628,2.158A1.99,1.99,0,0,0,76.693,11.375ZM91.459,17H83.074V15.831l4.43-4.922a10.524,10.524,0,0,0,1.358-1.815,3.029,3.029,0,0,0,.374-1.446A2.3,2.3,0,0,0,88.629,6a2.12,2.12,0,0,0-1.617-.642,2.511,2.511,0,0,0-1.885.69,2.635,2.635,0,0,0-.672,1.92H82.828a3.774,3.774,0,0,1,1.138-2.856,4.219,4.219,0,0,1,3.045-1.09,4.054,4.054,0,0,1,2.821.936A3.193,3.193,0,0,1,90.87,7.455q0,1.89-2.408,4.5l-3.428,3.718h6.425Z" transform="translate(-1900 -10099.199)" fill="#12263f"/>
      <path id="Trazado_828210" data-name="Trazado 828210" d="M9.325,5.117,4.025,17H2.32L7.6,5.539H.677V4.2H9.325ZM16.515,17H14.88V6.163L11.6,7.367V5.891L16.26,4.142h.255Zm4.878,2.549-.923-.633a4.241,4.241,0,0,0,.861-2.373V15.075h1.591V16.35a4,4,0,0,1-.435,1.775A4.156,4.156,0,0,1,21.393,19.549Zm5.783-9.738H28.4A2.685,2.685,0,0,0,30.208,9.2a2.026,2.026,0,0,0,.659-1.591,1.985,1.985,0,0,0-2.241-2.25,2.331,2.331,0,0,0-1.683.6,2.107,2.107,0,0,0-.628,1.6H24.688A3.264,3.264,0,0,1,25.8,5.034a4.05,4.05,0,0,1,2.826-1.006,4,4,0,0,1,2.839.958,3.461,3.461,0,0,1,1.028,2.663,2.809,2.809,0,0,1-.541,1.617,3.264,3.264,0,0,1-1.472,1.169,3.145,3.145,0,0,1,1.63,1.107,3.076,3.076,0,0,1,.576,1.89,3.491,3.491,0,0,1-1.125,2.733,4.213,4.213,0,0,1-2.927,1.011A4.324,4.324,0,0,1,25.7,16.2a3.236,3.236,0,0,1-1.129-2.575h1.635a2.092,2.092,0,0,0,.659,1.617,2.507,2.507,0,0,0,1.767.606,2.46,2.46,0,0,0,1.8-.615,2.371,2.371,0,0,0,.624-1.767,2.151,2.151,0,0,0-.686-1.714,2.987,2.987,0,0,0-1.978-.615H27.176Zm10.107,0H38.5A2.685,2.685,0,0,0,40.315,9.2a2.026,2.026,0,0,0,.659-1.591,1.985,1.985,0,0,0-2.241-2.25,2.331,2.331,0,0,0-1.683.6,2.107,2.107,0,0,0-.628,1.6H34.8a3.264,3.264,0,0,1,1.112-2.527,4.05,4.05,0,0,1,2.826-1.006,4,4,0,0,1,2.839.958A3.461,3.461,0,0,1,42.6,7.648a2.809,2.809,0,0,1-.541,1.617,3.264,3.264,0,0,1-1.472,1.169,3.145,3.145,0,0,1,1.63,1.107,3.076,3.076,0,0,1,.576,1.89,3.491,3.491,0,0,1-1.125,2.733,4.213,4.213,0,0,1-2.927,1.011,4.324,4.324,0,0,1-2.931-.976,3.236,3.236,0,0,1-1.129-2.575h1.635a2.092,2.092,0,0,0,.659,1.617,2.507,2.507,0,0,0,1.767.606,2.46,2.46,0,0,0,1.8-.615,2.371,2.371,0,0,0,.624-1.767,2.151,2.151,0,0,0-.686-1.714,2.987,2.987,0,0,0-1.978-.615H37.283Z" transform="translate(-1780.511 -10089.199)" fill="#12263f"/>
      <path id="Trazado_828211" data-name="Trazado 828211" d="M3.428,9.811H4.649A2.685,2.685,0,0,0,6.46,9.2a2.026,2.026,0,0,0,.659-1.591,1.985,1.985,0,0,0-2.241-2.25,2.331,2.331,0,0,0-1.683.6,2.107,2.107,0,0,0-.628,1.6H.94A3.264,3.264,0,0,1,2.052,5.034,4.05,4.05,0,0,1,4.878,4.027a4,4,0,0,1,2.839.958A3.461,3.461,0,0,1,8.745,7.648,2.809,2.809,0,0,1,8.2,9.266a3.264,3.264,0,0,1-1.472,1.169,3.145,3.145,0,0,1,1.63,1.107,3.076,3.076,0,0,1,.576,1.89,3.491,3.491,0,0,1-1.125,2.733,4.213,4.213,0,0,1-2.927,1.011A4.324,4.324,0,0,1,1.956,16.2,3.236,3.236,0,0,1,.826,13.625H2.461a2.092,2.092,0,0,0,.659,1.617,2.507,2.507,0,0,0,1.767.606,2.46,2.46,0,0,0,1.8-.615,2.371,2.371,0,0,0,.624-1.767,2.151,2.151,0,0,0-.686-1.714,2.987,2.987,0,0,0-1.978-.615H3.428ZM19.2,11.542a7.436,7.436,0,0,1-.976,4.245,3.47,3.47,0,0,1-3.05,1.389,3.5,3.5,0,0,1-3.032-1.358,7.058,7.058,0,0,1-1.02-4.056V9.591A7.271,7.271,0,0,1,12.094,5.4a3.5,3.5,0,0,1,3.059-1.371A3.528,3.528,0,0,1,18.193,5.35a7.017,7.017,0,0,1,1,4.083ZM17.569,9.318a5.958,5.958,0,0,0-.58-3.01,2,2,0,0,0-1.837-.945,1.97,1.97,0,0,0-1.819.94A5.817,5.817,0,0,0,12.744,9.2v2.6a6.053,6.053,0,0,0,.6,3.063,1.993,1.993,0,0,0,1.824.989,1.966,1.966,0,0,0,1.789-.932,5.834,5.834,0,0,0,.611-2.936Z" transform="translate(-1868.5 -10072.398)" fill="#12263f"/>
      <path id="Trazado_814907" data-name="Trazado 814907" d="M-1903.51-10075.2H-1810" transform="translate(0.01)" fill="none" stroke="#12263f" stroke-width="1"/>
    </g>
    <g id="Grupo_1070045" data-name="Grupo 1070045" transform="translate(728 1248.519)">
      <path id="Trazado_828202" data-name="Trazado 828202" d="M3.041,13.99,2.171,19H.519L2.742,6.2l4.271.009a4.177,4.177,0,0,1,3.05,1.05,3.3,3.3,0,0,1,.923,2.791,3.984,3.984,0,0,1-1.463,2.892A5.308,5.308,0,0,1,6.082,14Zm.237-1.38,2.848.009a3.464,3.464,0,0,0,2.206-.677,2.708,2.708,0,0,0,1.011-1.881,2.121,2.121,0,0,0-.448-1.753A2.256,2.256,0,0,0,7.181,7.6L4.148,7.592ZM17.095,19a2.13,2.13,0,0,1-.062-.5l.026-.5a3.9,3.9,0,0,1-2.777,1.178,2.841,2.841,0,0,1-2.043-.8,2.407,2.407,0,0,1-.716-1.947,2.927,2.927,0,0,1,1.323-2.36,5.631,5.631,0,0,1,3.248-.848l1.661.009.105-.756a1.738,1.738,0,0,0-.33-1.349,1.591,1.591,0,0,0-1.252-.514,2.453,2.453,0,0,0-1.446.4,1.7,1.7,0,0,0-.769,1.1l-1.6.009a2.55,2.55,0,0,1,.65-1.481,3.784,3.784,0,0,1,1.468-1,4.742,4.742,0,0,1,1.854-.338,3.153,3.153,0,0,1,2.312.9,2.794,2.794,0,0,1,.694,2.3l-.773,4.711-.044.677a3.318,3.318,0,0,0,.105.958L18.712,19Zm-2.5-1.23a2.774,2.774,0,0,0,1.446-.365,3.661,3.661,0,0,0,1.173-1.059l.343-1.96-1.2-.009a4.561,4.561,0,0,0-2.3.475,1.748,1.748,0,0,0-.905,1.345,1.361,1.361,0,0,0,.312,1.112A1.486,1.486,0,0,0,14.6,17.77Zm12.155-1.345q.132-.984-1.081-1.389l-1.652-.483Q21.929,13.832,22,12.162A2.634,2.634,0,0,1,23.146,10.1,4.085,4.085,0,0,1,25.7,9.314a3.406,3.406,0,0,1,2.342.839,2.659,2.659,0,0,1,.866,2.14l-1.582-.009a1.484,1.484,0,0,0-.448-1.16,1.774,1.774,0,0,0-1.239-.466,2.316,2.316,0,0,0-1.424.4,1.48,1.48,0,0,0-.642,1.037q-.114.826,1.011,1.2l.8.22a5.15,5.15,0,0,1,2.32,1.1,2.1,2.1,0,0,1,.633,1.679,2.666,2.666,0,0,1-.58,1.547,3.317,3.317,0,0,1-1.406,1.006,4.7,4.7,0,0,1-1.872.321,3.71,3.71,0,0,1-2.5-.883,2.731,2.731,0,0,1-.949-2.228l1.591.009a1.686,1.686,0,0,0,.51,1.283,1.948,1.948,0,0,0,1.4.483,2.741,2.741,0,0,0,1.5-.365A1.4,1.4,0,0,0,26.754,16.425Zm7.4-9.237-.4,2.3h1.731l-.22,1.257H33.539l-.993,5.915a2.062,2.062,0,0,0-.009.422.67.67,0,0,0,.747.686,4.556,4.556,0,0,0,.773-.088l-.123,1.327a4.328,4.328,0,0,1-1.16.158,1.661,1.661,0,0,1-1.424-.7,2.7,2.7,0,0,1-.369-1.833l.967-5.889H30.27l.22-1.257h1.679l.4-2.3ZM41.563,19a2.13,2.13,0,0,1-.062-.5l.026-.5a3.9,3.9,0,0,1-2.777,1.178,2.841,2.841,0,0,1-2.043-.8,2.407,2.407,0,0,1-.716-1.947,2.927,2.927,0,0,1,1.323-2.36,5.631,5.631,0,0,1,3.248-.848l1.661.009.105-.756A1.738,1.738,0,0,0,42,11.129a1.591,1.591,0,0,0-1.252-.514,2.453,2.453,0,0,0-1.446.4,1.7,1.7,0,0,0-.769,1.1l-1.6.009a2.55,2.55,0,0,1,.65-1.481,3.784,3.784,0,0,1,1.468-1A4.742,4.742,0,0,1,40.9,9.306a3.153,3.153,0,0,1,2.312.9,2.794,2.794,0,0,1,.694,2.3l-.773,4.711-.044.677a3.318,3.318,0,0,0,.105.958L43.181,19Zm-2.5-1.23a2.774,2.774,0,0,0,1.446-.365,3.661,3.661,0,0,0,1.173-1.059l.343-1.96-1.2-.009a4.561,4.561,0,0,0-2.3.475,1.748,1.748,0,0,0-.905,1.345,1.361,1.361,0,0,0,.312,1.112A1.486,1.486,0,0,0,39.067,17.77ZM50.2,14.228a7.4,7.4,0,0,1,.8-2.619,4.534,4.534,0,0,1,1.538-1.749,3.517,3.517,0,0,1,2.013-.554A2.971,2.971,0,0,1,57,10.466L57.911,5.5H59.5L57.164,19h-1.45l.167-1.02a3.506,3.506,0,0,1-2.777,1.2A2.627,2.627,0,0,1,51,18.143a4.5,4.5,0,0,1-.844-2.676A8.547,8.547,0,0,1,50.2,14.228Zm1.529.909a3.3,3.3,0,0,0,.448,1.949,1.617,1.617,0,0,0,1.389.711,2.874,2.874,0,0,0,2.452-1.387l.756-4.389a1.973,1.973,0,0,0-1.916-1.334,2.411,2.411,0,0,0-1.657.566,3.663,3.663,0,0,0-1.09,1.659A6.842,6.842,0,0,0,51.732,15.136Zm12.059,4.04a3.429,3.429,0,0,1-2.777-1.31,4.507,4.507,0,0,1-.844-3.261l.044-.378a6.327,6.327,0,0,1,.839-2.584,4.882,4.882,0,0,1,1.683-1.762,3.927,3.927,0,0,1,2.145-.567,3.024,3.024,0,0,1,2.3.976,4.012,4.012,0,0,1,.914,2.549,7.448,7.448,0,0,1-.035,1.143l-.1.729H61.752a3.212,3.212,0,0,0,.426,2.2,2.019,2.019,0,0,0,1.745.94,3.383,3.383,0,0,0,2.6-1.266l.914.773A4.183,4.183,0,0,1,65.9,18.706,4.371,4.371,0,0,1,63.791,19.176ZM64.8,10.642a2.324,2.324,0,0,0-1.718.668,4.748,4.748,0,0,0-1.165,2.065l4.623.009.035-.141a2.6,2.6,0,0,0-.356-1.841A1.674,1.674,0,0,0,64.8,10.642Zm14.511,5.783q.132-.984-1.081-1.389l-1.652-.483q-2.092-.721-2.021-2.391A2.634,2.634,0,0,1,75.7,10.1a4.085,4.085,0,0,1,2.553-.787,3.406,3.406,0,0,1,2.342.839,2.659,2.659,0,0,1,.866,2.14l-1.582-.009a1.484,1.484,0,0,0-.448-1.16,1.774,1.774,0,0,0-1.239-.466,2.316,2.316,0,0,0-1.424.4,1.48,1.48,0,0,0-.642,1.037q-.114.826,1.011,1.2l.8.22a5.15,5.15,0,0,1,2.32,1.1,2.1,2.1,0,0,1,.633,1.679,2.666,2.666,0,0,1-.58,1.547,3.317,3.317,0,0,1-1.406,1.006,4.7,4.7,0,0,1-1.872.321,3.71,3.71,0,0,1-2.5-.883,2.731,2.731,0,0,1-.949-2.228l1.591.009a1.686,1.686,0,0,0,.51,1.283,1.948,1.948,0,0,0,1.4.483,2.741,2.741,0,0,0,1.5-.365A1.4,1.4,0,0,0,79.313,16.425Zm8.481-7.11a3.428,3.428,0,0,1,2.048.65A3.7,3.7,0,0,1,91.1,11.709a5.4,5.4,0,0,1,.277,2.43l-.018.193a6.4,6.4,0,0,1-.826,2.509,4.848,4.848,0,0,1-1.705,1.745,4.158,4.158,0,0,1-2.294.589,3.434,3.434,0,0,1-2.043-.65A3.611,3.611,0,0,1,83.241,16.8a5.547,5.547,0,0,1-.281-2.4,6.48,6.48,0,0,1,.8-2.654,4.96,4.96,0,0,1,1.718-1.824A4.109,4.109,0,0,1,87.794,9.314Zm-3.234,5.1a5.4,5.4,0,0,0,0,1.151,2.821,2.821,0,0,0,.62,1.652,1.86,1.86,0,0,0,1.419.642,2.534,2.534,0,0,0,1.459-.391,3.284,3.284,0,0,0,1.125-1.261,5.311,5.311,0,0,0,.589-1.872,8.431,8.431,0,0,0,.026-1.362,2.927,2.927,0,0,0-.642-1.679,1.9,1.9,0,0,0-1.424-.65,2.592,2.592,0,0,0-2.092.967,4.776,4.776,0,0,0-1.063,2.6ZM95.968,16.6l3.384-7.11h1.758L95.467,20.582q-1.178,2.312-3.023,2.285a5.18,5.18,0,0,1-.958-.158l.141-1.318.413.044a2.085,2.085,0,0,0,1.305-.338,3.119,3.119,0,0,0,.971-1.208l.571-1.09L93.243,9.49H94.9ZM106.726,19a2.13,2.13,0,0,1-.062-.5l.026-.5a3.9,3.9,0,0,1-2.777,1.178,2.841,2.841,0,0,1-2.043-.8,2.407,2.407,0,0,1-.716-1.947,2.927,2.927,0,0,1,1.323-2.36,5.631,5.631,0,0,1,3.248-.848l1.661.009.105-.756a1.738,1.738,0,0,0-.33-1.349,1.591,1.591,0,0,0-1.252-.514,2.453,2.453,0,0,0-1.446.4,1.7,1.7,0,0,0-.769,1.1l-1.6.009a2.55,2.55,0,0,1,.65-1.481,3.784,3.784,0,0,1,1.468-1,4.742,4.742,0,0,1,1.854-.338,3.153,3.153,0,0,1,2.312.9,2.794,2.794,0,0,1,.694,2.3l-.773,4.711-.044.677a3.318,3.318,0,0,0,.105.958l-.018.149Zm-2.5-1.23a2.774,2.774,0,0,0,1.446-.365,3.661,3.661,0,0,0,1.173-1.059l.343-1.96-1.2-.009a4.561,4.561,0,0,0-2.3.475,1.748,1.748,0,0,0-.905,1.345,1.361,1.361,0,0,0,.312,1.112A1.486,1.486,0,0,0,104.229,17.77Zm7.348-.615a.952.952,0,0,1,.712.264.908.908,0,0,1,.272.7.95.95,0,0,1-.29.7,1.046,1.046,0,0,1-.7.286.886.886,0,0,1-.967-.932.983.983,0,0,1,.976-1.02Zm1.345-7.761a.952.952,0,0,1,.712.264.908.908,0,0,1,.272.7.95.95,0,0,1-.29.7,1.046,1.046,0,0,1-.7.286.886.886,0,0,1-.967-.932.983.983,0,0,1,.976-1.02Z" transform="translate(-2030 -10089.199)" fill="#4f9e00"/>
      <path id="Trazado_828203" data-name="Trazado 828203" d="M8.666,9.846H1.336V8.431h7.33Zm0,3.647H1.336V12.087h7.33Z" transform="translate(-1801 -10089.199)" fill="#12263f"/>
      <path id="Trazado_828204" data-name="Trazado 828204" d="M7.295,11.375a3.978,3.978,0,0,1-1.217.976,3.3,3.3,0,0,1-1.551.369A3.41,3.41,0,0,1,2.6,12.175a3.543,3.543,0,0,1-1.27-1.534A5.229,5.229,0,0,1,.879,8.457a5.327,5.327,0,0,1,.488-2.312A3.583,3.583,0,0,1,2.751,4.572a3.947,3.947,0,0,1,2.092-.545A3.574,3.574,0,0,1,7.835,5.447,6.191,6.191,0,0,1,8.93,9.318v.475q0,3.735-1.477,5.454A5.673,5.673,0,0,1,3,17.009H2.681v-1.38h.343a4.476,4.476,0,0,0,3.094-1.048A4.5,4.5,0,0,0,7.295,11.375Zm-2.5,0a2.511,2.511,0,0,0,1.507-.5A2.953,2.953,0,0,0,7.3,9.635v-.65a4.474,4.474,0,0,0-.694-2.6,2.122,2.122,0,0,0-3.48-.18,3.39,3.39,0,0,0-.65,2.167,3.528,3.528,0,0,0,.628,2.158A1.99,1.99,0,0,0,4.79,11.375ZM17.552,4.194v1.38h-.3A4.281,4.281,0,0,0,14.229,6.7a4.681,4.681,0,0,0-1.3,3.067,3.471,3.471,0,0,1,2.76-1.16,3.319,3.319,0,0,1,2.667,1.178,4.543,4.543,0,0,1,1,3.041,4.528,4.528,0,0,1-1.077,3.164,3.707,3.707,0,0,1-2.887,1.187,3.653,3.653,0,0,1-2.979-1.411,5.591,5.591,0,0,1-1.143-3.634v-.624a8.424,8.424,0,0,1,1.507-5.4,5.536,5.536,0,0,1,4.487-1.912ZM15.416,9.96A2.733,2.733,0,0,0,12.9,11.718v.6a4.2,4.2,0,0,0,.712,2.549,2.133,2.133,0,0,0,1.775.967,2.067,2.067,0,0,0,1.727-.809,3.355,3.355,0,0,0,.628-2.118,3.356,3.356,0,0,0-.637-2.131A2.042,2.042,0,0,0,15.416,9.96Zm13.676,1L31.2,7.49h1.9l-3.111,4.7L33.2,17H31.315l-2.2-3.56L26.921,17h-1.89l3.208-4.808-3.111-4.7h1.881ZM47.373,5.117,42.073,17H40.368L45.65,5.539H38.725V4.2h8.648Zm1.96,14.432-.923-.633a4.241,4.241,0,0,0,.861-2.373V15.075h1.591V16.35a4,4,0,0,1-.435,1.775A4.156,4.156,0,0,1,49.333,19.549ZM61.014,5.117,55.714,17H54.009L59.291,5.539H52.365V4.2h8.648Zm9.87,6.425a7.436,7.436,0,0,1-.976,4.245,4.054,4.054,0,0,1-6.082.031,7.058,7.058,0,0,1-1.02-4.056V9.591A7.271,7.271,0,0,1,63.782,5.4a4.127,4.127,0,0,1,6.1-.048,7.017,7.017,0,0,1,1,4.083ZM69.258,9.318a5.958,5.958,0,0,0-.58-3.01,2,2,0,0,0-1.837-.945,1.97,1.97,0,0,0-1.819.94A5.817,5.817,0,0,0,64.433,9.2v2.6a6.053,6.053,0,0,0,.6,3.063,1.993,1.993,0,0,0,1.824.989,1.966,1.966,0,0,0,1.789-.932,5.834,5.834,0,0,0,.611-2.936Zm11.47-1.775a2.972,2.972,0,0,1-.505,1.705,3.439,3.439,0,0,1-1.367,1.169,3.668,3.668,0,0,1,1.586,1.257,3.163,3.163,0,0,1,.584,1.872,3.344,3.344,0,0,1-1.121,2.646,4.913,4.913,0,0,1-5.906,0,3.36,3.36,0,0,1-1.112-2.641,3.257,3.257,0,0,1,.567-1.872,3.528,3.528,0,0,1,1.569-1.266,3.354,3.354,0,0,1-1.345-1.169,3.014,3.014,0,0,1-.492-1.7,3.308,3.308,0,0,1,1.037-2.566,4.4,4.4,0,0,1,5.462,0A3.3,3.3,0,0,1,80.728,7.543ZM79.4,13.511a2.359,2.359,0,0,0-.681-1.749,2.416,2.416,0,0,0-1.78-.677,2.288,2.288,0,0,0-2.426,2.426,2.271,2.271,0,0,0,.646,1.714,2.886,2.886,0,0,0,3.59,0A2.266,2.266,0,0,0,79.4,13.511ZM76.957,5.363a2.1,2.1,0,0,0-1.551.593,2.179,2.179,0,0,0-.593,1.613A2.169,2.169,0,0,0,75.4,9.147a2.322,2.322,0,0,0,3.12,0A2.169,2.169,0,0,0,79.1,7.569,2.17,2.17,0,0,0,78.5,5.979,2.068,2.068,0,0,0,76.957,5.363Z" transform="translate(-1900 -10099.199)" fill="#12263f"/>
      <path id="Trazado_828205" data-name="Trazado 828205" d="M9.448,17H1.063V15.831l4.43-4.922A10.524,10.524,0,0,0,6.851,9.094a3.029,3.029,0,0,0,.374-1.446A2.3,2.3,0,0,0,6.618,6,2.12,2.12,0,0,0,5,5.363a2.511,2.511,0,0,0-1.885.69,2.635,2.635,0,0,0-.672,1.92H.817A3.774,3.774,0,0,1,1.956,5.117,4.219,4.219,0,0,1,5,4.027a4.054,4.054,0,0,1,2.821.936A3.193,3.193,0,0,1,8.859,7.455q0,1.89-2.408,4.5L3.023,15.673H9.448Zm8.587-4.3h1.775v1.327H18.035V17H16.4V14.029H10.573v-.958L16.3,4.2h1.731Zm-5.616,0H16.4V6.427l-.193.352Zm8.974,6.847-.923-.633a4.241,4.241,0,0,0,.861-2.373V15.075h1.591V16.35a4,4,0,0,1-.435,1.775A4.156,4.156,0,0,1,21.393,19.549Zm9.8-15.354v1.38h-.3A4.281,4.281,0,0,0,27.87,6.7a4.681,4.681,0,0,0-1.3,3.067,3.471,3.471,0,0,1,2.76-1.16A3.319,3.319,0,0,1,32,9.784a4.543,4.543,0,0,1,1,3.041,4.528,4.528,0,0,1-1.077,3.164,3.707,3.707,0,0,1-2.887,1.187,3.653,3.653,0,0,1-2.979-1.411,5.591,5.591,0,0,1-1.143-3.634v-.624a8.424,8.424,0,0,1,1.507-5.4A5.536,5.536,0,0,1,30.9,4.194ZM29.057,9.96a2.733,2.733,0,0,0-2.514,1.758v.6a4.2,4.2,0,0,0,.712,2.549,2.133,2.133,0,0,0,1.775.967,2.067,2.067,0,0,0,1.727-.809,3.355,3.355,0,0,0,.628-2.118,3.356,3.356,0,0,0-.637-2.131A2.042,2.042,0,0,0,29.057,9.96ZM43.181,5.117,37.881,17H36.176L41.458,5.539H34.532V4.2h8.648Z" transform="translate(-1780.511 -10089.199)" fill="#12263f"/>
      <path id="Trazado_828206" data-name="Trazado 828206" d="M3.428,9.811H4.649A2.685,2.685,0,0,0,6.46,9.2a2.026,2.026,0,0,0,.659-1.591,1.985,1.985,0,0,0-2.241-2.25,2.331,2.331,0,0,0-1.683.6,2.107,2.107,0,0,0-.628,1.6H.94A3.264,3.264,0,0,1,2.052,5.034,4.05,4.05,0,0,1,4.878,4.027a4,4,0,0,1,2.839.958A3.461,3.461,0,0,1,8.745,7.648,2.809,2.809,0,0,1,8.2,9.266a3.264,3.264,0,0,1-1.472,1.169,3.145,3.145,0,0,1,1.63,1.107,3.076,3.076,0,0,1,.576,1.89,3.491,3.491,0,0,1-1.125,2.733,4.213,4.213,0,0,1-2.927,1.011A4.324,4.324,0,0,1,1.956,16.2,3.236,3.236,0,0,1,.826,13.625H2.461a2.092,2.092,0,0,0,.659,1.617,2.507,2.507,0,0,0,1.767.606,2.46,2.46,0,0,0,1.8-.615,2.371,2.371,0,0,0,.624-1.767,2.151,2.151,0,0,0-.686-1.714,2.987,2.987,0,0,0-1.978-.615H3.428ZM19.2,11.542a7.436,7.436,0,0,1-.976,4.245,3.47,3.47,0,0,1-3.05,1.389,3.5,3.5,0,0,1-3.032-1.358,7.058,7.058,0,0,1-1.02-4.056V9.591A7.271,7.271,0,0,1,12.094,5.4a3.5,3.5,0,0,1,3.059-1.371A3.528,3.528,0,0,1,18.193,5.35a7.017,7.017,0,0,1,1,4.083ZM17.569,9.318a5.958,5.958,0,0,0-.58-3.01,2,2,0,0,0-1.837-.945,1.97,1.97,0,0,0-1.819.94A5.817,5.817,0,0,0,12.744,9.2v2.6a6.053,6.053,0,0,0,.6,3.063,1.993,1.993,0,0,0,1.824.989,1.966,1.966,0,0,0,1.789-.932,5.834,5.834,0,0,0,.611-2.936Z" transform="translate(-1866 -10072.398)" fill="#12263f"/>
      <path id="Trazado_814907-2" data-name="Trazado 814907" d="M-1903.51-10075.2H-1810" transform="translate(0.01)" fill="none" stroke="#12263f" stroke-width="1"/>
    </g>
    <rect id="Rectángulo_375526" data-name="Rectángulo 375526" width="366" height="123.391" transform="translate(-1275 -8999)" fill="#fffad0"/>
    <g id="Grupo_1070046" data-name="Grupo 1070046" transform="translate(595.063 3.681)">
      <path id="Trazado_828199" data-name="Trazado 828199" d="M7.487,11.941H9.164v1.253H7.487V16H5.943V13.194H.44v-.9L5.852,3.914H7.487Zm-5.3,0h3.76V6.014l-.183.332Zm15.946-1.1a7.023,7.023,0,0,1-.921,4.009,3.277,3.277,0,0,1-2.88,1.312,3.3,3.3,0,0,1-2.864-1.282,6.666,6.666,0,0,1-.963-3.831V9a6.867,6.867,0,0,1,.921-3.959,3.3,3.3,0,0,1,2.889-1.295A3.332,3.332,0,0,1,17.183,5a6.627,6.627,0,0,1,.946,3.856Zm-1.536-2.1A5.627,5.627,0,0,0,16.045,5.9a1.886,1.886,0,0,0-1.735-.892,1.861,1.861,0,0,0-1.718.888,5.494,5.494,0,0,0-.556,2.731v2.457a5.717,5.717,0,0,0,.569,2.893,1.882,1.882,0,0,0,1.722.934,1.856,1.856,0,0,0,1.689-.88,5.51,5.51,0,0,0,.577-2.772ZM6.051,64H4.507V53.765L1.411,54.9V53.508l4.4-1.652h.241Zm12.078-5.155a7.023,7.023,0,0,1-.921,4.009,3.277,3.277,0,0,1-2.88,1.312,3.3,3.3,0,0,1-2.864-1.282,6.666,6.666,0,0,1-.963-3.831V57a6.867,6.867,0,0,1,.921-3.959,3.3,3.3,0,0,1,2.889-1.295A3.332,3.332,0,0,1,17.183,53a6.627,6.627,0,0,1,.946,3.856Zm-1.536-2.1a5.627,5.627,0,0,0-.548-2.843,1.886,1.886,0,0,0-1.735-.892,1.861,1.861,0,0,0-1.718.888,5.494,5.494,0,0,0-.556,2.731v2.457a5.717,5.717,0,0,0,.569,2.893,1.882,1.882,0,0,0,1.722.934,1.856,1.856,0,0,0,1.689-.88,5.51,5.51,0,0,0,.577-2.772Z" transform="translate(-1792.063 -8986.681)" fill="#12263f"/>
      <path id="Trazado_828200" data-name="Trazado 828200" d="M8.807,4.777,3.8,16H2.191L7.18,5.176H.639V3.914H8.807Zm1.851,13.63-.872-.6a4.006,4.006,0,0,0,.813-2.241V14.182h1.5v1.2a3.781,3.781,0,0,1-.411,1.677A3.926,3.926,0,0,1,10.658,18.407ZM21.69,4.777,16.685,16h-1.61L20.063,5.176H13.522V3.914H21.69Zm9.322,6.068a7.023,7.023,0,0,1-.921,4.009,3.277,3.277,0,0,1-2.88,1.312,3.3,3.3,0,0,1-2.864-1.282,6.666,6.666,0,0,1-.963-3.831V9A6.867,6.867,0,0,1,24.3,5.043a3.3,3.3,0,0,1,2.889-1.295A3.332,3.332,0,0,1,30.065,5a6.627,6.627,0,0,1,.946,3.856Zm-1.536-2.1A5.627,5.627,0,0,0,28.928,5.9a1.886,1.886,0,0,0-1.735-.892,1.861,1.861,0,0,0-1.718.888,5.494,5.494,0,0,0-.556,2.731v2.457a5.717,5.717,0,0,0,.569,2.893,1.882,1.882,0,0,0,1.722.934,1.856,1.856,0,0,0,1.689-.88,5.51,5.51,0,0,0,.577-2.772ZM40.309,7.068a2.807,2.807,0,0,1-.477,1.61,3.248,3.248,0,0,1-1.291,1.1,3.464,3.464,0,0,1,1.5,1.187,2.987,2.987,0,0,1,.552,1.768,3.158,3.158,0,0,1-1.058,2.5,4.066,4.066,0,0,1-2.785.93,4.048,4.048,0,0,1-2.793-.934,3.173,3.173,0,0,1-1.05-2.494,3.076,3.076,0,0,1,.535-1.768,3.332,3.332,0,0,1,1.482-1.2,3.167,3.167,0,0,1-1.27-1.1,2.846,2.846,0,0,1-.465-1.6,3.124,3.124,0,0,1,.979-2.424,4.159,4.159,0,0,1,5.159,0A3.117,3.117,0,0,1,40.309,7.068ZM39.055,12.7a2.228,2.228,0,0,0-.643-1.652,2.281,2.281,0,0,0-1.681-.639A2.161,2.161,0,0,0,34.44,12.7a2.145,2.145,0,0,0,.61,1.619,2.726,2.726,0,0,0,3.391,0A2.14,2.14,0,0,0,39.055,12.7ZM36.748,5.01a1.981,1.981,0,0,0-1.465.56,2.058,2.058,0,0,0-.56,1.523,2.048,2.048,0,0,0,.552,1.49,2.193,2.193,0,0,0,2.947,0,2.048,2.048,0,0,0,.552-1.49,2.049,2.049,0,0,0-.573-1.5A1.953,1.953,0,0,0,36.748,5.01ZM8.923,64H1V62.9l4.184-4.648A9.939,9.939,0,0,0,6.47,56.533a2.861,2.861,0,0,0,.353-1.365,2.169,2.169,0,0,0-.573-1.552,2,2,0,0,0-1.527-.606,2.372,2.372,0,0,0-1.781.652,2.489,2.489,0,0,0-.635,1.814H.772a3.565,3.565,0,0,1,1.075-2.7,3.985,3.985,0,0,1,2.876-1.029,3.829,3.829,0,0,1,2.665.884,3.015,3.015,0,0,1,.979,2.353q0,1.785-2.274,4.25L2.855,62.747H8.923Zm9.546,0H10.55V62.9l4.184-4.648a9.939,9.939,0,0,0,1.282-1.714,2.861,2.861,0,0,0,.353-1.365,2.169,2.169,0,0,0-.573-1.552,2,2,0,0,0-1.527-.606,2.372,2.372,0,0,0-1.781.652,2.489,2.489,0,0,0-.635,1.814H10.318a3.565,3.565,0,0,1,1.075-2.7,3.985,3.985,0,0,1,2.876-1.029,3.829,3.829,0,0,1,2.665.884,3.015,3.015,0,0,1,.979,2.353q0,1.785-2.274,4.25L12.4,62.747h6.068ZM20.2,66.407l-.872-.6a4.006,4.006,0,0,0,.813-2.241V62.182h1.5v1.2a3.781,3.781,0,0,1-.411,1.677A3.926,3.926,0,0,1,20.2,66.407ZM31.352,64H23.433V62.9l4.184-4.648A9.939,9.939,0,0,0,28.9,56.533a2.861,2.861,0,0,0,.353-1.365,2.169,2.169,0,0,0-.573-1.552,2,2,0,0,0-1.527-.606,2.372,2.372,0,0,0-1.781.652,2.489,2.489,0,0,0-.635,1.814H23.2a3.565,3.565,0,0,1,1.075-2.7,3.985,3.985,0,0,1,2.876-1.029,3.829,3.829,0,0,1,2.665.884,3.015,3.015,0,0,1,.979,2.353q0,1.785-2.274,4.25l-3.237,3.511h6.068Zm7.512-5.312a3.757,3.757,0,0,1-1.15.921,3.119,3.119,0,0,1-1.465.349,3.22,3.22,0,0,1-1.822-.515,3.346,3.346,0,0,1-1.2-1.448,4.938,4.938,0,0,1-.423-2.063,5.031,5.031,0,0,1,.461-2.183,3.384,3.384,0,0,1,1.307-1.486,3.728,3.728,0,0,1,1.976-.515,3.375,3.375,0,0,1,2.826,1.341,5.847,5.847,0,0,1,1.033,3.656v.448q0,3.528-1.395,5.151a5.358,5.358,0,0,1-4.208,1.664h-.3v-1.3h.324a4.228,4.228,0,0,0,2.922-.99A4.248,4.248,0,0,0,38.864,58.688Zm-2.366,0a2.371,2.371,0,0,0,1.424-.473,2.789,2.789,0,0,0,.95-1.17V56.43a4.226,4.226,0,0,0-.656-2.457,2,2,0,0,0-3.287-.17,3.2,3.2,0,0,0-.614,2.046,3.332,3.332,0,0,0,.594,2.038A1.879,1.879,0,0,0,36.5,58.688ZM50.444,64H42.525V62.9l4.184-4.648a9.939,9.939,0,0,0,1.282-1.714,2.861,2.861,0,0,0,.353-1.365,2.169,2.169,0,0,0-.573-1.552,2,2,0,0,0-1.527-.606,2.372,2.372,0,0,0-1.781.652,2.489,2.489,0,0,0-.635,1.814H42.292a3.565,3.565,0,0,1,1.075-2.7,3.985,3.985,0,0,1,2.876-1.029,3.829,3.829,0,0,1,2.665.884,3.015,3.015,0,0,1,.979,2.353q0,1.785-2.274,4.25l-3.237,3.511h6.068ZM3.237,81.21H4.391a2.536,2.536,0,0,0,1.71-.573,1.914,1.914,0,0,0,.623-1.5A1.875,1.875,0,0,0,4.607,77.01a2.2,2.2,0,0,0-1.59.569,1.99,1.99,0,0,0-.594,1.507H.888A3.083,3.083,0,0,1,1.938,76.7a3.825,3.825,0,0,1,2.669-.95,3.78,3.78,0,0,1,2.681.9,3.269,3.269,0,0,1,.971,2.515,2.653,2.653,0,0,1-.51,1.527,3.082,3.082,0,0,1-1.39,1.1A2.97,2.97,0,0,1,7.9,82.845a2.9,2.9,0,0,1,.544,1.785,3.3,3.3,0,0,1-1.062,2.582,3.979,3.979,0,0,1-2.764.955,4.084,4.084,0,0,1-2.768-.921A3.056,3.056,0,0,1,.78,84.813H2.324a1.975,1.975,0,0,0,.623,1.527,2.368,2.368,0,0,0,1.668.573,2.324,2.324,0,0,0,1.7-.581,2.239,2.239,0,0,0,.589-1.668,2.032,2.032,0,0,0-.647-1.619,2.821,2.821,0,0,0-1.868-.581H3.237Zm14.892,1.635a7.023,7.023,0,0,1-.921,4.009,3.277,3.277,0,0,1-2.88,1.312,3.3,3.3,0,0,1-2.864-1.282,6.666,6.666,0,0,1-.963-3.831V81a6.867,6.867,0,0,1,.921-3.959,3.3,3.3,0,0,1,2.889-1.295A3.332,3.332,0,0,1,17.183,77a6.627,6.627,0,0,1,.946,3.856Zm-1.536-2.1a5.627,5.627,0,0,0-.548-2.843,1.886,1.886,0,0,0-1.735-.892,1.861,1.861,0,0,0-1.718.888,5.494,5.494,0,0,0-.556,2.731v2.457a5.717,5.717,0,0,0,.569,2.893,1.882,1.882,0,0,0,1.722.934,1.856,1.856,0,0,0,1.689-.88,5.51,5.51,0,0,0,.577-2.772Z" transform="translate(-1642.98 -8986.681)" fill="#12263f"/>
      <path id="Trazado_828201" data-name="Trazado 828201" d="M6.051,16H4.507V5.765L1.411,6.9V5.508l4.4-1.652h.241Zm12.3-11.223L13.348,16h-1.61L16.726,5.176H10.185V3.914h8.168Zm1.934,10.417a.962.962,0,0,1,.237-.664.9.9,0,0,1,.71-.266.928.928,0,0,1,.718.266.942.942,0,0,1,.245.664.891.891,0,0,1-.245.639.945.945,0,0,1-.718.257.854.854,0,0,1-.946-.9ZM32.373,4.777,27.368,16h-1.61L30.746,5.176H24.205V3.914h8.168Zm9.322,6.068a7.023,7.023,0,0,1-.921,4.009,3.277,3.277,0,0,1-2.88,1.312,3.3,3.3,0,0,1-2.864-1.282,6.666,6.666,0,0,1-.963-3.831V9a6.867,6.867,0,0,1,.921-3.959,3.3,3.3,0,0,1,2.889-1.295A3.332,3.332,0,0,1,40.749,5a6.627,6.627,0,0,1,.946,3.856Zm-1.536-2.1A5.627,5.627,0,0,0,39.611,5.9a1.886,1.886,0,0,0-1.735-.892,1.861,1.861,0,0,0-1.718.888A5.494,5.494,0,0,0,35.6,8.629v2.457a5.717,5.717,0,0,0,.569,2.893,1.882,1.882,0,0,0,1.722.934,1.856,1.856,0,0,0,1.689-.88,5.51,5.51,0,0,0,.577-2.772ZM50.992,7.068a2.807,2.807,0,0,1-.477,1.61,3.248,3.248,0,0,1-1.291,1.1,3.464,3.464,0,0,1,1.5,1.187,2.987,2.987,0,0,1,.552,1.768,3.158,3.158,0,0,1-1.058,2.5,4.64,4.64,0,0,1-5.578,0,3.173,3.173,0,0,1-1.05-2.494,3.076,3.076,0,0,1,.535-1.768,3.332,3.332,0,0,1,1.482-1.2,3.167,3.167,0,0,1-1.27-1.1,2.846,2.846,0,0,1-.465-1.6,3.124,3.124,0,0,1,.979-2.424,4.159,4.159,0,0,1,5.159,0A3.117,3.117,0,0,1,50.992,7.068ZM49.738,12.7a2.228,2.228,0,0,0-.643-1.652,2.281,2.281,0,0,0-1.681-.639A2.161,2.161,0,0,0,45.123,12.7a2.145,2.145,0,0,0,.61,1.619,2.726,2.726,0,0,0,3.391,0A2.14,2.14,0,0,0,49.738,12.7ZM47.431,5.01a1.981,1.981,0,0,0-1.465.56,2.058,2.058,0,0,0-.56,1.523,2.048,2.048,0,0,0,.552,1.49,2.193,2.193,0,0,0,2.947,0,2.048,2.048,0,0,0,.552-1.49,2.049,2.049,0,0,0-.573-1.5A1.953,1.953,0,0,0,47.431,5.01Z" transform="translate(-1728.684 -8962.681)" fill="#12263f"/>
      <g id="Grupo_1069977" data-name="Grupo 1069977" transform="translate(-2936.795 -10267.065)">
        <path id="Trazado_814904" data-name="Trazado 814904" d="M-2746.127-10413.115l13.077,10.835" transform="translate(3928.051 11702)" fill="none" stroke="#3b5620" stroke-width="2"/>
        <path id="Polígono_11" data-name="Polígono 11" d="M3.8,0,7.6,6.081H0Z" transform="translate(1199.837 1299.463) rotate(135)" fill="#3b5620"/>
      </g>
      <g id="Grupo_1069983" data-name="Grupo 1069983" transform="translate(-2847.334 -10232.065)">
        <path id="Trazado_814904-2" data-name="Trazado 814904" d="M-2746.127-10413.115l13.077,10.835" transform="translate(3928.051 11702)" fill="none" stroke="#3b5620" stroke-width="2"/>
        <path id="Polígono_11-2" data-name="Polígono 11" d="M3.8,0,7.6,6.081H0Z" transform="translate(1199.837 1299.463) rotate(135)" fill="#3b5620"/>
      </g>
      <g id="Grupo_1069981" data-name="Grupo 1069981" transform="translate(-1754.872 -8945.181)">
        <path id="Trazado_814904-3" data-name="Trazado 814904" d="M-2746.127-10402.28l13.076-10.835" transform="translate(2746.127 10418.232)" fill="none" stroke="#3b5620" stroke-width="2"/>
        <path id="Polígono_11-3" data-name="Polígono 11" d="M3.8,0,7.6,6.081H0Z" transform="translate(12.539 0) rotate(45)" fill="#3b5620"/>
      </g>
      <g id="Grupo_1069982" data-name="Grupo 1069982" transform="translate(-1665.41 -8978.181)">
        <path id="Trazado_814904-4" data-name="Trazado 814904" d="M-2746.127-10402.28l13.076-10.835" transform="translate(2746.127 10418.232)" fill="none" stroke="#3b5620" stroke-width="2"/>
        <path id="Polígono_11-4" data-name="Polígono 11" d="M3.8,0,7.6,6.081H0Z" transform="translate(12.539 0) rotate(45)" fill="#3b5620"/>
      </g>
      <path id="Trazado_814915" data-name="Trazado 814915" d="M-1723.951-10194.443v48.8" transform="translate(-11817.539 -7192.329) rotate(90)" fill="none" stroke="#3b5620" stroke-width="1"/>
    </g>
  </g>
</svg>
