<svg xmlns="http://www.w3.org/2000/svg" xmlns:xlink="http://www.w3.org/1999/xlink" width="505" height="690.055" viewBox="0 0 505 690.055">
  <defs>
    <linearGradient id="linear-gradient" x1="-0.011" x2="0.902" y2="1" gradientUnits="objectBoundingBox">
      <stop offset="0" stop-color="#dbf9bd"/>
      <stop offset="0.914" stop-color="#e7f7f8"/>
      <stop offset="1" stop-color="#e7f7f8"/>
    </linearGradient>
    <clipPath id="clip-path">
      <rect id="Rectángulo_376742" data-name="Rectángulo 376742" width="133.871" height="129.189" fill="none"/>
    </clipPath>
    <clipPath id="clip-path-3">
      <rect id="Rectángulo_376735" data-name="Rectángulo 376735" width="28.734" height="8.436" fill="none"/>
    </clipPath>
    <clipPath id="clip-path-4">
      <rect id="Rectángulo_376736" data-name="Rectángulo 376736" width="30.224" height="4.66" fill="none"/>
    </clipPath>
    <clipPath id="clip-path-5">
      <rect id="Rectángulo_376737" data-name="Rectángulo 376737" width="43.156" height="24.568" fill="none"/>
    </clipPath>
    <clipPath id="clip-path-7">
      <rect id="Rectángulo_376739" data-name="Rectángulo 376739" width="48.587" height="20.773" fill="none"/>
    </clipPath>
    <clipPath id="clip-path-8">
      <rect id="Rectángulo_376740" data-name="Rectángulo 376740" width="5.615" height="19.491" fill="none"/>
    </clipPath>
    <clipPath id="clip-path-9">
      <rect id="Rectángulo_376731" data-name="Rectángulo 376731" width="148.843" height="236.002" fill="none"/>
    </clipPath>
    <clipPath id="clip-path-10">
      <rect id="Rectángulo_376703" data-name="Rectángulo 376703" width="148.844" height="236.002" fill="none"/>
    </clipPath>
    <clipPath id="clip-path-11">
      <rect id="Rectángulo_376702" data-name="Rectángulo 376702" width="61.059" height="42.926" fill="none"/>
    </clipPath>
    <clipPath id="clip-path-13">
      <rect id="Rectángulo_376705" data-name="Rectángulo 376705" width="52.24" height="23.344" fill="none"/>
    </clipPath>
  </defs>
  <g id="Grupo_1072714" data-name="Grupo 1072714" transform="translate(-9491 8748.807)">
    <g id="Grupo_1071095" data-name="Grupo 1071095">
      <g id="Grupo_1071056" data-name="Grupo 1071056" transform="translate(3128 685.193)">
        <rect id="Rectángulo_376197" data-name="Rectángulo 376197" width="505" height="690.055" transform="translate(6363 -9434)" fill="url(#linear-gradient)"/>
      </g>
      <path id="Trazado_828294" data-name="Trazado 828294" d="M8.234,10.414H3V14.7H9.081V16H1.4V3.914H9v1.3H3V9.11H8.234ZM12.493,16H10.957V3.25h1.536ZM21.242,4.844V7.019h1.677V8.206H21.242v5.577a1.247,1.247,0,0,0,.224.81.943.943,0,0,0,.764.27,3.718,3.718,0,0,0,.73-.1V16a4.478,4.478,0,0,1-1.179.165,1.912,1.912,0,0,1-1.552-.623,2.675,2.675,0,0,1-.523-1.768V8.206H18.071V7.019h1.635V4.844ZM26.38,16H24.844V7.019H26.38ZM24.72,4.636a.917.917,0,0,1,.228-.631.857.857,0,0,1,.677-.257.87.87,0,0,1,.681.257.907.907,0,0,1,.232.631.877.877,0,0,1-.232.623.886.886,0,0,1-.681.249.872.872,0,0,1-.677-.249A.886.886,0,0,1,24.72,4.636Zm11.7,6.973a5.378,5.378,0,0,1-.938,3.3,3.006,3.006,0,0,1-2.54,1.253,3.294,3.294,0,0,1-2.573-1.038v4.325H28.837V7.019h1.4l.075,1a3.163,3.163,0,0,1,2.606-1.162,3.063,3.063,0,0,1,2.561,1.22,5.437,5.437,0,0,1,.942,3.4Zm-1.536-.174a3.968,3.968,0,0,0-.647-2.4,2.086,2.086,0,0,0-1.776-.88,2.257,2.257,0,0,0-2.092,1.237v4.292a2.262,2.262,0,0,0,2.108,1.229,2.076,2.076,0,0,0,1.756-.876A4.332,4.332,0,0,0,34.888,11.435Zm3.08-.008a5.3,5.3,0,0,1,.519-2.374,3.87,3.87,0,0,1,1.444-1.627,3.932,3.932,0,0,1,2.113-.573,3.788,3.788,0,0,1,2.968,1.27A4.886,4.886,0,0,1,46.144,11.5v.108a5.351,5.351,0,0,1-.5,2.353,3.813,3.813,0,0,1-1.436,1.623,3.977,3.977,0,0,1-2.146.581A3.778,3.778,0,0,1,39.1,14.9a4.861,4.861,0,0,1-1.133-3.362Zm1.544.183a3.842,3.842,0,0,0,.693,2.4A2.349,2.349,0,0,0,43.919,14a4.2,4.2,0,0,0,.689-2.569,3.836,3.836,0,0,0-.7-2.395,2.23,2.23,0,0,0-1.864-.917,2.205,2.205,0,0,0-1.834.9A4.17,4.17,0,0,0,39.512,11.609ZM51.9,11.435a5.261,5.261,0,0,1,.979-3.324,3.333,3.333,0,0,1,5.063-.178V3.25h1.536V16H58.072L58,15.037a3.127,3.127,0,0,1-2.565,1.129,3.068,3.068,0,0,1-2.544-1.278,5.321,5.321,0,0,1-.984-3.337Zm1.536.174A3.984,3.984,0,0,0,54.071,14a2.039,2.039,0,0,0,1.743.863,2.24,2.24,0,0,0,2.133-1.312V9.426a2.257,2.257,0,0,0-2.117-1.27,2.049,2.049,0,0,0-1.76.872A4.386,4.386,0,0,0,53.44,11.609Zm12.152,4.557a3.924,3.924,0,0,1-2.972-1.2,4.452,4.452,0,0,1-1.146-3.208v-.282a5.39,5.39,0,0,1,.51-2.386,3.982,3.982,0,0,1,1.428-1.644A3.59,3.59,0,0,1,65.4,6.853a3.364,3.364,0,0,1,2.723,1.154,5,5,0,0,1,.971,3.3v.639H63.011a3.193,3.193,0,0,0,.776,2.146,2.44,2.44,0,0,0,1.888.818,2.675,2.675,0,0,0,1.378-.332,3.462,3.462,0,0,0,.988-.88l.938.73A3.772,3.772,0,0,1,65.593,16.166ZM65.4,8.114a2.048,2.048,0,0,0-1.561.677,3.288,3.288,0,0,0-.78,1.9h4.5v-.116a2.925,2.925,0,0,0-.631-1.814A1.928,1.928,0,0,0,65.4,8.114Zm11.123-1.1.042,1a3.317,3.317,0,0,1,2.665-1.162A2.568,2.568,0,0,1,81.8,8.3a3.4,3.4,0,0,1,1.166-1.046,3.445,3.445,0,0,1,1.7-.4q2.955,0,3,3.129V16H86.129V10.073a2.062,2.062,0,0,0-.44-1.44,1.937,1.937,0,0,0-1.478-.477,2.036,2.036,0,0,0-1.419.51,2.071,2.071,0,0,0-.656,1.374V16H80.592V10.115a1.713,1.713,0,0,0-1.917-1.959,2.055,2.055,0,0,0-2.067,1.287V16H75.072V7.019Zm13.049,4.408a5.3,5.3,0,0,1,.519-2.374,3.87,3.87,0,0,1,1.444-1.627,3.932,3.932,0,0,1,2.113-.573,3.788,3.788,0,0,1,2.968,1.27A4.886,4.886,0,0,1,97.75,11.5v.108a5.351,5.351,0,0,1-.5,2.353,3.813,3.813,0,0,1-1.436,1.623,3.977,3.977,0,0,1-2.146.581,3.778,3.778,0,0,1-2.959-1.27,4.861,4.861,0,0,1-1.133-3.362Zm1.544.183a3.842,3.842,0,0,0,.693,2.4A2.349,2.349,0,0,0,95.525,14a4.2,4.2,0,0,0,.689-2.569,3.836,3.836,0,0,0-.7-2.395,2.23,2.23,0,0,0-1.864-.917,2.205,2.205,0,0,0-1.834.9A4.17,4.17,0,0,0,91.118,11.609ZM101.344,16H99.809V3.25h1.536Zm4.125,0h-1.536V7.019h1.536ZM103.81,4.636a.917.917,0,0,1,.228-.631.857.857,0,0,1,.677-.257.87.87,0,0,1,.681.257.907.907,0,0,1,.232.631.877.877,0,0,1-.232.623.886.886,0,0,1-.681.249.872.872,0,0,1-.677-.249A.886.886,0,0,1,103.81,4.636Zm3.744,6.8a5.261,5.261,0,0,1,.979-3.324,3.333,3.333,0,0,1,5.063-.178V3.25h1.536V16h-1.411l-.075-.963a3.127,3.127,0,0,1-2.565,1.129,3.068,3.068,0,0,1-2.544-1.278,5.321,5.321,0,0,1-.984-3.337Zm1.536.174A3.984,3.984,0,0,0,109.72,14a2.039,2.039,0,0,0,1.743.863,2.24,2.24,0,0,0,2.133-1.312V9.426a2.257,2.257,0,0,0-2.117-1.27,2.049,2.049,0,0,0-1.76.872A4.386,4.386,0,0,0,109.089,11.609Zm8.019-.183a5.3,5.3,0,0,1,.519-2.374,3.87,3.87,0,0,1,1.444-1.627,3.932,3.932,0,0,1,2.113-.573,3.788,3.788,0,0,1,2.968,1.27,4.886,4.886,0,0,1,1.133,3.378v.108a5.351,5.351,0,0,1-.5,2.353,3.813,3.813,0,0,1-1.436,1.623,3.977,3.977,0,0,1-2.146.581,3.778,3.778,0,0,1-2.959-1.27,4.861,4.861,0,0,1-1.133-3.362Zm1.544.183a3.842,3.842,0,0,0,.693,2.4A2.349,2.349,0,0,0,123.059,14a4.2,4.2,0,0,0,.689-2.569,3.836,3.836,0,0,0-.7-2.395,2.23,2.23,0,0,0-1.864-.917,2.205,2.205,0,0,0-1.834.9A4.17,4.17,0,0,0,118.651,11.609Zm16.369,3.3a2.212,2.212,0,0,0,1.436-.5,1.752,1.752,0,0,0,.681-1.245h1.453a2.785,2.785,0,0,1-.531,1.469,3.5,3.5,0,0,1-1.307,1.112,3.772,3.772,0,0,1-1.731.415,3.7,3.7,0,0,1-2.918-1.224,4.877,4.877,0,0,1-1.083-3.349v-.257A5.407,5.407,0,0,1,131.5,9a3.667,3.667,0,0,1,1.382-1.585,3.926,3.926,0,0,1,2.129-.564,3.6,3.6,0,0,1,2.511.9,3.234,3.234,0,0,1,1.067,2.349h-1.453a2.116,2.116,0,0,0-.66-1.432,2.053,2.053,0,0,0-1.465-.56,2.149,2.149,0,0,0-1.814.843,3.957,3.957,0,0,0-.643,2.436v.291a3.878,3.878,0,0,0,.639,2.391A2.16,2.16,0,0,0,135.021,14.913Zm4.889-3.486a5.3,5.3,0,0,1,.519-2.374,3.87,3.87,0,0,1,1.444-1.627,3.932,3.932,0,0,1,2.113-.573,3.788,3.788,0,0,1,2.968,1.27,4.886,4.886,0,0,1,1.133,3.378v.108a5.351,5.351,0,0,1-.5,2.353,3.813,3.813,0,0,1-1.436,1.623,3.977,3.977,0,0,1-2.146.581,3.778,3.778,0,0,1-2.959-1.27,4.861,4.861,0,0,1-1.133-3.362Zm1.544.183a3.842,3.842,0,0,0,.693,2.4A2.349,2.349,0,0,0,145.861,14a4.2,4.2,0,0,0,.689-2.569,3.836,3.836,0,0,0-.7-2.395,2.23,2.23,0,0,0-1.864-.917,2.205,2.205,0,0,0-1.834.9A4.17,4.17,0,0,0,141.454,11.609Zm10.011-4.59.05,1.129A3.273,3.273,0,0,1,154.2,6.853q2.847,0,2.872,3.212V16H155.54V10.057a2.068,2.068,0,0,0-.444-1.436,1.78,1.78,0,0,0-1.357-.465,2.216,2.216,0,0,0-1.312.4,2.706,2.706,0,0,0-.88,1.046V16h-1.536V7.019Zm15.863,9.147a3.924,3.924,0,0,1-2.972-1.2,4.452,4.452,0,0,1-1.146-3.208v-.282a5.39,5.39,0,0,1,.51-2.386,3.982,3.982,0,0,1,1.428-1.644,3.59,3.59,0,0,1,1.988-.594,3.364,3.364,0,0,1,2.723,1.154,5,5,0,0,1,.971,3.3v.639h-6.084a3.193,3.193,0,0,0,.776,2.146,2.44,2.44,0,0,0,1.888.818,2.675,2.675,0,0,0,1.378-.332,3.462,3.462,0,0,0,.988-.88l.938.73A3.772,3.772,0,0,1,167.327,16.166Zm-.191-8.052a2.048,2.048,0,0,0-1.561.677,3.288,3.288,0,0,0-.78,1.9h4.5v-.116a2.925,2.925,0,0,0-.631-1.814A1.928,1.928,0,0,0,167.136,8.114ZM174.275,16h-1.536V3.25h1.536Zm10.268-1.087a2.212,2.212,0,0,0,1.436-.5,1.752,1.752,0,0,0,.681-1.245h1.453a2.785,2.785,0,0,1-.531,1.469,3.5,3.5,0,0,1-1.307,1.112,3.772,3.772,0,0,1-1.731.415,3.7,3.7,0,0,1-2.918-1.224,4.877,4.877,0,0,1-1.083-3.349v-.257A5.407,5.407,0,0,1,181.023,9a3.667,3.667,0,0,1,1.382-1.585,3.926,3.926,0,0,1,2.129-.564,3.6,3.6,0,0,1,2.511.9,3.234,3.234,0,0,1,1.067,2.349H186.66A2.116,2.116,0,0,0,186,8.675a2.053,2.053,0,0,0-1.465-.56,2.149,2.149,0,0,0-1.814.843,3.957,3.957,0,0,0-.643,2.436v.291a3.878,3.878,0,0,0,.639,2.391A2.16,2.16,0,0,0,184.543,14.913Zm10.841.2a3.262,3.262,0,0,1-2.631,1.054,2.792,2.792,0,0,1-2.187-.834,3.611,3.611,0,0,1-.76-2.469V7.019h1.536v5.8q0,2.042,1.66,2.042a2.3,2.3,0,0,0,2.341-1.312V7.019h1.536V16h-1.461Zm9.372.888a3.226,3.226,0,0,1-.216-.946,3.426,3.426,0,0,1-2.557,1.112,3.17,3.17,0,0,1-2.179-.751,2.43,2.43,0,0,1-.851-1.905,2.539,2.539,0,0,1,1.067-2.179,5.029,5.029,0,0,1,3-.776h1.494V9.849a1.725,1.725,0,0,0-.481-1.282,1.935,1.935,0,0,0-1.419-.477,2.239,2.239,0,0,0-1.378.415,1.223,1.223,0,0,0-.556,1h-1.544a2.119,2.119,0,0,1,.477-1.3,3.258,3.258,0,0,1,1.295-.992,4.356,4.356,0,0,1,1.8-.365,3.551,3.551,0,0,1,2.432.776,2.8,2.8,0,0,1,.913,2.137V13.9a5.054,5.054,0,0,0,.315,1.967V16Zm-2.548-1.17a2.7,2.7,0,0,0,1.37-.374,2.259,2.259,0,0,0,.938-.971V11.642h-1.2q-2.822,0-2.822,1.652a1.4,1.4,0,0,0,.481,1.129A1.85,1.85,0,0,0,202.207,14.83ZM210.126,16H208.59V3.25h1.536Zm11.9-2.382a1.13,1.13,0,0,0-.469-.967,4.514,4.514,0,0,0-1.635-.594,7.731,7.731,0,0,1-1.851-.6,2.633,2.633,0,0,1-1.013-.83,1.986,1.986,0,0,1-.328-1.146,2.33,2.33,0,0,1,.934-1.868,3.647,3.647,0,0,1,2.386-.764,3.753,3.753,0,0,1,2.478.789,2.5,2.5,0,0,1,.95,2.017H221.93a1.386,1.386,0,0,0-.535-1.087,2.006,2.006,0,0,0-1.349-.457,2.1,2.1,0,0,0-1.312.365,1.15,1.15,0,0,0-.473.955.932.932,0,0,0,.44.838,5.413,5.413,0,0,0,1.59.54,8.283,8.283,0,0,1,1.864.614,2.718,2.718,0,0,1,1.058.859,2.112,2.112,0,0,1,.344,1.224,2.3,2.3,0,0,1-.963,1.93,4.039,4.039,0,0,1-2.5.726,4.523,4.523,0,0,1-1.909-.382,3.105,3.105,0,0,1-1.3-1.067,2.571,2.571,0,0,1-.469-1.482h1.536a1.59,1.59,0,0,0,.618,1.224,2.4,2.4,0,0,0,1.523.452,2.476,2.476,0,0,0,1.4-.353A1.084,1.084,0,0,0,222.021,13.618Zm7.263,2.548a3.924,3.924,0,0,1-2.972-1.2,4.452,4.452,0,0,1-1.146-3.208v-.282a5.39,5.39,0,0,1,.51-2.386,3.982,3.982,0,0,1,1.428-1.644,3.59,3.59,0,0,1,1.988-.594,3.364,3.364,0,0,1,2.723,1.154,5,5,0,0,1,.971,3.3v.639H226.7a3.193,3.193,0,0,0,.776,2.146,2.44,2.44,0,0,0,1.888.818,2.675,2.675,0,0,0,1.378-.332,3.462,3.462,0,0,0,.988-.88l.938.73A3.772,3.772,0,0,1,229.284,16.166Zm-.191-8.052a2.048,2.048,0,0,0-1.561.677,3.288,3.288,0,0,0-.78,1.9h4.5v-.116a2.925,2.925,0,0,0-.631-1.814A1.928,1.928,0,0,0,229.093,8.114ZM238.9,8.4a4.6,4.6,0,0,0-.755-.058,2.024,2.024,0,0,0-2.05,1.287V16h-1.536V7.019h1.494l.025,1.038a2.391,2.391,0,0,1,2.142-1.2,1.569,1.569,0,0,1,.681.116Zm6.624,7.6a3.226,3.226,0,0,1-.216-.946,3.426,3.426,0,0,1-2.557,1.112,3.17,3.17,0,0,1-2.179-.751,2.43,2.43,0,0,1-.851-1.905,2.539,2.539,0,0,1,1.067-2.179,5.029,5.029,0,0,1,3-.776h1.494V9.849a1.725,1.725,0,0,0-.481-1.282,1.935,1.935,0,0,0-1.419-.477,2.239,2.239,0,0,0-1.378.415,1.223,1.223,0,0,0-.556,1h-1.544a2.119,2.119,0,0,1,.477-1.3,3.258,3.258,0,0,1,1.295-.992,4.356,4.356,0,0,1,1.8-.365,3.551,3.551,0,0,1,2.432.776,2.8,2.8,0,0,1,.913,2.137V13.9a5.054,5.054,0,0,0,.315,1.967V16Zm-2.548-1.17a2.7,2.7,0,0,0,1.37-.374,2.259,2.259,0,0,0,.938-.971V11.642h-1.2q-2.822,0-2.822,1.652a1.4,1.4,0,0,0,.481,1.129A1.85,1.85,0,0,0,242.98,14.83ZM244.4,3.25h1.859l-2.225,2.44-1.237,0Zm16.626,8.359a5.378,5.378,0,0,1-.938,3.3,3.006,3.006,0,0,1-2.54,1.253,3.294,3.294,0,0,1-2.573-1.038v4.325h-1.536V7.019h1.4l.075,1a3.163,3.163,0,0,1,2.606-1.162,3.063,3.063,0,0,1,2.561,1.22,5.437,5.437,0,0,1,.942,3.4Zm-1.536-.174a3.968,3.968,0,0,0-.647-2.4,2.086,2.086,0,0,0-1.776-.88,2.257,2.257,0,0,0-2.092,1.237v4.292a2.262,2.262,0,0,0,2.108,1.229,2.076,2.076,0,0,0,1.756-.876A4.332,4.332,0,0,0,259.491,11.435ZM267.318,8.4a4.6,4.6,0,0,0-.755-.058,2.024,2.024,0,0,0-2.05,1.287V16h-1.536V7.019h1.494l.025,1.038a2.391,2.391,0,0,1,2.142-1.2,1.569,1.569,0,0,1,.681.116Zm.838,3.03a5.305,5.305,0,0,1,.519-2.374,3.87,3.87,0,0,1,1.444-1.627,3.932,3.932,0,0,1,2.113-.573,3.788,3.788,0,0,1,2.968,1.27,4.886,4.886,0,0,1,1.133,3.378v.108a5.351,5.351,0,0,1-.5,2.353,3.813,3.813,0,0,1-1.436,1.623,3.977,3.977,0,0,1-2.146.581,3.778,3.778,0,0,1-2.959-1.27,4.861,4.861,0,0,1-1.133-3.362Zm1.544.183a3.842,3.842,0,0,0,.693,2.4A2.349,2.349,0,0,0,274.108,14a4.2,4.2,0,0,0,.689-2.569,3.836,3.836,0,0,0-.7-2.395,2.23,2.23,0,0,0-1.864-.917,2.205,2.205,0,0,0-1.834.9A4.17,4.17,0,0,0,269.7,11.609Zm12.161,3.3a2.212,2.212,0,0,0,1.436-.5,1.752,1.752,0,0,0,.681-1.245h1.453a2.785,2.785,0,0,1-.531,1.469,3.5,3.5,0,0,1-1.307,1.112,3.772,3.772,0,0,1-1.731.415,3.7,3.7,0,0,1-2.918-1.224,4.877,4.877,0,0,1-1.083-3.349v-.257A5.407,5.407,0,0,1,278.342,9a3.667,3.667,0,0,1,1.382-1.585,3.926,3.926,0,0,1,2.129-.564,3.6,3.6,0,0,1,2.511.9,3.234,3.234,0,0,1,1.067,2.349h-1.453a2.116,2.116,0,0,0-.66-1.432,2.053,2.053,0,0,0-1.465-.56,2.149,2.149,0,0,0-1.814.843,3.957,3.957,0,0,0-.643,2.436v.291a3.878,3.878,0,0,0,.639,2.391A2.16,2.16,0,0,0,281.861,14.913Zm9.023,1.253a3.924,3.924,0,0,1-2.972-1.2,4.452,4.452,0,0,1-1.146-3.208v-.282a5.39,5.39,0,0,1,.51-2.386,3.982,3.982,0,0,1,1.428-1.644,3.59,3.59,0,0,1,1.988-.594,3.364,3.364,0,0,1,2.723,1.154,5,5,0,0,1,.971,3.3v.639H288.3a3.193,3.193,0,0,0,.776,2.146,2.44,2.44,0,0,0,1.888.818,2.675,2.675,0,0,0,1.378-.332,3.462,3.462,0,0,0,.988-.88l.938.73A3.772,3.772,0,0,1,290.884,16.166Zm-.191-8.052a2.048,2.048,0,0,0-1.561.677,3.288,3.288,0,0,0-.78,1.9h4.5v-.116a2.925,2.925,0,0,0-.631-1.814A1.928,1.928,0,0,0,290.693,8.114Zm10.7,5.5a1.131,1.131,0,0,0-.469-.967,4.514,4.514,0,0,0-1.635-.594,7.732,7.732,0,0,1-1.851-.6,2.634,2.634,0,0,1-1.013-.83,1.985,1.985,0,0,1-.328-1.146,2.33,2.33,0,0,1,.934-1.868,3.647,3.647,0,0,1,2.386-.764,3.753,3.753,0,0,1,2.478.789,2.5,2.5,0,0,1,.95,2.017H301.3a1.386,1.386,0,0,0-.535-1.087,2.006,2.006,0,0,0-1.349-.457,2.1,2.1,0,0,0-1.312.365,1.15,1.15,0,0,0-.473.955.931.931,0,0,0,.44.838,5.413,5.413,0,0,0,1.59.54,8.283,8.283,0,0,1,1.864.614,2.718,2.718,0,0,1,1.058.859,2.112,2.112,0,0,1,.344,1.224,2.3,2.3,0,0,1-.963,1.93,4.039,4.039,0,0,1-2.5.726,4.523,4.523,0,0,1-1.909-.382,3.105,3.105,0,0,1-1.3-1.067,2.571,2.571,0,0,1-.469-1.482h1.536a1.59,1.59,0,0,0,.618,1.224,2.4,2.4,0,0,0,1.523.452,2.476,2.476,0,0,0,1.4-.353A1.084,1.084,0,0,0,301.393,13.618ZM310.474,16a3.226,3.226,0,0,1-.216-.946,3.426,3.426,0,0,1-2.557,1.112,3.17,3.17,0,0,1-2.179-.751,2.43,2.43,0,0,1-.851-1.905,2.539,2.539,0,0,1,1.067-2.179,5.029,5.029,0,0,1,3-.776h1.494V9.849a1.725,1.725,0,0,0-.481-1.282,1.935,1.935,0,0,0-1.419-.477,2.239,2.239,0,0,0-1.378.415,1.223,1.223,0,0,0-.556,1h-1.544a2.119,2.119,0,0,1,.477-1.3,3.258,3.258,0,0,1,1.295-.992,4.356,4.356,0,0,1,1.8-.365,3.551,3.551,0,0,1,2.432.776,2.8,2.8,0,0,1,.913,2.137V13.9a5.054,5.054,0,0,0,.315,1.967V16Zm-2.548-1.17a2.7,2.7,0,0,0,1.37-.374,2.26,2.26,0,0,0,.938-.971V11.642h-1.2q-2.822,0-2.822,1.652a1.4,1.4,0,0,0,.481,1.129A1.85,1.85,0,0,0,307.926,14.83Zm5.877-3.4a5.261,5.261,0,0,1,.979-3.324,3.333,3.333,0,0,1,5.063-.178V3.25h1.536V16H319.97l-.075-.963a3.127,3.127,0,0,1-2.565,1.129,3.068,3.068,0,0,1-2.544-1.278,5.321,5.321,0,0,1-.984-3.337Zm1.536.174A3.984,3.984,0,0,0,315.969,14a2.039,2.039,0,0,0,1.743.863,2.24,2.24,0,0,0,2.133-1.312V9.426a2.257,2.257,0,0,0-2.117-1.27,2.049,2.049,0,0,0-1.76.872A4.386,4.386,0,0,0,315.338,11.609ZM329.309,16a3.226,3.226,0,0,1-.216-.946,3.426,3.426,0,0,1-2.557,1.112,3.17,3.17,0,0,1-2.179-.751,2.43,2.43,0,0,1-.851-1.905,2.539,2.539,0,0,1,1.067-2.179,5.029,5.029,0,0,1,3-.776h1.494V9.849a1.725,1.725,0,0,0-.481-1.282,1.935,1.935,0,0,0-1.419-.477,2.239,2.239,0,0,0-1.378.415,1.223,1.223,0,0,0-.556,1h-1.544a2.119,2.119,0,0,1,.477-1.3,3.258,3.258,0,0,1,1.295-.992,4.356,4.356,0,0,1,1.8-.365,3.551,3.551,0,0,1,2.432.776,2.8,2.8,0,0,1,.913,2.137V13.9a5.054,5.054,0,0,0,.315,1.967V16Zm-2.548-1.17a2.7,2.7,0,0,0,1.37-.374,2.26,2.26,0,0,0,.938-.971V11.642h-1.2q-2.822,0-2.822,1.652a1.4,1.4,0,0,0,.481,1.129A1.85,1.85,0,0,0,326.76,14.83ZM338.888,16h-1.536V3.25h1.536Zm8,0a3.226,3.226,0,0,1-.216-.946,3.426,3.426,0,0,1-2.557,1.112,3.17,3.17,0,0,1-2.179-.751,2.43,2.43,0,0,1-.851-1.905,2.539,2.539,0,0,1,1.067-2.179,5.029,5.029,0,0,1,3-.776h1.494V9.849a1.725,1.725,0,0,0-.481-1.282,1.935,1.935,0,0,0-1.419-.477,2.239,2.239,0,0,0-1.378.415,1.223,1.223,0,0,0-.556,1H341.27a2.119,2.119,0,0,1,.477-1.3,3.258,3.258,0,0,1,1.295-.992,4.356,4.356,0,0,1,1.8-.365,3.551,3.551,0,0,1,2.432.776,2.8,2.8,0,0,1,.913,2.137V13.9a5.054,5.054,0,0,0,.315,1.967V16Zm-2.548-1.17a2.7,2.7,0,0,0,1.37-.374,2.26,2.26,0,0,0,.938-.971V11.642h-1.2q-2.822,0-2.822,1.652a1.4,1.4,0,0,0,.481,1.129A1.85,1.85,0,0,0,344.341,14.83ZM2.606,31.019l.042,1a3.317,3.317,0,0,1,2.665-1.162A2.568,2.568,0,0,1,7.877,32.3a3.4,3.4,0,0,1,1.166-1.046,3.445,3.445,0,0,1,1.7-.4q2.955,0,3,3.129V40H12.21V34.073a2.062,2.062,0,0,0-.44-1.44,1.937,1.937,0,0,0-1.478-.477,2.036,2.036,0,0,0-1.419.51,2.071,2.071,0,0,0-.656,1.374V40H6.674V34.115a1.713,1.713,0,0,0-1.917-1.959,2.055,2.055,0,0,0-2.067,1.287V40H1.154V31.019Zm19,8.981a3.226,3.226,0,0,1-.216-.946,3.426,3.426,0,0,1-2.557,1.112,3.17,3.17,0,0,1-2.179-.751A2.43,2.43,0,0,1,15.8,37.51a2.539,2.539,0,0,1,1.067-2.179,5.029,5.029,0,0,1,3-.776h1.494v-.706a1.725,1.725,0,0,0-.481-1.282,1.935,1.935,0,0,0-1.419-.477,2.239,2.239,0,0,0-1.378.415,1.223,1.223,0,0,0-.556,1H15.987a2.119,2.119,0,0,1,.477-1.3,3.258,3.258,0,0,1,1.295-.992,4.356,4.356,0,0,1,1.8-.365,3.551,3.551,0,0,1,2.432.776,2.8,2.8,0,0,1,.913,2.137V37.9a5.054,5.054,0,0,0,.315,1.967V40Zm-2.548-1.17a2.7,2.7,0,0,0,1.37-.374,2.259,2.259,0,0,0,.938-.971V35.642h-1.2q-2.822,0-2.822,1.652a1.4,1.4,0,0,0,.481,1.129A1.85,1.85,0,0,0,19.059,38.83Zm8.334-9.986v2.175h1.677v1.187H27.393v5.577a1.247,1.247,0,0,0,.224.81.943.943,0,0,0,.764.27,3.718,3.718,0,0,0,.73-.1V40a4.478,4.478,0,0,1-1.179.165,1.912,1.912,0,0,1-1.552-.623,2.675,2.675,0,0,1-.523-1.768v-5.57H24.222V31.019h1.635V28.844Zm7.2,11.322a3.924,3.924,0,0,1-2.972-1.2,4.452,4.452,0,0,1-1.146-3.208v-.282a5.39,5.39,0,0,1,.51-2.386,3.982,3.982,0,0,1,1.428-1.644,3.59,3.59,0,0,1,1.988-.594,3.364,3.364,0,0,1,2.723,1.154,5,5,0,0,1,.971,3.3v.639H32.008a3.193,3.193,0,0,0,.776,2.146,2.44,2.44,0,0,0,1.888.818,2.675,2.675,0,0,0,1.378-.332,3.462,3.462,0,0,0,.988-.88l.938.73A3.772,3.772,0,0,1,34.589,40.166ZM34.4,32.114a2.048,2.048,0,0,0-1.561.677,3.288,3.288,0,0,0-.78,1.9h4.5v-.116a2.925,2.925,0,0,0-.631-1.814A1.928,1.928,0,0,0,34.4,32.114Zm9.812.282a4.6,4.6,0,0,0-.755-.058,2.024,2.024,0,0,0-2.05,1.287V40H39.869V31.019h1.494l.025,1.038a2.391,2.391,0,0,1,2.142-1.2,1.569,1.569,0,0,1,.681.116ZM47.29,40H45.754V31.019H47.29Zm-1.66-11.364a.917.917,0,0,1,.228-.631.857.857,0,0,1,.677-.257.87.87,0,0,1,.681.257.907.907,0,0,1,.232.631.877.877,0,0,1-.232.623.886.886,0,0,1-.681.249.872.872,0,0,1-.677-.249A.886.886,0,0,1,45.629,28.636ZM55.292,40a3.226,3.226,0,0,1-.216-.946,3.426,3.426,0,0,1-2.557,1.112,3.17,3.17,0,0,1-2.179-.751,2.43,2.43,0,0,1-.851-1.905,2.539,2.539,0,0,1,1.067-2.179,5.029,5.029,0,0,1,3-.776h1.494v-.706a1.725,1.725,0,0,0-.481-1.282,1.935,1.935,0,0,0-1.419-.477,2.239,2.239,0,0,0-1.378.415,1.223,1.223,0,0,0-.556,1H49.672a2.119,2.119,0,0,1,.477-1.3,3.258,3.258,0,0,1,1.295-.992,4.356,4.356,0,0,1,1.8-.365,3.551,3.551,0,0,1,2.432.776,2.8,2.8,0,0,1,.913,2.137V37.9a5.054,5.054,0,0,0,.315,1.967V40Zm-2.548-1.17a2.7,2.7,0,0,0,1.37-.374,2.259,2.259,0,0,0,.938-.971V35.642h-1.2q-2.822,0-2.822,1.652a1.4,1.4,0,0,0,.481,1.129A1.85,1.85,0,0,0,52.743,38.83Zm18.046-3.221a5.378,5.378,0,0,1-.938,3.3,3.006,3.006,0,0,1-2.54,1.253,3.294,3.294,0,0,1-2.573-1.038v4.325H63.2V31.019h1.4l.075,1a3.163,3.163,0,0,1,2.606-1.162,3.063,3.063,0,0,1,2.561,1.22,5.437,5.437,0,0,1,.942,3.4Zm-1.536-.174a3.968,3.968,0,0,0-.647-2.4,2.086,2.086,0,0,0-1.776-.88,2.257,2.257,0,0,0-2.092,1.237v4.292a2.262,2.262,0,0,0,2.108,1.229,2.076,2.076,0,0,0,1.756-.876A4.332,4.332,0,0,0,69.253,35.435ZM77.081,32.4a4.6,4.6,0,0,0-.755-.058,2.024,2.024,0,0,0-2.05,1.287V40H72.74V31.019h1.494l.025,1.038a2.391,2.391,0,0,1,2.142-1.2,1.569,1.569,0,0,1,.681.116Zm3.08,7.6H78.625V31.019h1.536ZM78.5,28.636a.917.917,0,0,1,.228-.631.857.857,0,0,1,.677-.257.87.87,0,0,1,.681.257.907.907,0,0,1,.232.631.877.877,0,0,1-.232.623.886.886,0,0,1-.681.249.872.872,0,0,1-.677-.249A.886.886,0,0,1,78.5,28.636Zm5.562,2.382.042,1a3.317,3.317,0,0,1,2.665-1.162A2.568,2.568,0,0,1,89.333,32.3,3.4,3.4,0,0,1,90.5,31.251a3.445,3.445,0,0,1,1.7-.4q2.955,0,3,3.129V40H93.666V34.073a2.062,2.062,0,0,0-.44-1.44,1.937,1.937,0,0,0-1.478-.477,2.036,2.036,0,0,0-1.419.51,2.071,2.071,0,0,0-.656,1.374V40H88.129V34.115a1.713,1.713,0,0,0-1.917-1.959,2.055,2.055,0,0,0-2.067,1.287V40H82.609V31.019Zm19,8.981a3.226,3.226,0,0,1-.216-.946,3.426,3.426,0,0,1-2.557,1.112,3.17,3.17,0,0,1-2.179-.751,2.43,2.43,0,0,1-.851-1.905,2.539,2.539,0,0,1,1.067-2.179,5.029,5.029,0,0,1,3-.776h1.494v-.706a1.725,1.725,0,0,0-.481-1.282,1.935,1.935,0,0,0-1.419-.477,2.239,2.239,0,0,0-1.378.415,1.223,1.223,0,0,0-.556,1H97.443a2.119,2.119,0,0,1,.477-1.3,3.258,3.258,0,0,1,1.295-.992,4.356,4.356,0,0,1,1.8-.365,3.551,3.551,0,0,1,2.432.776,2.8,2.8,0,0,1,.913,2.137V37.9a5.054,5.054,0,0,0,.315,1.967V40Zm-2.548-1.17a2.7,2.7,0,0,0,1.37-.374,2.259,2.259,0,0,0,.938-.971V35.642h-1.2q-2.822,0-2.822,1.652a1.4,1.4,0,0,0,.481,1.129A1.85,1.85,0,0,0,100.514,38.83ZM116.2,37.618a1.131,1.131,0,0,0-.469-.967,4.514,4.514,0,0,0-1.635-.594,7.731,7.731,0,0,1-1.851-.6,2.633,2.633,0,0,1-1.013-.83,1.986,1.986,0,0,1-.328-1.146,2.33,2.33,0,0,1,.934-1.868,3.647,3.647,0,0,1,2.386-.764,3.753,3.753,0,0,1,2.478.789,2.5,2.5,0,0,1,.95,2.017h-1.544a1.386,1.386,0,0,0-.535-1.087,2.006,2.006,0,0,0-1.349-.457,2.1,2.1,0,0,0-1.312.365,1.15,1.15,0,0,0-.473.955.932.932,0,0,0,.44.838,5.413,5.413,0,0,0,1.59.54,8.283,8.283,0,0,1,1.864.614,2.718,2.718,0,0,1,1.058.859,2.112,2.112,0,0,1,.344,1.224,2.3,2.3,0,0,1-.963,1.93,4.039,4.039,0,0,1-2.5.726,4.523,4.523,0,0,1-1.909-.382,3.105,3.105,0,0,1-1.3-1.067,2.571,2.571,0,0,1-.469-1.482h1.536a1.59,1.59,0,0,0,.618,1.224,2.4,2.4,0,0,0,1.523.452,2.476,2.476,0,0,0,1.4-.353A1.084,1.084,0,0,0,116.2,37.618Zm7.263,2.548a3.924,3.924,0,0,1-2.972-1.2,4.452,4.452,0,0,1-1.146-3.208v-.282a5.39,5.39,0,0,1,.51-2.386,3.982,3.982,0,0,1,1.428-1.644,3.59,3.59,0,0,1,1.988-.594A3.364,3.364,0,0,1,126,32.006a5,5,0,0,1,.971,3.3v.639h-6.084a3.193,3.193,0,0,0,.776,2.146,2.44,2.44,0,0,0,1.888.818,2.675,2.675,0,0,0,1.378-.332,3.462,3.462,0,0,0,.988-.88l.938.73A3.772,3.772,0,0,1,123.466,40.166Zm-.191-8.052a2.048,2.048,0,0,0-1.561.677,3.288,3.288,0,0,0-.78,1.9h4.5v-.116a2.925,2.925,0,0,0-.631-1.814A1.928,1.928,0,0,0,123.275,32.114Zm9.305,3.32a5.261,5.261,0,0,1,.979-3.324,3.333,3.333,0,0,1,5.063-.178V27.25h1.536V40h-1.411l-.075-.963a3.127,3.127,0,0,1-2.565,1.129,3.068,3.068,0,0,1-2.544-1.278,5.321,5.321,0,0,1-.984-3.337Zm1.536.174A3.984,3.984,0,0,0,134.747,38a2.039,2.039,0,0,0,1.743.863,2.24,2.24,0,0,0,2.133-1.312V33.426a2.257,2.257,0,0,0-2.117-1.27,2.049,2.049,0,0,0-1.76.872A4.386,4.386,0,0,0,134.116,35.609Zm12.152,4.557a3.924,3.924,0,0,1-2.972-1.2,4.452,4.452,0,0,1-1.146-3.208v-.282a5.39,5.39,0,0,1,.51-2.386,3.982,3.982,0,0,1,1.428-1.644,3.59,3.59,0,0,1,1.988-.594,3.364,3.364,0,0,1,2.723,1.154,5,5,0,0,1,.971,3.3v.639h-6.084a3.193,3.193,0,0,0,.776,2.146,2.44,2.44,0,0,0,1.888.818,2.675,2.675,0,0,0,1.378-.332,3.462,3.462,0,0,0,.988-.88l.938.73A3.772,3.772,0,0,1,146.268,40.166Zm-.191-8.052a2.048,2.048,0,0,0-1.561.677,3.288,3.288,0,0,0-.78,1.9h4.5v-.116a2.925,2.925,0,0,0-.631-1.814A1.928,1.928,0,0,0,146.077,32.114ZM152.062,40V32.206h-1.419V31.019h1.419v-.764a3.12,3.12,0,0,1,.859-2.341,3.332,3.332,0,0,1,2.428-.838,7.311,7.311,0,0,1,2.349.506l-.257,1.295a5.321,5.321,0,0,0-1.976-.415,1.933,1.933,0,0,0-1.424.444,1.831,1.831,0,0,0-.436,1.332v.78h1.834v1.187h-1.834V40Zm6.4,0h-1.544V31.019h1.544Zm3.951-8.981.05,1.129a3.273,3.273,0,0,1,2.689-1.295q2.847,0,2.872,3.212V40h-1.536V34.057a2.068,2.068,0,0,0-.444-1.436,1.78,1.78,0,0,0-1.357-.465,2.216,2.216,0,0,0-1.312.4,2.706,2.706,0,0,0-.88,1.046V40H160.96V31.019Zm11.654,9.147a3.924,3.924,0,0,1-2.972-1.2,4.452,4.452,0,0,1-1.146-3.208v-.282a5.39,5.39,0,0,1,.51-2.386,3.982,3.982,0,0,1,1.428-1.644,3.59,3.59,0,0,1,1.988-.594,3.364,3.364,0,0,1,2.723,1.154,5,5,0,0,1,.971,3.3v.639h-6.084a3.193,3.193,0,0,0,.776,2.146,2.44,2.44,0,0,0,1.888.818,2.675,2.675,0,0,0,1.378-.332,3.462,3.462,0,0,0,.988-.88l.938.73A3.772,3.772,0,0,1,174.067,40.166Zm-.191-8.052a2.048,2.048,0,0,0-1.561.677,3.288,3.288,0,0,0-.78,1.9h4.5v-.116a2.925,2.925,0,0,0-.631-1.814A1.928,1.928,0,0,0,173.876,32.114Zm9.305,3.32a5.261,5.261,0,0,1,.979-3.324,3.333,3.333,0,0,1,5.063-.178V27.25h1.536V40h-1.411l-.075-.963a3.127,3.127,0,0,1-2.565,1.129,3.068,3.068,0,0,1-2.544-1.278,5.321,5.321,0,0,1-.984-3.337Zm1.536.174A3.984,3.984,0,0,0,185.348,38a2.039,2.039,0,0,0,1.743.863,2.24,2.24,0,0,0,2.133-1.312V33.426a2.257,2.257,0,0,0-2.117-1.27,2.049,2.049,0,0,0-1.76.872A4.386,4.386,0,0,0,184.717,35.609Zm12.152,4.557a3.924,3.924,0,0,1-2.972-1.2,4.452,4.452,0,0,1-1.146-3.208v-.282a5.39,5.39,0,0,1,.51-2.386,3.982,3.982,0,0,1,1.428-1.644,3.59,3.59,0,0,1,1.988-.594,3.364,3.364,0,0,1,2.723,1.154,5,5,0,0,1,.971,3.3v.639h-6.084a3.193,3.193,0,0,0,.776,2.146,2.44,2.44,0,0,0,1.888.818,2.675,2.675,0,0,0,1.378-.332,3.462,3.462,0,0,0,.988-.88l.938.73A3.772,3.772,0,0,1,196.87,40.166Zm-.191-8.052a2.048,2.048,0,0,0-1.561.677,3.288,3.288,0,0,0-.78,1.9h4.5v-.116a2.925,2.925,0,0,0-.631-1.814A1.928,1.928,0,0,0,196.679,32.114Zm13.057,3.495a5.378,5.378,0,0,1-.938,3.3,3.006,3.006,0,0,1-2.54,1.253,3.294,3.294,0,0,1-2.573-1.038v4.325h-1.536V31.019h1.4l.075,1a3.163,3.163,0,0,1,2.606-1.162,3.063,3.063,0,0,1,2.561,1.22,5.437,5.437,0,0,1,.942,3.4Zm-1.536-.174a3.968,3.968,0,0,0-.647-2.4,2.086,2.086,0,0,0-1.776-.88,2.257,2.257,0,0,0-2.092,1.237v4.292a2.262,2.262,0,0,0,2.108,1.229,2.076,2.076,0,0,0,1.756-.876A4.332,4.332,0,0,0,208.2,35.435Zm7.213,4.731a3.924,3.924,0,0,1-2.972-1.2,4.452,4.452,0,0,1-1.146-3.208v-.282a5.39,5.39,0,0,1,.51-2.386,3.982,3.982,0,0,1,1.428-1.644,3.59,3.59,0,0,1,1.988-.594,3.364,3.364,0,0,1,2.723,1.154,5,5,0,0,1,.971,3.3v.639h-6.084a3.193,3.193,0,0,0,.776,2.146,2.44,2.44,0,0,0,1.888.818,2.675,2.675,0,0,0,1.378-.332,3.462,3.462,0,0,0,.988-.88l.938.73A3.772,3.772,0,0,1,215.414,40.166Zm-.191-8.052a2.048,2.048,0,0,0-1.561.677,3.288,3.288,0,0,0-.78,1.9h4.5v-.116a2.925,2.925,0,0,0-.631-1.814A1.928,1.928,0,0,0,215.223,32.114Zm6.923-1.1.05,1.129a3.273,3.273,0,0,1,2.689-1.295q2.847,0,2.872,3.212V40h-1.536V34.057a2.068,2.068,0,0,0-.444-1.436,1.78,1.78,0,0,0-1.357-.465,2.216,2.216,0,0,0-1.312.4,2.706,2.706,0,0,0-.88,1.046V40h-1.536V31.019Zm7.554,4.416a5.261,5.261,0,0,1,.979-3.324,3.333,3.333,0,0,1,5.063-.178V27.25h1.536V40h-1.411l-.075-.963a3.127,3.127,0,0,1-2.565,1.129,3.068,3.068,0,0,1-2.544-1.278,5.321,5.321,0,0,1-.984-3.337Zm1.536.174A3.984,3.984,0,0,0,231.866,38a2.039,2.039,0,0,0,1.743.863,2.24,2.24,0,0,0,2.133-1.312V33.426a2.257,2.257,0,0,0-2.117-1.27,2.049,2.049,0,0,0-1.76.872A4.386,4.386,0,0,0,231.235,35.609ZM241.329,40h-1.536V31.019h1.536Zm-1.66-11.364a.917.917,0,0,1,.228-.631.857.857,0,0,1,.677-.257.87.87,0,0,1,.681.257.907.907,0,0,1,.232.631.877.877,0,0,1-.232.623.886.886,0,0,1-.681.249.872.872,0,0,1-.677-.249A.886.886,0,0,1,239.668,28.636Zm7.844,11.53a3.924,3.924,0,0,1-2.972-1.2,4.452,4.452,0,0,1-1.146-3.208v-.282a5.39,5.39,0,0,1,.51-2.386,3.982,3.982,0,0,1,1.428-1.644,3.59,3.59,0,0,1,1.988-.594,3.364,3.364,0,0,1,2.723,1.154,5,5,0,0,1,.971,3.3v.639h-6.084a3.193,3.193,0,0,0,.776,2.146,2.44,2.44,0,0,0,1.888.818,2.675,2.675,0,0,0,1.378-.332,3.462,3.462,0,0,0,.988-.88l.938.73A3.772,3.772,0,0,1,247.513,40.166Zm-.191-8.052a2.048,2.048,0,0,0-1.561.677,3.288,3.288,0,0,0-.78,1.9h4.5v-.116a2.925,2.925,0,0,0-.631-1.814A1.928,1.928,0,0,0,247.322,32.114Zm6.923-1.1.05,1.129a3.273,3.273,0,0,1,2.689-1.295q2.847,0,2.872,3.212V40H258.32V34.057a2.068,2.068,0,0,0-.444-1.436,1.78,1.78,0,0,0-1.357-.465,2.216,2.216,0,0,0-1.312.4,2.706,2.706,0,0,0-.88,1.046V40h-1.536V31.019Zm7.554,4.416a5.261,5.261,0,0,1,.979-3.324,3.333,3.333,0,0,1,5.063-.178V27.25h1.536V40h-1.411l-.075-.963a3.127,3.127,0,0,1-2.565,1.129,3.068,3.068,0,0,1-2.544-1.278,5.321,5.321,0,0,1-.984-3.337Zm1.536.174A3.984,3.984,0,0,0,263.965,38a2.039,2.039,0,0,0,1.743.863,2.24,2.24,0,0,0,2.133-1.312V33.426a2.257,2.257,0,0,0-2.117-1.27,2.049,2.049,0,0,0-1.76.872A4.386,4.386,0,0,0,263.334,35.609Zm8.019-.183a5.305,5.305,0,0,1,.519-2.374,3.87,3.87,0,0,1,1.444-1.627,3.932,3.932,0,0,1,2.113-.573,3.788,3.788,0,0,1,2.968,1.27,4.886,4.886,0,0,1,1.133,3.378v.108a5.351,5.351,0,0,1-.5,2.353,3.813,3.813,0,0,1-1.436,1.623,3.977,3.977,0,0,1-2.146.581,3.778,3.778,0,0,1-2.959-1.27,4.861,4.861,0,0,1-1.133-3.362Zm1.544.183a3.842,3.842,0,0,0,.693,2.4A2.349,2.349,0,0,0,277.3,38a4.2,4.2,0,0,0,.689-2.569,3.836,3.836,0,0,0-.7-2.395,2.23,2.23,0,0,0-1.864-.917,2.205,2.205,0,0,0-1.834.9A4.17,4.17,0,0,0,272.9,35.609Zm12.393-.174a5.261,5.261,0,0,1,.979-3.324,3.333,3.333,0,0,1,5.063-.178V27.25h1.536V40h-1.411l-.075-.963a3.127,3.127,0,0,1-2.565,1.129,3.068,3.068,0,0,1-2.544-1.278,5.321,5.321,0,0,1-.984-3.337Zm1.536.174A3.984,3.984,0,0,0,287.456,38a2.039,2.039,0,0,0,1.743.863,2.24,2.24,0,0,0,2.133-1.312V33.426a2.257,2.257,0,0,0-2.117-1.27,2.049,2.049,0,0,0-1.76.872A4.386,4.386,0,0,0,286.825,35.609Zm12.152,4.557a3.924,3.924,0,0,1-2.972-1.2,4.452,4.452,0,0,1-1.146-3.208v-.282a5.39,5.39,0,0,1,.51-2.386,3.982,3.982,0,0,1,1.428-1.644,3.59,3.59,0,0,1,1.988-.594,3.364,3.364,0,0,1,2.723,1.154,5,5,0,0,1,.971,3.3v.639H296.4a3.193,3.193,0,0,0,.776,2.146,2.44,2.44,0,0,0,1.888.818,2.675,2.675,0,0,0,1.378-.332,3.462,3.462,0,0,0,.988-.88l.938.73A3.772,3.772,0,0,1,298.978,40.166Zm-.191-8.052a2.048,2.048,0,0,0-1.561.677,3.288,3.288,0,0,0-.78,1.9h4.5v-.116a2.925,2.925,0,0,0-.631-1.814A1.928,1.928,0,0,0,298.787,32.114ZM310.134,40H308.6V27.25h1.536Zm8,0a3.226,3.226,0,0,1-.216-.946,3.426,3.426,0,0,1-2.557,1.112,3.17,3.17,0,0,1-2.179-.751,2.43,2.43,0,0,1-.851-1.905,2.539,2.539,0,0,1,1.067-2.179,5.029,5.029,0,0,1,3-.776H317.9v-.706a1.725,1.725,0,0,0-.481-1.282,1.935,1.935,0,0,0-1.419-.477,2.239,2.239,0,0,0-1.378.415,1.223,1.223,0,0,0-.556,1h-1.544a2.119,2.119,0,0,1,.477-1.3,3.258,3.258,0,0,1,1.295-.992,4.356,4.356,0,0,1,1.8-.365,3.551,3.551,0,0,1,2.432.776,2.8,2.8,0,0,1,.913,2.137V37.9a5.054,5.054,0,0,0,.315,1.967V40Zm-2.548-1.17a2.7,2.7,0,0,0,1.37-.374,2.26,2.26,0,0,0,.938-.971V35.642h-1.2q-2.822,0-2.822,1.652a1.4,1.4,0,0,0,.481,1.129A1.85,1.85,0,0,0,315.587,38.83Zm14.352,1.336a4.409,4.409,0,0,1-3.217-1.212,4.308,4.308,0,0,1-1.241-3.229v-.232a5.426,5.426,0,0,1,.523-2.42,3.838,3.838,0,0,1,1.482-1.644,4.159,4.159,0,0,1,2.187-.577,3.727,3.727,0,0,1,2.9,1.162,4.722,4.722,0,0,1,1.058,3.3v.979h-5.719a2.229,2.229,0,0,0,.7,1.411,2.12,2.12,0,0,0,1.482.531,2.589,2.589,0,0,0,2.167-1l1.179,1.32a3.6,3.6,0,0,1-1.461,1.191A4.793,4.793,0,0,1,329.939,40.166Zm-.274-7.379a1.5,1.5,0,0,0-1.158.484,2.5,2.5,0,0,0-.569,1.384h3.337v-.192a1.786,1.786,0,0,0-.432-1.238A1.547,1.547,0,0,0,329.666,32.787Zm10.193,4.731a.773.773,0,0,0-.436-.693,4.95,4.95,0,0,0-1.4-.452q-3.2-.672-3.2-2.723a2.468,2.468,0,0,1,.992-2,4,4,0,0,1,2.594-.8,4.307,4.307,0,0,1,2.735.805,2.537,2.537,0,0,1,1.025,2.092h-2.4a1.161,1.161,0,0,0-.332-.851,1.405,1.405,0,0,0-1.038-.336,1.436,1.436,0,0,0-.938.274.865.865,0,0,0-.332.7.739.739,0,0,0,.378.643,3.885,3.885,0,0,0,1.274.423,10.407,10.407,0,0,1,1.511.4,2.482,2.482,0,0,1,1.9,2.416,2.343,2.343,0,0,1-1.054,1.988,4.548,4.548,0,0,1-2.723.76,4.75,4.75,0,0,1-2-.4,3.363,3.363,0,0,1-1.374-1.1,2.565,2.565,0,0,1-.5-1.515h2.274a1.252,1.252,0,0,0,.473.979,1.877,1.877,0,0,0,1.179.34,1.737,1.737,0,0,0,1.042-.261A.814.814,0,0,0,339.859,37.518Zm11.961-1.926a5.387,5.387,0,0,1-.942,3.324,3.021,3.021,0,0,1-2.544,1.249,2.8,2.8,0,0,1-2.2-.946v4.233h-2.4V31.019h2.225l.083.88a2.819,2.819,0,0,1,2.274-1.046,3.041,3.041,0,0,1,2.582,1.229,5.532,5.532,0,0,1,.921,3.387Zm-2.4-.174a3.535,3.535,0,0,0-.444-1.934,1.446,1.446,0,0,0-1.291-.681,1.571,1.571,0,0,0-1.552.863v3.677a1.6,1.6,0,0,0,1.569.888Q349.421,38.232,349.421,35.418Zm8.019,4.748a4.409,4.409,0,0,1-3.217-1.212,4.308,4.308,0,0,1-1.241-3.229v-.232a5.426,5.426,0,0,1,.523-2.42,3.838,3.838,0,0,1,1.482-1.644,4.159,4.159,0,0,1,2.187-.577,3.727,3.727,0,0,1,2.9,1.162,4.722,4.722,0,0,1,1.058,3.3v.979h-5.719a2.229,2.229,0,0,0,.7,1.411,2.12,2.12,0,0,0,1.482.531,2.589,2.589,0,0,0,2.167-1l1.179,1.32a3.6,3.6,0,0,1-1.461,1.191A4.793,4.793,0,0,1,357.44,40.166Zm-.274-7.379a1.5,1.5,0,0,0-1.158.484,2.5,2.5,0,0,0-.569,1.384h3.337v-.192a1.786,1.786,0,0,0-.432-1.238A1.547,1.547,0,0,0,357.166,32.787Zm9.064,5.445a1.573,1.573,0,0,0,1.079-.365,1.28,1.28,0,0,0,.432-.971h2.25a3.077,3.077,0,0,1-.5,1.673,3.286,3.286,0,0,1-1.341,1.179,4.2,4.2,0,0,1-1.88.419,3.9,3.9,0,0,1-3.038-1.224,4.845,4.845,0,0,1-1.112-3.383V35.4a4.79,4.79,0,0,1,1.1-3.312,3.854,3.854,0,0,1,3.03-1.237,3.778,3.778,0,0,1,2.7.959,3.4,3.4,0,0,1,1.033,2.552h-2.25a1.648,1.648,0,0,0-.432-1.139,1.6,1.6,0,0,0-2.362.173,3.541,3.541,0,0,0-.427,1.983v.249a3.586,3.586,0,0,0,.423,2A1.463,1.463,0,0,0,366.23,38.232ZM373.892,40h-2.407V31.019h2.407Zm-2.548-11.306a1.181,1.181,0,0,1,.361-.888,1.556,1.556,0,0,1,1.963,0,1.268,1.268,0,0,1,0,1.785,1.539,1.539,0,0,1-1.951,0A1.178,1.178,0,0,1,371.344,28.694ZM380,40.166a4.409,4.409,0,0,1-3.217-1.212,4.308,4.308,0,0,1-1.241-3.229v-.232a5.426,5.426,0,0,1,.523-2.42,3.838,3.838,0,0,1,1.482-1.644,4.159,4.159,0,0,1,2.187-.577,3.727,3.727,0,0,1,2.9,1.162,4.722,4.722,0,0,1,1.058,3.3v.979h-5.719a2.229,2.229,0,0,0,.7,1.411,2.12,2.12,0,0,0,1.482.531,2.589,2.589,0,0,0,2.167-1l1.179,1.32a3.6,3.6,0,0,1-1.461,1.191A4.793,4.793,0,0,1,380,40.166Zm-.274-7.379a1.5,1.5,0,0,0-1.158.484A2.5,2.5,0,0,0,378,34.654h3.337v-.192a1.786,1.786,0,0,0-.432-1.238A1.547,1.547,0,0,0,379.728,32.787ZM6.126,64a2.664,2.664,0,0,1-.241-.805,2.9,2.9,0,0,1-2.266.971A3.189,3.189,0,0,1,1.432,63.4a2.456,2.456,0,0,1-.867-1.926,2.538,2.538,0,0,1,1.058-2.191,5.222,5.222,0,0,1,3.059-.772h1.1V58a1.48,1.48,0,0,0-.32-1,1.257,1.257,0,0,0-1.009-.374,1.429,1.429,0,0,0-.95.291.987.987,0,0,0-.344.8H.764a2.41,2.41,0,0,1,.481-1.444A3.182,3.182,0,0,1,2.606,55.23a4.961,4.961,0,0,1,1.976-.378,3.92,3.92,0,0,1,2.635.834,2.918,2.918,0,0,1,.975,2.345v3.893a4.294,4.294,0,0,0,.357,1.934V64ZM4.142,62.332a2.066,2.066,0,0,0,.979-.237,1.554,1.554,0,0,0,.664-.635V59.916h-.9q-1.8,0-1.917,1.245l-.008.141a.96.96,0,0,0,.315.739A1.225,1.225,0,0,0,4.142,62.332Zm8.1-7.313.075,1.038a3.136,3.136,0,0,1,2.582-1.2,2.606,2.606,0,0,1,2.125.838,3.912,3.912,0,0,1,.714,2.507V64h-2.4V58.256a1.556,1.556,0,0,0-.332-1.108,1.486,1.486,0,0,0-1.1-.344,1.65,1.65,0,0,0-1.519.863V64h-2.4V55.019ZM22.088,64H19.681V55.019h2.407ZM19.54,52.694a1.181,1.181,0,0,1,.361-.888,1.556,1.556,0,0,1,1.963,0,1.268,1.268,0,0,1,0,1.785,1.539,1.539,0,0,1-1.951,0A1.178,1.178,0,0,1,19.54,52.694Zm6.773,2.324.075,1a3.156,3.156,0,0,1,2.582-1.17,2.4,2.4,0,0,1,2.382,1.37,3.084,3.084,0,0,1,2.7-1.37,2.679,2.679,0,0,1,2.175.851,3.911,3.911,0,0,1,.714,2.561V64H34.531V58.272a1.71,1.71,0,0,0-.3-1.116,1.324,1.324,0,0,0-1.054-.353,1.5,1.5,0,0,0-1.494,1.029L31.692,64h-2.4V58.281a1.689,1.689,0,0,0-.307-1.129A1.337,1.337,0,0,0,27.94,56.8a1.555,1.555,0,0,0-1.478.847V64h-2.4V55.019ZM43.986,64a2.664,2.664,0,0,1-.241-.805,2.9,2.9,0,0,1-2.266.971,3.189,3.189,0,0,1-2.187-.764,2.456,2.456,0,0,1-.867-1.926,2.538,2.538,0,0,1,1.058-2.191,5.222,5.222,0,0,1,3.059-.772h1.1V58a1.48,1.48,0,0,0-.32-1,1.257,1.257,0,0,0-1.009-.374,1.429,1.429,0,0,0-.95.291.987.987,0,0,0-.344.8h-2.4a2.41,2.41,0,0,1,.481-1.444,3.182,3.182,0,0,1,1.361-1.042,4.961,4.961,0,0,1,1.976-.378,3.92,3.92,0,0,1,2.635.834,2.918,2.918,0,0,1,.975,2.345v3.893a4.294,4.294,0,0,0,.357,1.934V64ZM42,62.332a2.066,2.066,0,0,0,.979-.237,1.554,1.554,0,0,0,.664-.635V59.916h-.9q-1.8,0-1.917,1.245l-.008.141a.96.96,0,0,0,.315.739A1.225,1.225,0,0,0,42,62.332ZM50.427,64H48.02V51.25h2.407Zm5.835-4.574a5.369,5.369,0,0,1,.942-3.345,3.08,3.08,0,0,1,2.586-1.229,2.758,2.758,0,0,1,2.3,1.1l.158-.938h2.108V67.453H61.949V63.228a2.765,2.765,0,0,1-2.175.938,3.057,3.057,0,0,1-2.557-1.245A5.632,5.632,0,0,1,56.263,59.426Zm2.4.17a3.522,3.522,0,0,0,.452,1.962,1.448,1.448,0,0,0,1.274.673,1.613,1.613,0,0,0,1.561-.881V57.635a1.6,1.6,0,0,0-1.544-.848,1.466,1.466,0,0,0-1.287.673A3.889,3.889,0,0,0,58.662,59.6Zm12.958,3.49a3.008,3.008,0,0,1-2.457,1.079,2.837,2.837,0,0,1-2.2-.83,3.543,3.543,0,0,1-.776-2.432V55.019h2.4v5.809q0,1.4,1.278,1.4a1.732,1.732,0,0,0,1.677-.848V55.019h2.407V64H71.686Zm8.268,1.079a4.409,4.409,0,0,1-3.217-1.212,4.308,4.308,0,0,1-1.241-3.229v-.232a5.426,5.426,0,0,1,.523-2.42,3.838,3.838,0,0,1,1.482-1.644,4.159,4.159,0,0,1,2.187-.577,3.727,3.727,0,0,1,2.9,1.162,4.722,4.722,0,0,1,1.058,3.3v.979H77.861a2.229,2.229,0,0,0,.7,1.411,2.12,2.12,0,0,0,1.482.531,2.589,2.589,0,0,0,2.167-1l1.179,1.32a3.6,3.6,0,0,1-1.461,1.191A4.793,4.793,0,0,1,79.887,64.166Zm-.274-7.379a1.5,1.5,0,0,0-1.158.484,2.5,2.5,0,0,0-.569,1.384h3.337v-.192a1.786,1.786,0,0,0-.432-1.238A1.547,1.547,0,0,0,79.613,56.787ZM92.537,61.07l1.668-6.051h2.507L93.683,64H91.392l-3.03-8.981h2.507ZM102.847,64a2.664,2.664,0,0,1-.241-.805,2.9,2.9,0,0,1-2.266.971,3.189,3.189,0,0,1-2.187-.764,2.456,2.456,0,0,1-.867-1.926,2.538,2.538,0,0,1,1.058-2.191,5.222,5.222,0,0,1,3.059-.772h1.1V58a1.48,1.48,0,0,0-.32-1,1.257,1.257,0,0,0-1.009-.374,1.429,1.429,0,0,0-.95.291.987.987,0,0,0-.344.8h-2.4a2.41,2.41,0,0,1,.481-1.444,3.182,3.182,0,0,1,1.361-1.042,4.961,4.961,0,0,1,1.976-.378,3.92,3.92,0,0,1,2.635.834,2.918,2.918,0,0,1,.975,2.345v3.893a4.294,4.294,0,0,0,.357,1.934V64Zm-1.984-1.668a2.066,2.066,0,0,0,.979-.237,1.554,1.554,0,0,0,.664-.635V59.916h-.9q-1.8,0-1.917,1.245l-.008.141a.96.96,0,0,0,.315.739A1.225,1.225,0,0,0,100.863,62.332ZM116.194,64a2.664,2.664,0,0,1-.241-.805,2.9,2.9,0,0,1-2.266.971A3.189,3.189,0,0,1,111.5,63.4a2.456,2.456,0,0,1-.867-1.926,2.538,2.538,0,0,1,1.058-2.191,5.222,5.222,0,0,1,3.059-.772h1.1V58a1.48,1.48,0,0,0-.32-1,1.257,1.257,0,0,0-1.009-.374,1.429,1.429,0,0,0-.95.291.987.987,0,0,0-.344.8h-2.4a2.41,2.41,0,0,1,.481-1.444,3.182,3.182,0,0,1,1.361-1.042,4.961,4.961,0,0,1,1.976-.378,3.92,3.92,0,0,1,2.635.834,2.918,2.918,0,0,1,.975,2.345v3.893a4.294,4.294,0,0,0,.357,1.934V64Zm-1.984-1.668a2.066,2.066,0,0,0,.979-.237,1.554,1.554,0,0,0,.664-.635V59.916h-.9q-1.8,0-1.917,1.245l-.008.141a.96.96,0,0,0,.315.739A1.225,1.225,0,0,0,114.21,62.332ZM126.869,64h-2.407V55.019h2.407Zm-2.548-11.306a1.181,1.181,0,0,1,.361-.888,1.556,1.556,0,0,1,1.963,0,1.268,1.268,0,0,1,0,1.785,1.539,1.539,0,0,1-1.951,0A1.178,1.178,0,0,1,124.321,52.694Zm6.732,2.324.075,1.038a3.136,3.136,0,0,1,2.582-1.2,2.606,2.606,0,0,1,2.125.838,3.912,3.912,0,0,1,.714,2.507V64h-2.4V58.256a1.556,1.556,0,0,0-.332-1.108,1.486,1.486,0,0,0-1.1-.344,1.65,1.65,0,0,0-1.519.863V64h-2.4V55.019Zm6.964,4.424A5.264,5.264,0,0,1,139,56.114a3.187,3.187,0,0,1,2.652-1.262,2.8,2.8,0,0,1,2.3,1.013l.1-.847h2.175V63.7a3.839,3.839,0,0,1-.535,2.05,3.439,3.439,0,0,1-1.507,1.328,5.3,5.3,0,0,1-2.274.457,4.925,4.925,0,0,1-1.926-.394,3.418,3.418,0,0,1-1.419-1.017l1.063-1.461a2.81,2.81,0,0,0,2.175,1,2.057,2.057,0,0,0,1.486-.51,1.915,1.915,0,0,0,.531-1.448v-.481a2.775,2.775,0,0,1-2.183.938,3.179,3.179,0,0,1-2.619-1.266,5.262,5.262,0,0,1-1-3.358Zm2.4.179a3.278,3.278,0,0,0,.49,1.916,1.558,1.558,0,0,0,1.345.694,1.666,1.666,0,0,0,1.569-.823V57.626a1.662,1.662,0,0,0-1.552-.823,1.568,1.568,0,0,0-1.357.707A3.694,3.694,0,0,0,140.416,59.621ZM152.2,64.166a4.409,4.409,0,0,1-3.217-1.212,4.308,4.308,0,0,1-1.241-3.229v-.232a5.426,5.426,0,0,1,.523-2.42,3.838,3.838,0,0,1,1.482-1.644,4.159,4.159,0,0,1,2.187-.577,3.727,3.727,0,0,1,2.9,1.162,4.722,4.722,0,0,1,1.058,3.3v.979h-5.719a2.228,2.228,0,0,0,.7,1.411,2.12,2.12,0,0,0,1.482.531,2.589,2.589,0,0,0,2.167-1l1.179,1.32a3.6,3.6,0,0,1-1.461,1.191A4.793,4.793,0,0,1,152.2,64.166Zm-.274-7.379a1.5,1.5,0,0,0-1.158.484,2.5,2.5,0,0,0-.569,1.384h3.337v-.192a1.786,1.786,0,0,0-.432-1.238A1.547,1.547,0,0,0,151.929,56.787Zm10.376.481a6.517,6.517,0,0,0-.863-.066,1.757,1.757,0,0,0-1.785.921V64h-2.4V55.019h2.266l.066,1.071a2.223,2.223,0,0,1,2-1.237,2.514,2.514,0,0,1,.747.108ZM165.991,64h-2.407V55.019h2.407Zm-2.548-11.306a1.181,1.181,0,0,1,.361-.888,1.556,1.556,0,0,1,1.963,0,1.268,1.268,0,0,1,0,1.785,1.539,1.539,0,0,1-1.951,0A1.178,1.178,0,0,1,163.442,52.694Zm9.571,4.574a6.517,6.517,0,0,0-.863-.066,1.757,1.757,0,0,0-1.785.921V64h-2.4V55.019h2.266l.066,1.071a2.223,2.223,0,0,1,2-1.237,2.514,2.514,0,0,1,.747.108Zm9.521,6.9a4.409,4.409,0,0,1-3.217-1.212,4.308,4.308,0,0,1-1.241-3.229v-.232a5.426,5.426,0,0,1,.523-2.42,3.838,3.838,0,0,1,1.482-1.644,4.159,4.159,0,0,1,2.187-.577,3.727,3.727,0,0,1,2.9,1.162,4.722,4.722,0,0,1,1.058,3.3v.979h-5.719a2.228,2.228,0,0,0,.7,1.411,2.12,2.12,0,0,0,1.482.531,2.589,2.589,0,0,0,2.167-1l1.179,1.32a3.6,3.6,0,0,1-1.461,1.191A4.793,4.793,0,0,1,182.534,64.166Zm-.274-7.379a1.5,1.5,0,0,0-1.158.484,2.5,2.5,0,0,0-.569,1.384h3.337v-.192a1.786,1.786,0,0,0-.432-1.238A1.547,1.547,0,0,0,182.26,56.787ZM190.121,64h-2.407V51.25h2.407Zm11.414,0a2.664,2.664,0,0,1-.241-.805,2.9,2.9,0,0,1-2.266.971,3.189,3.189,0,0,1-2.187-.764,2.456,2.456,0,0,1-.867-1.926,2.538,2.538,0,0,1,1.058-2.191,5.222,5.222,0,0,1,3.059-.772h1.1V58a1.48,1.48,0,0,0-.32-1,1.257,1.257,0,0,0-1.009-.374,1.429,1.429,0,0,0-.95.291.987.987,0,0,0-.344.8h-2.4a2.41,2.41,0,0,1,.481-1.444,3.182,3.182,0,0,1,1.361-1.042,4.961,4.961,0,0,1,1.976-.378,3.92,3.92,0,0,1,2.635.834,2.918,2.918,0,0,1,.975,2.345v3.893a4.294,4.294,0,0,0,.357,1.934V64Zm-1.984-1.668a2.066,2.066,0,0,0,.979-.237,1.554,1.554,0,0,0,.664-.635V59.916h-.9q-1.8,0-1.917,1.245l-.008.141a.96.96,0,0,0,.315.739A1.225,1.225,0,0,0,199.551,62.332ZM207.976,64h-2.407V51.25h2.407Zm4.507,0h-2.407V55.019h2.407Zm-2.548-11.306a1.181,1.181,0,0,1,.361-.888,1.556,1.556,0,0,1,1.963,0,1.268,1.268,0,0,1,0,1.785,1.539,1.539,0,0,1-1.951,0A1.178,1.178,0,0,1,209.935,52.694Zm6.773,2.324.075,1a3.156,3.156,0,0,1,2.582-1.17,2.4,2.4,0,0,1,2.382,1.37,3.084,3.084,0,0,1,2.7-1.37,2.679,2.679,0,0,1,2.175.851,3.911,3.911,0,0,1,.714,2.561V64h-2.407V58.272a1.71,1.71,0,0,0-.3-1.116,1.324,1.324,0,0,0-1.054-.353,1.5,1.5,0,0,0-1.494,1.029L222.087,64h-2.4V58.281a1.689,1.689,0,0,0-.307-1.129,1.337,1.337,0,0,0-1.046-.349,1.555,1.555,0,0,0-1.478.847V64h-2.4V55.019Zm16.6,9.147a4.409,4.409,0,0,1-3.217-1.212,4.308,4.308,0,0,1-1.241-3.229v-.232a5.426,5.426,0,0,1,.523-2.42,3.838,3.838,0,0,1,1.482-1.644,4.159,4.159,0,0,1,2.187-.577,3.727,3.727,0,0,1,2.9,1.162A4.722,4.722,0,0,1,237,59.31v.979h-5.719a2.228,2.228,0,0,0,.7,1.411,2.12,2.12,0,0,0,1.482.531,2.589,2.589,0,0,0,2.167-1l1.179,1.32a3.6,3.6,0,0,1-1.461,1.191A4.793,4.793,0,0,1,233.31,64.166Zm-.274-7.379a1.5,1.5,0,0,0-1.158.484,2.5,2.5,0,0,0-.569,1.384h3.337v-.192a1.786,1.786,0,0,0-.432-1.238A1.547,1.547,0,0,0,233.036,56.787Zm7.537-1.768.075,1.038a3.136,3.136,0,0,1,2.582-1.2,2.606,2.606,0,0,1,2.125.838,3.912,3.912,0,0,1,.714,2.507V64h-2.4V58.256a1.556,1.556,0,0,0-.332-1.108,1.486,1.486,0,0,0-1.1-.344,1.65,1.65,0,0,0-1.519.863V64h-2.4V55.019Zm10.185-2.208v2.208h1.536v1.76h-1.536v4.482a1.07,1.07,0,0,0,.191.714.959.959,0,0,0,.73.216,3.826,3.826,0,0,0,.706-.058V63.95a4.938,4.938,0,0,1-1.453.216,2.29,2.29,0,0,1-2.573-2.548V56.778h-1.312v-1.76h1.312V52.811Zm2.25,6.616a5.327,5.327,0,0,1,.515-2.382A3.767,3.767,0,0,1,255,55.425a4.323,4.323,0,0,1,2.245-.573,4.09,4.09,0,0,1,2.968,1.112,4.464,4.464,0,0,1,1.282,3.021l.017.614a4.694,4.694,0,0,1-1.154,3.316,4.472,4.472,0,0,1-6.2,0,4.777,4.777,0,0,1-1.158-3.387Zm2.4.17a3.357,3.357,0,0,0,.481,1.958,1.73,1.73,0,0,0,2.739.008,3.673,3.673,0,0,0,.49-2.141,3.324,3.324,0,0,0-.49-1.945,1.592,1.592,0,0,0-1.378-.69,1.566,1.566,0,0,0-1.361.686A3.735,3.735,0,0,0,255.407,59.6Zm7.711,3.225a1.208,1.208,0,0,1,.386-.93,1.5,1.5,0,0,1,1.942,0,1.208,1.208,0,0,1,.386.93,1.191,1.191,0,0,1-.382.917,1.525,1.525,0,0,1-1.951,0A1.191,1.191,0,0,1,263.118,62.821Z" transform="translate(9537 -8170)" fill="#12263f"/>
      <path id="Trazado_815279" data-name="Trazado 815279" d="M15.965,12.718,63,0V63H0Z" transform="translate(9544 -8355.49)" fill="#727997"/>
      <path id="Trazado_815282" data-name="Trazado 815282" d="M15.965,12.718,63,0V63H0Z" transform="translate(9544 -8470)" fill="#727997"/>
      <path id="Trazado_828295" data-name="Trazado 828295" d="M0,0H382V100H0Z" transform="translate(9554 -8345)" fill="#fff"/>
      <path id="Trazado_828296" data-name="Trazado 828296" d="M49.3,10.414H44.06V14.7h6.084V16H42.466V3.914h7.6v1.3h-6V9.11H49.3ZM53.556,16H52.021V3.25h1.536Zm6.292-4.565a5.261,5.261,0,0,1,.979-3.324,3.333,3.333,0,0,1,5.063-.178V3.25h1.536V16H66.016l-.075-.963a3.127,3.127,0,0,1-2.565,1.129,3.068,3.068,0,0,1-2.544-1.278,5.321,5.321,0,0,1-.984-3.337Zm1.536.174A3.984,3.984,0,0,0,62.015,14a2.039,2.039,0,0,0,1.743.863,2.24,2.24,0,0,0,2.133-1.312V9.426a2.257,2.257,0,0,0-2.117-1.27,2.049,2.049,0,0,0-1.76.872A4.386,4.386,0,0,0,61.384,11.609Zm12.152,4.557a3.924,3.924,0,0,1-2.972-1.2,4.452,4.452,0,0,1-1.146-3.208v-.282a5.39,5.39,0,0,1,.51-2.386,3.982,3.982,0,0,1,1.428-1.644,3.59,3.59,0,0,1,1.988-.594,3.364,3.364,0,0,1,2.723,1.154,5,5,0,0,1,.971,3.3v.639H70.955a3.193,3.193,0,0,0,.776,2.146,2.44,2.44,0,0,0,1.888.818A2.675,2.675,0,0,0,75,14.581a3.462,3.462,0,0,0,.988-.88l.938.73A3.772,3.772,0,0,1,73.536,16.166Zm-.191-8.052a2.048,2.048,0,0,0-1.561.677,3.288,3.288,0,0,0-.78,1.9h4.5v-.116a2.925,2.925,0,0,0-.631-1.814A1.928,1.928,0,0,0,73.345,8.114Zm11.123-1.1.042,1a3.317,3.317,0,0,1,2.665-1.162A2.568,2.568,0,0,1,89.739,8.3a3.4,3.4,0,0,1,1.166-1.046,3.445,3.445,0,0,1,1.7-.4q2.955,0,3,3.129V16H94.072V10.073a2.062,2.062,0,0,0-.44-1.44,1.937,1.937,0,0,0-1.478-.477,2.036,2.036,0,0,0-1.419.51,2.071,2.071,0,0,0-.656,1.374V16H88.536V10.115a1.713,1.713,0,0,0-1.917-1.959,2.055,2.055,0,0,0-2.067,1.287V16H83.016V7.019Zm19,8.981a3.226,3.226,0,0,1-.216-.946,3.426,3.426,0,0,1-2.557,1.112,3.17,3.17,0,0,1-2.179-.751,2.43,2.43,0,0,1-.851-1.905,2.539,2.539,0,0,1,1.067-2.179,5.029,5.029,0,0,1,3-.776h1.494V9.849a1.725,1.725,0,0,0-.481-1.282,1.935,1.935,0,0,0-1.419-.477,2.239,2.239,0,0,0-1.378.415,1.223,1.223,0,0,0-.556,1H97.849a2.119,2.119,0,0,1,.477-1.3,3.258,3.258,0,0,1,1.295-.992,4.356,4.356,0,0,1,1.8-.365,3.551,3.551,0,0,1,2.432.776,2.8,2.8,0,0,1,.913,2.137V13.9a5.054,5.054,0,0,0,.315,1.967V16Zm-2.548-1.17a2.7,2.7,0,0,0,1.37-.374,2.259,2.259,0,0,0,.938-.971V11.642h-1.2q-2.822,0-2.822,1.652a1.4,1.4,0,0,0,.481,1.129A1.85,1.85,0,0,0,100.92,14.83ZM111.512,8.4a4.6,4.6,0,0,0-.755-.058,2.024,2.024,0,0,0-2.05,1.287V16h-1.536V7.019h1.494l.025,1.038a2.391,2.391,0,0,1,2.142-1.2,1.569,1.569,0,0,1,.681.116Zm3.91-3.553V7.019H117.1V8.206h-1.677v5.577a1.247,1.247,0,0,0,.224.81.943.943,0,0,0,.764.27,3.718,3.718,0,0,0,.73-.1V16a4.478,4.478,0,0,1-1.179.165,1.912,1.912,0,0,1-1.552-.623,2.675,2.675,0,0,1-.523-1.768V8.206h-1.635V7.019h1.635V4.844ZM120.56,16h-1.536V7.019h1.536ZM118.9,4.636a.917.917,0,0,1,.228-.631.857.857,0,0,1,.677-.257.87.87,0,0,1,.681.257.907.907,0,0,1,.232.631.877.877,0,0,1-.232.623.886.886,0,0,1-.681.249.872.872,0,0,1-.677-.249A.886.886,0,0,1,118.9,4.636ZM124.686,16H123.15V3.25h1.536Zm4.125,0h-1.536V3.25h1.536Zm2.05-4.574a5.3,5.3,0,0,1,.519-2.374,3.87,3.87,0,0,1,1.444-1.627,3.932,3.932,0,0,1,2.113-.573,3.788,3.788,0,0,1,2.968,1.27,4.886,4.886,0,0,1,1.133,3.378v.108a5.351,5.351,0,0,1-.5,2.353,3.813,3.813,0,0,1-1.436,1.623,3.977,3.977,0,0,1-2.146.581,3.778,3.778,0,0,1-2.959-1.27,4.861,4.861,0,0,1-1.133-3.362Zm1.544.183a3.842,3.842,0,0,0,.693,2.4A2.349,2.349,0,0,0,136.813,14a4.2,4.2,0,0,0,.689-2.569,3.836,3.836,0,0,0-.7-2.395,2.23,2.23,0,0,0-1.864-.917,2.205,2.205,0,0,0-1.834.9A4.17,4.17,0,0,0,132.405,11.609Zm13.788,2.009a1.13,1.13,0,0,0-.469-.967,4.514,4.514,0,0,0-1.635-.594,7.731,7.731,0,0,1-1.851-.6,2.633,2.633,0,0,1-1.013-.83,1.986,1.986,0,0,1-.328-1.146,2.33,2.33,0,0,1,.934-1.868,3.647,3.647,0,0,1,2.386-.764,3.753,3.753,0,0,1,2.478.789,2.5,2.5,0,0,1,.95,2.017H146.1a1.386,1.386,0,0,0-.535-1.087,2.006,2.006,0,0,0-1.349-.457,2.1,2.1,0,0,0-1.312.365,1.15,1.15,0,0,0-.473.955.932.932,0,0,0,.44.838,5.413,5.413,0,0,0,1.59.54,8.283,8.283,0,0,1,1.864.614,2.718,2.718,0,0,1,1.058.859,2.112,2.112,0,0,1,.344,1.224,2.3,2.3,0,0,1-.963,1.93,4.039,4.039,0,0,1-2.5.726,4.523,4.523,0,0,1-1.909-.382,3.105,3.105,0,0,1-1.3-1.067,2.571,2.571,0,0,1-.469-1.482h1.536a1.59,1.59,0,0,0,.618,1.224,2.4,2.4,0,0,0,1.523.452,2.476,2.476,0,0,0,1.4-.353A1.084,1.084,0,0,0,146.193,13.618Zm7.687-2.523a12.834,12.834,0,0,1,.5-3.6,10.465,10.465,0,0,1,1.5-3.138,6.374,6.374,0,0,1,2.067-1.992l.315,1.013a6.611,6.611,0,0,0-1.988,2.839,12.307,12.307,0,0,0-.851,4.275l-.008.706a12.371,12.371,0,0,0,1.17,5.562,6.642,6.642,0,0,0,1.677,2.208l-.315.938a6.579,6.579,0,0,1-2.108-2.059A11.538,11.538,0,0,1,153.879,11.094Zm9.471,3.818a2.212,2.212,0,0,0,1.436-.5,1.752,1.752,0,0,0,.681-1.245h1.453a2.785,2.785,0,0,1-.531,1.469,3.5,3.5,0,0,1-1.307,1.112,3.772,3.772,0,0,1-1.731.415,3.7,3.7,0,0,1-2.918-1.224,4.877,4.877,0,0,1-1.083-3.349v-.257A5.407,5.407,0,0,1,159.831,9a3.667,3.667,0,0,1,1.382-1.585,3.926,3.926,0,0,1,2.129-.564,3.6,3.6,0,0,1,2.511.9,3.234,3.234,0,0,1,1.067,2.349h-1.453a2.116,2.116,0,0,0-.66-1.432,2.053,2.053,0,0,0-1.465-.56,2.149,2.149,0,0,0-1.814.843,3.957,3.957,0,0,0-.643,2.436v.291a3.878,3.878,0,0,0,.639,2.391A2.16,2.16,0,0,0,163.351,14.913Zm4.889-3.486a5.3,5.3,0,0,1,.519-2.374A3.87,3.87,0,0,1,170.2,7.425a3.932,3.932,0,0,1,2.113-.573,3.788,3.788,0,0,1,2.968,1.27,4.886,4.886,0,0,1,1.133,3.378v.108a5.351,5.351,0,0,1-.5,2.353,3.813,3.813,0,0,1-1.436,1.623,3.977,3.977,0,0,1-2.146.581,3.778,3.778,0,0,1-2.959-1.27,4.861,4.861,0,0,1-1.133-3.362Zm1.544.183a3.842,3.842,0,0,0,.693,2.4A2.349,2.349,0,0,0,174.191,14a4.2,4.2,0,0,0,.689-2.569,3.836,3.836,0,0,0-.7-2.395,2.23,2.23,0,0,0-1.864-.917,2.205,2.205,0,0,0-1.834.9A4.17,4.17,0,0,0,169.784,11.609Zm10-4.59.042,1a3.317,3.317,0,0,1,2.665-1.162A2.568,2.568,0,0,1,185.057,8.3a3.4,3.4,0,0,1,1.166-1.046,3.445,3.445,0,0,1,1.7-.4q2.955,0,3,3.129V16H189.39V10.073a2.062,2.062,0,0,0-.44-1.44,1.937,1.937,0,0,0-1.478-.477,2.036,2.036,0,0,0-1.419.51,2.071,2.071,0,0,0-.656,1.374V16h-1.544V10.115a1.713,1.713,0,0,0-1.917-1.959,2.055,2.055,0,0,0-2.067,1.287V16h-1.536V7.019Zm19,8.093a3.262,3.262,0,0,1-2.631,1.054,2.792,2.792,0,0,1-2.187-.834,3.611,3.611,0,0,1-.76-2.469V7.019h1.536v5.8q0,2.042,1.66,2.042a2.3,2.3,0,0,0,2.341-1.312V7.019h1.536V16H198.82ZM197.542,3.25H199.4l-2.225,2.44-1.237,0Zm6.524,3.769.05,1.129a3.273,3.273,0,0,1,2.689-1.295q2.847,0,2.872,3.212V16h-1.536V10.057a2.068,2.068,0,0,0-.444-1.436,1.78,1.78,0,0,0-1.357-.465,2.216,2.216,0,0,0-1.312.4,2.706,2.706,0,0,0-.88,1.046V16h-1.536V7.019Zm9.372,0,.042,1a3.317,3.317,0,0,1,2.665-1.162A2.568,2.568,0,0,1,218.708,8.3a3.4,3.4,0,0,1,1.166-1.046,3.445,3.445,0,0,1,1.7-.4q2.955,0,3,3.129V16h-1.536V10.073a2.062,2.062,0,0,0-.44-1.44,1.937,1.937,0,0,0-1.478-.477,2.036,2.036,0,0,0-1.419.51,2.071,2.071,0,0,0-.656,1.374V16H217.5V10.115a1.713,1.713,0,0,0-1.917-1.959,2.055,2.055,0,0,0-2.067,1.287V16h-1.536V7.019Zm17.183,9.147a3.924,3.924,0,0,1-2.972-1.2,4.452,4.452,0,0,1-1.146-3.208v-.282a5.39,5.39,0,0,1,.51-2.386,3.982,3.982,0,0,1,1.428-1.644,3.59,3.59,0,0,1,1.988-.594,3.364,3.364,0,0,1,2.723,1.154,5,5,0,0,1,.971,3.3v.639h-6.084a3.193,3.193,0,0,0,.776,2.146,2.44,2.44,0,0,0,1.888.818,2.675,2.675,0,0,0,1.378-.332,3.462,3.462,0,0,0,.988-.88l.938.73A3.772,3.772,0,0,1,230.62,16.166Zm-.191-8.052a2.048,2.048,0,0,0-1.561.677,3.288,3.288,0,0,0-.78,1.9h4.5v-.116a2.925,2.925,0,0,0-.631-1.814A1.928,1.928,0,0,0,230.429,8.114Zm6.923-1.1.05,1.129a3.273,3.273,0,0,1,2.689-1.295q2.847,0,2.872,3.212V16h-1.536V10.057a2.068,2.068,0,0,0-.444-1.436,1.78,1.78,0,0,0-1.357-.465,2.216,2.216,0,0,0-1.312.4,2.706,2.706,0,0,0-.88,1.046V16H235.9V7.019Zm10.011-2.175V7.019h1.677V8.206h-1.677v5.577a1.247,1.247,0,0,0,.224.81.943.943,0,0,0,.764.27,3.718,3.718,0,0,0,.73-.1V16a4.478,4.478,0,0,1-1.179.165,1.912,1.912,0,0,1-1.552-.623,2.675,2.675,0,0,1-.523-1.768V8.206h-1.635V7.019h1.635V4.844Zm7.2,11.322a3.924,3.924,0,0,1-2.972-1.2,4.452,4.452,0,0,1-1.146-3.208v-.282a5.39,5.39,0,0,1,.51-2.386,3.982,3.982,0,0,1,1.428-1.644,3.59,3.59,0,0,1,1.988-.594,3.364,3.364,0,0,1,2.723,1.154,5,5,0,0,1,.971,3.3v.639h-6.084a3.193,3.193,0,0,0,.776,2.146,2.44,2.44,0,0,0,1.888.818,2.675,2.675,0,0,0,1.378-.332,3.462,3.462,0,0,0,.988-.88l.938.73A3.772,3.772,0,0,1,254.56,16.166Zm-.191-8.052a2.048,2.048,0,0,0-1.561.677,3.288,3.288,0,0,0-.78,1.9h4.5v-.116a2.925,2.925,0,0,0-.631-1.814A1.928,1.928,0,0,0,254.369,8.114Zm15.224,7a3.262,3.262,0,0,1-2.631,1.054,2.792,2.792,0,0,1-2.187-.834,3.611,3.611,0,0,1-.76-2.469V7.019h1.536v5.8q0,2.042,1.66,2.042a2.3,2.3,0,0,0,2.341-1.312V7.019h1.536V16h-1.461Zm9.056-1.494a1.131,1.131,0,0,0-.469-.967,4.514,4.514,0,0,0-1.635-.594,7.732,7.732,0,0,1-1.851-.6,2.634,2.634,0,0,1-1.013-.83,1.985,1.985,0,0,1-.328-1.146,2.33,2.33,0,0,1,.934-1.868,3.647,3.647,0,0,1,2.386-.764,3.753,3.753,0,0,1,2.478.789,2.5,2.5,0,0,1,.95,2.017h-1.544a1.386,1.386,0,0,0-.535-1.087,2.006,2.006,0,0,0-1.349-.457,2.1,2.1,0,0,0-1.312.365,1.15,1.15,0,0,0-.473.955.931.931,0,0,0,.44.838,5.413,5.413,0,0,0,1.59.54,8.283,8.283,0,0,1,1.864.614,2.718,2.718,0,0,1,1.058.859,2.112,2.112,0,0,1,.344,1.224,2.3,2.3,0,0,1-.963,1.93,4.039,4.039,0,0,1-2.5.726,4.523,4.523,0,0,1-1.909-.382,3.105,3.105,0,0,1-1.3-1.067,2.571,2.571,0,0,1-.469-1.482h1.536a1.59,1.59,0,0,0,.618,1.224,2.4,2.4,0,0,0,1.523.452,2.476,2.476,0,0,0,1.4-.353A1.084,1.084,0,0,0,278.648,13.618ZM287.729,16a3.226,3.226,0,0,1-.216-.946,3.426,3.426,0,0,1-2.557,1.112,3.17,3.17,0,0,1-2.179-.751,2.43,2.43,0,0,1-.851-1.905,2.539,2.539,0,0,1,1.067-2.179,5.029,5.029,0,0,1,3-.776h1.494V9.849a1.725,1.725,0,0,0-.481-1.282,1.935,1.935,0,0,0-1.419-.477,2.239,2.239,0,0,0-1.378.415,1.223,1.223,0,0,0-.556,1H282.11a2.119,2.119,0,0,1,.477-1.3,3.258,3.258,0,0,1,1.295-.992,4.356,4.356,0,0,1,1.8-.365,3.551,3.551,0,0,1,2.432.776,2.8,2.8,0,0,1,.913,2.137V13.9a5.054,5.054,0,0,0,.315,1.967V16Zm-2.548-1.17a2.7,2.7,0,0,0,1.37-.374,2.26,2.26,0,0,0,.938-.971V11.642h-1.2q-2.822,0-2.822,1.652a1.4,1.4,0,0,0,.481,1.129A1.85,1.85,0,0,0,285.181,14.83Zm5.877-3.4a5.261,5.261,0,0,1,.979-3.324,3.333,3.333,0,0,1,5.063-.178V3.25h1.536V16h-1.411l-.075-.963a3.127,3.127,0,0,1-2.565,1.129,3.068,3.068,0,0,1-2.544-1.278,5.321,5.321,0,0,1-.984-3.337Zm1.536.174A3.984,3.984,0,0,0,293.225,14a2.039,2.039,0,0,0,1.743.863,2.24,2.24,0,0,0,2.133-1.312V9.426a2.257,2.257,0,0,0-2.117-1.27,2.049,2.049,0,0,0-1.76.872A4.386,4.386,0,0,0,292.594,11.609Zm8.019-.183a5.305,5.305,0,0,1,.519-2.374,3.87,3.87,0,0,1,1.444-1.627,3.932,3.932,0,0,1,2.113-.573,3.788,3.788,0,0,1,2.968,1.27,4.886,4.886,0,0,1,1.133,3.378v.108a5.351,5.351,0,0,1-.5,2.353,3.813,3.813,0,0,1-1.436,1.623,3.977,3.977,0,0,1-2.146.581,3.778,3.778,0,0,1-2.959-1.27,4.861,4.861,0,0,1-1.133-3.362Zm1.544.183a3.842,3.842,0,0,0,.693,2.4A2.349,2.349,0,0,0,306.564,14a4.2,4.2,0,0,0,.689-2.569,3.836,3.836,0,0,0-.7-2.395,2.23,2.23,0,0,0-1.864-.917,2.205,2.205,0,0,0-1.834.9A4.17,4.17,0,0,0,302.156,11.609Zm12.1-.432a12.84,12.84,0,0,1-.486,3.549,10.493,10.493,0,0,1-1.486,3.134,6.51,6.51,0,0,1-2.1,2.042l-.324-.938a6.673,6.673,0,0,0,2.054-3.042,13.161,13.161,0,0,0,.793-4.578v-.266a13.664,13.664,0,0,0-.365-3.241,10.94,10.94,0,0,0-1.017-2.685A6.2,6.2,0,0,0,309.868,3.3l.324-.938a6.484,6.484,0,0,1,2.088,2.025,10.516,10.516,0,0,1,1.486,3.129A13.137,13.137,0,0,1,314.259,11.177Zm2.4,4.018a.962.962,0,0,1,.237-.664.9.9,0,0,1,.71-.266.928.928,0,0,1,.718.266.942.942,0,0,1,.245.664.891.891,0,0,1-.245.639.945.945,0,0,1-.718.257.854.854,0,0,1-.946-.9Z" transform="translate(9567 -8296)" fill="#12263f"/>
      <path id="Trazado_815278" data-name="Trazado 815278" d="M0,0H63L0,63Z" transform="translate(9544 -8355.49)" fill="#1b3f5e"/>
      <path id="Trazado_828297" data-name="Trazado 828297" d="M0,0H383V90H0Z" transform="translate(9553 -8460)" fill="#fff"/>
      <path id="Trazado_828298" data-name="Trazado 828298" d="M42.514,10.414H37.276V14.7h6.084V16H35.682V3.914h7.6v1.3h-6V9.11h5.238ZM46.772,16H45.237V3.25h1.536Zm6.292-4.565a5.261,5.261,0,0,1,.979-3.324,3.333,3.333,0,0,1,5.063-.178V3.25h1.536V16H59.232l-.075-.963a3.127,3.127,0,0,1-2.565,1.129,3.068,3.068,0,0,1-2.544-1.278,5.321,5.321,0,0,1-.984-3.337Zm1.536.174A3.984,3.984,0,0,0,55.231,14a2.039,2.039,0,0,0,1.743.863,2.24,2.24,0,0,0,2.133-1.312V9.426a2.257,2.257,0,0,0-2.117-1.27,2.049,2.049,0,0,0-1.76.872A4.386,4.386,0,0,0,54.6,11.609Zm12.152,4.557a3.924,3.924,0,0,1-2.972-1.2,4.452,4.452,0,0,1-1.146-3.208v-.282a5.39,5.39,0,0,1,.51-2.386,3.982,3.982,0,0,1,1.428-1.644,3.59,3.59,0,0,1,1.988-.594,3.364,3.364,0,0,1,2.723,1.154,5,5,0,0,1,.971,3.3v.639H64.171a3.193,3.193,0,0,0,.776,2.146,2.44,2.44,0,0,0,1.888.818,2.675,2.675,0,0,0,1.378-.332,3.462,3.462,0,0,0,.988-.88l.938.73A3.772,3.772,0,0,1,66.752,16.166Zm-.191-8.052A2.048,2.048,0,0,0,65,8.791a3.288,3.288,0,0,0-.78,1.9h4.5v-.116a2.925,2.925,0,0,0-.631-1.814A1.928,1.928,0,0,0,66.561,8.114Zm14.02.282a4.6,4.6,0,0,0-.755-.058,2.024,2.024,0,0,0-2.05,1.287V16H76.24V7.019h1.494l.025,1.038a2.391,2.391,0,0,1,2.142-1.2,1.569,1.569,0,0,1,.681.116Zm.838,3.03a5.3,5.3,0,0,1,.519-2.374,3.87,3.87,0,0,1,1.444-1.627A3.932,3.932,0,0,1,85.5,6.853a3.788,3.788,0,0,1,2.968,1.27A4.886,4.886,0,0,1,89.6,11.5v.108a5.351,5.351,0,0,1-.5,2.353,3.813,3.813,0,0,1-1.436,1.623,3.977,3.977,0,0,1-2.146.581,3.778,3.778,0,0,1-2.959-1.27,4.861,4.861,0,0,1-1.133-3.362Zm1.544.183a3.842,3.842,0,0,0,.693,2.4A2.349,2.349,0,0,0,87.371,14a4.2,4.2,0,0,0,.689-2.569,3.836,3.836,0,0,0-.7-2.395A2.23,2.23,0,0,0,85.5,8.114a2.205,2.205,0,0,0-1.834.9A4.17,4.17,0,0,0,82.964,11.609Zm8.185-.174a5.261,5.261,0,0,1,.979-3.324,3.333,3.333,0,0,1,5.063-.178V3.25h1.536V16H97.316l-.075-.963a3.127,3.127,0,0,1-2.565,1.129,3.068,3.068,0,0,1-2.544-1.278,5.321,5.321,0,0,1-.984-3.337Zm1.536.174A3.984,3.984,0,0,0,93.315,14a2.039,2.039,0,0,0,1.743.863,2.24,2.24,0,0,0,2.133-1.312V9.426a2.257,2.257,0,0,0-2.117-1.27,2.049,2.049,0,0,0-1.76.872A4.386,4.386,0,0,0,92.684,11.609ZM102.778,16h-1.536V7.019h1.536Zm-1.66-11.364a.917.917,0,0,1,.228-.631.857.857,0,0,1,.677-.257.87.87,0,0,1,.681.257.907.907,0,0,1,.232.631.877.877,0,0,1-.232.623.886.886,0,0,1-.681.249.872.872,0,0,1-.677-.249A.886.886,0,0,1,101.117,4.636ZM106.9,16h-1.536V3.25H106.9Zm4.125,0h-1.536V3.25h1.536Zm2.05-4.574a5.3,5.3,0,0,1,.519-2.374,3.87,3.87,0,0,1,1.444-1.627,3.932,3.932,0,0,1,2.113-.573,3.788,3.788,0,0,1,2.968,1.27,4.886,4.886,0,0,1,1.133,3.378v.108a5.351,5.351,0,0,1-.5,2.353,3.813,3.813,0,0,1-1.436,1.623,3.977,3.977,0,0,1-2.146.581,3.778,3.778,0,0,1-2.959-1.27,4.861,4.861,0,0,1-1.133-3.362Zm1.544.183a3.842,3.842,0,0,0,.693,2.4A2.349,2.349,0,0,0,119.031,14a4.2,4.2,0,0,0,.689-2.569,3.836,3.836,0,0,0-.7-2.395,2.23,2.23,0,0,0-1.864-.917,2.205,2.205,0,0,0-1.834.9A4.17,4.17,0,0,0,114.623,11.609Zm13.788,2.009a1.13,1.13,0,0,0-.469-.967,4.514,4.514,0,0,0-1.635-.594,7.731,7.731,0,0,1-1.851-.6,2.633,2.633,0,0,1-1.013-.83,1.986,1.986,0,0,1-.328-1.146,2.33,2.33,0,0,1,.934-1.868,3.647,3.647,0,0,1,2.386-.764,3.753,3.753,0,0,1,2.478.789,2.5,2.5,0,0,1,.95,2.017h-1.544a1.386,1.386,0,0,0-.535-1.087,2.006,2.006,0,0,0-1.349-.457,2.1,2.1,0,0,0-1.312.365,1.15,1.15,0,0,0-.473.955.932.932,0,0,0,.44.838,5.413,5.413,0,0,0,1.59.54,8.282,8.282,0,0,1,1.864.614,2.718,2.718,0,0,1,1.058.859,2.112,2.112,0,0,1,.344,1.224,2.3,2.3,0,0,1-.963,1.93,4.039,4.039,0,0,1-2.5.726,4.523,4.523,0,0,1-1.909-.382,3.105,3.105,0,0,1-1.3-1.067,2.571,2.571,0,0,1-.469-1.482h1.536a1.59,1.59,0,0,0,.618,1.224,2.4,2.4,0,0,0,1.523.452,2.476,2.476,0,0,0,1.4-.353A1.084,1.084,0,0,0,128.41,13.618Zm7.687-2.523a12.834,12.834,0,0,1,.5-3.6,10.465,10.465,0,0,1,1.5-3.138,6.374,6.374,0,0,1,2.067-1.992l.315,1.013a6.611,6.611,0,0,0-1.988,2.839,12.307,12.307,0,0,0-.851,4.275l-.008.706a12.371,12.371,0,0,0,1.17,5.562,6.642,6.642,0,0,0,1.677,2.208l-.315.938a6.579,6.579,0,0,1-2.108-2.059A11.538,11.538,0,0,1,136.1,11.094Zm9.6,5.072a3.924,3.924,0,0,1-2.972-1.2,4.452,4.452,0,0,1-1.146-3.208v-.282a5.39,5.39,0,0,1,.51-2.386,3.982,3.982,0,0,1,1.428-1.644,3.59,3.59,0,0,1,1.988-.594,3.364,3.364,0,0,1,2.723,1.154,5,5,0,0,1,.971,3.3v.639h-6.084a3.193,3.193,0,0,0,.776,2.146,2.44,2.44,0,0,0,1.888.818,2.675,2.675,0,0,0,1.378-.332,3.462,3.462,0,0,0,.988-.88l.938.73A3.772,3.772,0,0,1,145.693,16.166ZM145.5,8.114a2.048,2.048,0,0,0-1.561.677,3.288,3.288,0,0,0-.78,1.9h4.5v-.116a2.925,2.925,0,0,0-.631-1.814A1.928,1.928,0,0,0,145.5,8.114Zm10.7,5.5a1.13,1.13,0,0,0-.469-.967,4.514,4.514,0,0,0-1.635-.594,7.731,7.731,0,0,1-1.851-.6,2.633,2.633,0,0,1-1.013-.83,1.986,1.986,0,0,1-.328-1.146,2.33,2.33,0,0,1,.934-1.868,3.647,3.647,0,0,1,2.386-.764,3.753,3.753,0,0,1,2.478.789,2.5,2.5,0,0,1,.95,2.017H156.11a1.386,1.386,0,0,0-.535-1.087,2.006,2.006,0,0,0-1.349-.457,2.1,2.1,0,0,0-1.312.365,1.15,1.15,0,0,0-.473.955.932.932,0,0,0,.44.838,5.413,5.413,0,0,0,1.59.54,8.283,8.283,0,0,1,1.864.614,2.718,2.718,0,0,1,1.058.859,2.112,2.112,0,0,1,.344,1.224,2.3,2.3,0,0,1-.963,1.93,4.039,4.039,0,0,1-2.5.726,4.523,4.523,0,0,1-1.909-.382,3.105,3.105,0,0,1-1.3-1.067,2.571,2.571,0,0,1-.469-1.482h1.536a1.59,1.59,0,0,0,.618,1.224,2.4,2.4,0,0,0,1.523.452,2.476,2.476,0,0,0,1.4-.353A1.084,1.084,0,0,0,156.2,13.618Zm11.472,2.548a3.924,3.924,0,0,1-2.972-1.2,4.452,4.452,0,0,1-1.146-3.208v-.282a5.39,5.39,0,0,1,.51-2.386,3.982,3.982,0,0,1,1.428-1.644,3.59,3.59,0,0,1,1.988-.594A3.364,3.364,0,0,1,170.2,8.006a5,5,0,0,1,.971,3.3v.639h-6.084a3.193,3.193,0,0,0,.776,2.146,2.44,2.44,0,0,0,1.888.818,2.675,2.675,0,0,0,1.378-.332,3.462,3.462,0,0,0,.988-.88l.938.73A3.772,3.772,0,0,1,167.673,16.166Zm-.191-8.052a2.048,2.048,0,0,0-1.561.677,3.288,3.288,0,0,0-.78,1.9h4.5v-.116a2.925,2.925,0,0,0-.631-1.814A1.928,1.928,0,0,0,167.482,8.114ZM174.621,16h-1.536V3.25h1.536Zm8.11-8.981.042,1a3.317,3.317,0,0,1,2.665-1.162A2.568,2.568,0,0,1,188,8.3a3.4,3.4,0,0,1,1.166-1.046,3.445,3.445,0,0,1,1.7-.4q2.955,0,3,3.129V16h-1.536V10.073a2.062,2.062,0,0,0-.44-1.44,1.937,1.937,0,0,0-1.478-.477,2.036,2.036,0,0,0-1.419.51,2.071,2.071,0,0,0-.656,1.374V16H186.8V10.115a1.713,1.713,0,0,0-1.917-1.959,2.055,2.055,0,0,0-2.067,1.287V16h-1.536V7.019Zm17.183,9.147a3.924,3.924,0,0,1-2.972-1.2,4.452,4.452,0,0,1-1.146-3.208v-.282a5.39,5.39,0,0,1,.51-2.386,3.982,3.982,0,0,1,1.428-1.644,3.59,3.59,0,0,1,1.988-.594,3.364,3.364,0,0,1,2.723,1.154,5,5,0,0,1,.971,3.3v.639h-6.084a3.193,3.193,0,0,0,.776,2.146,2.44,2.44,0,0,0,1.888.818,2.675,2.675,0,0,0,1.378-.332,3.462,3.462,0,0,0,.988-.88l.938.73A3.772,3.772,0,0,1,199.913,16.166Zm-.191-8.052a2.048,2.048,0,0,0-1.561.677,3.288,3.288,0,0,0-.78,1.9h4.5v-.116a2.925,2.925,0,0,0-.631-1.814A1.928,1.928,0,0,0,199.722,8.114Zm6.923-1.1.05,1.129a3.273,3.273,0,0,1,2.689-1.295q2.847,0,2.872,3.212V16h-1.536V10.057a2.068,2.068,0,0,0-.444-1.436,1.78,1.78,0,0,0-1.357-.465,2.216,2.216,0,0,0-1.312.4,2.706,2.706,0,0,0-.88,1.046V16h-1.536V7.019Zm7.521,4.408a5.3,5.3,0,0,1,.519-2.374,3.87,3.87,0,0,1,1.444-1.627,3.932,3.932,0,0,1,2.113-.573,3.788,3.788,0,0,1,2.968,1.27,4.886,4.886,0,0,1,1.133,3.378v.108a5.351,5.351,0,0,1-.5,2.353,3.813,3.813,0,0,1-1.436,1.623,3.977,3.977,0,0,1-2.146.581A3.778,3.778,0,0,1,215.3,14.9a4.861,4.861,0,0,1-1.133-3.362Zm1.544.183a3.842,3.842,0,0,0,.693,2.4A2.349,2.349,0,0,0,220.117,14a4.2,4.2,0,0,0,.689-2.569,3.836,3.836,0,0,0-.7-2.395,2.23,2.23,0,0,0-1.864-.917,2.205,2.205,0,0,0-1.834.9A4.17,4.17,0,0,0,215.71,11.609ZM229.5,13.618a1.13,1.13,0,0,0-.469-.967,4.514,4.514,0,0,0-1.635-.594,7.731,7.731,0,0,1-1.851-.6,2.633,2.633,0,0,1-1.013-.83,1.986,1.986,0,0,1-.328-1.146,2.33,2.33,0,0,1,.934-1.868,3.647,3.647,0,0,1,2.386-.764A3.753,3.753,0,0,1,230,7.641a2.5,2.5,0,0,1,.95,2.017h-1.544a1.386,1.386,0,0,0-.535-1.087,2.006,2.006,0,0,0-1.349-.457,2.1,2.1,0,0,0-1.312.365,1.15,1.15,0,0,0-.473.955.932.932,0,0,0,.44.838,5.413,5.413,0,0,0,1.59.54,8.283,8.283,0,0,1,1.864.614,2.718,2.718,0,0,1,1.058.859,2.112,2.112,0,0,1,.344,1.224,2.3,2.3,0,0,1-.963,1.93,4.039,4.039,0,0,1-2.5.726,4.523,4.523,0,0,1-1.909-.382,3.105,3.105,0,0,1-1.3-1.067,2.571,2.571,0,0,1-.469-1.482h1.536a1.59,1.59,0,0,0,.618,1.224,2.4,2.4,0,0,0,1.523.452,2.476,2.476,0,0,0,1.4-.353A1.084,1.084,0,0,0,229.5,13.618Zm13.29,1.494a3.262,3.262,0,0,1-2.631,1.054,2.792,2.792,0,0,1-2.187-.834,3.611,3.611,0,0,1-.76-2.469V7.019h1.536v5.8q0,2.042,1.66,2.042a2.3,2.3,0,0,0,2.341-1.312V7.019h1.536V16H242.82ZM248.7,4.844V7.019h1.677V8.206H248.7v5.577a1.247,1.247,0,0,0,.224.81.943.943,0,0,0,.764.27,3.718,3.718,0,0,0,.73-.1V16a4.478,4.478,0,0,1-1.179.165,1.912,1.912,0,0,1-1.552-.623,2.675,2.675,0,0,1-.523-1.768V8.206h-1.635V7.019h1.635V4.844ZM253.835,16H252.3V7.019h1.536Zm-1.66-11.364a.917.917,0,0,1,.228-.631.857.857,0,0,1,.677-.257.87.87,0,0,1,.681.257.907.907,0,0,1,.232.631.877.877,0,0,1-.232.623.886.886,0,0,1-.681.249.872.872,0,0,1-.677-.249A.886.886,0,0,1,252.175,4.636ZM257.961,16h-1.536V3.25h1.536Zm4.125,0h-1.536V7.019h1.536Zm-1.66-11.364a.917.917,0,0,1,.228-.631.857.857,0,0,1,.677-.257.87.87,0,0,1,.681.257.907.907,0,0,1,.232.631.877.877,0,0,1-.232.623.886.886,0,0,1-.681.249.872.872,0,0,1-.677-.249A.886.886,0,0,1,260.426,4.636Zm5.562,10.11h5.254V16h-7.13V14.871l4.956-6.583h-4.881V7.019h6.807V8.106ZM278.513,16a3.226,3.226,0,0,1-.216-.946,3.426,3.426,0,0,1-2.557,1.112,3.17,3.17,0,0,1-2.179-.751,2.43,2.43,0,0,1-.851-1.905,2.539,2.539,0,0,1,1.067-2.179,5.029,5.029,0,0,1,3-.776h1.494V9.849a1.725,1.725,0,0,0-.481-1.282,1.935,1.935,0,0,0-1.419-.477,2.239,2.239,0,0,0-1.378.415,1.223,1.223,0,0,0-.556,1h-1.544a2.119,2.119,0,0,1,.477-1.3,3.258,3.258,0,0,1,1.295-.992,4.356,4.356,0,0,1,1.8-.365,3.551,3.551,0,0,1,2.432.776,2.8,2.8,0,0,1,.913,2.137V13.9a5.054,5.054,0,0,0,.315,1.967V16Zm-2.548-1.17a2.7,2.7,0,0,0,1.37-.374,2.26,2.26,0,0,0,.938-.971V11.642h-1.2q-2.822,0-2.822,1.652a1.4,1.4,0,0,0,.481,1.129A1.85,1.85,0,0,0,275.965,14.83Zm5.877-3.4a5.261,5.261,0,0,1,.979-3.324,3.333,3.333,0,0,1,5.063-.178V3.25h1.536V16H288.01l-.075-.963a3.127,3.127,0,0,1-2.565,1.129,3.068,3.068,0,0,1-2.544-1.278,5.321,5.321,0,0,1-.984-3.337Zm1.536.174A3.984,3.984,0,0,0,284.009,14a2.039,2.039,0,0,0,1.743.863,2.24,2.24,0,0,0,2.133-1.312V9.426a2.257,2.257,0,0,0-2.117-1.27,2.049,2.049,0,0,0-1.76.872A4.386,4.386,0,0,0,283.378,11.609Zm8.019-.183a5.305,5.305,0,0,1,.519-2.374,3.87,3.87,0,0,1,1.444-1.627,3.932,3.932,0,0,1,2.113-.573,3.788,3.788,0,0,1,2.968,1.27,4.886,4.886,0,0,1,1.133,3.378v.108a5.351,5.351,0,0,1-.5,2.353,3.813,3.813,0,0,1-1.436,1.623,3.977,3.977,0,0,1-2.146.581,3.778,3.778,0,0,1-2.959-1.27,4.861,4.861,0,0,1-1.133-3.362Zm1.544.183a3.842,3.842,0,0,0,.693,2.4A2.349,2.349,0,0,0,297.348,14a4.2,4.2,0,0,0,.689-2.569,3.836,3.836,0,0,0-.7-2.395,2.23,2.23,0,0,0-1.864-.917,2.205,2.205,0,0,0-1.834.9A4.17,4.17,0,0,0,292.94,11.609Zm12.1-.432a12.84,12.84,0,0,1-.486,3.549,10.493,10.493,0,0,1-1.486,3.134,6.51,6.51,0,0,1-2.1,2.042l-.324-.938a6.673,6.673,0,0,0,2.054-3.042,13.161,13.161,0,0,0,.793-4.578v-.266a13.664,13.664,0,0,0-.365-3.241,10.94,10.94,0,0,0-1.017-2.685A6.2,6.2,0,0,0,300.652,3.3l.324-.938a6.484,6.484,0,0,1,2.088,2.025,10.516,10.516,0,0,1,1.486,3.129A13.137,13.137,0,0,1,305.043,11.177Zm2.4,4.018a.962.962,0,0,1,.237-.664.9.9,0,0,1,.71-.266.928.928,0,0,1,.718.266.942.942,0,0,1,.245.664.891.891,0,0,1-.245.639.945.945,0,0,1-.718.257.854.854,0,0,1-.946-.9Z" transform="translate(9575 -8424)" fill="#12263f"/>
      <path id="Trazado_815283" data-name="Trazado 815283" d="M0,0H63L0,63Z" transform="translate(9544 -8470)" fill="#3b5620"/>
      <path id="Trazado_823551" data-name="Trazado 823551" d="M9116.972-9747.63v154.019" transform="translate(72.889 -17320.818) rotate(90)" fill="none" stroke="#1b3f5e" stroke-width="2"/>
      <path id="Trazado_823550" data-name="Trazado 823550" d="M9116.972-9747.63v40.395" transform="translate(18860.473 -17950.053) rotate(180)" fill="none" stroke="#1b3f5e" stroke-width="2"/>
      <g id="Grupo_1071093" data-name="Grupo 1071093" transform="translate(9617.721 -8666.532)">
        <g id="Grupo_1071092" data-name="Grupo 1071092" clip-path="url(#clip-path)">
          <path id="Trazado_823507" data-name="Trazado 823507" d="M0,68.847l77.5,44.746L133.871,81.05,56.495,36.3Z" transform="translate(0 11.146)" fill="#39b54a"/>
          <path id="Trazado_823508" data-name="Trazado 823508" d="M10.781,70.757V30.079L53.056,54.486V95.165Z" transform="translate(3.31 9.235)" fill="#e2293f"/>
          <path id="Trazado_823509" data-name="Trazado 823509" d="M43.126,54.486,85.4,30.078V70.757L43.126,95.164Z" transform="translate(13.241 9.235)" fill="#be1e2d"/>
          <path id="Trazado_823510" data-name="Trazado 823510" d="M10.781,32.945l4.99-8.136,16.147-4.067L51.349,45.8l1.707,11.554Z" transform="translate(3.31 6.368)" fill="#e2293f"/>
          <path id="Trazado_823511" data-name="Trazado 823511" d="M71.707,0,25.69,26.568,46.84,53.844,92.859,27.275Z" transform="translate(7.887 0)" fill="#6d6e71"/>
          <path id="Trazado_823512" data-name="Trazado 823512" d="M41.871,47.437l1.683,11.389,1.081.665L89.749,33.447,87.891,20.868Z" transform="translate(12.856 6.407)" fill="#58595b"/>
          <path id="Trazado_823513" data-name="Trazado 823513" d="M76,0,57.721,4.35,11.7,30.919l18.28-4.351Z" transform="translate(3.593 0)" fill="#58595b"/>
          <path id="Trazado_823514" data-name="Trazado 823514" d="M52.708,58.234l-1.362-9.218L30.812,22.537,14.369,26.68l-4.857,7.9L7.6,33.483l5.356-8.719,18.71-4.713L53.44,48.123l1.716,11.621Z" transform="translate(2.335 6.156)" fill="#bcbec0"/>
          <path id="Trazado_823515" data-name="Trazado 823515" d="M9.064,33.122,11.309,31.7l4.222-6.883-1.61.405Z" transform="translate(2.783 7.618)" fill="#6d6e71"/>
          <path id="Trazado_823516" data-name="Trazado 823516" d="M22.634,30.752V43.79l11.291,6.519V37.272Z" transform="translate(6.949 9.442)" fill="#9b1021"/>
          <path id="Trazado_823517" data-name="Trazado 823517" d="M35.285,52.664l-13.494-7.79V29.293l13.494,7.79ZM23.993,43.6l9.089,5.248v-10.5l-9.089-5.248Z" transform="translate(6.69 8.994)" fill="#fff"/>
          <path id="Trazado_823518" data-name="Trazado 823518" d="M33.671,50.445,22.843,30.888l.382-.221L34.052,50.224Z" transform="translate(7.013 9.416)" fill="#fff"/>
          <path id="Trazado_823519" data-name="Trazado 823519" d="M22.979,42.42l-.221-.38,11.018-6.445.221.38Z" transform="translate(6.988 10.929)" fill="#fff"/>
          <path id="Trazado_823520" data-name="Trazado 823520" d="M16.27,70.047V45.64L44.454,62.08V86.319Z" transform="translate(4.995 14.013)" fill="#9b1021"/>
          <path id="Trazado_823521" data-name="Trazado 823521" d="M44.971,87.938l-2.2-1.27V63.7L16.787,48.54V71.664l-2.2-1.269V44.707L44.971,62.432Z" transform="translate(4.478 13.726)" fill="#fff"/>
          <path id="Trazado_823522" data-name="Trazado 823522" d="M27.569,77.4l-2.2-1.265V52.524h2.2Z" transform="translate(7.788 16.126)" fill="#fff"/>
          <rect id="Rectángulo_376732" data-name="Rectángulo 376732" width="20.054" height="0.44" transform="matrix(0.594, -0.805, 0.805, 0.594, 21.734, 84.376)" fill="#fff"/>
          <path id="Trazado_823523" data-name="Trazado 823523" d="M28.219,77.871l-11.733-30.6.41-.157,11.734,30.6Z" transform="translate(5.062 14.465)" fill="#fff"/>
          <rect id="Rectángulo_376733" data-name="Rectángulo 376733" width="20.906" height="0.441" transform="matrix(0.596, -0.803, 0.803, 0.596, 35.528, 92.914)" fill="#fff"/>
          <rect id="Rectángulo_376734" data-name="Rectángulo 376734" width="0.441" height="32.369" transform="translate(35.502 69.643) rotate(-21.97)" fill="#fff"/>
          <path id="Trazado_823524" data-name="Trazado 823524" d="M14.586,44.8l.605-.387L45.944,62.143l-.974.379Z" transform="translate(4.478 13.635)" fill="#d1d3d4"/>
          <path id="Trazado_823525" data-name="Trazado 823525" d="M37.833,58.357V83.864l.972-.7V57.978Z" transform="translate(11.616 17.801)" fill="#bcbec0"/>
          <path id="Trazado_823526" data-name="Trazado 823526" d="M27.052,76.965l.971-.7V54.5l-.971-.567Z" transform="translate(8.306 16.558)" fill="#bcbec0"/>
          <path id="Trazado_823527" data-name="Trazado 823527" d="M16.27,70.677l.972-.7V48.207l-.972-.567Z" transform="translate(4.995 14.627)" fill="#bcbec0"/>
          <path id="Trazado_823528" data-name="Trazado 823528" d="M21.792,29.361l.605-.387,13.86,7.83-.972.378Z" transform="translate(6.691 8.896)" fill="#d1d3d4"/>
          <path id="Trazado_823529" data-name="Trazado 823529" d="M32.116,35.342V50.923l.971-.7V34.964Z" transform="translate(9.86 10.735)" fill="#bcbec0"/>
          <path id="Trazado_823530" data-name="Trazado 823530" d="M23.476,42.706l.972.562V32.8l-.972-.589Z" transform="translate(7.208 9.89)" fill="#bcbec0"/>
          <path id="Trazado_823531" data-name="Trazado 823531" d="M74.181,68.607V92.84L53.85,81.08l.075-31.762Z" transform="translate(16.534 15.142)" fill="#e2293f"/>
          <path id="Trazado_823532" data-name="Trazado 823532" d="M23.476,40.32l.972-.306,8.117,4.661v.885Z" transform="translate(7.208 12.285)" fill="#d1d3d4"/>
          <path id="Trazado_823533" data-name="Trazado 823533" d="M97.662,75.955,69.405,92.1V67.869L97.662,51.722Z" transform="translate(21.309 15.88)" fill="#be1e2d"/>
          <path id="Trazado_823534" data-name="Trazado 823534" d="M82.3,36.441,103.435,56.6,74.372,73.506,53.233,53.1Z" transform="translate(16.344 11.188)" fill="#6d6e71"/>
          <path id="Trazado_823535" data-name="Trazado 823535" d="M74.388,69.593v1.821l-21.21-20.34.073-1.889Z" transform="translate(16.327 15.101)" fill="#bcbec0"/>
          <path id="Trazado_823536" data-name="Trazado 823536" d="M69.406,68.77v1.821L98.47,53.754V51.865Z" transform="translate(21.309 15.924)" fill="#58595b"/>
          <path id="Trazado_823537" data-name="Trazado 823537" d="M57.024,79.307V63.036l10.569,6.1V85.3Z" transform="translate(17.508 19.354)" fill="#700618"/>
          <g id="Grupo_1071083" data-name="Grupo 1071083" transform="translate(0 0)">
            <g id="Grupo_1071082" data-name="Grupo 1071082" clip-path="url(#clip-path)">
              <g id="Grupo_1071075" data-name="Grupo 1071075" transform="translate(56.367 96.222)" style="mix-blend-mode: multiply;isolation: isolate">
                <g id="Grupo_1071074" data-name="Grupo 1071074">
                  <g id="Grupo_1071073" data-name="Grupo 1071073" clip-path="url(#clip-path-3)">
                    <path id="Trazado_823538" data-name="Trazado 823538" d="M43.126,81.8l28.734.257L57.144,73.619Z" transform="translate(-43.126 -73.619)" fill="#e6e7e8"/>
                  </g>
                </g>
              </g>
              <g id="Grupo_1071078" data-name="Grupo 1071078" transform="translate(76.018 104.658)" style="mix-blend-mode: multiply;isolation: isolate">
                <g id="Grupo_1071077" data-name="Grupo 1071077">
                  <g id="Grupo_1071076" data-name="Grupo 1071076" clip-path="url(#clip-path-4)">
                    <path id="Trazado_823539" data-name="Trazado 823539" d="M58.161,84.733l30.224-1.17L72.858,83.4l-5.615-3.325Z" transform="translate(-58.161 -80.073)" fill="#e6e7e8"/>
                  </g>
                </g>
              </g>
              <g id="Grupo_1071081" data-name="Grupo 1071081" transform="translate(90.715 83.58)" style="mix-blend-mode: multiply;isolation: isolate">
                <g id="Grupo_1071080" data-name="Grupo 1071080">
                  <g id="Grupo_1071079" data-name="Grupo 1071079" clip-path="url(#clip-path-5)">
                    <path id="Trazado_823540" data-name="Trazado 823540" d="M69.406,88.349l15.526.166,27.629-15.952-14.9-8.616V72.2Z" transform="translate(-69.406 -63.946)" fill="#e6e7e8"/>
                  </g>
                </g>
              </g>
            </g>
          </g>
          <path id="Trazado_823541" data-name="Trazado 823541" d="M58.161,88.531V72.259L67.243,67.7V83.87Z" transform="translate(17.857 20.787)" fill="#9b1021"/>
          <path id="Trazado_823542" data-name="Trazado 823542" d="M57.024,63.036l6.389,8.2,4.18-2.1Z" transform="translate(17.508 19.354)" fill="#4f0213"/>
          <path id="Trazado_823543" data-name="Trazado 823543" d="M57.614,87.082l.715.455V71.267l-.715-.331Z" transform="translate(17.689 21.78)" fill="#e2293f"/>
          <path id="Trazado_823544" data-name="Trazado 823544" d="M57.613,72.014l9.169-4.588.629.363L58.33,72.345Z" transform="translate(17.689 20.702)" fill="#e2293f"/>
          <path id="Trazado_823545" data-name="Trazado 823545" d="M10.781,32.573v2.661l4.972-7.926,15.193-3.925-1.108-1.43L15,25.69Z" transform="translate(3.31 6.74)" fill="#be1e2d"/>
          <g id="Grupo_1071091" data-name="Grupo 1071091" transform="translate(0 0)">
            <g id="Grupo_1071090" data-name="Grupo 1071090" clip-path="url(#clip-path)">
              <g id="Grupo_1071086" data-name="Grupo 1071086" transform="translate(70.385 67.019)" style="mix-blend-mode: multiply;isolation: isolate">
                <g id="Grupo_1071085" data-name="Grupo 1071085">
                  <g id="Grupo_1071084" data-name="Grupo 1071084" clip-path="url(#clip-path-7)">
                    <path id="Trazado_823546" data-name="Trazado 823546" d="M53.851,52.907,74.182,72.049l28.257-16.36V54.4L74.182,70.77,53.851,51.276Z" transform="translate(-53.851 -51.276)" fill="#d1d3d4"/>
                  </g>
                </g>
              </g>
              <g id="Grupo_1071089" data-name="Grupo 1071089" transform="translate(85.1 88.491)" style="mix-blend-mode: multiply;isolation: isolate">
                <g id="Grupo_1071088" data-name="Grupo 1071088">
                  <g id="Grupo_1071087" data-name="Grupo 1071087" clip-path="url(#clip-path-8)">
                    <path id="Trazado_823547" data-name="Trazado 823547" d="M65.11,67.7l5.615,11.088v8.4L65.11,83.871Z" transform="translate(-65.11 -67.704)" fill="#e6e7e8"/>
                  </g>
                </g>
              </g>
            </g>
          </g>
          <path id="Trazado_823548" data-name="Trazado 823548" d="M0,65.736,77.5,110.4v-4.449L0,61.2Z" transform="translate(0 18.791)" fill="#009444"/>
          <path id="Trazado_823549" data-name="Trazado 823549" d="M59.3,103.082v4.45l56.366-32.457V70.538Z" transform="translate(18.206 21.657)" fill="#037c36"/>
        </g>
      </g>
      <g id="Grupo_1071072" data-name="Grupo 1071072" transform="translate(9706.436 -8730.185)">
        <g id="Grupo_1071071" data-name="Grupo 1071071" clip-path="url(#clip-path-9)">
          <g id="Grupo_1071062" data-name="Grupo 1071062" transform="translate(0 0)">
            <g id="Grupo_1071061" data-name="Grupo 1071061" clip-path="url(#clip-path-10)">
              <path id="Trazado_823467" data-name="Trazado 823467" d="M102.041,91.159c-19.522-11.271-51.069-11.277-70.477,0-19.393,11.271-19.291,29.551.231,40.822s51.1,11.277,70.488.006c19.408-11.277,19.294-29.551-.241-40.829" transform="translate(19.742 95.561)" fill="#009444"/>
              <path id="Trazado_823468" data-name="Trazado 823468" d="M102.05,87.73c-19.522-11.271-51.082-11.271-70.477,0s-19.3,29.56.218,40.831c19.535,11.277,51.1,11.277,70.5,0s19.294-29.554-.241-40.831" transform="translate(19.74 91.602)" fill="#39b54a"/>
              <g id="Grupo_1071060" data-name="Grupo 1071060" transform="translate(75.442 176.549)" style="mix-blend-mode: multiply;isolation: isolate">
                <g id="Grupo_1071059" data-name="Grupo 1071059">
                  <g id="Grupo_1071058" data-name="Grupo 1071058" clip-path="url(#clip-path-11)">
                    <path id="Trazado_823469" data-name="Trazado 823469" d="M86.719,122.015,35,124.834l1.923-35.367,38.831-7.559a51.809,51.809,0,0,1,5.593,2.787c17.61,10.167,19.421,26.034,5.371,37.32" transform="translate(-35 -81.907)" fill="#e6e7e8"/>
                  </g>
                </g>
              </g>
            </g>
          </g>
          <path id="Trazado_823470" data-name="Trazado 823470" d="M92.862,82.562,67.4,67.862,32.765,73.244,23.587,93.322l25.463,14.7,34.634-5.38Z" transform="translate(27.254 78.412)" fill="#808285"/>
          <path id="Trazado_823471" data-name="Trazado 823471" d="M25.333,79.674l-3.257,31.657,27.857,16.084L50.8,94.374Z" transform="translate(25.508 92.061)" fill="#939598"/>
          <path id="Trazado_823472" data-name="Trazado 823472" d="M35.862,89.379,35,122.421l37.891-5.889L70.5,84Z" transform="translate(40.441 97.056)" fill="#6d6e71"/>
          <path id="Trazado_823473" data-name="Trazado 823473" d="M51.468,94.762,53.863,127.3,63.9,105.328,60.646,74.682Z" transform="translate(59.47 86.292)" fill="#58595b"/>
          <path id="Trazado_823474" data-name="Trazado 823474" d="M86.7,81.938l-22.514-13L33.561,73.7,25.448,91.453l22.514,13,30.623-4.757Z" transform="translate(29.404 79.659)" fill="#bcbec0"/>
          <path id="Trazado_823475" data-name="Trazado 823475" d="M78.765,44.116,60.049,33.311,34.591,37.266,27.844,52.027,46.56,62.832l25.458-3.955Z" transform="translate(32.173 38.489)" fill="#d1d3d4"/>
          <path id="Trazado_823476" data-name="Trazado 823476" d="M49.332,52.8l-.065,4.067-1.3,78.724-22.516-13,4.8-74.788.373-5.813Z" transform="translate(29.403 48.521)" fill="#e6e7e8"/>
          <path id="Trazado_823477" data-name="Trazado 823477" d="M66.516,127.156l-30.623,4.759,1.3-78.722.067-4.07L62.72,45.171l.226,4.889Z" transform="translate(41.473 52.193)" fill="#bcbec0"/>
          <path id="Trazado_823478" data-name="Trazado 823478" d="M60.253,117.318l-8.117,17.75L48.566,57.974l-.226-4.891,6.744-14.761.946,14.506Z" transform="translate(55.854 44.28)" fill="#a7a9ac"/>
          <g id="Grupo_1071070" data-name="Grupo 1071070" transform="translate(0 0)">
            <g id="Grupo_1071069" data-name="Grupo 1071069" clip-path="url(#clip-path-10)">
              <path id="Trazado_823479" data-name="Trazado 823479" d="M36.729,75.415l-.4,6.63-5.783-3.339-1.369-.787.4-6.637c.147-2.339,1.864-3.317,3.837-2.179a5.942,5.942,0,0,1,1.763,1.617,7.4,7.4,0,0,1,1.552,4.695" transform="translate(33.71 79.298)" fill="#2b2b2b"/>
              <path id="Trazado_823480" data-name="Trazado 823480" d="M36,74.7l-.4,6.63-5.783-3.339.366-6.091c.147-2.339,1.864-3.317,3.837-2.179a3.716,3.716,0,0,1,.431.285A7.4,7.4,0,0,1,36,74.7" transform="translate(34.443 80.012)" fill="#414042"/>
              <g id="Grupo_1071068" data-name="Grupo 1071068" transform="translate(59.646 82.603)" style="mix-blend-mode: multiply;isolation: isolate">
                <g id="Grupo_1071067" data-name="Grupo 1071067">
                  <g id="Grupo_1071066" data-name="Grupo 1071066" clip-path="url(#clip-path-13)">
                    <g id="Grupo_1071065" data-name="Grupo 1071065">
                      <g id="Grupo_1071064" data-name="Grupo 1071064">
                        <g id="Grupo_1071063" data-name="Grupo 1071063" clip-path="url(#clip-path-13)">
                          <path id="Trazado_823481" data-name="Trazado 823481" d="M79.912,52.828a21.76,21.76,0,0,1-4.968,3.854c-.8.463-1.634.895-2.5,1.291C65.05,61.4,55.454,62.437,46.7,61.105a38.248,38.248,0,0,1-13.3-4.423,21.184,21.184,0,0,1-5.721-4.636l.373-5.813L46.761,57.038l25.46-3.955,6.744-14.761Z" transform="translate(-27.672 -38.323)" fill="#d1d3d4"/>
                        </g>
                      </g>
                    </g>
                  </g>
                </g>
              </g>
              <path id="Trazado_823482" data-name="Trazado 823482" d="M76.386,37.252c-11.51-6.645-30.112-6.654-41.549-.006s-11.374,17.427.136,24.072,30.125,6.645,41.562,0S87.9,43.9,76.386,37.252" transform="translate(30.389 37.28)" fill="#8b5e3c"/>
              <path id="Trazado_823483" data-name="Trazado 823483" d="M76.4,35.872c-11.51-6.645-30.125-6.645-41.56,0S23.459,53.3,34.972,59.946s30.123,6.645,41.56,0S87.906,42.517,76.4,35.872" transform="translate(30.386 35.69)" fill="#a97c50"/>
              <path id="Trazado_823484" data-name="Trazado 823484" d="M70.487,36.351c-9.654-5.574-25.245-5.574-34.824-.006s-9.538,14.6.114,20.177,25.245,5.574,34.834,0,9.527-14.6-.125-20.171" transform="translate(32.936 37.171)" fill="#8b5e3c"/>
              <path id="Trazado_823485" data-name="Trazado 823485" d="M28.514,51.985S27.088,27.361,53.138,27.361,77.765,51.985,77.765,51.985Z" transform="translate(32.931 31.615)" fill="#8b5e3c"/>
              <path id="Trazado_823486" data-name="Trazado 823486" d="M36.421,56.158,36.079,61.8l-4.921-2.841L30,58.287l.343-5.645c.125-1.989,1.586-2.819,3.263-1.852a5.091,5.091,0,0,1,1.5,1.373,6.3,6.3,0,0,1,1.319,3.994" transform="translate(34.659 58.22)" fill="#2b2b2b"/>
              <path id="Trazado_823487" data-name="Trazado 823487" d="M35.8,55.55l-.343,5.641L30.535,58.35l.313-5.182c.127-1.989,1.586-2.819,3.263-1.854a3.277,3.277,0,0,1,.369.241A6.3,6.3,0,0,1,35.8,55.55" transform="translate(35.282 58.827)" fill="#414042"/>
              <path id="Trazado_823488" data-name="Trazado 823488" d="M29.184,72.642l9.473,5.471L37.7,78.6l-9.473-5.471Z" transform="translate(32.611 83.935)" fill="#a97c50"/>
              <path id="Trazado_823489" data-name="Trazado 823489" d="M28.222,72.867v.77l9.437,5.589.037-.89Z" transform="translate(32.61 84.196)" fill="#8b5e3c"/>
              <path id="Trazado_823490" data-name="Trazado 823490" d="M32.6,76.553l1-.407V75.18l-.963.485Z" transform="translate(37.669 86.868)" fill="#8b5e3c"/>
              <path id="Trazado_823491" data-name="Trazado 823491" d="M30.022,53.778l8.074,4.57-.961.487-8.074-4.57Z" transform="translate(33.578 62.138)" fill="#a97c50"/>
              <path id="Trazado_823492" data-name="Trazado 823492" d="M29.06,54v.77L37.1,59.461l.037-.888Z" transform="translate(33.578 62.399)" fill="#8b5e3c"/>
              <path id="Trazado_823493" data-name="Trazado 823493" d="M32.789,57.271l1-.407V55.9l-.963.485Z" transform="translate(37.887 64.589)" fill="#8b5e3c"/>
              <path id="Trazado_823494" data-name="Trazado 823494" d="M34.831,99.406l-.5,8.236L27.147,103.5l-1.7-.979.5-8.242c.183-2.906,2.317-4.119,4.766-2.707a7.462,7.462,0,0,1,2.19,2.009,9.2,9.2,0,0,1,1.927,5.831" transform="translate(29.404 105.122)" fill="#2b2b2b"/>
              <path id="Trazado_823495" data-name="Trazado 823495" d="M33.92,98.519l-.5,8.236-7.184-4.147.457-7.568c.183-2.9,2.315-4.117,4.764-2.705a4.6,4.6,0,0,1,.537.354,9.2,9.2,0,0,1,1.927,5.831" transform="translate(30.315 106.009)" fill="#414042"/>
              <path id="Trazado_823496" data-name="Trazado 823496" d="M31.658,128.434l-17.38-7.745,17.933-76.3,17.382,7.745Zm-15.315-8.768,14.077,6.272L47.526,53.156,33.449,46.884Z" transform="translate(16.498 51.289)" fill="#414042"/>
              <path id="Trazado_823497" data-name="Trazado 823497" d="M23.008,131.2a1.778,1.778,0,0,1-1.731-2.183L41.3,43.824a1.777,1.777,0,0,1,3.46.815L24.737,129.827a1.777,1.777,0,0,1-1.729,1.371" transform="translate(24.531 49.053)" fill="#414042"/>
              <rect id="Rectángulo_376706" data-name="Rectángulo 376706" width="1.775" height="17.394" transform="translate(46.253 108.45) rotate(-66.466)" fill="#414042"/>
              <rect id="Rectángulo_376707" data-name="Rectángulo 376707" width="1.774" height="17.393" transform="translate(43.859 119.067) rotate(-66.466)" fill="#414042"/>
              <rect id="Rectángulo_376708" data-name="Rectángulo 376708" width="1.774" height="17.393" transform="translate(41.464 129.682) rotate(-66.466)" fill="#414042"/>
              <rect id="Rectángulo_376709" data-name="Rectángulo 376709" width="1.776" height="17.393" transform="matrix(0.399, -0.917, 0.917, 0.399, 39.07, 140.3)" fill="#414042"/>
              <rect id="Rectángulo_376710" data-name="Rectángulo 376710" width="1.775" height="17.395" transform="matrix(0.399, -0.917, 0.917, 0.399, 36.675, 150.915)" fill="#414042"/>
              <rect id="Rectángulo_376711" data-name="Rectángulo 376711" width="1.775" height="17.395" transform="matrix(0.399, -0.917, 0.917, 0.399, 34.281, 161.531)" fill="#414042"/>
              <path id="Trazado_823498" data-name="Trazado 823498" d="M57.413,68.915.325,34.9,4.6,12.519,61.687,46.534ZM2.08,34.11l54.206,32.3,3.647-19.084L5.727,15.026Z" transform="translate(0.376 14.465)" fill="#414042"/>
              <path id="Trazado_823499" data-name="Trazado 823499" d="M65.172,63.035a1.585,1.585,0,0,1-.806-.222L.771,24.917a1.577,1.577,0,0,1,1.614-2.709L65.98,60.1a1.577,1.577,0,0,1-.808,2.931" transform="translate(0.001 25.406)" fill="#414042"/>
              <rect id="Rectángulo_376712" data-name="Rectángulo 376712" width="20.983" height="1.577" transform="translate(48.497 77.25) rotate(-79.688)" fill="#414042"/>
              <rect id="Rectángulo_376713" data-name="Rectángulo 376713" width="20.983" height="1.577" transform="translate(40.652 72.468) rotate(-79.688)" fill="#414042"/>
              <rect id="Rectángulo_376714" data-name="Rectángulo 376714" width="20.983" height="1.577" transform="translate(32.806 67.687) rotate(-79.688)" fill="#414042"/>
              <rect id="Rectángulo_376715" data-name="Rectángulo 376715" width="20.983" height="1.577" transform="translate(24.961 62.906) rotate(-79.688)" fill="#414042"/>
              <rect id="Rectángulo_376716" data-name="Rectángulo 376716" width="20.983" height="1.577" transform="translate(17.117 58.125) rotate(-79.688)" fill="#414042"/>
              <rect id="Rectángulo_376717" data-name="Rectángulo 376717" width="20.983" height="1.577" transform="translate(9.272 53.344) rotate(-79.688)" fill="#414042"/>
              <path id="Trazado_823500" data-name="Trazado 823500" d="M34.177,38.766c-1.839-.323-3,1.013-2.58,3a5.626,5.626,0,0,0,4.085,4.156c1.854.328,3.011-1.009,2.6-2.979a5.632,5.632,0,0,0-4.1-4.175" transform="translate(36.412 44.737)" fill="#bcbec0"/>
              <path id="Trazado_823501" data-name="Trazado 823501" d="M33.254,52.71l7.488-7.344-4.992-6.6-6.96,6.973Z" transform="translate(33.266 44.788)" fill="#bcbec0"/>
              <path id="Trazado_823502" data-name="Trazado 823502" d="M30.96,41.948c-1.839-.323-3.011,1.009-2.593,2.994a5.666,5.666,0,0,0,4.1,4.175c1.854.328,3.007-1.024,2.593-2.994a5.632,5.632,0,0,0-4.1-4.175" transform="translate(32.68 48.414)" fill="#e6e7e8"/>
              <path id="Trazado_823503" data-name="Trazado 823503" d="M49.275,86.942,32.667,76.717,49.861.172,66.467,10.4Zm-14.6-11.075,13.409,8.258L64.458,11.247,51.047,2.989Z" transform="translate(37.746 0.199)" fill="#414042"/>
              <path id="Trazado_823504" data-name="Trazado 823504" d="M32.976,88.94a1.754,1.754,0,0,1-.392-.045,1.773,1.773,0,0,1-1.343-2.121L50.42,1.389a1.775,1.775,0,1,1,3.464.78L34.706,87.554a1.776,1.776,0,0,1-1.731,1.386" transform="translate(36.047 -0.001)" fill="#414042"/>
              <rect id="Rectángulo_376718" data-name="Rectángulo 376718" width="1.777" height="17.402" transform="matrix(0.522, -0.853, 0.853, 0.522, 73.353, 66.574)" fill="#414042"/>
              <rect id="Rectángulo_376719" data-name="Rectángulo 376719" width="1.777" height="17.402" transform="matrix(0.522, -0.853, 0.853, 0.522, 75.834, 55.979)" fill="#414042"/>
              <rect id="Rectángulo_376720" data-name="Rectángulo 376720" width="1.777" height="17.403" transform="matrix(0.522, -0.853, 0.853, 0.522, 78.314, 45.382)" fill="#414042"/>
              <rect id="Rectángulo_376721" data-name="Rectángulo 376721" width="1.777" height="17.403" transform="matrix(0.522, -0.853, 0.853, 0.522, 80.794, 34.786)" fill="#414042"/>
              <rect id="Rectángulo_376722" data-name="Rectángulo 376722" width="1.777" height="17.403" transform="matrix(0.522, -0.853, 0.853, 0.522, 83.275, 24.189)" fill="#414042"/>
              <rect id="Rectángulo_376723" data-name="Rectángulo 376723" width="1.778" height="17.402" transform="matrix(0.522, -0.853, 0.853, 0.522, 85.756, 13.595)" fill="#414042"/>
              <path id="Trazado_823505" data-name="Trazado 823505" d="M103.016,106.013,35.08,66.788l4.511-22.533L107.53,83.48ZM37.072,65.887l64.69,37.348,3.774-18.854L40.848,47.031Z" transform="translate(40.534 51.135)" fill="#414042"/>
              <path id="Trazado_823506" data-name="Trazado 823506" d="M109.806,88.848a1.766,1.766,0,0,1-.886-.239L33.134,44.855a1.777,1.777,0,0,1,1.776-3.078L110.7,85.533a1.776,1.776,0,0,1-.89,3.315" transform="translate(37.259 47.994)" fill="#414042"/>
              <rect id="Rectángulo_376724" data-name="Rectángulo 376724" width="21.327" height="1.776" transform="translate(85.212 122.997) rotate(-78.799)" fill="#414042"/>
              <rect id="Rectángulo_376725" data-name="Rectángulo 376725" width="21.328" height="1.775" transform="translate(94.686 128.353) rotate(-78.799)" fill="#414042"/>
              <rect id="Rectángulo_376726" data-name="Rectángulo 376726" width="21.327" height="1.776" transform="translate(104.159 133.709) rotate(-78.799)" fill="#414042"/>
              <rect id="Rectángulo_376727" data-name="Rectángulo 376727" width="21.327" height="1.776" transform="translate(113.632 139.065) rotate(-78.799)" fill="#414042"/>
              <rect id="Rectángulo_376728" data-name="Rectángulo 376728" width="21.327" height="1.776" transform="translate(123.106 144.421) rotate(-78.799)" fill="#414042"/>
              <rect id="Rectángulo_376729" data-name="Rectángulo 376729" width="21.328" height="1.775" transform="translate(132.579 149.777) rotate(-78.799)" fill="#414042"/>
            </g>
          </g>
        </g>
      </g>
    </g>
  </g>
</svg>
